<?xml version="1.0" encoding="utf-8"?>
<!-- Generator: Adobe Illustrator 27.5.0, SVG Export Plug-In . SVG Version: 6.00 Build 0)  -->
<svg version="1.1" id="Layer_2" xmlns="http://www.w3.org/2000/svg" xmlns:xlink="http://www.w3.org/1999/xlink" x="0px" y="0px"
	 viewBox="0 0 2000 2000" style="enable-background:new 0 0 2000 2000;" xml:space="preserve">
<style type="text/css">
	.st0{stroke:#000000;stroke-width:8;stroke-miterlimit:10;}
	.st1{fill:none;stroke:#000000;stroke-width:8;stroke-miterlimit:10;}
	.st2{fill:none;stroke:#000000;stroke-width:15;stroke-miterlimit:10;}
</style>
<g>
	<g>
		<path d="M1008.6,1909.1c-5-0.6-9.6-2.3-13.3-5c-4.4-3.2-6.9-7.4-6.9-11.8l-1.9-139.4c-0.1-8.3,8.5-15.6,19.8-17.3L1008.6,1909.1z"
			/>
		<path d="M1002.3,1740.8l2.2,163.4c-2.6-0.8-4.9-1.9-6.9-3.3c-2-1.4-5.2-4.4-5.3-8.6l-1.9-139.4
			C990.4,1747.8,995.4,1743,1002.3,1740.8 M1010.2,1731.4c-15.5,0.5-27.9,10.1-27.7,21.7l1.9,139.4c0.1,5.9,3.4,11.2,8.6,15
			c5.1,3.7,12,5.9,19.7,6L1010.2,1731.4L1010.2,1731.4z"/>
	</g>
	<g>
		<path d="M1015.4,1740.8c2.6,0.8,4.9,1.9,6.9,3.3c2,1.4,5.2,4.4,5.3,8.6l1.9,139.4c0.1,5.2-4.9,9.9-11.8,12.2L1015.4,1740.8
			 M1007.2,1731.6l2.5,182c15.5-0.5,27.9-10.1,27.7-21.7l-1.9-139.4c-0.1-5.9-3.4-11.2-8.6-15
			C1021.8,1733.9,1014.9,1731.6,1007.2,1731.6L1007.2,1731.6z"/>
	</g>
</g>
<g>
	<g>
		<path d="M1002.5,1607.2c-5-0.6-9.6-2.3-13.3-5c-4.4-3.2-6.9-7.4-6.9-11.8l-1.9-139.4c-0.1-8.3,8.5-15.6,19.8-17.3L1002.5,1607.2z"
			/>
		<path d="M996.3,1438.8l2.2,163.4c-2.6-0.8-4.9-1.9-6.9-3.3c-2-1.4-5.2-4.4-5.3-8.6l-1.9-139.4
			C984.3,1445.8,989.3,1441.1,996.3,1438.8 M1004.1,1429.4c-15.5,0.5-27.9,10.1-27.7,21.7l1.9,139.4c0.1,5.9,3.4,11.2,8.6,15
			c5.1,3.7,12,5.9,19.7,6L1004.1,1429.4L1004.1,1429.4z"/>
	</g>
	<g>
		<path d="M1009.3,1438.8c2.6,0.8,4.9,1.9,6.9,3.3c2,1.4,5.2,4.4,5.3,8.6l1.9,139.4c0.1,5.2-4.9,9.9-11.8,12.2L1009.3,1438.8
			 M1001.2,1429.7l2.5,182c15.5-0.5,27.9-10.1,27.7-21.7l-1.9-139.4c-0.1-5.9-3.4-11.2-8.6-15
			C1015.7,1432,1008.8,1429.7,1001.2,1429.7L1001.2,1429.7z"/>
	</g>
</g>
<g>
	<g>
		<path d="M1001.4,1301.1c-5-0.6-9.6-2.3-13.3-5c-4.4-3.2-6.9-7.4-6.9-11.8l-1.9-139.4c-0.1-8.3,8.5-15.6,19.8-17.3L1001.4,1301.1z"
			/>
		<path d="M995.1,1132.8l2.2,163.4c-2.6-0.8-4.9-1.9-6.9-3.3c-2-1.4-5.2-4.4-5.3-8.6l-1.9-139.4
			C983.2,1139.8,988.2,1135.1,995.1,1132.8 M1003,1123.4c-15.5,0.5-27.9,10.1-27.7,21.7l1.9,139.4c0.1,5.9,3.4,11.2,8.6,15
			c5.1,3.7,12,5.9,19.7,6L1003,1123.4L1003,1123.4z"/>
	</g>
	<g>
		<path d="M1008.2,1132.8c2.6,0.8,4.9,1.9,6.9,3.3c2,1.4,5.2,4.4,5.3,8.6l1.9,139.4c0.1,5.2-4.9,9.9-11.8,12.2L1008.2,1132.8
			 M1000,1123.6l2.5,182c15.5-0.5,27.9-10.1,27.7-21.7l-1.9-139.4c-0.1-5.9-3.4-11.2-8.6-15
			C1014.6,1125.9,1007.7,1123.7,1000,1123.6L1000,1123.6z"/>
	</g>
</g>
<g>
	<g>
		<path d="M993.4,1005.2c-5-0.6-9.6-2.3-13.3-5c-4.4-3.2-6.9-7.4-6.9-11.8l-1.9-139.4c-0.1-8.3,8.4-15.6,19.8-17.3L993.4,1005.2z"/>
		<path d="M987.1,836.9l2.2,163.4c-2.6-0.8-4.9-1.9-6.9-3.3c-2-1.4-5.2-4.4-5.3-8.6l-1.9-139.4C975.2,843.9,980.2,839.2,987.1,836.9
			 M995,827.5c-15.5,0.5-27.9,10.1-27.7,21.7l1.9,139.4c0.1,5.9,3.4,11.2,8.6,15c5.1,3.7,12,5.9,19.7,6L995,827.5L995,827.5z"/>
	</g>
	<g>
		<path d="M1000.2,836.9c2.6,0.8,4.9,1.9,6.9,3.3c2,1.4,5.2,4.4,5.3,8.6l1.9,139.4c0.1,5.2-4.9,9.9-11.8,12.2L1000.2,836.9
			 M992,827.7l2.5,182c15.5-0.5,27.9-10.1,27.7-21.7l-1.9-139.4c-0.1-5.9-3.4-11.2-8.6-15C1006.6,830,999.7,827.8,992,827.7
			L992,827.7z"/>
	</g>
</g>
<g>
	<g>
		<path d="M993.5,713.2c-5-0.6-9.6-2.3-13.3-5c-4.4-3.2-6.9-7.4-6.9-11.8l-1.9-139.4c-0.1-8.3,8.4-15.6,19.8-17.3L993.5,713.2z"/>
		<path d="M987.2,544.9l2.2,163.4c-2.6-0.8-4.9-1.9-6.9-3.3c-2-1.4-5.2-4.4-5.3-8.6L975.3,557C975.3,551.9,980.2,547.1,987.2,544.9
			 M995.1,535.5c-15.5,0.5-27.9,10.1-27.7,21.7l1.9,139.4c0.1,5.9,3.4,11.2,8.6,15c5.1,3.7,12,5.9,19.7,6L995.1,535.5L995.1,535.5z"
			/>
	</g>
	<g>
		<path d="M1000.2,544.9c2.6,0.8,4.9,1.9,6.9,3.3c2,1.4,5.2,4.4,5.3,8.6l1.9,139.4c0.1,5.2-4.9,9.9-11.8,12.2L1000.2,544.9
			 M992.1,535.7l2.5,182c15.5-0.5,27.9-10.1,27.7-21.7l-1.9-139.4c-0.1-5.9-3.4-11.2-8.6-15C1006.7,538,999.7,535.7,992.1,535.7
			L992.1,535.7z"/>
	</g>
</g>
<g>
	<g>
		<path d="M989.4,413.2c-5-0.6-9.6-2.3-13.3-5c-4.4-3.2-6.9-7.4-6.9-11.8l-1.9-139.4c-0.1-8.3,8.5-15.6,19.8-17.3L989.4,413.2z"/>
		<path d="M983.1,244.9l2.2,163.4c-2.6-0.8-4.9-1.9-6.9-3.3c-2-1.4-5.2-4.4-5.3-8.6l-1.9-139.4C971.2,251.9,976.2,247.2,983.1,244.9
			 M991,235.5c-15.5,0.5-27.9,10.1-27.7,21.7l1.9,139.4c0.1,5.9,3.4,11.2,8.6,15c5.1,3.7,12,5.9,19.7,6L991,235.5L991,235.5z"/>
	</g>
	<g>
		<path d="M996.2,244.9c2.6,0.8,4.9,1.9,6.9,3.3c2,1.4,5.2,4.4,5.3,8.6l1.9,139.4c0.1,5.2-4.9,9.9-11.8,12.2L996.2,244.9 M988,235.7
			l2.5,182c15.5-0.5,27.9-10.1,27.7-21.7l-1.9-139.4c-0.1-5.9-3.4-11.2-8.6-15C1002.6,238,995.7,235.8,988,235.7L988,235.7z"/>
	</g>
</g>
<g>
	<path class="st0" d="M985.7-16h-25L962,86.4l0.2,16.1c0,0.2,0,0.4,0,0.5c0.3,5.7,3.5,10.8,8.6,14.4c4.4,3.2,10.3,5.3,16.7,5.9
		c1,0.1,2,0.1,3,0.1L988.6-16"/>
	<path class="st1" d="M1013.6-17.5l0,1.5l1.4,100l0.2,12.4l0.1,5.6c0.2,11.6-12.2,21.2-27.7,21.7v-0.3L985.7-16"/>
</g>
<g>
	<path class="st2" d="M1028.9,1891.5c1.1,0.2,2.6,0.7,4.3,1.6c1.4,0.8,2.7,1.7,3.8,2.8c4.5,4.4,6.6,11,8.6,17
		c1.5,4.5,2.3,9.3,2.3,14.3l1.2,89.7"/>
	<path class="st2" d="M984.7,1881.7c-0.2,0-0.3,0.1-0.5,0.2c-19.6,6.4-33.7,25-33.4,46.8l1.2,88.4"/>
	<path class="st1" d="M1029.7,1880.1c2.6,0.5,5.1,1.2,7.6,2.1c6.4,2.4,12.1,6,16.9,10.7c8.9,8.7,14.5,20.7,14.7,34.1l1.2,90"/>
	<path class="st1" d="M984.9,1894.5c-0.1,0.1-0.2,0.2-0.3,0.3c-8.1,8.8-12.9,20.6-12.8,33.4l1.2,88.7"/>
</g>
<g>
	<path class="st2" d="M1029.2,1764.5c1.3-0.4,2.7-0.7,4-1.1c2.8-2.8,7.4-8.4,10.1-16.7c1.9-5.8,2.1-11,2-14.5l-1.4-106
		c-0.1-5-0.9-9.8-2.3-14.3c-2.4-7.4-5.1-15.9-12.3-19.8c-1.7-0.9-3.3-1.4-4.3-1.6"/>
	<path class="st2" d="M983.4,1779.6c-7.8-2.2-14.8-6.4-20.5-11.9c-8.9-8.7-14.5-20.7-14.7-34.1l-1.4-106
		c-0.3-21.9,14-40.6,33.9-46.9"/>
	<path class="st1" d="M1028.4,1780c21.9-4.9,38.2-24.6,37.9-48l-1.4-106c-0.2-13.4-5.8-25.4-14.7-34.1c-6.6-6.4-15.1-11-24.5-12.8"
		/>
	<path class="st1" d="M983.2,1766.7c-8.5-8.6-13.8-20.4-14-33.4l-1.4-106c-0.2-13,4.8-24.9,13-33.8"/>
</g>
<g>
	<path class="st2" d="M1028,1454.5c1.3-0.4,2.7-0.7,4-1.1c2.8-2.8,7.4-8.4,10.1-16.7c1.9-5.8,2.1-11,2-14.5l-1.4-106
		c-0.1-5-0.9-9.8-2.3-14.3c-2.4-7.4-5.1-15.9-12.3-19.8c-1.7-0.9-3.3-1.4-4.3-1.6"/>
	<path class="st2" d="M982.2,1469.6c-7.8-2.2-14.8-6.4-20.5-11.9c-8.9-8.7-14.5-20.7-14.7-34.1l-1.4-106
		c-0.3-21.9,14-40.6,33.9-46.9"/>
	<path class="st1" d="M1027.2,1470c21.9-4.9,38.2-24.6,37.9-48l-1.4-106c-0.2-13.4-5.8-25.4-14.7-34.1c-6.6-6.4-15.1-11-24.5-12.8"
		/>
	<path class="st1" d="M982,1456.7c-8.5-8.6-13.8-20.4-14-33.4l-1.4-106c-0.2-13,4.8-24.9,13-33.8"/>
</g>
<g>
	<path class="st2" d="M1022,1158.6c1.3-0.4,2.7-0.7,4-1.1c2.8-2.8,7.4-8.4,10.1-16.7c1.9-5.8,2.1-11,2-14.5l-1.4-106
		c-0.1-5-0.9-9.8-2.3-14.3c-2.4-7.4-5.1-15.9-12.3-19.8c-1.7-0.9-3.3-1.4-4.3-1.6"/>
	<path class="st2" d="M976.2,1173.6c-7.8-2.2-14.8-6.4-20.5-11.9c-8.9-8.7-14.5-20.7-14.7-34.1l-1.4-106
		c-0.3-21.9,14-40.6,33.9-46.9"/>
	<path class="st1" d="M1021.2,1174c21.9-4.9,38.2-24.6,37.9-48l-1.4-106c-0.2-13.4-5.8-25.4-14.7-34.1c-6.6-6.4-15.1-11-24.5-12.8"
		/>
	<path class="st1" d="M976,1160.8c-8.5-8.6-13.8-20.4-14-33.4l-1.4-106c-0.2-13,4.8-24.9,13-33.8"/>
</g>
<g>
	<path class="st2" d="M1020,862.6c1.3-0.4,2.7-0.7,4-1.1c2.8-2.8,7.4-8.4,10.1-16.7c1.9-5.8,2.1-11,2-14.5l-1.4-106
		c-0.1-5-0.9-9.8-2.3-14.3c-2.4-7.4-5.1-15.9-12.3-19.8c-1.7-0.9-3.3-1.4-4.3-1.6"/>
	<path class="st2" d="M974.2,877.6c-7.8-2.2-14.8-6.4-20.5-11.9c-8.9-8.7-14.5-20.7-14.7-34.1l-1.4-106c-0.3-21.9,14-40.6,33.9-46.9
		"/>
	<path class="st1" d="M1019.2,878c21.9-4.9,38.2-24.6,37.9-48l-1.4-106c-0.2-13.4-5.8-25.4-14.7-34.1c-6.6-6.4-15.1-11-24.5-12.8"/>
	<path class="st1" d="M974,864.8c-8.5-8.6-13.8-20.4-14-33.4l-1.4-106c-0.2-13,4.8-24.9,13-33.8"/>
</g>
<g>
	<path class="st2" d="M1015.9,561.6c1.3-0.4,2.7-0.7,4-1.1c2.8-2.8,7.4-8.4,10.1-16.7c1.9-5.8,2.1-11,2-14.5l-1.4-106
		c-0.1-5-0.9-9.8-2.3-14.3c-2.4-7.4-5.1-15.9-12.3-19.8c-1.7-0.9-3.3-1.4-4.3-1.6"/>
	<path class="st2" d="M970.1,576.6c-7.8-2.2-14.8-6.4-20.5-11.9c-8.9-8.7-14.5-20.7-14.7-34.1l-1.4-106c-0.3-21.9,14-40.6,33.9-46.9
		"/>
	<path class="st1" d="M1015.1,577.1c21.9-4.9,38.2-24.6,37.9-48l-1.4-106c-0.2-13.4-5.8-25.4-14.7-34.1c-6.6-6.4-15.1-11-24.5-12.8"
		/>
	<path class="st1" d="M969.9,563.8c-8.5-8.6-13.8-20.4-14-33.4l-1.4-106c-0.2-13,4.8-24.9,13-33.8"/>
</g>
<g>
	<path class="st2" d="M1015,268.6c1.3-0.4,2.7-0.7,4-1.1c2.8-2.8,7.4-8.4,10.1-16.7c1.9-5.8,2.1-11,2-14.5l-1.4-106
		c-0.1-5-0.9-9.8-2.3-14.3c-2.4-7.4-5.1-15.9-12.3-19.8c-1.7-0.9-3.3-1.4-4.3-1.6"/>
	<path class="st2" d="M969.2,283.6c-7.8-2.2-14.8-6.4-20.5-11.9c-8.9-8.7-14.5-20.7-14.7-34.1l-1.4-106c-0.3-21.9,14-40.6,33.9-46.9
		"/>
	<path class="st1" d="M1014.2,284c21.9-4.9,38.2-24.6,37.9-48l-1.4-106c-0.2-13.4-5.8-25.4-14.7-34.1c-6.6-6.4-15.1-11-24.5-12.8"/>
	<path class="st1" d="M969,270.8c-8.5-8.6-13.8-20.4-14-33.4l-1.4-106c-0.2-13,4.8-24.9,13-33.8"/>
</g>
</svg>
