<?xml version="1.0" encoding="utf-8"?>
<!-- Generator: Adobe Illustrator 27.5.0, SVG Export Plug-In . SVG Version: 6.00 Build 0)  -->
<svg version="1.1" id="Layer_1" xmlns="http://www.w3.org/2000/svg" xmlns:xlink="http://www.w3.org/1999/xlink" x="0px" y="0px"
	 viewBox="0 0 2000 2000" style="enable-background:new 0 0 2000 2000;" xml:space="preserve">
<style type="text/css">
	.st0{stroke:#000000;stroke-miterlimit:10;}
</style>
<path class="st0" d="M839.6,865.4c-6-7.9-118.9,65.1-225.5,142c-193.9,139.8-318.9,229.9-440.9,389.5
	c-53.7,70.2-139,196-162.3,362.4c-3.3,23.3-18,128.7,16.2,143.3c22.4,9.6,46-28.1,115.6-75.6c83.1-56.7,161.4-79.4,214.4-94.8
	c52.2-15.2,95.5-21.9,165-29.8c306.7-34.6,308.8,1.5,397.6-32.5c129.5-49.5,204.1-156.5,275.9-259.6
	c71.2-102.2,103.3-192.6,92-200.1c-7.9-5.2-32,32.6-83.8,40.6c-23,3.5-42-0.3-54.1-2.7c-24.7-4.9-55.3-11.1-75.7-35.2
	c-31.3-36.9-17.3-90.6-16.2-94.7c4.4-15.8,13.7-35.8,92-100.1c44.8-36.8,67.2-55.2,92.8-70.3c48.9-28.8,128.6-75.7,166.8-46
	c26.4,20.5,23.6,70.2,13.5,100.1c-0.8,2.4-19.3,54.4-67.6,70.3c-45.8,15.1-86.8-12.8-92-2.7c-4.1,8,17.4,33.7,46,43.3
	c9.6,3.2,50.2,14.8,119-32.5c179.7-123.3,302.9-367.8,302.9-367.8c138.1-274,280.1-608.9,262.4-616.7c-8-3.5-33.5,67.1-102.8,170.4
	c-178.8,266.7-426.9,419.2-570.7,505.8c-120.4,72.5-142.7,71.3-286.7,162.3c-196.7,124.3-278,204-321.9,305.6
	c-34.3,79.6-39.2,157.6-13.5,197.4c3,4.7,15.2,23.6,27,21.6c13.5-2.2,10.7-29.2,29.8-56.8c17.7-25.7,50.9-47,86.6-46
	c8.6,0.2,39.8,1.1,54.1,21.6c23.8,34-15.9,97.3-37.9,124.4c-57.9,71.6-144.8,80.3-154.2,81.1c-17.2,1.5-97.7,8.3-159.6-48.7
	c-60-55.3-61.5-132.8-62.2-170.4c-1.7-87.1,36.3-151.2,59.5-189.3c20.5-33.6,37.6-51.8,140.6-151.5
	C810.4,899.1,843.1,869.9,839.6,865.4z"/>
</svg>
