<?xml version="1.0" encoding="utf-8"?>
<!-- Generator: Adobe Illustrator 27.5.0, SVG Export Plug-In . SVG Version: 6.00 Build 0)  -->
<svg version="1.1" id="Layer_1" xmlns="http://www.w3.org/2000/svg" xmlns:xlink="http://www.w3.org/1999/xlink" x="0px" y="0px"
	 viewBox="0 0 256 256" style="enable-background:new 0 0 256 256;" xml:space="preserve">
<style type="text/css">
	.st0{fill:none;stroke:#000000;stroke-width:3;stroke-miterlimit:10;}
	.st1{fill:none;stroke:#000000;stroke-width:6;stroke-miterlimit:10;}
</style>
<g>
	<g>
		<image style="overflow:visible;" width="223" height="220" xlink:href="2D950C09.png"  transform="matrix(1 0 0 1 15 17)">
		</image>
	</g>
	<ellipse class="st0" cx="128" cy="128" rx="123.8" ry="118.1"/>
	<line class="st0" x1="128" y1="9.9" x2="128" y2="101.4"/>
	<line class="st0" x1="157" y1="13.7" x2="141.8" y2="96.5"/>
	<line class="st0" x1="187.2" y1="24.7" x2="146.9" y2="98.5"/>
	<line class="st0" x1="97.4" y1="14.1" x2="116.3" y2="96.1"/>
	<line class="st0" x1="66.7" y1="25.4" x2="109.1" y2="99.3"/>
	<line class="st0" x1="39.6" y1="45.3" x2="102.1" y2="104.7"/>
	<line class="st0" x1="21.8" y1="67.4" x2="96.8" y2="111.8"/>
	<line class="st0" x1="8.2" y1="98.4" x2="93.8" y2="118.9"/>
	<line class="st1" x1="3.2" y1="124.7" x2="252.8" y2="129.4"/>
	<line class="st0" x1="208.4" y1="38.2" x2="148.2" y2="108.6"/>
	<line class="st0" x1="230.1" y1="61.2" x2="151.9" y2="114.9"/>
	<line class="st0" x1="246.6" y1="94.1" x2="154.5" y2="120.9"/>
	<line class="st0" x1="246.1" y1="163.4" x2="154.5" y2="136"/>
	<line class="st0" x1="231.3" y1="193.1" x2="151.8" y2="140.7"/>
	<line class="st0" x1="143.1" y1="145.3" x2="214.2" y2="213.3"/>
	<line class="st0" x1="190.7" y1="229.2" x2="136.8" y2="148.3"/>
	<line class="st0" x1="132.7" y1="149.7" x2="155.2" y2="243.2"/>
	<line class="st0" x1="126.6" y1="155.6" x2="126.2" y2="246.1"/>
	<line class="st0" x1="120.3" y1="150.4" x2="93.1" y2="241.3"/>
	<line class="st0" x1="113.6" y1="149.7" x2="65.3" y2="229.1"/>
	<line class="st0" x1="108.2" y1="147.9" x2="43.2" y2="213.2"/>
	<line class="st0" x1="103.5" y1="141" x2="22" y2="189.1"/>
	<line class="st0" x1="93.5" y1="136.1" x2="10.3" y2="164.7"/>
</g>
</svg>
