<?xml version="1.0" encoding="utf-8"?>
<!-- Generator: Adobe Illustrator 27.5.0, SVG Export Plug-In . SVG Version: 6.00 Build 0)  -->
<svg version="1.1" id="Layer_1" xmlns="http://www.w3.org/2000/svg" xmlns:xlink="http://www.w3.org/1999/xlink" x="0px" y="0px"
	 viewBox="0 0 2000 2000" style="enable-background:new 0 0 2000 2000;" xml:space="preserve">
<style type="text/css">
	.st0{fill:#AEFF00;}
</style>
<g>
	<path class="st0" d="M53.9,905.4c-16.7,0-30.2,13.5-30.2,30.2s13.5,30.2,30.2,30.2c11.4,0,21.3-6.3,26.4-15.5
		c0.6-1.2,1.2-2.3,1.7-3.6c1.4-3.4,2.1-7.2,2.1-11.1C84.1,919,70.6,905.4,53.9,905.4z M67.5,944.3c-2.8,4.5-7.9,7.5-13.6,7.5
		c-8.9,0-16.2-7.2-16.2-16.2c0-8.9,7.2-16.2,16.2-16.2c8.9,0,16.2,7.2,16.2,16.2c0,1.8-0.3,3.5-0.8,5.1
		C68.8,942,68.2,943.2,67.5,944.3z"/>
	<path class="st0" d="M506.8,885.8c-16.7,0-30.2,13.5-30.2,30.2c0,8.6,3.6,16.4,9.4,21.9c1,0.9,2,1.8,3,2.5c5,3.6,11.1,5.8,17.8,5.8
		c13,0,24.1-8.2,28.4-19.8c0.5-1.2,0.8-2.5,1.1-3.8c0.5-2.1,0.7-4.4,0.7-6.6C537.1,899.4,523.5,885.8,506.8,885.8z M521.7,922.5
		c-2.5,5.7-8.2,9.7-14.8,9.7c-3.2,0-6.2-0.9-8.7-2.6c-1.1-0.7-2.1-1.6-3-2.5c-2.7-2.9-4.4-6.8-4.4-11.1c0-8.9,7.2-16.2,16.2-16.2
		c8.9,0,16.2,7.2,16.2,16.2c0,0.9-0.1,1.8-0.2,2.6C522.6,920.1,522.2,921.3,521.7,922.5z"/>
	<path class="st0" d="M388.3,1062c-1-0.9-2-1.8-3-2.5c-5-3.6-11.1-5.8-17.8-5.8c-11.4,0-21.3,6.3-26.4,15.6
		c-0.6,1.2-1.2,2.3-1.7,3.6c-1.4,3.4-2.1,7.2-2.1,11.1c0,16.7,13.5,30.2,30.2,30.2c16.7,0,30.2-13.5,30.2-30.2
		C397.7,1075.3,394.1,1067.5,388.3,1062z M367.5,1100.1c-8.9,0-16.2-7.2-16.2-16.2c0-1.8,0.3-3.5,0.8-5.1c0.4-1.3,1-2.5,1.7-3.6
		c2.9-4.5,7.9-7.5,13.6-7.5c3.2,0,6.2,0.9,8.7,2.6c1.1,0.7,2.1,1.6,3,2.5c2.7,2.9,4.4,6.8,4.4,11.1
		C383.6,1092.8,376.4,1100.1,367.5,1100.1z"/>
	<path class="st0" d="M833.1,982.2c-13,0-24.1,8.2-28.4,19.8c-0.5,1.2-0.8,2.5-1.1,3.8c-0.5,2.1-0.7,4.4-0.7,6.7
		c0,16.7,13.5,30.2,30.2,30.2c15.3,0,28-11.4,30-26.2c0.2-1.3,0.3-2.6,0.3-4v0C863.3,995.8,849.8,982.2,833.1,982.2z M849.2,1012.5
		c0,1-0.1,2.1-0.3,3c-1.4,7.5-8,13.1-15.9,13.1c-8.9,0-16.2-7.2-16.2-16.2c0-0.9,0.1-1.8,0.2-2.7c0.2-1.3,0.6-2.6,1.1-3.8
		c2.5-5.7,8.2-9.7,14.8-9.7c8.6,0,15.7,6.8,16.1,15.3C849.2,1011.9,849.2,1012.2,849.2,1012.5z"/>
	<path class="st0" d="M1345.2,1039.8c-0.2-1.3-0.5-2.6-0.9-3.8c-3.8-12.3-15.3-21.2-28.8-21.2c-15.3,0-28,11.4-30,26.2
		c-0.2,1.3-0.3,2.6-0.3,3.9v0.1c0,16.7,13.5,30.2,30.2,30.2c16.7,0,30.2-13.5,30.2-30.2C1345.7,1043.2,1345.5,1041.5,1345.2,1039.8z
		 M1315.4,1061.2c-8.6,0-15.7-6.8-16.1-15.3c0-0.3,0-0.6,0-0.9c0-1.1,0.1-2.1,0.3-3.1c1.4-7.5,8-13.1,15.9-13.1
		c6.9,0,12.8,4.3,15.1,10.4c0.5,1.2,0.8,2.5,0.9,3.8c0.1,0.6,0.1,1.2,0.1,1.9C1331.6,1053.9,1324.3,1061.2,1315.4,1061.2z"/>
	<path class="st0" d="M1686.5,924.5c-16.7,0-30.2,13.5-30.2,30.2c0,1.8,0.2,3.5,0.4,5.2c0.2,1.3,0.5,2.6,0.9,3.8
		c3.8,12.3,15.3,21.2,28.8,21.2c12.7,0,23.6-7.8,28.1-18.9c0.5-1.2,0.9-2.5,1.2-3.8c0.6-2.4,0.9-4.9,0.9-7.5
		C1716.7,938,1703.2,924.5,1686.5,924.5z M1701.1,961.6c-2.6,5.5-8.2,9.3-14.6,9.3c-6.9,0-12.8-4.3-15.1-10.4
		c-0.5-1.2-0.8-2.5-0.9-3.8c-0.1-0.6-0.1-1.2-0.1-1.9c0-8.9,7.2-16.2,16.2-16.2c8.9,0,16.2,7.2,16.2,16.2c0,1.1-0.1,2.1-0.3,3.1
		C1702.1,959.1,1701.7,960.4,1701.1,961.6z"/>
	<path class="st0" d="M1946.1,1009.7c-12.7,0-23.6,7.8-28.1,18.9c-0.5,1.2-0.9,2.5-1.2,3.8c-0.6,2.4-0.9,4.9-0.9,7.5
		c0,16.7,13.5,30.2,30.2,30.2c16.7,0,30.2-13.5,30.2-30.2S1962.8,1009.7,1946.1,1009.7z M1946.1,1056.1c-8.9,0-16.2-7.2-16.2-16.2
		c0-1.1,0.1-2.1,0.3-3.1c0.3-1.3,0.7-2.6,1.2-3.8c2.6-5.5,8.2-9.3,14.6-9.3c8.9,0,16.2,7.2,16.2,16.2
		C1962.3,1048.9,1955,1056.1,1946.1,1056.1z"/>
	<path class="st0" d="M341,1069.2l12.8,6c-0.7,1.1-1.3,2.3-1.7,3.6l-12.8-6l-259-122.4l-12.8-6c0.7-1.1,1.3-2.3,1.7-3.6l12.8,6
		L341,1069.2z"/>
	<path class="st0" d="M498.1,929.7l-9,10.9L388.3,1062l-9,10.9c-0.9-1-1.9-1.8-3-2.5l9-10.9L486,938l9-10.9
		C496,928.1,497,929,498.1,929.7z"/>
	<path class="st0" d="M804.7,1002l13.6,4c-0.5,1.2-0.9,2.5-1.1,3.8l-13.6-4l-268.4-79.3l-13.6-4c0.5-1.2,0.9-2.5,1.1-3.8l13.5,4
		L804.7,1002z"/>
	<path class="st0" d="M1299.6,1041.9c-0.2,1-0.3,2-0.3,3.1c0,0.3,0,0.6,0,0.9l-14.1-0.9l-422.1-28.5l-14.1-1c0.2-1,0.3-2,0.3-3
		c0-0.3,0-0.6,0-0.9l14.1,1l422.1,28.5L1299.6,1041.9z"/>
	<path class="st0" d="M1670.5,956.5c0.2,1.3,0.5,2.6,0.9,3.8l-13.8,3.3l-312.4,76l-13.7,3.3c-0.2-1.3-0.5-2.6-0.9-3.8l13.7-3.3
		l312.4-76L1670.5,956.5z"/>
	<path class="st0" d="M1931.5,1033.1c-0.6,1.2-1,2.4-1.2,3.8l-13.4-4.4L1714.5,966l-13.4-4.4c0.6-1.2,1-2.4,1.2-3.8l13.4,4.4
		l202.3,66.5L1931.5,1033.1z"/>
</g>
</svg>
