<?xml version="1.0" encoding="utf-8"?>
<!-- Generator: Adobe Illustrator 27.5.0, SVG Export Plug-In . SVG Version: 6.00 Build 0)  -->
<svg version="1.1" id="Layer_1" xmlns="http://www.w3.org/2000/svg" xmlns:xlink="http://www.w3.org/1999/xlink" x="0px" y="0px"
	 viewBox="0 0 2000 2000" style="enable-background:new 0 0 2000 2000;" xml:space="preserve">
<style type="text/css">
	.st0{fill:#4243AE;}
	.st1{opacity:0.25;fill:#4243AE;enable-background:new    ;}
</style>
<g>
	<polygon class="st0" points="24,1000 371.8,1000 351.1,1020.8 24,1020.8 	"/>
	<polygon class="st0" points="398.9,1000 452,1000 431.3,1020.8 378.2,1020.8 	"/>
	<polygon class="st0" points="479.1,1000 533.5,1000 512.7,1020.8 458.4,1020.8 	"/>
	<polygon class="st0" points="560.6,1000 1460.2,1000 1439.4,1020.8 539.8,1020.8 	"/>
	<polygon class="st0" points="1487.3,1000 1541.6,1000 1520.9,1020.8 1466.5,1020.8 	"/>
	<polygon class="st0" points="1568.7,1000 1621.8,1000 1601.1,1020.8 1548,1020.8 	"/>
	<polygon class="st0" points="1976,1000 1976,1020.8 1628.2,1020.8 1648.9,1000 	"/>
	<polygon class="st1" points="24,979.2 392.6,979.2 371.8,1000 24,1000 	"/>
	<polygon class="st1" points="419.7,979.2 472.8,979.2 452,1000 398.9,1000 	"/>
	<polygon class="st1" points="499.9,979.2 554.2,979.2 533.5,1000 479.1,1000 	"/>
	<polygon class="st1" points="581.3,979.2 1480.9,979.2 1460.2,1000 560.6,1000 	"/>
	<polygon class="st1" points="1508,979.2 1562.4,979.2 1541.6,1000 1487.3,1000 	"/>
	<polygon class="st1" points="1589.5,979.2 1642.6,979.2 1621.8,1000 1568.7,1000 	"/>
	<polygon class="st1" points="1976,979.2 1976,1000 1648.9,1000 1669.7,979.2 	"/>
</g>
</svg>
