<?xml version="1.0" encoding="utf-8"?>
<!-- Generator: Adobe Illustrator 27.5.0, SVG Export Plug-In . SVG Version: 6.00 Build 0)  -->
<svg version="1.1" id="Layer_1" xmlns="http://www.w3.org/2000/svg" xmlns:xlink="http://www.w3.org/1999/xlink" x="0px" y="0px"
	 viewBox="0 0 2000 2000" style="enable-background:new 0 0 2000 2000;" xml:space="preserve">
<style type="text/css">
	.st0{opacity:0.25;}
</style>
<g>
	<polygon points="24.26,1000 371.97,1000 351.22,1020.75 24.26,1020.75 	"/>
	<polygon points="399.07,1000 452.17,1000 431.41,1020.75 378.31,1020.75 	"/>
	<polygon points="479.26,1000 533.59,1000 512.84,1020.75 458.51,1020.75 	"/>
	<polygon points="560.69,1000 1460.07,1000 1439.31,1020.75 539.93,1020.75 	"/>
	<polygon points="1487.16,1000 1541.49,1000 1520.74,1020.75 1466.41,1020.75 	"/>
	<polygon points="1568.59,1000 1621.69,1000 1600.93,1020.75 1547.83,1020.75 	"/>
	<polygon points="1975.74,1000 1975.74,1020.75 1628.03,1020.75 1648.78,1000 	"/>
	<polygon class="st0" points="24.26,979.25 392.73,979.25 371.97,1000 24.26,1000 	"/>
	<polygon class="st0" points="419.82,979.25 472.92,979.25 452.17,1000 399.07,1000 	"/>
	<polygon class="st0" points="500.02,979.25 554.35,979.25 533.59,1000 479.26,1000 	"/>
	<polygon class="st0" points="581.44,979.25 1480.82,979.25 1460.07,1000 560.69,1000 	"/>
	<polygon class="st0" points="1507.92,979.25 1562.25,979.25 1541.49,1000 1487.16,1000 	"/>
	<polygon class="st0" points="1589.34,979.25 1642.44,979.25 1621.69,1000 1568.59,1000 	"/>
	<polygon class="st0" points="1975.74,979.25 1975.74,1000 1648.78,1000 1669.54,979.25 	"/>
</g>
</svg>
