<?xml version="1.0" encoding="utf-8"?>
<!-- Generator: Adobe Illustrator 27.5.0, SVG Export Plug-In . SVG Version: 6.00 Build 0)  -->
<svg version="1.1" id="Layer_1" xmlns="http://www.w3.org/2000/svg" xmlns:xlink="http://www.w3.org/1999/xlink" x="0px" y="0px"
	 viewBox="0 0 2000 2000" style="enable-background:new 0 0 2000 2000;" xml:space="preserve">
<style type="text/css">
	.st0{fill:none;stroke:#000000;stroke-miterlimit:10;}
	.st1{opacity:0.12;}
	.st2{opacity:0.2;}
	.st3{opacity:0.3;}
	.st4{opacity:0.5;}
	.st5{opacity:0.6;}
	.st6{opacity:0.8;}
	.st7{opacity:0.9;}
	.st8{fill:none;stroke:#FFFFFF;stroke-width:5;}
</style>
<g>
	<g>
		<g>
			<g>
				<polygon class="st0" points="33.7,186.6 1146,990.3 33.7,1813.4 				"/>
				<polyline class="st0" points="33.7,186.6 717.8,981.9 33.7,1813.4 				"/>
			</g>
		</g>
		<polyline class="st0" points="934.7,534.2 1560.3,984.7 962.5,1435.2 		"/>
		<polyline class="st0" points="1560.3,681.6 1966.3,984.7 1560.3,1318.4 		"/>
	</g>
	<g class="st1">
		<image style="overflow:visible;" width="2163" height="1936" xlink:href="1CA73B6C.png"  transform="matrix(1 0 0 1 -63 33)">
		</image>
	</g>
	<g class="st2">
		<image style="overflow:visible;" width="2137" height="1897" xlink:href="1CA73B6D.png"  transform="matrix(1 0 0 1 -53 52)">
		</image>
	</g>
	<g class="st3">
		<image style="overflow:visible;" width="2111" height="1857" xlink:href="1CA73B6B.png"  transform="matrix(1 0 0 1 -43 72)">
		</image>
	</g>
	<g class="st4">
		<image style="overflow:visible;" width="2084" height="1818" xlink:href="1CA73B74.png"  transform="matrix(1 0 0 1 -33 91)">
		</image>
	</g>
	<g class="st5">
		<image style="overflow:visible;" width="2058" height="1779" xlink:href="1CA73B77.png"  transform="matrix(1 0 0 1 -23 111)">
		</image>
	</g>
	<g class="st6">
		<image style="overflow:visible;" width="2032" height="1739" xlink:href="1CA73B75.png"  transform="matrix(1 0 0 1 -13 131)">
		</image>
	</g>
	<g class="st7">
		<image style="overflow:visible;" width="2019" height="1720" xlink:href="1CA73B7B.png"  transform="matrix(1 0 0 1 -8 140)">
		</image>
	</g>
	<g>
		<g>
			<g>
				<polygon class="st8" points="33.7,186.6 1146,990.3 33.7,1813.4 				"/>
				<polyline class="st8" points="33.7,186.6 717.8,981.9 33.7,1813.4 				"/>
			</g>
			<g>
				<polygon class="st8" points="33.7,186.6 1146,990.3 33.7,1813.4 				"/>
				<polyline class="st8" points="33.7,186.6 717.8,981.9 33.7,1813.4 				"/>
			</g>
			<g>
				<polygon class="st8" points="33.7,186.6 1146,990.3 33.7,1813.4 				"/>
				<polyline class="st8" points="33.7,186.6 717.8,981.9 33.7,1813.4 				"/>
			</g>
		</g>
		<polyline class="st8" points="934.7,534.2 1560.3,984.7 962.5,1435.2 		"/>
		<polyline class="st8" points="1560.3,681.6 1966.3,984.7 1560.3,1318.4 		"/>
	</g>
</g>
</svg>
