<?xml version="1.0" encoding="utf-8"?>
<!-- Generator: Adobe Illustrator 27.5.0, SVG Export Plug-In . SVG Version: 6.00 Build 0)  -->
<svg version="1.1" id="Layer_1" xmlns="http://www.w3.org/2000/svg" xmlns:xlink="http://www.w3.org/1999/xlink" x="0px" y="0px"
	 viewBox="0 0 2000 2000" style="enable-background:new 0 0 2000 2000;" xml:space="preserve">
<style type="text/css">
	.st0{fill:#13FF00;}
</style>
<g>
	<path class="st0" d="M771.05,793.73V1097h303.28V793.73H771.05z M1025.34,1048.01h-205.3v-205.3h205.3V1048.01z"/>
	<polygon class="st0" points="1175.19,872.24 1074.33,872.24 1074.33,855.55 1168.28,855.55 1413.13,610.7 1997.24,610.7 
		1997.24,627.39 1420.04,627.39 	"/>
	<polygon class="st0" points="1997.24,1148.45 1825,1148.45 1665.4,988.85 1072.35,988.85 1072.35,972.17 1672.31,972.17 
		1831.91,1131.77 1997.24,1131.77 	"/>
	<polygon class="st0" points="660.73,1882.56 644.04,1882.56 644.04,1475.52 859.84,1259.72 859.84,1097 876.53,1097 
		876.53,1266.64 660.73,1482.44 	"/>
	<polygon class="st0" points="1035.41,1843.84 1018.73,1843.84 1018.73,1541.57 935.48,1458.33 935.48,1097 952.17,1097 
		952.17,1451.42 1035.41,1534.66 	"/>
	<polygon class="st0" points="333.01,1127.58 169.62,1127.58 169.62,1110.9 326.11,1110.9 473.18,963.82 771.05,963.82 
		771.05,980.51 480.09,980.51 	"/>
	<polygon class="st0" points="771.05,881.33 388.64,881.33 241.12,733.82 2.76,733.82 2.76,717.13 248.03,717.13 395.55,864.64 
		771.05,864.64 	"/>
	<polygon class="st0" points="974.42,793.73 957.73,793.73 957.73,518.89 1123.47,353.15 1123.47,117.44 1140.16,117.44 
		1140.16,360.06 974.42,525.8 	"/>
	<polygon class="st0" points="876.53,799.23 859.84,799.23 859.84,648.16 660.73,449.05 660.73,157.49 677.41,157.49 677.41,442.13 
		876.53,641.25 	"/>
</g>
</svg>
