<?xml version="1.0" encoding="utf-8"?>
<!-- Generator: Adobe Illustrator 27.5.0, SVG Export Plug-In . SVG Version: 6.00 Build 0)  -->
<svg version="1.1" id="Layer_2" xmlns="http://www.w3.org/2000/svg" xmlns:xlink="http://www.w3.org/1999/xlink" x="0px" y="0px"
	 viewBox="0 0 2000 2000" style="enable-background:new 0 0 2000 2000;" xml:space="preserve">
<style type="text/css">
	.st0{fill:none;stroke:#000000;stroke-width:25;stroke-miterlimit:10;}
	.st1{fill:none;stroke:#000000;stroke-width:32;stroke-miterlimit:10;}
	.st2{fill:none;stroke:#000000;stroke-width:30;stroke-miterlimit:10;}
</style>
<line class="st0" x1="231.3" y1="661.6" x2="236.9" y2="1083.3"/>
<line class="st0" x1="282.2" y1="661.6" x2="287.9" y2="1083.3"/>
<line class="st0" x1="978.5" y1="661.6" x2="984.1" y2="1083.3"/>
<line class="st0" x1="1054.9" y1="660.6" x2="1060.5" y2="1082.3"/>
<line class="st0" x1="1739.9" y1="661.6" x2="1745.5" y2="1083.3"/>
<line class="st0" x1="1807.8" y1="661.6" x2="1813.5" y2="1083.3"/>
<line class="st0" x1="353" y1="667.3" x2="358.6" y2="939"/>
<line class="st0" x1="427.2" y1="667.3" x2="432.8" y2="939"/>
<line class="st1" x1="497.9" y1="667.3" x2="503.6" y2="939"/>
<line class="st2" x1="589.9" y1="664.1" x2="595.6" y2="935.8"/>
<line class="st0" x1="681.9" y1="664.1" x2="687.5" y2="935.8"/>
<line class="st0" x1="738.2" y1="664.1" x2="743.8" y2="935.8"/>
<line class="st0" x1="779.2" y1="664.1" x2="784.9" y2="935.8"/>
<line class="st0" x1="830.2" y1="661" x2="835.8" y2="932.7"/>
<line class="st0" x1="878.8" y1="661" x2="884.5" y2="932.7"/>
<line class="st0" x1="911.5" y1="661.3" x2="917.1" y2="933"/>
<line class="st0" x1="1118.9" y1="657" x2="1124.5" y2="928.7"/>
<line class="st0" x1="1164.9" y1="657" x2="1170.5" y2="928.7"/>
<line class="st0" x1="1239" y1="661" x2="1244.7" y2="932.7"/>
<line class="st0" x1="1309.4" y1="661.3" x2="1315" y2="933"/>
<line class="st0" x1="1380" y1="661.3" x2="1385.7" y2="933"/>
<line class="st0" x1="1507.5" y1="667.3" x2="1513.2" y2="939"/>
<line class="st0" x1="1585.1" y1="664.1" x2="1590.8" y2="935.8"/>
<line class="st0" x1="1660.3" y1="664.1" x2="1666" y2="935.8"/>
<line class="st0" x1="1430.4" y1="657" x2="1436.1" y2="928.7"/>
<g>
	<g>
		<path d="M105.6,1102.3v-70.6c0-18.7,9.4-28.1,28.1-28.1h26.5c18.7,0,28.1,9.4,28.1,28.1v70.6c0,18.7-9.4,28.1-28.1,28.1h-26.5
			C114.9,1130.4,105.6,1121,105.6,1102.3z M121,1103.9c0,8.3,4.2,12.5,12.5,12.5h26.8c8.3,0,12.5-4.2,12.5-12.5V1030
			c0-8.3-4.2-12.5-12.5-12.5h-26.8c-8.3,0-12.5,4.2-12.5,12.5V1103.9z"/>
	</g>
</g>
<g>
	<g>
		<path d="M1852.3,1102.3v-70.6c0-18.7,9.4-28.1,28.1-28.1h26.5c18.7,0,28.1,9.4,28.1,28.1v70.6c0,18.7-9.4,28.1-28.1,28.1h-26.5
			C1861.7,1130.4,1852.3,1121,1852.3,1102.3z M1867.8,1103.9c0,8.3,4.2,12.5,12.5,12.5h26.8c8.3,0,12.5-4.2,12.5-12.5V1030
			c0-8.3-4.2-12.5-12.5-12.5h-26.8c-8.3,0-12.5,4.2-12.5,12.5V1103.9z"/>
	</g>
</g>
<g>
	<g>
		<path d="M372.7,1130.4v-14h31.4v-98.9h-25v-7.5l8.3-6.4h32.2v112.8H448v14H372.7z"/>
		<path d="M473.8,1130.4v-38.6c0-15.4,6.7-24.5,20.2-27.2l37.7-7.5c6.2-1.2,9.4-5.3,9.4-12.3v-14.7c0-8.3-4.2-12.5-12.5-12.5h-51.1
			v-7.5l8.3-6.4h42.6c18.7,0,28.1,9.4,28.1,28.1v11.9c0,15.4-6.7,24.5-20.2,27.2l-37.7,7.5c-6.2,1.2-9.4,5.3-9.4,12.3v25.7h67.3v14
			H473.8z"/>
		<path d="M581.8,1124v-7.5h52.9c8.3,0,12.5-4.2,12.5-12.5v-20.6c0-8.3-4.2-12.5-12.5-12.5h-39.3v-14h39.3c8.3,0,12.5-4.2,12.5-12.5
			v-14.3c0-8.3-4.2-12.5-12.5-12.5h-51.1v-7.5l8.3-6.4h42.6c18.7,0,28.1,9.4,28.1,28.1v13.4c0,4.9-1.5,8.9-4.6,11.9l-6.4,6.4
			l6.4,6.4c3.1,3.1,4.6,7,4.6,11.9v20.4c0,18.7-9.4,28.1-28.1,28.1h-44.5L581.8,1124z"/>
		<path d="M686.2,1106.7v-12.9l42.4-90.2h12.9l2,3.7l-40.2,85.4h50.2v-41.3h15.4v79h-15.4v-23.7H686.2z"/>
		<path d="M790.6,1124v-7.5h56.6c8.3,0,12.5-4.2,12.5-12.5v-22.4c0-8.3-4.2-12.5-12.5-12.5h-54.8v-65.4h77.2v14h-61.7v37.5H847
			c18.7,0,28.1,9.4,28.1,28.1v19.1c0,18.7-9.4,28.1-28.1,28.1h-48.1L790.6,1124z"/>
	</g>
</g>
<g>
	<g>
		<path d="M1163.8,1102.3v-64.9c0-22.5,11.3-33.8,33.8-33.8h33.3l8.3,6.4v7.5h-42.3c-11.8,0-17.6,5.9-17.6,17.6v19.8h39.1
			c18.7,0,28.1,9.4,28.1,28.1v19.1c0,18.7-9.4,28.1-28.1,28.1h-26.5C1173.2,1130.4,1163.8,1121,1163.8,1102.3z M1179.2,1104
			c0,8.3,4.2,12.5,12.5,12.5h26.8c8.3,0,12.5-4.2,12.5-12.5v-22.4c0-8.3-4.2-12.5-12.5-12.5h-39.3V1104z"/>
		<path d="M1270,1017.6v-14h82.7v32.2l-49.6,94.6h-13.8l-2-3.7l50-94.5v-14.7H1270z"/>
		<path d="M1376.2,1102.3v-20.4c0-4.9,1.5-8.9,4.6-11.9l6.4-6.4l-6.4-6.4c-3.1-3.1-4.6-7-4.6-11.9v-13.4c0-18.7,9.4-28.1,28.1-28.1
			h26.5c18.7,0,28.1,9.4,28.1,28.1v13.4c0,4.9-1.5,8.9-4.6,11.9l-6.4,6.4l6.4,6.4c3.1,3.1,4.6,7,4.6,11.9v20.4
			c0,18.7-9.4,28.1-28.1,28.1h-26.5C1385.6,1130.4,1376.2,1121,1376.2,1102.3z M1391.6,1044.4c0,8.3,4.2,12.5,12.5,12.5h26.8
			c8.3,0,12.5-4.2,12.5-12.5v-14.3c0-8.3-4.2-12.5-12.5-12.5h-26.8c-8.3,0-12.5,4.2-12.5,12.5V1044.4z M1391.6,1104
			c0,8.3,4.2,12.5,12.5,12.5h26.8c8.3,0,12.5-4.2,12.5-12.5v-20.6c0-8.3-4.2-12.5-12.5-12.5h-26.8c-8.3,0-12.5,4.2-12.5,12.5V1104z"
			/>
		<path d="M1482.4,1050.9v-19.1c0-18.7,9.4-28.1,28.1-28.1h26.5c18.7,0,28.1,9.4,28.1,28.1v64.9c0,22.5-11.3,33.8-33.8,33.8h-35.1
			l-8.3-6.4v-7.5h44.1c11.8,0,17.6-5.9,17.6-17.6V1079h-39.1C1491.8,1079,1482.4,1069.6,1482.4,1050.9z M1497.9,1052.5
			c0,8.3,4.2,12.5,12.5,12.5h39.3v-34.9c0-8.3-4.2-12.5-12.5-12.5h-26.8c-8.3,0-12.5,4.2-12.5,12.5V1052.5z"/>
		<path d="M1593.8,1130.4v-14h31.4v-98.9h-25v-7.5l8.3-6.4h32.2v112.8h28.5v14H1593.8z"/>
	</g>
</g>
</svg>
