<?xml version="1.0" encoding="utf-8"?>
<!-- Generator: Adobe Illustrator 27.5.0, SVG Export Plug-In . SVG Version: 6.00 Build 0)  -->
<svg version="1.1" id="Layer_1" xmlns="http://www.w3.org/2000/svg" xmlns:xlink="http://www.w3.org/1999/xlink" x="0px" y="0px"
	 viewBox="0 0 2000 2000" style="enable-background:new 0 0 2000 2000;" xml:space="preserve">
<style type="text/css">
	.st0{fill:none;stroke:#000000;stroke-width:120;stroke-miterlimit:10;}
	.st1{stroke:#000000;stroke-width:120;stroke-miterlimit:10;}
</style>
<g>
	<g>
		<path d="M445.2,694.6c-34.1-62.2-47.5-141.3-46.1-211.7c0.3-12.5,1.3-25,3.8-38c3.4-17.5,9.8-34.6,20.6-48.9
			c19.8-26.8,52.6-40.5,85.2-37.4c69.7,5.9,139.1,81.4,183.5,131.1c14.2,16,29.3,33.4,43.1,49.8c1.8,2.1,3.7,4.4,5.4,6.5
			c0,0,0.1,0.1,0.1,0.1c0,0,0.2,0.2-0.2-0.1c-1.3-1.3-2.9-2.3-4.6-3c0,0,5.6,4.1,5.6,4.1c21.6,27.8,42.9,54.9,62.1,84.1
			c28.7,42.8,54.8,87.9,78.2,133.8c44.6,86.3,79.5,177.2,108.5,269.8c0,0-9.7,2.8-9.7,2.8c-11.7-43.6-26.9-86.8-44.3-128.4
			c-30.6-72.9-69.1-142.8-114.5-207.5c-19.4-27.4-40.2-54.3-62.5-79.4c-7.2-8.2-15.1-16.8-22.6-24.7c-7.8-8-15.8-15.6-24.3-22.8
			c0,0,5.6,4.1,5.6,4.1c-1.4-0.7-2.7-1.6-4-2.6c-0.7-0.5-1.7-1.5-2.2-2c-4.1-3.2-8.3-6.3-12.7-9.3c-35.9-24.8-77.1-40.7-117.5-56.1
			c-10.4-3.9-21.7-8.3-32.1-12.3c-11.7-4.8-24.8-10.1-36.4-14.3c-5-1.8-11.7-3.9-14.5-4c6.2,0.3,13.9-3.6,17.7-8.8
			c0.4-0.4,0.8-1.2,1-1.6c0.2-0.3,0.3-0.5,0.3-0.8c0,0,0-0.1,0-0.1c0-0.1,0-0.2-0.1-0.3c0,0-0.1,0.1-0.1,0.1
			c-0.2,0.3-0.3,0.2-0.5,0.5c-1.3,2-2.1,4.2-2.9,6.4c-2.3,6.4-4.4,15-6.2,22.2c-7.1,30.6-14.3,61.4-21.9,92
			c-7.4,29.2-15.1,58.8-24.4,87.6c-2,6-4,12.3-6.4,18.2C455.3,693.8,445.2,694.6,445.2,694.6L445.2,694.6z"/>
	</g>
	<g>
		<path d="M510.6,1342.9c-100.4-7.1-209.3-61.2-277.2-135.3c-21.2-23.7-36.7-55-33.3-88.4c2.3-25,15.3-48.3,34-64.7
			c10.2-9.1,22-16.3,34.2-22.1c17.4-8.2,32.2-12.7,48.4-17.3c11.9-3.2,23.9-6.4,35.8-9.1c47.8-11.3,95.7-19.8,143.9-28.2
			c6.6-1.1,13.2-2.2,19.9-3c0,0,0.4,0,0.4,0c0.2,0-0.1,0-0.5,0.1c-1.8,0.4-3.6,1-5.1,1.9c0,0,6.9-2.2,6.9-2.2c28.9-2.6,58-3,87-3
			c66.3,0.7,132.5,1.6,198.7,7c56.7,5.1,112.8,14.9,168.1,27.6c0,0-2,9.9-2,9.9c-18.5-3.2-37-5.9-55.6-8.2
			c-55.6-7-111.5-9.5-167.6-7.5c-46.6,1.6-93.5,4.1-140.2,7.5c-9.2,0.8-18.4,1.7-27.5,3c-18.2,2.4-36.1,5.7-54,9.6
			c0,0,6.9-2.2,6.9-2.2c-2.3,1.1-4.9,1.9-7.5,2.3c-0.7,0.2-2.7,0.7-3.5,0.9c-7.6,1.9-15.3,4.1-22.8,6.5
			c-58,19.7-110.5,53.5-160.2,88.7c-5.2,3.9-10.8,8-15.5,12.4c-2.6,2.4-5.1,4.7-7,7.6c-0.2,0.2-0.2,0.4-0.3,0.6
			c-0.1,0.2-0.1,0.3-0.2,0.5c0,0.1-0.1,0.2-0.1,0.2c0.1,0.1,0.2,0.2,0.2,0.3c0,0.1,0.2,0,0.3-0.1c0.2-0.1,0.3-0.2,0.4-0.3
			c4.1-3.9,4.7-12.2,3.5-17c0.6,1,1.6,2.8,2.7,4.4c7.3,10.3,17,20.6,25.5,30.3c18.6,20.5,37.8,40.6,57.4,60.5
			c29.2,29.9,61.2,61.7,89.6,93.4c7.1,8,14.1,15.8,20.7,24.5C515.3,1333.9,510.6,1342.9,510.6,1342.9L510.6,1342.9z"/>
	</g>
	<g>
		<path d="M731.1,1550.6c-66,39.3-150.1,50.7-225.6,40.4c-22.3-3.2-41.6-6.8-62.8-17.3c-28.7-14.2-49.8-40.3-54.3-72.8
			c-6.8-46.5,20-87.2,49.7-119.7c23.5-25.1,47.8-50.2,72.5-74.2c22.8-22.2,46.3-43.6,70.7-64c19.6-16.4,41.2-29.8,62.5-43.5
			c36.8-23.2,75.2-47.4,112.6-69.4c74.7-44.4,153.9-87.5,230.4-128.9c0,0,4.6,9,4.6,9c-117.9,58.3-229.1,129.9-332.8,210.6
			c-30.3,23.2-58.4,46.4-80.7,76.8c-9.3,12.7-17.4,26.6-24,40.8c-11.5,24.4-19.3,50.9-27.9,76.5c-5.7,17-12.2,34.2-17.1,51.3
			c-1,3.6-2,7.4-2.6,11.1c0,0-0.2,1.2-0.2,1.2l-0.1,0.6c-0.1,0.8-0.1,1.6-0.3,2.4c-0.1,2.2,0.1,3.5,0.5,3.1c0.3-0.4,0.2-0.9,0.3-1.3
			c0-0.8,0-1.6-0.1-2.5c-0.8-4.7-4.2-10.7-8.1-13.1c-0.3-0.1-0.3,0,0.2,0.3c3.9,2.6,12,5.6,17.3,7.4
			c45.1,15.1,102.2,30.7,148.6,44.1c20.3,5.9,41.3,12.1,61.4,19.4c1.4,0.6,2.8,1.1,4.3,1.7C730.1,1540.5,731.1,1550.6,731.1,1550.6
			L731.1,1550.6z"/>
	</g>
	<path class="st0" d="M388.1,981.2"/>
	<g>
		<path d="M383,1007.7c-59.7-43.3-104.3-111.1-131.3-178.9c-3.6-9.1-6.6-18.4-9.2-28.8c-8-32.6-4.9-66.4,16.5-93.4
			c24.5-31.1,64.1-40.2,101.1-35.8c29.5,3.3,57.6,13.1,85.3,23.3c24,9.1,54.5,22.5,78.5,32.5c18.7,7.9,48,19.8,66.5,27.8
			c0,0,1.1,0.5,1.1,0.5s0.1,0.1,0.1,0.1c-1.3-0.6-3.7-0.9-5.3-0.8c0,0,7.4,1.7,7.4,1.7c29.1,16.1,60.6,33.4,89.9,49.3
			c34.5,18.6,81.3,43.7,116.2,62.2c12.9,6.9,26.1,13.9,38.7,21.5c54.9,32.6,105.8,71.2,154,113c0,0-6.8,7.5-6.8,7.5
			c-42.3-40-89.6-74.6-140.3-103.3c-33.8-19.2-69.7-34.3-105.1-50.3c-25.4-11.3-54.9-24.2-80.5-35.1c-26.2-11.2-54.8-23.3-80.9-34.3
			c0,0,7.4,1.7,7.4,1.7c-2.4-0.1-5.1-0.7-7.3-1.5c-2.3-0.7-4.6-1.5-7-2.1c-25.1-7.1-51.3-10.4-77.3-10.8
			c-29.1-0.6-58.6,2.3-87.6,5.3c-10.8,1.1-22.9,2.1-33.6,3.3c-8.2,0.9-18.6,2.1-25.9,4.1c-1.4,0.4-2.5,0.8-3.2,1.1
			c-0.7,0.3-1,0.6-0.6,0.6c2.1-0.2,5-2.2,7.1-4.2c2.9-2.8,5.2-6.3,6.2-10.2c0.3-0.9,0.6-2.3,0.5-3.2c0-0.1-0.1-0.2-0.1-0.3
			c0,0,0,0.1,0,0.1c0,0.3-0.2,0.3-0.2,0.6c-0.3,2.7,0,5.6,0.3,8.3c0.6,6,2.2,14.5,3.5,21.2c10.9,54.4,21.5,109,27.8,164.3
			c1.2,10.9,2.3,22.2,2.8,33.3c0,1.7,0.1,3.3,0.1,5C391.9,1002.9,383,1007.7,383,1007.7L383,1007.7z"/>
	</g>
	<g>
		<path d="M697.8,506.7c-4-24.1-3.5-48.8-0.8-73c7.1-60.2,31.7-117.7,67.2-167c26-37.2,61.7-77.9,109.9-85.7
			c47.3-7.4,86.7,18.6,105.3,61.3c11.4,25.8,15.2,53.3,18.6,80.2c4.5,35.9,8.1,77.4,10.5,112.3c1.8,23.8,4.5,48.5,7.3,72.3
			c2.5,23.9,4.7,47.9,6.6,71.9c9.7,119.6,11.3,239.6,2.7,359.3c-1.7,23.9-3.6,47.7-5.7,71.6l-10.1-1.1c0.6-4.6,1.7-13.2,2.1-17.7
			c12.5-112.4,10.1-226.3-4.5-338.3c-6.1-47.2-13.6-94.1-23.3-140.6c-4.7-23.2-9.9-46.4-17.4-68.8c-9.2-28.4-21.6-54.3-36.6-79.3
			c-8.8-15.2-17.8-30.5-27.2-45.1c-3.7-5.7-7.1-10.7-10.9-15.7c-2.9-3.8-6.4-8.2-10.2-11c0,0-0.6-0.4-0.6-0.4
			c-0.4-0.3-0.7-0.3-1-0.5c-0.1,0-0.2,0-0.3,0c-0.4,0-0.2,0.6-0.1,0.8c0.7,1.7,4,3.7,6.1,4.5c3.6,1.7,7.8,2,11.6,1.5c0,0,0,0,0,0.1
			c0,0-0.1,0.1-0.1,0.1c-0.1,0-0.1,0.1-0.2,0.1c-0.9,0.6-1.9,1.2-2.8,1.8c-14.5,9.8-28.2,24.7-41.5,38.3
			c-20.9,21.3-41.8,43-61.4,66.3c-20.8,24.3-40.3,49.5-59.8,74.8c-6.5,8.6-13.4,17.4-20.2,25.9c-1.1,1.2-2.1,2.5-3.2,3.7
			C707.6,509.2,697.8,506.7,697.8,506.7L697.8,506.7z"/>
	</g>
	<g>
		<path d="M991.3,411.5c26.4-59.6,78.3-107.2,136.2-135.8c11.7-5.8,24.1-10.8,36.4-15.3c52.9-20.3,120.6-33.2,166.2,12
			c25.5,25.4,33.1,60.8,27.9,94.9c-5.5,36-22.1,69-37.4,101.2c-15.8,34.1-34,66.4-50.4,99c-13.2,26.4-25.4,54-38.7,80.3
			c-31.7,63.6-65.1,126.3-101.9,187.1c-42.6,70.9-89.9,138.8-139.9,204.6c0,0-7.9-6.3-7.9-6.3s5.6-6.8,5.6-6.8
			c12.9-16,25.4-32.3,37.4-49c41.1-57.1,77.6-117.7,109.3-180.5c31.5-62.8,59.1-127.7,83.1-193.7c17.3-45.8,30.2-94.8,31.1-143.6
			c0.4-12.7,0.8-31.5,1-44.2c0-17.3,0.6-37.9-1.7-53.8c-0.3-2.7-1.8-9.4-3.2-10.2c0,0-0.2,0-0.2,0c-0.2,0-0.2,0.6-0.2,0.8
			c0.1,1,0.4,1.7,0.8,2.7c0.8,1.7,2.1,3.2,3.4,4.5c0.5,0.4,0.9,0.8,1.5,1.1c1.9,1.3,3,1.6,2.6,1.4c-0.5-0.1-2.3-0.6-5-0.7
			c-7-0.4-15.5,0.2-23.4,1.2c-11.6,1.3-26.6,4-39.7,6.1c-31.4,4.6-62.6,11.8-93.1,20.6c-8,2.3-16.4,4.8-24.3,7.4
			c-21.1,6.5-42.8,14.3-64.1,21.2c-1.5,0.5-3.1,0.9-4.6,1.4C998.1,418.9,991.3,411.5,991.3,411.5L991.3,411.5z"/>
	</g>
	<g>
		<path d="M1289.8,473.9c50.3-41.4,118.1-60.7,182.6-60.4c13.1,0.1,26.3,1.2,39.4,2.6c56.4,5.6,122.7,24.4,143.2,85.2
			c11.4,34.1,2.3,69.2-17.6,97.3c-21,29.8-50.7,51.8-78.8,73.7c-29.3,23.4-60.2,44.1-89.4,65.9c-23.6,17.7-47,36.9-70.6,54.4
			c-56.8,42.7-114.8,83.7-174.9,121.6c-69.9,44.2-142.6,83.7-216.8,120.2c0,0-4.3-9.2-4.3-9.2s8-3.6,8-3.6
			c18.7-8.5,37.2-17.5,55.4-27c62.4-32.6,122.1-70.4,178.6-112.3c56.3-42,110.1-87.7,161.1-135.9c36-33.2,69.5-71.2,92.2-114.5
			c6-11.2,14.8-27.8,20.7-39c7.8-15.5,17.5-33.6,22.6-48.8c0.9-2.6,2.6-9.2,1.7-10.6c0,0-0.2-0.1-0.2-0.1c-0.2-0.1-0.5,0.5-0.6,0.6
			c-0.3,0.9-0.4,1.7-0.4,2.7c0,1.9,0.4,3.8,1.1,5.6c0.3,0.6,0.5,1.2,0.8,1.7c1.1,2.1,2,2.8,1.7,2.4c-0.3-0.3-1.8-1.5-4.1-2.9
			c-6.1-3.5-13.9-6.7-21.4-9.4c-10.9-4-25.6-8.4-38.2-12.4c-30.1-10-61.3-17.5-92.5-23.3c-8.2-1.5-16.8-3-25-4.3
			c-21.8-3.6-44.6-6.4-66.8-9.8c-1.6-0.3-3.2-0.5-4.8-0.9C1292.6,483.6,1289.8,473.9,1289.8,473.9L1289.8,473.9z"/>
	</g>
	<g>
		<path d="M1517,689.9c52.8-3.7,106.2,11.6,152.1,37.4c20.5,11.7,40.1,26.1,57.6,42.1c12.3,11.1,23.2,21.5,35.1,35.4
			c21.4,25.1,39,56.9,38.7,92.1c-0.2,20.8-7,41.7-19.3,58.5c-43,58-124.3,54.5-188.4,58.5c-38.4,1.5-74.1,0.8-111.6,2.7
			c-155.9,9.5-312.8,8.2-467.7-12.5c-23.8-3.1-47.5-6.5-71.2-10.2c0,0,1.8-10,1.8-10s8.8,1.7,8.8,1.7c20.5,3.8,41.1,7.1,61.8,9.8
			c118.2,15.6,238.2,13.4,356.5,0.1c35.4-4,70.8-8.7,105.9-14.9C1517.2,973,1557,960,1593,941c15.2-7.7,33.1-16.6,47.7-24.4
			c12.4-6.7,22.9-12.2,33.2-19.3c3.5-2.2,8.7-6.5,10.3-8.9c0.8-1.3,0.3-1.6-0.8-0.6c-0.5,0.5-1.2,1.2-1.6,2.1
			c-1,1.6-1.4,3.5-1.7,5.3c0,0.7-0.1,1.4,0.1,2.1c0.2,0.3,0-1-0.7-3c-2.2-6-6.2-13-10.2-19.2c-6.1-9.6-15.4-22.1-23.2-32.7
			c-18.5-26.3-39.1-50.9-61.5-74.2c-12-12.5-24.5-24.8-37.1-36.7c-8.9-8.5-18-16.8-27-25.3c-1.7-1.5-5.2-5.1-6.9-6.8
			C1513.6,699.4,1517,689.9,1517,689.9L1517,689.9z"/>
	</g>
	<g>
		<path d="M1625.7,985.3c48.9,20.1,90,57.6,119.6,101.1c13.2,19.6,24.3,41.2,32.9,63.3c6.1,15.4,11.3,29.6,15.7,47.3
			c8,32,9.7,68.3-6.3,99.7c-9.4,18.6-24.8,34.2-43.3,43.8c-64.3,32.8-135.5-6.4-194.8-31.3c-35.1-15.8-66.8-32.3-101.2-47.2
			c-143.9-60.8-283.8-131.7-413.4-219.1c-19.9-13.4-39.7-26.9-59.3-40.8c0,0,6-8.2,6-8.2s7.1,5.4,7.1,5.4
			c16.7,12.5,33.7,24.6,51,36.2c99,66.5,207.4,117.9,319.3,158.6c33.5,12.2,67.3,23.7,101.5,33.7c39.5,11.2,81,17.3,121.7,16.3
			c17.1-0.1,37-0.1,53.5-0.6c14.1-0.4,26-0.8,38.3-2.5c4.1-0.4,10.7-2,13.2-3.4c1.2-0.8,1-1.3-0.4-0.9c-0.7,0.2-1.6,0.6-2.3,1.2
			c-1.6,1-2.9,2.5-3.8,4c-0.3,0.6-0.7,1.3-0.9,1.9c0,0.4,0.4-0.9,0.7-3c0.7-6.3,0.2-14.4-0.6-21.8c-1.2-11.4-4-26.7-6.2-39.6
			c-4.9-31.7-12.4-63-22.1-93.8c-5.2-16.6-10.9-33.1-16.9-49.4c-4.2-11.6-8.6-23.1-12.9-34.7c-0.8-2.1-2.4-6.9-3.2-9.2
			C1618.5,992.4,1625.7,985.3,1625.7,985.3L1625.7,985.3z"/>
	</g>
	<g>
		<path d="M1554.9,1288.9c33.6,40.9,52.1,93.3,57.6,145.6c2.4,23.5,2,47.8-1,71.3c-1.9,16.4-4,31.4-8.5,49.1
			c-8.1,32-23.8,64.8-52.7,84.9c-17.1,11.9-38,18.4-58.9,18.2c-72.2-1.5-116.4-69.8-156.9-119.7c-23.4-30.5-43.6-60-66.8-89.4
			c-98-121.6-187.8-250.3-260.7-388.6c-11.2-21.2-22.2-42.5-33-63.9c0,0,9.1-4.3,9.1-4.3s3.7,8.1,3.7,8.1
			c8.8,18.9,18.1,37.6,27.9,56c55.8,105.4,127,201.9,206.4,290.7c23.7,26.6,48.1,52.7,73.5,77.7c29.5,28.6,63.2,53.5,99.5,71.9
			c15.1,8,32.7,17.4,47.5,24.8c12.6,6.3,23.2,11.6,34.9,15.9c3.9,1.6,10.3,3.3,13.2,3.2c1.5-0.1,1.5-0.7,0-1
			c-0.7-0.1-1.7-0.2-2.6-0.1c-1.8,0.1-3.7,0.9-5.3,1.7c-0.6,0.4-1.2,0.8-1.6,1.2c-0.2,0.3,0.8-0.6,2-2.3c3.6-5.2,7-12.5,9.7-19.5
			c4.3-10.6,9.1-25.4,13.3-37.9c10.7-30.3,18.9-61.3,24.9-93.1c3.3-17,6-34.3,8.4-51.5c1.7-12.2,3.3-24.4,5-36.7
			c0.3-2.3,1.1-7.2,1.5-9.6C1545.1,1291.7,1554.9,1288.9,1554.9,1288.9L1554.9,1288.9z"/>
	</g>
	<g>
		<path d="M1351.9,1523.6c7.4,52.4-4.1,106.8-26.6,154.3c-10.2,21.3-23.2,41.8-37.9,60.4c-10.2,13.1-19.8,24.7-32.8,37.5
			c-23.6,23.1-54,42.9-89.2,45c-20.8,1.3-42-4-59.7-15.1c-60.9-38.8-63-120.1-71.6-183.9c-4.1-38.2-6-73.9-10.5-111.2
			c-20.4-154.8-30.1-311.5-20.3-467.5c1.4-23.9,3.2-47.8,5.2-71.8c0,0,10.1,1,10.1,1s-1.1,8.9-1.1,8.9c-2.3,20.7-4.2,41.5-5.4,62.3
			c-7.2,119,3.3,238.5,24.9,355.6c6.4,35.1,13.6,70,22.3,104.6c10.4,39.8,26.1,78.6,47.5,113.2c8.7,14.6,18.8,31.9,27.6,45.8
			c7.5,11.9,13.8,22,21.5,31.8c2.5,3.4,7.1,8.2,9.6,9.6c1.3,0.7,1.6,0.2,0.5-0.8c-0.5-0.5-1.3-1.1-2.2-1.4c-1.6-0.9-3.6-1.2-5.4-1.3
			c-0.7,0-1.5,0-2,0.2c-0.3,0.2,1-0.1,3-0.9c5.8-2.6,12.5-7.1,18.4-11.6c9.2-6.8,21-17,31-25.4c24.9-20.3,48-42.6,69.7-66.6
			c11.7-12.8,23-26.2,34-39.6c7.8-9.5,15.5-19.1,23.4-28.7c1.4-1.8,4.7-5.6,6.3-7.4C1342.2,1520.9,1351.9,1523.6,1351.9,1523.6
			L1351.9,1523.6z"/>
	</g>
	<g>
		<path d="M1044.9,1602.8c-19.4,49.2-56.3,90.8-99.4,121c-19.4,13.5-40.8,24.9-62.8,33.8c-15.3,6.3-29.4,11.7-47.1,16.4
			c-31.9,8.4-68.2,10.6-99.8-4.9c-18.7-9.1-34.5-24.3-44.4-42.7c-33.7-63.9,4.6-135.6,28.6-195.2c15.3-35.3,31.3-67.2,45.8-101.8
			c58.8-144.7,127.8-285.7,213.4-416.4c13.1-20.1,26.4-40,39.9-59.8c0,0,8.2,5.9,8.2,5.9s-5.3,7.2-5.3,7.2
			c-12.3,16.9-24.2,34-35.5,51.5c-65.1,99.9-115,209-154.1,321.5c-11.7,33.7-22.7,67.6-32.3,101.9c-10.7,39.7-16.1,81.2-14.6,121.9
			c0.4,17,0.6,37,1.4,53.5c0.6,14.1,1.1,25.9,3,38.3c0.5,4.1,2.1,10.6,3.6,13.1c0.8,1.2,1.3,0.9,0.9-0.5c-0.2-0.6-0.6-1.6-1.2-2.3
			c-1-1.6-2.5-2.8-4.1-3.8c-0.6-0.3-1.3-0.7-1.9-0.8c-0.4,0,0.9,0.4,3,0.7c6.3,0.6,14.4,0,21.7-0.9c11.4-1.4,26.6-4.4,39.5-6.8
			c31.7-5.4,62.8-13.3,93.5-23.4c16.5-5.4,32.9-11.4,49.1-17.6c11.5-4.4,23-8.9,34.5-13.4c2.1-0.9,6.8-2.5,9.1-3.3
			C1037.8,1595.6,1044.9,1602.8,1044.9,1602.8L1044.9,1602.8z"/>
	</g>
	<path class="st0" d="M462.7,1516.3"/>
	<circle class="st1" cx="1004.7" cy="1009.3" r="75.9"/>
</g>
</svg>
