<?xml version="1.0" encoding="utf-8"?>
<!-- Generator: Adobe Illustrator 27.5.0, SVG Export Plug-In . SVG Version: 6.00 Build 0)  -->
<svg version="1.1" id="Layer_1" xmlns="http://www.w3.org/2000/svg" xmlns:xlink="http://www.w3.org/1999/xlink" x="0px" y="0px"
	 viewBox="0 0 2000 2000" style="enable-background:new 0 0 2000 2000;" xml:space="preserve">
<style type="text/css">
	.st0{stroke:#000000;stroke-width:3;stroke-miterlimit:10;}
</style>
<path class="st0" d="M1985.8,915.8v132c-72.6-17.1-149.5-23.5-228.4-17.7c-382.3,28.1-684.8,346.3-694.9,729.5
	c-2.1,78.6,8,154.6,28.4,226.2H931.7c23-80.9,32.9-167.3,27-256.9c-24.5-369.8-321-669.9-690.5-698.6
	c-88.3-6.8-173.8,1.7-253.9,23.2V910.1c80.6,21.6,166.6,30.1,255.5,23C639.6,903.8,935.6,602.3,958.8,232
	c4.7-75.3-1.8-148.3-17.7-217.7h140.3c-13.9,60.6-20.6,123.9-19,189.1c9.8,383,311.7,701.4,693.7,730.1
	C1835.5,939.4,1912.8,933,1985.8,915.8z"/>
</svg>
