<?xml version="1.0" encoding="utf-8"?>
<!-- Generator: Adobe Illustrator 27.5.0, SVG Export Plug-In . SVG Version: 6.00 Build 0)  -->
<svg version="1.1" id="Layer_1" xmlns="http://www.w3.org/2000/svg" xmlns:xlink="http://www.w3.org/1999/xlink" x="0px" y="0px"
	 viewBox="0 0 2000 2000" style="enable-background:new 0 0 2000 2000;" xml:space="preserve">
<style type="text/css">
	.st0{stroke:#000000;stroke-miterlimit:10;}
</style>
<g>
	<path class="st0" d="M1958.5,1911c-318.4-255.2-636.9-510.3-955.3-765.5c-307.9,253.1-615.8,506.1-923.7,759.2
		c215.1-284.7,430.2-569.4,645.3-854.1c-208.8-27.4-417.5-54.8-626.3-82.2c244.6-42.2,489.2-84.4,733.9-126.5
		C885.1,590.9,937.8,339.9,990.5,89c50.6,246.7,101.2,493.5,151.8,740.2c265.7,52.7,531.4,105.4,797.1,158.2
		c-221.4,33.7-442.9,67.5-664.3,101.2C1503,1362.7,1730.7,1636.9,1958.5,1911z"/>
	<path class="st0" d="M990.5,1993.2c-38-274.1-75.9-548.3-113.9-822.4l0,0c-31.6-86.5-63.3-172.9-94.9-259.4l0,0
		C535,612,288.3,312.5,41.5,13.1c320.5,272,641.1,544.1,961.6,816.1c35.8-29.5,71.7-59,107.5-88.6
		C1393.3,496,1675.9,251.4,1958.5,6.8c-272,341.6-544.1,683.3-816.1,1024.9C1091.7,1352.2,1041.1,1672.7,990.5,1993.2z"/>
</g>
</svg>
