<?xml version="1.0" encoding="utf-8"?>
<!-- Generator: Adobe Illustrator 27.5.0, SVG Export Plug-In . SVG Version: 6.00 Build 0)  -->
<svg version="1.1" id="Layer_1" xmlns="http://www.w3.org/2000/svg" xmlns:xlink="http://www.w3.org/1999/xlink" x="0px" y="0px"
	 viewBox="0 0 2000 2000" style="enable-background:new 0 0 2000 2000;" xml:space="preserve">
<style type="text/css">
	.st0{fill:#AEFF00;}
</style>
<g>
	<path class="st0" d="M942,1339.6c-45.6,231.8-81.9,272-291.3,322.2C860.1,1712,896.5,1753,942,1984
		c45.6-231.8,81.9-272,291.3-322.2C1024.7,1611.6,987.6,1571.4,942,1339.6z"/>
	<path class="st0" d="M1329.9,1468.6c102-521.6,184.7-612.7,656-726.3c-471.3-112.8-554-204.8-656-726.3
		c-102,521.6-184.7,612.7-656,726.3C1144.5,855.9,1227.9,947.8,1329.9,1468.6z"/>
	<path class="st0" d="M344,1375.1c51.8-261.9,92.7-308.3,329.9-365.5C436.7,952.5,395.8,906.9,344,644.2
		C292.2,906.1,251.3,952.5,14,1009.7C250.5,1066.8,292.2,1113.2,344,1375.1z"/>
</g>
</svg>
