<?xml version="1.0" encoding="utf-8"?>
<!-- Generator: Adobe Illustrator 27.5.0, SVG Export Plug-In . SVG Version: 6.00 Build 0)  -->
<svg version="1.1" id="Layer_1" xmlns="http://www.w3.org/2000/svg" xmlns:xlink="http://www.w3.org/1999/xlink" x="0px" y="0px"
	 viewBox="0 0 2000 2000" style="enable-background:new 0 0 2000 2000;" xml:space="preserve">
<style type="text/css">
	.st0{fill:none;stroke:#13FF00;stroke-miterlimit:10;}
	.st1{fill:none;stroke:#AEFF00;stroke-width:18;stroke-miterlimit:10;}
	.st2{fill:#AEFF00;}
	.st3{fill:#AEFF00;stroke:#AEFF00;stroke-width:18;stroke-miterlimit:10;}
	.st4{fill:#AEFF00;stroke:#AEFF00;stroke-width:27;stroke-miterlimit:10;}
</style>
<path class="st0" d="M38.8,628.8"/>
<polygon class="st1" points="46,621.6 407.2,621.6 518.3,722 1961.2,722 1961.2,1236.5 1699.4,1234.9 1554.3,1338.9 149.6,1338.9 
	150,1227.8 46,1099.8 "/>
<rect x="261.2" y="1338.9" class="st2" width="803.4" height="57.4"/>
<path class="st3" d="M1620.5,1356.9h70l80.7-71.7h-57.4c-7.2,0-7.2,0-7.2,0L1620.5,1356.9z"/>
<path class="st3" d="M1764.3,1356.9h70l80.7-71.7h-57.4c-7.2,0-7.2,0-7.2,0L1764.3,1356.9z"/>
<path class="st3" d="M646.4,675.4h70l80.7-71.7h-57.4c-7.2,0-7.2,0-7.2,0L646.4,675.4z"/>
<path class="st3" d="M797,675.4h70l80.7-71.7h-57.4c-7.2,0-7.2,0-7.2,0L797,675.4z"/>
<path class="st3" d="M948.4,675.4h70l80.7-71.7h-57.4c-7.2,0-7.2,0-7.2,0L948.4,675.4z"/>
<path class="st3" d="M1090.3,675.4h70l80.7-71.7h-57.4c-7.2,0-7.2,0-7.2,0L1090.3,675.4z"/>
<polygon class="st3" points="472.6,610.9 638.9,610.9 555.8,675.4 "/>
<polygon class="st3" points="1234,675.4 1400.3,675.4 1317.1,610.9 "/>
<polygon class="st4" points="106.9,682.6 106.9,808.6 119.4,808.6 221.7,689.8 221.7,682.6 "/>
</svg>
