<?xml version="1.0" encoding="utf-8"?>
<!-- Generator: Adobe Illustrator 27.5.0, SVG Export Plug-In . SVG Version: 6.00 Build 0)  -->
<svg version="1.1" id="Layer_1" xmlns="http://www.w3.org/2000/svg" xmlns:xlink="http://www.w3.org/1999/xlink" x="0px" y="0px"
	 viewBox="0 0 2000 2000" style="enable-background:new 0 0 2000 2000;" xml:space="preserve">
<style type="text/css">
	.st0{fill:none;stroke:#AEFF00;stroke-width:10;stroke-miterlimit:10;}
	.st1{opacity:0.5;fill:none;stroke:#AEFF00;stroke-width:10;stroke-miterlimit:10;enable-background:new    ;}
	.st2{fill:none;stroke:#13FF00;stroke-miterlimit:10;}
	.st3{fill:#AEFF00;stroke:#AEFF00;stroke-width:6;stroke-miterlimit:10;}
	.st4{fill:#AEFF00;}
</style>
<polygon class="st0" points="128.6,641.3 137.4,1352.2 1868.5,1362 1873.9,641.3 138.9,641.3 "/>
<polygon class="st1" points="62.7,557.4 1936.8,557.4 1934.4,1436.1 62.7,1436.1 "/>
<path class="st2" d="M387.8,567.3"/>
<polygon class="st3" points="380.4,566.2 72.9,566.2 72.9,852.5 53.6,852.5 53.6,674.8 37.3,674.8 37.3,536.6 230.3,536.6 
	232,551.4 380.4,551.4 "/>
<polygon class="st3" points="1619.6,1430.9 1927.1,1430.9 1927.1,1144.6 1946.4,1144.6 1946.4,1322.3 1962.7,1322.3 1962.7,1460.5 
	1769.7,1460.5 1768,1445.7 1619.6,1445.7 "/>
<polygon class="st3" points="380.4,1428.8 72.8,1428.8 72.8,1142.5 53.6,1142.5 53.6,1320.2 37.3,1320.2 37.3,1458.4 230.3,1458.4 
	231.9,1443.6 380.4,1443.6 "/>
<polygon class="st3" points="1620.4,563.1 1927.9,563.1 1927.9,849.4 1947.2,849.4 1947.2,671.7 1963.5,671.7 1963.5,533.5 
	1770.5,533.5 1768.8,548.3 1620.4,548.3 "/>
<rect x="409.8" y="549.5" class="st4" width="17.6" height="19.8"/>
<rect x="444.9" y="549.5" class="st4" width="17.6" height="19.8"/>
<rect x="480.1" y="549.5" class="st4" width="17.6" height="19.8"/>
<rect x="1499.4" y="1427.2" class="st4" width="17.6" height="19.8"/>
<rect x="1534.6" y="1427.2" class="st4" width="17.6" height="19.8"/>
<rect x="1569.7" y="1427.2" class="st4" width="17.6" height="19.8"/>
</svg>
