<?xml version="1.0" encoding="utf-8"?>
<!-- Generator: Adobe Illustrator 27.5.0, SVG Export Plug-In . SVG Version: 6.00 Build 0)  -->
<svg version="1.1" id="Layer_1" xmlns="http://www.w3.org/2000/svg" xmlns:xlink="http://www.w3.org/1999/xlink" x="0px" y="0px"
	 viewBox="0 0 1366 768" style="enable-background:new 0 0 1366 768;" xml:space="preserve">
<style type="text/css">
	.st0{fill:#AEFF00;}
	.st1{opacity:0.25;fill:#AEFF00;enable-background:new    ;}
</style>
<g>
	<polygon class="st0" points="309.9,94.7 303.2,94.7 303.2,4.2 393.7,4.2 393.7,10.9 309.9,10.9 	"/>
	<polygon class="st0" points="1062.8,94.7 1056.2,94.7 1056.2,10.9 972.3,10.9 972.3,4.2 1062.8,4.2 	"/>
	<polygon class="st0" points="1062.8,763.8 972.3,763.8 972.3,757.2 1056.2,757.2 1056.2,673.3 1062.8,673.3 	"/>
	<polygon class="st0" points="393.7,763.8 303.2,763.8 303.2,673.3 309.9,673.3 309.9,757.2 393.7,757.2 	"/>
	<polygon class="st1" points="378.5,746.9 320.1,746.9 320.1,688.5 323.4,688.5 323.4,743.6 378.5,743.6 	"/>
	<polygon class="st1" points="1045.9,746.9 987.5,746.9 987.5,743.6 1042.6,743.6 1042.6,688.5 1045.9,688.5 	"/>
	<polygon class="st1" points="323.4,79.5 320.1,79.5 320.1,21.1 378.5,21.1 378.5,24.4 323.4,24.4 	"/>
	<polygon class="st1" points="1045.9,79.5 1042.6,79.5 1042.6,24.4 987.5,24.4 987.5,21.1 1045.9,21.1 	"/>
	<rect x="304.9" y="134.7" class="st1" width="3.3" height="499.3"/>
	<rect x="1057.8" y="134.7" class="st1" width="3.3" height="499.3"/>
	<rect x="433.4" y="758.8" class="st1" width="499.3" height="3.3"/>
	<rect x="433.4" y="5.9" class="st1" width="499.3" height="3.3"/>
</g>
</svg>
