<?xml version="1.0" encoding="utf-8"?>
<!-- Generator: Adobe Illustrator 27.5.0, SVG Export Plug-In . SVG Version: 6.00 Build 0)  -->
<svg version="1.1" xmlns="http://www.w3.org/2000/svg" xmlns:xlink="http://www.w3.org/1999/xlink" x="0px" y="0px"
	 viewBox="0 0 430 932" style="enable-background:new 0 0 430 932;" xml:space="preserve">
<style type="text/css">
	.st0{fill:none;stroke:#13FF00;stroke-miterlimit:10;}
	.st1{fill:none;stroke:#AEFF00;stroke-width:2;stroke-miterlimit:10;}
	.st2{fill:#AEFF00;}
	.st3{fill:none;stroke:#AEFF00;stroke-width:3;stroke-miterlimit:10;}
	.st4{display:none;}
	.st5{display:inline;fill:none;stroke:#AEFF00;stroke-width:3;stroke-miterlimit:10;}
</style>
<g id="Layer_1">
	<path class="st0" d="M281.2,27.2"/>
	<line class="st1" x1="396.2" y1="651.4" x2="426.6" y2="651"/>
	<line class="st1" x1="396.2" y1="647.7" x2="426.6" y2="647.3"/>
	<line class="st1" x1="396.2" y1="597.5" x2="426.6" y2="597.1"/>
	<line class="st1" x1="396.1" y1="592" x2="426.5" y2="591.6"/>
	<line class="st1" x1="396.2" y1="542.6" x2="426.6" y2="542.2"/>
	<line class="st1" x1="396.2" y1="537.7" x2="426.6" y2="537.2"/>
	<line class="st1" x1="396.6" y1="642.6" x2="416.2" y2="642.2"/>
	<line class="st1" x1="396.6" y1="637.3" x2="416.2" y2="636.9"/>
	<line class="st1" x1="396.6" y1="632.2" x2="416.2" y2="631.8"/>
	<line class="st1" x1="396.3" y1="625.6" x2="416" y2="625.1"/>
	<line class="st1" x1="396.3" y1="618.9" x2="416" y2="618.5"/>
	<line class="st1" x1="396.3" y1="614.9" x2="416" y2="614.4"/>
	<line class="st1" x1="396.3" y1="611.9" x2="416" y2="611.5"/>
	<line class="st1" x1="396.1" y1="608.2" x2="415.7" y2="607.8"/>
	<line class="st1" x1="396.1" y1="604.7" x2="415.7" y2="604.3"/>
	<line class="st1" x1="396.1" y1="602.3" x2="415.8" y2="601.9"/>
	<line class="st1" x1="395.8" y1="587.4" x2="415.5" y2="587"/>
	<line class="st1" x1="395.8" y1="584.1" x2="415.5" y2="583.7"/>
	<line class="st1" x1="396.1" y1="578.7" x2="415.7" y2="578.3"/>
	<line class="st1" x1="396.1" y1="573.6" x2="415.8" y2="573.2"/>
	<line class="st1" x1="396.1" y1="568.5" x2="415.8" y2="568.1"/>
	<line class="st1" x1="396.6" y1="559.3" x2="416.2" y2="558.9"/>
	<line class="st1" x1="396.3" y1="553.8" x2="416" y2="553.3"/>
	<line class="st1" x1="396.3" y1="548.3" x2="416" y2="547.9"/>
	<line class="st1" x1="395.8" y1="564.9" x2="415.5" y2="564.5"/>
	<g>
		<g>
			<path class="st2" d="M428,660.5h-5.1c-1.4,0-2-0.7-2-2v-1.9c0-1.4,0.7-2,2-2h5.1c1.4,0,2,0.7,2,2v1.9
				C430,659.8,429.3,660.5,428,660.5z M428.1,659.4c0.6,0,0.9-0.3,0.9-0.9v-1.9c0-0.6-0.3-0.9-0.9-0.9h-5.3c-0.6,0-0.9,0.3-0.9,0.9
				v1.9c0,0.6,0.3,0.9,0.9,0.9H428.1z"/>
		</g>
	</g>
	<g>
		<g>
			<path class="st2" d="M428,534.4h-5.1c-1.4,0-2-0.7-2-2v-1.9c0-1.4,0.7-2,2-2h5.1c1.4,0,2,0.7,2,2v1.9
				C430,533.8,429.3,534.4,428,534.4z M428.1,533.3c0.6,0,0.9-0.3,0.9-0.9v-1.9c0-0.6-0.3-0.9-0.9-0.9h-5.3c-0.6,0-0.9,0.3-0.9,0.9
				v1.9c0,0.6,0.3,0.9,0.9,0.9H428.1z"/>
		</g>
	</g>
	<g>
		<g>
			<path class="st2" d="M430,641.2h-1V639h-7.1v1.8h-0.5l-0.5-0.6v-2.3h8.1v-2.1h1V641.2z"/>
			<path class="st2" d="M430,633.9h-2.8c-1.1,0-1.8-0.5-2-1.5l-0.5-2.7c-0.1-0.4-0.4-0.7-0.9-0.7h-1c-0.6,0-0.9,0.3-0.9,0.9v3.7
				h-0.5l-0.5-0.6V630c0-1.4,0.7-2,2-2h0.8c1.1,0,1.8,0.5,2,1.5l0.5,2.7c0.1,0.4,0.4,0.7,0.9,0.7h1.9v-4.9h1L430,633.9L430,633.9z"
				/>
			<path class="st2" d="M429.5,626.1H429v-3.8c0-0.6-0.3-0.9-0.9-0.9h-1.5c-0.6,0-0.9,0.3-0.9,0.9v2.8h-1v-2.8
				c0-0.6-0.3-0.9-0.9-0.9h-1c-0.6,0-0.9,0.3-0.9,0.9v3.7h-0.5l-0.5-0.6v-3.1c0-1.4,0.7-2,2-2h1c0.3,0,0.6,0.1,0.8,0.3l0.5,0.5
				l0.5-0.5c0.2-0.2,0.5-0.3,0.8-0.3h1.5c1.4,0,2,0.7,2,2v3.2L429.5,626.1z"/>
			<path class="st2" d="M428.3,618.6h-0.9l-6.5-3.1v-0.9l0.3-0.1l6.2,2.9v-3.6h-3v-1.1h5.7v1.1h-1.7V618.6z"/>
			<path class="st2" d="M429.5,611.1H429V607c0-0.6-0.3-0.9-0.9-0.9h-1.6c-0.6,0-0.9,0.3-0.9,0.9v3.9h-4.7v-5.6h1v4.5h2.7V607
				c0-1.4,0.7-2,2-2h1.4c1.4,0,2,0.7,2,2v3.5L429.5,611.1z"/>
		</g>
	</g>
	<g>
		<g>
			<path class="st2" d="M428,584.1h-4.7c-1.6,0-2.4-0.8-2.4-2.4v-2.4l0.5-0.6h0.5v3c0,0.8,0.4,1.3,1.3,1.3h1.4v-2.8c0-1.4,0.7-2,2-2
				h1.4c1.4,0,2,0.7,2,2v1.9C430,583.5,429.3,584.1,428,584.1z M428.1,583c0.6,0,0.9-0.3,0.9-0.9v-1.9c0-0.6-0.3-0.9-0.9-0.9h-1.6
				c-0.6,0-0.9,0.3-0.9,0.9v2.8L428.1,583L428.1,583z"/>
			<path class="st2" d="M421.9,576.5h-1v-6h2.3l6.8,3.6v1l-0.3,0.1l-6.8-3.6h-1V576.5L421.9,576.5z"/>
			<path class="st2" d="M428,568.8h-1.5c-0.3,0-0.6-0.1-0.8-0.3l-0.5-0.5l-0.5,0.5c-0.2,0.2-0.5,0.3-0.8,0.3h-1c-1.4,0-2-0.7-2-2
				v-1.9c0-1.4,0.7-2,2-2h1c0.3,0,0.6,0.1,0.8,0.3l0.5,0.5l0.5-0.5c0.2-0.2,0.5-0.3,0.8-0.3h1.5c1.4,0,2,0.7,2,2v1.9
				C430,568.1,429.3,568.8,428,568.8z M423.8,567.7c0.6,0,0.9-0.3,0.9-0.9v-1.9c0-0.6-0.3-0.9-0.9-0.9h-1c-0.6,0-0.9,0.3-0.9,0.9
				v1.9c0,0.6,0.3,0.9,0.9,0.9H423.8z M428.1,567.7c0.6,0,0.9-0.3,0.9-0.9v-1.9c0-0.6-0.3-0.9-0.9-0.9h-1.5c-0.6,0-0.9,0.3-0.9,0.9
				v1.9c0,0.6,0.3,0.9,0.9,0.9H428.1z"/>
			<path class="st2" d="M424.3,561.1h-1.4c-1.4,0-2-0.7-2-2v-1.9c0-1.4,0.7-2,2-2h4.7c1.6,0,2.4,0.8,2.4,2.4v2.5l-0.5,0.6H429v-3.2
				c0-0.8-0.4-1.3-1.3-1.3h-1.5v2.8C426.3,560.5,425.6,561.1,424.3,561.1z M424.4,560c0.6,0,0.9-0.3,0.9-0.9v-2.8h-2.5
				c-0.6,0-0.9,0.3-0.9,0.9v1.9c0,0.6,0.3,0.9,0.9,0.9H424.4L424.4,560z"/>
			<path class="st2" d="M430,553.1h-1v-2.3h-7.1v1.8h-0.5l-0.5-0.6v-2.3h8.1v-2.1h1V553.1z"/>
		</g>
	</g>
	<line class="st3" x1="411.6" y1="35" x2="411.6" y2="524.1"/>
</g>
<g id="Layer_2" class="st4">
	<line class="st5" x1="15.2" y1="648.8" x2="383.4" y2="648.8"/>
	<line class="st5" x1="15.3" y1="72.5" x2="15.3" y2="649.1"/>
	<line class="st5" x1="54.5" y1="34.8" x2="412" y2="34.8"/>
</g>
</svg>
