<?xml version="1.0" encoding="utf-8"?>
<!-- Generator: Adobe Illustrator 27.5.0, SVG Export Plug-In . SVG Version: 6.00 Build 0)  -->
<svg version="1.1" id="Layer_1" xmlns="http://www.w3.org/2000/svg" xmlns:xlink="http://www.w3.org/1999/xlink" x="0px" y="0px"
	 viewBox="0 0 1366 768" style="enable-background:new 0 0 1366 768;" xml:space="preserve">
<style type="text/css">
	.st0{stroke:#000000;stroke-width:5;stroke-miterlimit:10;}
	.st1{fill:#AEFF00;stroke:#000000;stroke-width:5;stroke-miterlimit:10;}
</style>
<g>
	<g>
		<path class="st0" d="M183.1,455.5H5.9v-73.9l69-69.3h124.9v19.2l-32.5,32.6h-59.1l9.5-9.5h-16.9l-39.9,39.9v18.6h83.7v-9.1H111
			v-18.6l12.2-12h76.4v65.3L183.1,455.5z"/>
		<path class="st0" d="M408,455.5H220.7v-73.9l21.3-21.4v-48h172.7v42.5H297.1v18.6h86.7v12.8l-5.5,5.5v0.2l-12,12.1h-76.6v-23.2
			l-13.7,13.7v18.8H387l0.4,0.2l-0.4,0.2l20.5,20.7h0.4L408,455.5L408,455.5z"/>
		<path class="st0" d="M551.2,455.5H426.3v-73.9l69.2-69.3h124.9v73.9L551.2,455.5z M525.5,413l39.6-39.7v-18.6h-43.9l-39.6,39.7
			V413H525.5z"/>
		<path class="st0" d="M830.6,455.5H727l-35.2-35.2v35.2h-55.1v-73.9l21.3-21.4v-48h172.5v73.9l-5.3,5.5L813,403.9h-69.5l9.3,9.3
			h54.7l23,22.8L830.6,455.5L830.6,455.5z M775.5,373.3v-18.6H713v18.6H775.5z"/>
		<path class="st0" d="M1026.3,455.5H849.1v-73.9l69-69.3h124.9v19.2l-32.5,32.6h-59.1l9.5-9.5h-16.9L904,394.6v18.6h83.7v-9.1
			h-33.5v-18.6l12.2-12h76.4v65.3L1026.3,455.5z"/>
		<path class="st0" d="M1116.6,455.5h-55.1v-73.9l21.1-21.4v-48h55.3v61.1l-21.3,21.2V455.5L1116.6,455.5z"/>
		<path class="st0" d="M1343.4,455.5h-55.1v-18.8h-62.4v-42.3h62.4l-39.9-39.9h-22.5v18.8l-21.3,21.2v61.1h-55.1v-73.9l21.1-21.4
			v-48h103.6l69.2,69.4L1343.4,455.5L1343.4,455.5z"/>
	</g>
	<g>
		<path class="st1" d="M199.8,455.8H22.6V382l69-69.2h125v19.2l-32.5,32.5H125l9.5-9.5h-16.9l-39.9,39.8v18.5h83.7v-9.1h-33.4v-18.5
			l12.2-12h76.4V439L199.8,455.8z"/>
		<path class="st1" d="M424.7,455.8H237.4V382l21.3-21.3v-47.9h172.7v42.4H313.8v18.5h86.7v12.8L395,392v0.2l-12,12h-76.6V381
			l-13.7,13.7v18.7h111.2l0.4,0.2l-0.4,0.2l20.5,20.7h0.4L424.7,455.8L424.7,455.8z"/>
		<path class="st1" d="M567.9,455.8H443V382l69.2-69.2h125v73.8L567.9,455.8z M542.2,413.3l39.6-39.6v-18.5H538l-39.6,39.6v18.5
			H542.2z"/>
		<path class="st1" d="M847.3,455.8H743.7l-35.2-35.2v35.2h-55.1V382l21.3-21.3v-47.9h172.5v73.8l-5.3,5.5l-12.2,12.2h-69.5l9.3,9.3
			h54.7l23,22.8L847.3,455.8L847.3,455.8z M792.2,373.7v-18.5h-62.4v18.5H792.2z"/>
		<path class="st1" d="M1043,455.8H865.8V382l69-69.2h124.9v19.2l-32.5,32.5h-59.1l9.5-9.5h-16.9l-39.9,39.8v18.5h83.7v-9.1h-33.5
			v-18.5l12.2-12h76.4V439L1043,455.8z"/>
		<path class="st1" d="M1133.3,455.8h-55.1V382l21.1-21.3v-47.9h55.3v61l-21.3,21.1V455.8L1133.3,455.8z"/>
		<path class="st1" d="M1360.1,455.8H1305V437h-62.4v-42.2h62.4l-39.9-39.8h-22.6v18.7l-21.3,21.1v61h-55.1V382l21.1-21.3v-47.9
			h103.6l69.2,69.2L1360.1,455.8L1360.1,455.8z"/>
	</g>
</g>
</svg>
