<?xml version="1.0" encoding="utf-8"?>
<!-- Generator: Adobe Illustrator 27.5.0, SVG Export Plug-In . SVG Version: 6.00 Build 0)  -->
<svg version="1.1" id="Layer_1" xmlns="http://www.w3.org/2000/svg" xmlns:xlink="http://www.w3.org/1999/xlink" x="0px" y="0px"
	 viewBox="0 0 1366 768" style="enable-background:new 0 0 1366 768;" xml:space="preserve">
<style type="text/css">
	.st0{fill:#AEFF00;stroke:#AEFF00;stroke-width:5;stroke-miterlimit:10;}
	.st1{fill:#4243AE;stroke:#AEFF00;stroke-width:5;stroke-miterlimit:10;}
</style>
<g>
	<g>
		<path class="st0" d="M184.7,455.3H8v-73.7l68.7-69h124.5v19.2l-32.4,32.5H110l9.4-9.4h-16.9l-39.8,39.8v18.6h83.5v-9h-33.4v-18.6
			l12.2-12h76.1v65.1L184.7,455.3z"/>
		<path class="st0" d="M408.9,455.3H222.2v-73.7l21.2-21.3v-47.8h172.2v42.3H298.3v18.6h86.4v12.8l-5.5,5.5v0.2l-12,12.1h-76.3
			v-23.1l-13.7,13.7v18.8H388l0.4,0.2l-0.4,0.2l20.4,20.6h0.4L408.9,455.3L408.9,455.3z"/>
		<path class="st0" d="M551.6,455.3H427.1v-73.7l68.9-69h124.5v73.7L551.6,455.3z M526,412.9l39.5-39.6v-18.6h-43.8l-39.5,39.6v18.6
			H526z"/>
		<path class="st0" d="M830.1,455.3H726.9l-35.1-35.1v35.1h-54.9v-73.7l21.2-21.3v-47.8h172v73.7l-5.3,5.5l-12.2,12.2h-69.2l9.2,9.2
			h54.5l22.9,22.7L830.1,455.3L830.1,455.3z M775.2,373.3v-18.6H713v18.6H775.2z"/>
		<path class="st0" d="M1025.3,455.3H848.6v-73.7l68.7-69h124.5v19.2l-32.4,32.5h-58.9l9.4-9.4h-16.9l-39.8,39.8v18.6h83.5v-9h-33.4
			v-18.6l12.2-12h76.1v65.1L1025.3,455.3z"/>
		<path class="st0" d="M1115.2,455.3h-54.9v-73.7l21-21.3v-47.8h55.1v60.9l-21.2,21.1V455.3L1115.2,455.3z"/>
		<path class="st0" d="M1341.3,455.3h-54.9v-18.8h-62.2v-42.1h62.2l-39.8-39.8h-22.4v18.8l-21.2,21.1v60.9H1148v-73.7l21-21.3v-47.8
			h103.3l68.9,69.1L1341.3,455.3L1341.3,455.3z"/>
	</g>
	<g>
		<path class="st1" d="M201.3,455.6H24.7V382L93.4,313H218v19.2l-32.4,32.4h-58.9l9.4-9.4h-16.9l-39.8,39.7v18.5H163v-9h-33.3v-18.5
			l12.2-12H218v65L201.3,455.6z"/>
		<path class="st1" d="M425.5,455.6H238.8V382l21.2-21.2V313h172.2v42.2H315v18.5h86.4v12.8l-5.5,5.5v0.2l-12,12h-76.3v-23.1
			l-13.7,13.7v18.7h110.9l0.4,0.2l-0.4,0.2l20.4,20.6h0.4L425.5,455.6L425.5,455.6z"/>
		<path class="st1" d="M568.3,455.6H443.8V382l68.9-68.9h124.6v73.6L568.3,455.6z M542.7,413.2l39.5-39.5v-18.5h-43.8l-39.5,39.5
			v18.5H542.7z"/>
		<path class="st1" d="M846.8,455.6H743.5l-35.1-35.1v35.1h-54.9V382l21.2-21.2V313h172v73.6l-5.3,5.5l-12.2,12.2H760l9.2,9.2h54.5
			l22.9,22.7L846.8,455.6L846.8,455.6z M791.8,373.7v-18.5h-62.2v18.5H791.8z"/>
		<path class="st1" d="M1041.9,455.6H865.2V382L934,313h124.5v19.2l-32.4,32.4h-58.9l9.4-9.4h-16.9L920,394.9v18.5h83.5v-9H970
			v-18.5l12.2-12h76.1v65L1041.9,455.6z"/>
		<path class="st1" d="M1131.9,455.6h-54.9V382l21-21.2V313h55.1v60.8l-21.2,21V455.6L1131.9,455.6z"/>
		<path class="st1" d="M1358,455.6H1303v-18.8h-62.2v-42h62.2l-39.8-39.7h-22.5v18.7l-21.2,21v60.8h-54.9V382l21-21.2V313h103.3
			l68.9,68.9L1358,455.6L1358,455.6z"/>
	</g>
</g>
</svg>
