<?xml version="1.0" encoding="UTF-8"?>
<svg id="Layer_2" data-name="Layer 2" xmlns="http://www.w3.org/2000/svg" viewBox="0 0 2882.47 505.1">
  <defs>
    <style>
      .cls-1 {
        opacity: .31;
      }

      .cls-2 {
        fill: none;
        stroke: #4243ae;
        stroke-miterlimit: 10;
        stroke-width: 4px;
      }
    </style>
  </defs>
  <g id="Layer_1-2" data-name="Layer 1">
    <g id="Layer_3" data-name="Layer 3">
      <g class="cls-1">
        <path class="cls-2" d="m7.12,2c129.1,8.7,238.8,12.9,322.9,15,63.5,1.6,111.9,2.6,180.1,2.4,131.1-.3,230.2-5.3,295.3-8,191.5-8,124.4,2,740.3,0,251-.8,333.5-2.7,469.7-3.4,53-.2,106-.3,158.9-.3,235.8.1,471.6,2.3,707.4,6.8"/>
        <path class="cls-2" d="m1.82,34.3c221,23.8,397.2,25.8,519.5,22.9,53.5-1.3,173.6-5.9,413.6-15.9,55.6-2.3,121.7-4.5,206.3-6.4,67.7-1.5,39.9-.4,394.8-5,91-1.2,164.4-2.2,221.2-2.9,59.1-.8,108.1-1.5,130.4-1.8.3,0,11.8-.2,12.1-.2,43-.6,312.7,3.6,981.9,16.6"/>
        <path class="cls-2" d="m2881.82,75.3c-197.1-6.8-349.1-12.6-453.7-16.8-126.2-5.1-189.3-7.8-218.7-9.2-177.3-8.5-223.6-13.5-352.8-13-101.4.4-250,9.3-547.2,27.2-137.9,8.3-177.9,11.7-429.5,27.2-123.8,7.6-270.8,16.4-334.2,19.8-119.8,6.4-299.2,13.3-543.8,13.1"/>
        <path class="cls-2" d="m1.82,179.7c16.9,2.2,43.2,5.2,75.6,7.3,134.5,8.6,191.9-10.7,379.9-23.4,56.9-3.8,107.8-5.6,196.3-9.4,113.6-4.9,144.4-5.2,262.6-12.9,139-9,339.2-24,528.2-42.1,26-2.5,73-7,138.5-12.4,90.9-7.4,191.3-15.6,290.9-18.5,125.9-3.8,217.8,1.8,332.5,8.7,6.4.4,13.4.8,21.2,1.3,43.2,2.9,82.9,5.9,119.6,9,98.5,8.4,228.1,23,228.1,23,71.8,8,175.2,19,306.5,31"/>
        <path class="cls-2" d="m2881.82,229.2c-192.9-17.6-355.4-28.7-479.7-36-181-10.5-285.2-12.6-372.3-13.6-249.8-2.9-330.4,13-744.7,35.9-109.4,6-264.4,13.8-575,24.7-166.2,5.8-409,13.2-708.3,18"/>
        <path class="cls-2" d="m1.82,344.8c151.6,6.7,286.9,9.6,403.5,10.5,5.8,0,22.8.2,44.7.2,63.8.1,143.9-1.1,396.9-5.2,300.2-4.9,452.8-7.4,576.7-9.9,134.5-2.7,169.4-3.8,301.3-6.2,204.4-3.8,308.5-5.6,400-5,25.6.2,47.2.5,68,.8,149.7,2.8,259.1,7.2,302.6,9,85.9,3.6,212.6,7.8,386.2,9.9"/>
        <path class="cls-2" d="m210.42,12.2c-32.6,42.9-66.7,71.3-92.3,89.5-23.2,16.5-41.2,28.2-64.8,50.9C27.22,177.6,11.32,201.1,1.72,217.3"/>
        <path class="cls-2" d="m488.72,19.5c-11.4,19.7-30.2,47.5-60.9,77.3-17.2,16.8-33.6,29.6-69.3,55.7-48.9,35.7-73.3,53.5-112.6,79.2-49.3,32.2-125.2,102.3-244.1,264.6"/>
        <path class="cls-2" d="m772.52,12.8c-14.4,14.2-35.3,36-57.2,64.2-21.8,28.1-24.8,37.6-43.3,60.6-6.8,8.4-27.5,33.6-79.7,80.4-62.7,56.3-68,51.5-102.2,85.3-7.4,7.3-13.2,13.6-18.5,19.7-31.2,36.2-61.1,82.9-61.1,82.9-14.9,23.4-38.3,56.2-75.4,95.7"/>
        <path class="cls-2" d="m1046.12,9.6c-5.7,13.1-14,32.1-24.3,55-13.1,29.3-19.5,44-24.2,53.2-5.8,11.3-22.9,43.6-52,82.9-38.6,52.1-47.7,48.2-74.5,85.3-29,40.2-56.5,129.3-58.9,137.3-6.5,21.8-14.2,48.2-22.5,78.3"/>
        <path class="cls-2" d="m1310.42,11.6c.7,10.3,1.3,24.2.7,40.6,0,0-.5,19.9-3.5,38.3-6.6,41.5-23.9,64.1-39.8,97.7-20.6,43.4-26.1,78.4-31.2,110.1-8.2,51.3-5.2,91.2-3.5,113.8,2.9,37,9.3,68.5,15.6,92.5"/>
        <path class="cls-2" d="m1576.22,11.3c.7,2.6,1.8,6.5,3.3,11.2,8.3,26.1,19.9,43.3,22.5,50.7,6.2,17.5,5.1,26,5.2,69.3.2,51,.2,76.5,3.5,100.2,3.6,26.5,9.2,45.3,17.3,73,10.8,36.6,21.7,63.3,36.4,98.9,9.4,22.9,22.2,52.5,38.6,87"/>
        <path class="cls-2" d="m1840.42,9.5c-.3,2-.4,5,.9,8.3,2.3,5.9,7.6,9.6,12.7,13,17.3,11.4,24.5,14.8,24.5,14.8,16,7.7,37.3,17.8,50.5,28.7,12,9.8,16.8,19.7,22.5,32.8,21.6,49.5,34.7,94.6,34.9,95.2,9.3,32.1,16.4,56.4,27.7,83.3,14.5,34.4,29.7,58.2,50.8,90.7,21.5,33.2,51.9,76.3,93.5,125.3"/>
        <path class="cls-2" d="m2112.92,7.7c.2,2,.7,5.1,2.9,8.3,8.1,12.2,30.7,14,47.3,18.1,27.6,6.9,45.7,15.7,72.7,28.9,16.9,8.2,39.2,19.1,57.7,36.3,22.2,20.6,28.1,40.1,34.6,56.9,5.8,15.1,24.3,45.3,61.2,105.5,35.4,57.7,70.5,99.9,94.7,128.6,26.8,31.8,61.6,69.9,105.5,111.3"/>
        <path class="cls-2" d="m2379.02,8.6c1.6,2.4,4.1,6,8.1,9.8,16.8,16.3,42.4,20.7,51.9,23.9,33.5,11.1,54.6,22.6,93.5,43.7,26.8,14.5,51.4,27.9,75.1,50.3,21.8,20.6,18.3,25.7,48.5,63.5,16.5,20.6,43.2,49.6,58.9,63.5,51.9,46.2,148.6,79.6,166.8,85.8"/>
      </g>
    </g>
  </g>
</svg>