<?xml version="1.0" encoding="utf-8"?>
<!-- Generator: Adobe Illustrator 27.5.0, SVG Export Plug-In . SVG Version: 6.00 Build 0)  -->
<svg version="1.1" id="Layer_1" xmlns="http://www.w3.org/2000/svg" xmlns:xlink="http://www.w3.org/1999/xlink" x="0px" y="0px"
	 viewBox="0 0 2880 1800" style="enable-background:new 0 0 2880 1800;" xml:space="preserve">
<style type="text/css">
	.st0{stroke:#000000;stroke-width:5;stroke-miterlimit:10;}
	.st1{opacity:0.31;}
	.st2{fill:none;stroke:#4243AE;stroke-width:4;stroke-miterlimit:10;}
	.st3{opacity:0.28;}
	.st4{fill:#4243AE;stroke:#4243AE;stroke-miterlimit:10;}
	.st5{opacity:0.61;}
	.st6{fill:none;stroke:#000000;stroke-miterlimit:10;}
	.st7{fill:none;stroke:#FFFFFF;stroke-width:2;}
</style>
<g id="Layer_4">
	<path class="st0" d="M-0.6-3h2880v1800H-0.6V-3z"/>
</g>
<g id="Layer_3_00000003079241142674398570000012539997584035892614_">
	<g class="st1">
		<path class="st2" d="M5.3,1306c129.1,8.7,238.8,12.9,322.9,15c63.5,1.6,111.9,2.6,180.1,2.4c131.1-0.3,230.2-5.3,295.3-8
			c191.5-8,124.4,2,740.3,0c251-0.8,333.5-2.7,469.7-3.4c53-0.2,106-0.3,158.9-0.3c235.8,0.1,471.6,2.3,707.4,6.8"/>
		<path class="st2" d="M0,1338.3c221,23.8,397.2,25.8,519.5,22.9c53.5-1.3,173.6-5.9,413.6-15.9c55.6-2.3,121.7-4.5,206.3-6.4
			c67.7-1.5,39.9-0.4,394.8-5c91-1.2,164.4-2.2,221.2-2.9c59.1-0.8,108.1-1.5,130.4-1.8c0.3,0,11.8-0.2,12.1-0.2
			c43-0.6,312.7,3.6,981.9,16.6"/>
		<path class="st2" d="M2880,1379.3c-197.1-6.8-349.1-12.6-453.7-16.8c-126.2-5.1-189.3-7.8-218.7-9.2
			c-177.3-8.5-223.6-13.5-352.8-13c-101.4,0.4-250,9.3-547.2,27.2c-137.9,8.3-177.9,11.7-429.5,27.2
			c-123.8,7.6-270.8,16.4-334.2,19.8c-119.8,6.4-299.2,13.3-543.8,13.1"/>
		<path class="st2" d="M0,1483.7c16.9,2.2,43.2,5.2,75.6,7.3c134.5,8.6,191.9-10.7,379.9-23.4c56.9-3.8,107.8-5.6,196.3-9.4
			c113.6-4.9,144.4-5.2,262.6-12.9c139-9,339.2-24,528.2-42.1c26-2.5,73-7,138.5-12.4c90.9-7.4,191.3-15.6,290.9-18.5
			c125.9-3.8,217.8,1.8,332.5,8.7c6.4,0.4,13.4,0.8,21.2,1.3c43.2,2.9,82.9,5.9,119.6,9c98.5,8.4,228.1,23,228.1,23
			c71.8,8,175.2,19,306.5,31"/>
		<path class="st2" d="M2880,1533.2c-192.9-17.6-355.4-28.7-479.7-36c-181-10.5-285.2-12.6-372.3-13.6
			c-249.8-2.9-330.4,13-744.7,35.9c-109.4,6-264.4,13.8-575,24.7c-166.2,5.8-409,13.2-708.3,18"/>
		<path class="st2" d="M0,1648.8c151.6,6.7,286.9,9.6,403.5,10.5c5.8,0,22.8,0.2,44.7,0.2c63.8,0.1,143.9-1.1,396.9-5.2
			c300.2-4.9,452.8-7.4,576.7-9.9c134.5-2.7,169.4-3.8,301.3-6.2c204.4-3.8,308.5-5.6,400-5c25.6,0.2,47.2,0.5,68,0.8
			c149.7,2.8,259.1,7.2,302.6,9c85.9,3.6,212.6,7.8,386.2,9.9"/>
		<path class="st2" d="M208.6,1316.2c-32.6,42.9-66.7,71.3-92.3,89.5c-23.2,16.5-41.2,28.2-64.8,50.9c-26.1,25-42,48.5-51.6,64.7"/>
		<path class="st2" d="M486.9,1323.5c-11.4,19.7-30.2,47.5-60.9,77.3c-17.2,16.8-33.6,29.6-69.3,55.7
			c-48.9,35.7-73.3,53.5-112.6,79.2C194.8,1567.9,118.9,1638,0,1800.3"/>
		<path class="st2" d="M770.7,1316.8c-14.4,14.2-35.3,36-57.2,64.2c-21.8,28.1-24.8,37.6-43.3,60.6c-6.8,8.4-27.5,33.6-79.7,80.4
			c-62.7,56.3-68,51.5-102.2,85.3c-7.4,7.3-13.2,13.6-18.5,19.7c-31.2,36.2-61.1,82.9-61.1,82.9c-14.9,23.4-38.3,56.2-75.4,95.7"/>
		<path class="st2" d="M1044.3,1313.6c-5.7,13.1-14,32.1-24.3,55c-13.1,29.3-19.5,44-24.2,53.2c-5.8,11.3-22.9,43.6-52,82.9
			c-38.6,52.1-47.7,48.2-74.5,85.3c-29,40.2-56.5,129.3-58.9,137.3c-6.5,21.8-14.2,48.2-22.5,78.3"/>
		<path class="st2" d="M1308.6,1315.6c0.7,10.3,1.3,24.2,0.7,40.6c0,0-0.5,19.9-3.5,38.3c-6.6,41.5-23.9,64.1-39.8,97.7
			c-20.6,43.4-26.1,78.4-31.2,110.1c-8.2,51.3-5.2,91.2-3.5,113.8c2.9,37,9.3,68.5,15.6,92.5"/>
		<path class="st2" d="M1574.4,1315.3c0.7,2.6,1.8,6.5,3.3,11.2c8.3,26.1,19.9,43.3,22.5,50.7c6.2,17.5,5.1,26,5.2,69.3
			c0.2,51,0.2,76.5,3.5,100.2c3.6,26.5,9.2,45.3,17.3,73c10.8,36.6,21.7,63.3,36.4,98.9c9.4,22.9,22.2,52.5,38.6,87"/>
		<path class="st2" d="M1838.6,1313.5c-0.3,2-0.4,5,0.9,8.3c2.3,5.9,7.6,9.6,12.7,13c17.3,11.4,24.5,14.8,24.5,14.8
			c16,7.7,37.3,17.8,50.5,28.7c12,9.8,16.8,19.7,22.5,32.8c21.6,49.5,34.7,94.6,34.9,95.2c9.3,32.1,16.4,56.4,27.7,83.3
			c14.5,34.4,29.7,58.2,50.8,90.7c21.5,33.2,51.9,76.3,93.5,125.3"/>
		<path class="st2" d="M2111.1,1311.7c0.2,2,0.7,5.1,2.9,8.3c8.1,12.2,30.7,14,47.3,18.1c27.6,6.9,45.7,15.7,72.7,28.9
			c16.9,8.2,39.2,19.1,57.7,36.3c22.2,20.6,28.1,40.1,34.6,56.9c5.8,15.1,24.3,45.3,61.2,105.5c35.4,57.7,70.5,99.9,94.7,128.6
			c26.8,31.8,61.6,69.9,105.5,111.3"/>
		<path class="st2" d="M2377.2,1312.6c1.6,2.4,4.1,6,8.1,9.8c16.8,16.3,42.4,20.7,51.9,23.9c33.5,11.1,54.6,22.6,93.5,43.7
			c26.8,14.5,51.4,27.9,75.1,50.3c21.8,20.6,18.3,25.7,48.5,63.5c16.5,20.6,43.2,49.6,58.9,63.5c51.9,46.2,148.6,79.6,166.8,85.8"/>
	</g>
</g>
<g id="Layer_2">
	<g class="st3">
		<path class="st2" d="M446.6,173.2c-24.1,9.3-97,39.6-170.3,107.3c-33.8,31.2-144.4,136.5-172,312.2
			c-25.4,161.6,34.9,284.4,65.9,347.6c21.9,44.7,67.4,134.8,164.6,206.1c33.7,24.7,86.1,62.1,161,71.9c20,2.6,65.6,8.6,117.1-4.9
			c12.5-3.3,24.1-7.3,71.9-20.7c23.6-6.6,35.7-10,50-13.4c29.1-7,32.7-6.4,71.9-14.6c20.8-4.4,45.5-9.6,76.8-18.3
			c21-5.8,34.2-9.5,51.2-15.9c0,0,35.8-13.4,68.3-32.9c37.6-22.6,110.8-96.1,153.7-206.1c33.9-86.9,71.4-254.7-7.3-429.3
			C1064.3,273.6,886.8,173,733.6,146.4C586.6,120.9,468.9,164.6,446.6,173.2z"/>
		
			<ellipse transform="matrix(0.8895 -0.4569 0.4569 0.8895 -118.6447 272.8637)" class="st4" cx="504.9" cy="381.8" rx="50" ry="31.9"/>
		
			<ellipse transform="matrix(0.9565 -0.2916 0.2916 0.9565 -90.7378 165.1083)" class="st2" cx="508.6" cy="387" rx="115.6" ry="91.6"/>
		
			<ellipse transform="matrix(0.9565 -0.2916 0.2916 0.9565 -94.6636 167.7638)" class="st2" cx="515.5" cy="401.5" rx="214.9" ry="168.5"/>
		<path class="st2" d="M328.7,272c-18.3,17.3-63.9,61.2-85.4,132.9c-7.6,25.3-18.5,61.9-7.3,104.9c14.2,54.6,55.4,85.5,78,102.4
			c79.1,59.4,169.7,58.3,251.2,57.3c51.1-0.6,75-7.4,92.7-14.6c47.8-19.6,74.8-52.8,96.3-79.3C775.9,549,817,497.1,825,419.5
			c2.2-20.8,5.2-53.1-7.3-91.5c-25.5-78.5-93.7-114.7-109.8-123.2c-51.3-27.2-98.5-27.9-131.7-28C548.9,176.8,427,179.5,328.7,272z"
			/>
		<path class="st2" d="M337.6,731.3c18.2,8.4,72.8,31.8,178.9,35c104.7,3.1,157.1,4.7,215.4-26c77.2-40.6,114.7-110,143.9-164.2
			c19.8-36.8,39-73.2,44.7-126c2.5-23.1,10.7-99.1-35-168.3c-35.3-53.6-89.8-83.3-109.3-93.9c-5.5-3-10.2-5.4-13.4-6.9
			c-49.9-20.9-125.3-42.6-215.2-33.4c-172.5,17.7-288.4,137.9-336,221.2c-14.1,24.7-38,67.6-39,126.8c-0.8,45.8,12.3,80.7,18.3,94.7
			c19.1,44.9,47.3,71.5,64.6,87.4C264.6,686.1,292.1,710.3,337.6,731.3z"/>
		<path class="st2" d="M138.4,473.3c-0.4,0.9-1,2.3-1.6,3.9c-5.9,14.7-10.4,33.8-8.9,73.6c0.6,15.1,1.2,31.5,4.5,49.2
			c11.6,62.2,50.5,107.1,69.5,129.3c39.9,46.6,81.9,70,112.2,86.6c25.3,13.8,83,44.6,163.4,53.7c73.3,8.2,126.1-6,225.6-32.9
			c65.3-17.7,98.7-27,134.1-52.4c46.5-33.3,71.2-73.2,97.6-115.9c19.4-31.3,45.7-74.6,61-137.8c9.2-38.1,20.7-85.7,7.3-145.1
			c-13-57.7-42.5-95.7-58.5-115.9c-38.1-47.9-81.2-74.4-107.3-87.8L792.4,160"/>
		<path class="st2" d="M106.3,580.6c-1.4,8.8-2.7,17.5-4.1,26.3c-0.2,8.3,0.1,17.8,1.2,28.1c1.1,9.7,2.7,18.4,4.5,26
			c7.6,30.9,23.2,78.5,57.3,128c29,42.1,58.9,67.8,76.8,82.9c25.3,21.4,68.5,57.2,135.4,79.3c24.1,8,60.2,19.9,107.3,18.3
			c54.4-1.9,65-19.8,151.2-43.9c71.8-20.1,71.6-9.7,136.6-29.3c51.6-15.5,94.6-28.5,140.2-62.2c52.7-38.9,79.6-83.9,102.4-122
			c22.6-37.7,50.5-85.3,61-154.9c11.3-75.3-4.2-133.6-8.5-148.8c-19.1-66.7-54.1-111.6-74.4-134.1l-28.2-32.2"/>
		<path class="st2" d="M98.3,663.4c4.7,19.3,9.3,38.6,14,57.9c2.9,15.7,7.4,38.3,14.6,65.2c5.1,19,8.2,30.7,14,45.7
			c3.2,8.3,14,35,35.4,65.9c5.7,8.2,24.6,34.7,57.9,64c21,18.5,72.7,63,153.7,85.4c29.1,8,68.4,18.4,116.3,9.1
			c8.3-1.6,21-5.9,46.5-14.6c63.1-21.5,73.8-29.9,123.8-45.1c27-8.2,46.1-12.5,59.8-15.2c20.1-4,30.5-4.9,46.3-7.3
			c20.5-3.1,62.8-9.4,98.2-22.6c35.3-13.1,57.8-30.8,82.9-50.6c22.7-17.8,73.4-58.6,115.2-130.5c47.9-82.3,56.1-157.5,57.9-177.4
			c2.3-25.3,6.3-75.3-11-137.2c-17.2-61.7-47.3-105.4-67.1-129.9c-10.5-11.9-20.9-23.8-31.4-35.7"/>
		<path class="st2" d="M1145.7,454.3c5.8,20,13.7,48.9,21.9,85.2c2.6,11.5,3.3,15,3.7,17.1c6.3,34.6,3.5,63.8-1.2,96.3
			c-8.1,56-12.1,84-21.1,108.1c-13.6,36.5-30.4,59.8-54.9,93.1c-23.8,32.5-59.9,76.6-111.4,123.6c-17.2,9.3-34.4,18.5-51.7,27.8
			c-17.3,6.6-43.7,15.9-76.6,24c-58.4,14.3-67.1,7.5-126.6,21.4c-28,6.5-69.2,16.4-117.2,40c-24.8,12.2-24.4,14.8-42.6,22.1
			c-49.6,20.1-94.5,19.4-112.2,16.7c-62.1-9.6-119.4-28.7-174.3-64.5c-4.8-4.8-9.6-7.2-16.7-11.9c-13.5-11.1-27.6-24.1-41.8-39.1
			c-6.6-7-12.7-13.9-18.4-20.7c-3.3-3.2-7.2-7.5-10.8-12.9c-4.7-7-7.6-13.5-9.3-18.7c-3.8-7.2-7.6-14.4-11.4-21.5
			c-3.8-7.2-7.6-14.4-11.4-21.5c-2.8-3.9-5.7-8.4-8.3-13.8c-1.4-2.7-2.6-5.4-3.6-7.9"/>
		<path class="st2" d="M1192,614.6c3.3,45.7,0.6,80.9-2.4,104.1c-2,16-4.3,26.8-5.3,31.3c-2,9.1-7.5,32.4-22.4,67.5
			c-5.7,13.5-20.1,45.7-45.1,84.6c-10.7,16.7-27.6,42.5-54.9,72.4c-16.5,18-40.3,43.6-78,68.3c-23.8,15.5-45.4,25.6-61.4,32.1
			c-16.7,5.3-30.5,8.6-39.8,10.6c-10.8,2.3-12.7,2.3-43.5,7.7c-21.2,3.7-21.4,3.9-38.6,6.9c-20.7,3.6-23.8,3.9-36.6,6.1
			c-24.7,4.3-37.1,6.5-50.4,10.2c-29.7,8.2-54.9,20.2-65.4,25.2c-7.4,3.5-18,8.9-32.9,14.6c-2,0.8-7.9,3-19.5,7.3
			c-8.3,3.1-11.9,4.4-16.7,6.1c0,0-7.7,2.7-14.6,4.9c-7.7,2.4-38,10-78.5,8.5c-40.4-1.5-70.8-11.2-84.7-16.3
			c-7.2-2.6-13.2-5.2-17.5-7.1c-13.8-3.5-24.1-8-31.1-11.6c-4.8-2.5-7.5-4.2-17.1-9.8c-10.6-6.2-19.4-11-25.2-14.2
			c-5.8-5.6-12.2-11.3-19.1-17.1c-6-5-11.8-9.6-17.5-13.8c-3.9-4-7.8-8.2-11.8-12.6c-3.1-3.4-6.1-6.8-8.9-10.2c-2-2.3-4-4.7-6-7.2
			c-3-3.7-6-7.4-8.8-11"/>
		<path class="st2" d="M412.2,1194c17.9,4.9,74.2,19.3,128.1,17.3c11.6-0.4,30.2-1.2,53.7-7.3c15-3.9,19.2-6.7,39.2-14.1
			c39.3-14.6,38.3-11,83.7-25.2c40-12.5,47.4-15.5,67.5-19.9c24.2-5.3,27.9-4.1,58.1-10.6c4.9-1.1,28-6,58.5-15
			c29.6-8.7,44.4-13.1,61.4-21.1c25.1-11.9,42-24.7,53.3-33.3c18-13.8,66.7-64,125.7-137.8"/>
		<path class="st2" d="M471.6,367c-30.2-11.2-57.2-18.8-79.8-24.2c-40-9.5-65.8-15.7-99.7-13.4c-30.9,2-57.4,10.3-78.5,19.7"/>
		<path class="st2" d="M493.5,370c-24.4-18-46.9-31.8-65.9-42.3c-33.7-18.7-55.5-30.8-86.7-36.7c-28.4-5.4-54.5-3.6-75.9,0.4"/>
		<path class="st2" d="M488.3,361.8c-18.2-23.3-35.6-42.2-50.7-57c-19.8-19.5-40.1-38.9-71.7-56.7c-12.3-6.9-23.1-11.8-30.8-15"/>
		<path class="st2" d="M496.6,361.4c-16.5-27.8-28.2-51.2-35.8-67.4c-12.1-25.8-19.4-45-36.3-73.1c-8.3-13.8-15.8-24.5-20.8-31.5"/>
		<path class="st2" d="M498,349.9c-4.8-26.9-8.5-50-11.2-68.2c-7.3-47.5-8.8-65.6-8.5-86.2c0.2-15,1.3-27.3,2.3-35.5"/>
		<path class="st2" d="M511.2,348.4c1.7-38.2,5-69.8,8.1-93.5c3-22.4,5.8-38.1,13-56.1c7.1-17.8,16.5-32.9,19.1-37
			c4.7-7.5,9.2-13.6,12.6-18.1"/>
		<path class="st2" d="M519.3,345.4c7.5-30.1,16.5-54.6,24-72.6c11.8-28.2,20.5-49.2,39.4-73.2c5.7-7.2,19.9-24.3,42.3-41.9
			c10.7-8.4,20.5-14.7,28.1-19.1"/>
		<path class="st2" d="M525.4,348.8c10.3-19.8,25.6-46.2,47.2-75.2c15.7-21.1,32.9-44.2,58.1-65.9c19.9-17.1,57.1-43.8,115.6-59"/>
		<path class="st2" d="M534,351.7c12.1-13.5,29.7-32.7,52-54.9c26.9-26.7,40.4-40,59.4-54.1c32.2-23.9,61.1-36.1,78-43.1
			c20.4-8.4,41.2-16.6,70.3-20.3c21.9-2.8,40.4-1.9,53.4-0.5"/>
		<path class="st2" d="M537.6,355.3c27.3-25,53.3-43.5,74.8-56.9c5.3-3.3,37.8-23.4,79.7-40.7c30-12.4,52.8-18.7,77.6-25.6
			c43.5-12.1,63-13.8,68.7-14.2c21.7-1.7,38.7-0.4,48.8,0.4c22.8,1.9,42,5.9,56.5,9.7"/>
		<path class="st2" d="M550.2,352.1"/>
		<path class="st2" d="M544.5,357.8c23.6-12.9,55.3-29,93.9-44.7c27.6-11.2,63.3-25.6,112.2-37c34.1-8,65.8-15.4,109.3-15
			c52.4,0.4,93.2,12.5,114.6,19.9c31.2,10.8,55.7,24.1,72.9,34.8"/>
		<path class="st2" d="M542.8,370c24-12.1,56.6-26.4,96.8-38c49.5-14.2,88.6-17.9,111-19.8c53.9-4.8,94.8-1.6,118.7,0.4
			c27.7,2.3,55.2,4.7,91.1,14.2c10.6,2.8,34.9,9.4,61,21.1c26.3,11.8,70.4,36.2,114.3,85.9"/>
		<path class="st2" d="M542.9,374.4c44.2-8.3,81.8-12.4,109.8-14.6c58.9-4.7,138.5-10.4,234.6,10.6c23.8,5.2,57.6,12.6,96.7,29.3
			c42.7,18.2,125.4,61.8,199.6,165.7"/>
		<path class="st2" d="M538.4,379.7c17.6-1.1,42.5-2.1,72.4-0.8c29.6,1.2,51.5,4.1,85,8.5c41.7,5.5,62.5,8.3,87.8,13.8
			c10.5,2.3,53.8,12,108.5,33.3c43.3,16.9,74.3,33.4,96.7,45.5c28.2,15.2,46.9,25.4,70.7,43.1c32.9,24.5,53.6,47,58.9,52.8
			c12.3,13.6,28.8,32,44.3,60.2c15,27.2,23.2,52.8,27.9,73.2"/>
		<path class="st2" d="M531.1,383c6.5,1.6,16.2,3.8,28,6.3c36.3,7.4,51,7.8,74,12c22.2,4.1,39.2,9.9,73.2,21.5
			c35.3,12.1,62.1,23.6,74.8,29.3c35.5,15.8,59.4,29.2,96.3,50c45.9,25.8,78.1,46.5,100.4,61c36.4,23.5,49.2,33.4,55.3,38.2
			c14.9,11.8,36.1,28.7,59.4,55.3c10.5,12.1,26.7,30.8,42.3,58.9c8.4,15.1,21.4,39,28.9,73.2c6.1,27.8,6.2,51.7,5.1,68.5"/>
		<path class="st2" d="M528.3,388.7c11.5,3.2,29.1,8.6,50,17.1c11.3,4.5,16,6.9,51.2,23.6c45,21.2,44.2,20.6,58.5,27.6
			c24.9,12.2,40.9,20.1,55.3,28.5c33,19.2,51.3,37.5,77.2,61c26.8,24.2,4.6,2.3,110.2,90.6c97.3,81.4,109.4,94.4,119.5,106.1
			c26.7,30.9,51.8,60.4,66.3,106.9c12,38.7,11.8,73,9.7,95.6"/>
		<path class="st2" d="M523,387.4c12,8,30.7,20.4,53.7,35.4c36.5,23.7,46.6,29.7,63.8,41.5c34.8,23.9,59.5,45,71.5,55.3
			c13,11.1,28.3,25,102,102.8c35.9,37.9,53.8,56.8,65.9,70.3c36.6,41.1,61.5,69,90.6,111c34.7,49.9,27.7,50.9,64.2,106.5
			c5.2,7.9,15.5,23.3,23.2,45.9c2.1,6.3,7.3,22.5,9.3,44.3c1.5,15.7,0.9,29.3-0.2,39.7"/>
		<path class="st2" d="M522.6,392.3c10.1,11.2,25.7,28,45.5,47.6c23.7,23.4,41.8,39.1,50.8,47.2c41.5,36.9,73.2,71.8,97.6,98.8
			c48.2,53.2,91.7,101.2,127.6,170.3c13.4,25.8,26.1,50.1,37,85.4c9.6,30.9,8.2,39.1,19.5,65.9c14.2,33.6,33.2,60.5,38.6,67.9
			c12.9,17.8,21.5,26,35.4,49.2c11.8,19.7,15.1,29.4,16.7,38.2c3.3,18.4-0.2,34.1-3.2,43.5"/>
		<path class="st2" d="M511.2,389.9c10,14.9,24.1,35.8,41.5,60.6c26.8,38.4,40.2,57.5,55.3,76c20,24.6,39.1,48.1,68.3,74.8
			c14.6,13.4,27.1,23.3,42.3,43.1c9.8,12.8,16,23.5,25.6,40.2c11.9,20.8,21.1,36.9,30.5,59.8c6,14.7,16.9,41.8,22.4,78.5
			c3,19.7,3.5,36.4,4.1,52.8c1.2,34.5-1.7,35,0.4,51.6c3.7,29.5,15.6,51.3,24.8,67.9c9.6,17.2,9.6,12.4,37.8,54.5
			c18.4,27.4,24.8,39,29.3,54.1c4.7,15.7,5.6,29.3,5.7,38.4"/>
		<path class="st2" d="M511.2,389.9c4.4,14.4,10.8,33.9,19.5,56.5c7.7,20,13.8,35.9,23.2,54.5c7.2,14.2,22.4,43.9,49.6,75.2
			c4.4,5.1,22.7,23.8,59.4,61.4c9.3,9.6,12.7,13,17.5,19.1c7.7,9.8,12.5,18.3,31.3,59.4c13.6,29.7,15.4,34.6,17.1,41.5
			c1.4,5.7,4.7,20.4,4.5,40.7c-0.2,18.9-3.5,32.7-15,71.5c-18.3,61.3-21.2,63.7-22.4,81.3c-1.8,27.3,3.6,49.2,6.9,60.2
			c8.8,29.3,23.9,49.9,39.4,71.1c13.6,18.6,18.9,22,32.1,41.9c11.3,17,19.1,32.1,24,42.4"/>
		<path class="st2" d="M508.5,387c0.5,15.7,1.8,37.8,5.1,64.3c3.4,27,5.1,40.5,10.2,57.7c10.3,34.9,27.1,61.4,39,77.2
			c12.2,16.2,11.4,10.9,47.2,50.8c29.3,32.7,36.4,43.6,39.4,48.4c7,11,18.4,29.5,25.6,56.1c3.5,12.9,9.3,34.3,6.1,58.9
			c-3.3,25.8-13.7,32.9-39.4,78.9c-21.3,38-32,57.1-38.2,82.9c-3.6,14.8-11,47.6-1.2,86.2c4.8,18.7,12.4,32.7,27.6,60.6
			c10.3,18.9,17.9,32.5,31.7,47.6c14.2,15.5,28.6,25.6,38.9,31.8"/>
		<path class="st2" d="M506.7,388.3c-5.3,22.3-8,42.2-9.3,58.5c-0.9,10.7-2,29.6-0.8,53.3c0.9,18.5,1.5,29.2,4.9,43.5
			c1.8,7.7,7.1,27.8,20.7,50.4c11.9,19.8,16.3,18.5,43.5,51.2c18.3,22.1,29.9,39.1,38.2,51.2c14.2,20.9,21.3,31.3,24.8,41.9
			c9.1,27.2,3.5,51.9,0.8,63.4c-3.8,15.9-8.2,22.2-46.7,84.6c-22.3,36-26.7,43.5-32.9,56.1c-9.5,19.4-17.5,35.8-22.8,59.4
			c-1.8,8.2-6.7,32.3-4.5,63.8c2,28,8.7,48.7,11,55.3c6.2,18,15.7,44.7,40.2,68.7c12.9,12.5,25.8,20.3,34.9,25"/>
		<path class="st2" d="M501.4,389.1c-8.2,22.7-14.4,41.9-18.7,56.1c-12.5,40.8-14.1,54-14.6,58.9c-2.8,25.8-0.1,45.6,0.8,51.6
			c2.2,14.4,5.9,38.6,21.5,63c10.5,16.3,13.5,12.7,33.3,39.4c12.1,16.3,20.2,30,24.8,37.8c10.9,18.6,16.3,27.8,19.5,37.8
			c8.2,25.9,3.8,48.9,1.6,59.8c-3.6,17.7-11.9,33-28.5,63C531,875.1,522,890.2,512,906.1c-39.9,64.1-42.3,60.8-50.8,80.9
			c-16.8,39.8-16.5,74.4-16.3,83.3c1,36.7,12.3,63.5,18.3,77.2c15,34.5,35.6,58.4,50.5,72.8"/>
		<path class="st2" d="M494.9,387.4c-20.6,44.6-35.1,75.3-44.3,94.7c-13.6,28.7-22.2,46.5-23.2,72.8c-0.8,21.9,4.1,38.8,7.3,49.6
			c9.5,31.9,20.5,37.1,43.5,82.9c13.7,27.3,20.5,40.9,22.8,57.7c4.2,30.9-5.2,56-13,76.4c-2.5,6.4-10,25.3-43.1,72.4
			c-37.5,53.5-42.6,50.3-57.3,78c-11.6,21.8-28,52.7-26,93.5c1.7,34.8,16.1,60.8,27.2,80.9c14,25.2,29.8,43.5,41.6,55.3"/>
		<path class="st2" d="M484,402.1c-23.5,30.1-42.3,57-56.5,78.5c-35.9,54.2-43.5,75.1-44.3,98c-0.5,13.4,1.4,25.1,3.7,39
			c1.3,7.7,3.9,22.3,18.7,69.5c11.7,37.5,14,41.1,14.2,53.3c0.3,17.4-4.3,29.7-11.8,50c-4.3,11.6-15.4,39.3-39.4,73.2
			c-16,22.5-18.6,20.9-36.2,45.9c-12.6,17.9-22.7,32.4-31.7,53.3c-8.5,19.9-18.9,44.1-16.7,75.2c1.7,23,9.6,41.2,19.5,63.8
			c6.4,14.6,12.8,26.2,17.5,34.2"/>
		<path class="st2" d="M228,1038.7c-5.1-13.9-11.7-37.7-9.9-67.5c0.5-8.1,2.7-35.4,18.3-66.7c13.3-26.6,21.6-26.7,50-67.9
			c16.3-23.7,24.5-35.5,31.7-52.8c15.2-36.7,15.7-70.3,15.9-91.1c0.2-30.1-4.5-32.6-3.7-66.7c0.6-26.5,1-41.1,6.5-58.9
			c8.4-27.1,24.8-45.7,57.7-82.9c12.5-14.2,24.2-26,43.5-45.5c14.4-14.6,26.7-26.6,35.4-35"/>
		<path class="st2" d="M475,393.5c-18.2,12.1-40.2,27.1-65,44.7c-27.9,19.8-35.5,25.9-38.6,28.5c-27.6,22.6-45.3,42.5-57.3,56.1
			c-18.7,21.2-28.2,32.2-35.4,48c-6.5,14.3-10.4,29.8-12.6,38.2c-2.9,11.3-4.2,19.1-6.9,35c-5.9,34.5-8.8,51.8-9.3,54.1
			c-4.6,21.1-13.1,38.6-30.1,72.8c-24.3,48.9-28.6,48.2-37,69.5c-8.1,20.6-16,51.8-12.1,95.5"/>
		<path class="st2" d="M481.9,389.1c-25.9,8.7-58.8,21.6-95.1,40.7c-49.1,25.7-82.2,51-89.8,56.9c-30.1,23.2-55.1,42.6-80.1,76.4
			c-27.8,37.6-40.9,73.5-48.8,95.5c-8.4,23.4-13.4,44.3-20.3,72.8c-6.6,27.1-9.8,40.7-11.8,58.1c-2.1,18.7-3.3,46.5,2.5,81"/>
		<path class="st2" d="M481.9,385.4c-15.5,3.6-38.4,8.9-66.3,15.9c-29.8,7.4-44.8,11.2-55.7,14.6c-43.4,13.8-74.5,31.9-91.9,42.3
			c-36.6,21.7-62.7,43.7-77.6,57.3c-16.4,14.9-29.4,26.9-42.7,46.7c-13.8,20.6-20.2,38.2-26.8,56.5c-7.7,21.3-16.7,52.2-21.1,91.4"
			/>
		<path class="st2" d="M488.8,383.4c-20.5-1.1-47.9-1.4-80.1,1.6c-23.8,2.2-41.6,5.5-55.7,8.1c-31.9,5.9-56.2,10.5-87,22.4
			c-26.3,10.2-45.5,21.2-54.9,26.8c-14,8.5-37.5,22.9-62.2,48.4c-13.7,14.2-23.5,27.4-30.1,37.1"/>
		<path class="st2" d="M478.7,378.9c-17.1-4.6-36.3-8.4-57.3-10.6c-23-2.4-40.7-2-69.1-1.2c-28.4,0.7-42.6,1.1-58.5,3.2
			c-21.8,2.9-51.1,7.1-84.1,23.2c-20.5,10-36.3,21.5-47.4,30.9"/>
	</g>
</g>
<g id="Layer_4_00000161595415773883470970000005103110357928969857_">
	<g class="st5">
		<path class="st2" d="M1941.1,812.7c7.6,14.3,14.1,26.4,19.1,35.7c-6.3,4.3-10,9.4-16.6,18.9c-2.3,3.4-6.8,10-11.5,19.7
			c-12.4-4.7-31.1-12.3-52.9-23.8c-4.7-2.5-8.6-4.6-12-6.6c1.7-3.6,4.1-9,8-19.4c0.3-0.8,0.6-1.6,0.9-2.5
			c7.2-19.8,9.6-29.7,13.5-37.4c5.1,5.4,11.5,12,23,25c0.2,0.2,0.4,0.5,0.6,0.7 M2180.1,756.7c-14-3-19.6-5-24.5-6.8
			c-3.9,21.3-7.4,28.9-9.9,52.8c-0.4,3.5-0.7,6.8-0.9,11.7c6.4,0.4,13.2,0.9,20.4,1.6c14.8,1.6,23.1,3.3,29.4,4.7
			c0.3-12.5,0.2-13.5,0.8-19.8c1.6-16.9,3.2-23.8,6.3-40.4C2195.8,759.7,2188.9,758.6,2180.1,756.7z M2436.5,1098.2
			c-0.5-2.8-1.2-5.5-2.4-8.7c-0.7-1.9-1.6-4-2.8-6.4c-1-2-2.1-4.3-3.4-6.8c-6.4-12.1-10.5-17.9-15.7-26.4
			c-5.2-8.5-7.6-13.5-9.2-17.3c-2.5-6-3.2-9.1-9.2-18c-11-16.3-22.3-25.8-19.3-35.6c0.8-2.6,2.8-5.5,1.5-8.6
			c-1.5-3.6-5.8-3.2-9.8-8.3c-2.1-2.6-2.9-5.2-3.3-6.5c-0.8-2.5-2.2-7.3,0-11.3c1.3-2.4,3.3-3.4,7.1-5.3c5.1-2.6,6.4-1.8,11.6-4.4
			c0.5-0.3,1-0.5,1.4-0.8c2.6-1.5,4.3-2.9,5.1-3.6c0.8-0.7,1.6-1.4,2.4-2.3c1.1-1.1,2.1-2.5,2.9-4.2c1-2.1,2.3-4.9,1.2-7.7
			c-0.3-0.8-0.7-1.4-1.2-1.9c-0.8-0.9-1.6-1.3-1.8-1.4c-2.5-1.4-4.5-0.3-10.4,0.6c-2.9,0.4-5.1,0.6-6.7,0.6c-3.6,0-4.7-0.8-5.1-1.2
			c-0.8-0.7-1.3-1.5-1.6-2.2c-0.4-0.8-0.5-1.5-0.5-1.7c-0.3-2.4,1-4.5,1.8-5.6c2.3-3.3,5-5.8,7.7-8.3c2.3-2.1,4.6-4.1,6.5-6.3
			c1.6-1.8,2.8-3.7,3.8-5.6c1.9-3.6,2.8-7.1,3.6-10.1c0.3-1.1,1-4,1.3-8.7c0.2-2.5,0.2-5.6-0.1-9.1c0-0.3,0-0.6-0.1-0.9
			c-0.6-6.7-1.9-11.3-3.5-16.2c-1.7-5.1-3.8-10.5-5.8-18.6c-0.6-2.4-1.2-5-1.7-7.9c-0.4-2-0.3-2-1.5-8.9c0,0-3.6-21.8-8.3-47.4
			c-0.4-2.3-0.8-4.5-1.3-6.7c-3.6-18.4-7.8-35.2-11.8-49.4c-1.2-4.4-2.4-8.5-3.6-12.4c-7-23-12.7-36.9-12.7-36.9
			c-2.9-7.2-6.7-16.3-11.7-26.6c-2.4-5-5.1-10.4-8.2-16c-0.2-0.3-0.4-0.7-0.5-1c-0.3-0.6-0.6-1.2-1-1.8c-0.4-0.8-0.9-1.6-1.4-2.4
			v-0.1c-0.5-0.8-0.9-1.6-1.4-2.4c-0.1-0.1-0.2-0.3-0.2-0.4c-10.4-17.9-24.3-37.7-42.9-57.2c-20.3-21.2-40.5-36-58.9-47.4
			c-11.9-7.3-23-13.2-33-18.4c-55.9-29.2-105.7-39.5-144.2-45.6h-0.1c-5.6-0.9-10.9-1.7-16-2.4c-28.7-4.2-72.9-10.3-128.5-5.7
			c-0.1,0-0.2,0-0.3,0c-13.7,1.2-28.1,3-43.1,5.6c-31.6,5.6-67.7,12.3-106.7,31.6c-9,4.5-18.2,9.6-27.6,15.5
			c-17.4,11.1-32,22.9-43.9,34c-17.5,16.3-29.5,31.1-36.7,40.1c-2.5,3.1-7.8,9.8-14.4,19.7c-9.1,13.4-20.8,32.6-31.9,56.6
			c-3.2,7-6.4,14.3-9.4,22.1c-1.9,4.9-3.6,9.5-5.2,14.1c-8.6,25.1-13,47-18.5,74.8c-0.7,3.3-1.3,6.6-1.9,9.8
			c-8.2,44.3-10.4,77.5-10.9,86.3c-1.1,18.7-1.3,35.8-1,50.5c0.5,27,2.5,45.8,3.1,51.8c0.9,7.9,2.1,18.6,4.2,31.6
			c0.5,2.9,1,6,1.6,9.1c2.5,13.7,5.9,29.4,10.9,46.7c1,3.5,2.1,7.3,3.3,11.2c5.9,19.4,14,42.5,21.6,61.9c6,15.2,11.7,28.1,16,35.1
			c0.9,1.5,3.6,5.7,6.1,12.2c1,2.5,2,5.4,2.8,8.6c0.6,2.5,1.1,4.9,1.4,6.9c0.4,2.7,0.6,4.9,0.7,6.5c1.7,23.8,2.8,40.9,0.6,60.8
			c-2.3,19.9-6.5,29.5-20.2,69c-0.6,1.7-1.1,3.3-1.6,4.8c-5,14.7-8,23.9-10.2,30.8c-4.3,13.5-5.2,17.8-11.7,36.3
			c-0.7,1.9-1.4,3.9-2.2,6.1c0,0-8.8,24.5-22.1,51.4c-7.5,15.2-16.4,31.1-25.9,43.7c-0.6,0.8-1.8,2.4-3.4,4.4
			c-4.4,5.3-11.6,13.2-17,14.3c-2.4,0.5-3.7,1.1-5,2.7c-1.6,1.9-1.3,4.1-1.1,9.3c0.6,11.9,0.1,13.1,1.2,19.5
			c0.5,2.9,0.6,2.8,0.9,4.9c0.5,3.9,0.5,7.7,0.2,13c-0.2,2.9-0.4,6.3-0.7,10.3c-0.3,4.8-0.7,10.6-1,17.8c-0.3,7.7-0.6,17.1-0.8,28.6
			c0,2.1,0,4.3-0.1,6.6c0,3.5,0,5.6,0,7.6c0,1.1,0,2.2,0,3.4c0,2.5,0,5-0.1,7.4c-0.1,9.1-0.4,17.9-0.7,26.3
			c-0.2,4.8-0.4,9.5-0.7,14.2c-1,17.9-2.3,34.1-3.5,48.4c-2.5,29.8-4.5,51.4-1.7,63.3c1.2,5.1,3.3,8.5,6.6,9.9
			c3.1,1.4,6.2,0.5,8.1,0c20.3-5.3,41.2-5.1,62.3-3.6c3.4,0.2,6.8,0.5,10.2,0.8c16,1.3,32,2.9,47.8,2.9h210.4
			c6.9,0,13.7-0.1,20.6-0.3c5.1-0.1,10.1-0.3,15.2-0.5c28.7-1.1,57.5-3.1,86.3-3.8c15.2-0.4,30.4-0.4,45.6,0.3
			c8.9,0.4,17.8,1,26.7,2c3,0.3,6,0.7,9,1.1c2.9,0.4,5.7,0.8,8.6,1.2c3.4,0.5,8.2,1.3,13.7,2.1c9.5,1.4,21.1,2.9,31.5,3.4
			c5.1,0.2,9.9,0.3,14-0.1c4.6-0.4,8.3-1.3,10.6-2.8c1.1-0.7,1.8-1.6,2.2-2.6c1.6-4.3-4.1-10.6-15.4-23.1
			c-15.5-17.2-21.2-17.2-28.2-28.5c-4.8-7.8-3-9.3-9.8-33.8c-5-17.9-6-17.4-12.7-39.4c-6.7-22.1-4.5-18.8-12.4-46.2
			c-4.3-14.9-5.8-30.6-11.3-45c-2-5.3-5.1-12.9-1.8-19.5c2.5-5,6.4-4.9,13.3-10.1c11.6-8.6,16.6-20.7,19.3-27
			c3.2-7.6,5.7-13.7,5.3-21.9c-0.3-8-3.1-13.3-0.3-21c1.3-3.5,3.1-5.9,4.7-8c1.1-1.4,3.2-4,8.3-7.9c1.4-1.1,3.1-2.3,5-3.6
			c4.7-3.2,8.5-5.8,12.2-7.4c4.2-1.8,8.4-2.5,12.4-2.4c2.4,0,4.7,0.2,6.9,0.6c3.9,0.6,7.6,1.6,10.9,2.4c14.8,3.7,28,5,54.5,7.7
			c2.3,0.2,16.4,0.3,44.5,0.6c0.6,0,1.2,0,1.8,0c18.2,0.1,36.7-3.4,54.7-1c1.4,0.2,2.8,0.4,4.3,0.7c3.7,0.7,12.3,2.6,21.6-0.9
			c5.6-2.1,9.1-5.1,13.3-8.9c11.9-10.6,17.8-22.3,19.9-26.7c0.8-1.7,1.5-3.4,2.1-5c3.5-9.1,4.6-16.8,5.3-21.9c0.3-2.6,0.6-5,0.7-7.4
			c0.6-10.2-0.4-18.2-1-22.6c-0.7-4.8-1.2-8.7-1.7-11.9c-0.8-4.7-1.7-8.2-3.3-11.8c-0.3-0.7-0.7-1.6-1.2-2.7
			c-0.8-2.1-1.7-4.9-2.2-8.3c-0.1-0.7-0.2-1.3-0.2-2c-0.2-3.1-0.5-6.2,1.2-9.5c1.8-3.5,4.8-5.3,8.3-7.4c4.7-2.8,5.9-2.1,9.5-4.7
			c1-0.7,2.3-1.7,3.5-3c1-1,2-2.3,2.7-3.8c2.4-5.3,0.5-10.9-0.9-14.8c-0.8-2.4-1.8-4.2-2.6-5.7c-2.2-3.8-4.2-5.4-3.9-9.1
			c0.3-3.6,2.5-6.2,5.3-9.5c3.9-4.6,6.2-4.6,10.1-8.9c1.5-1.7,4.7-5.2,5.9-9.5c1.9-6.8-2.5-10-7.1-24.6c-0.2-0.5-0.3-1-0.5-1.6
			c-1.4-4.4-3-10.3-3.6-18c-0.3-3.2-0.2-4.6-0.1-6.7c0.1-1.8,0.2-4.1,0.1-8.4c-0.3-13.1-1.8-15.9,0.6-19c1.6-2,3.6-2.4,9.1-3.3
			c1.4-0.2,3.1-0.5,5.1-0.9c3.5-0.6,7-1.3,10.4-2.1c3.4-0.8,6.7-1.5,10.1-2.3c0.6-0.1,1.2-0.2,1.7-0.4c10.8-2.3,16.2-3.7,19.1-4.7
			c2.2-0.8,3-1.3,3.7-1.8c4.3-3.1,7.1-6.9,8.9-10.1c1.4-2.6,2.2-4.8,2.6-5.9c0.2-0.6,0.4-1.2,0.6-1.8
			C2438.5,1109.9,2437.4,1103.3,2436.5,1098.2z M2281.2,673.5c6.3,8,10.7,15.3,16,25c-0.8,1-1.7,2.1-2.5,3.3l0,0
			c-1.7,2.2-3.5,4.7-5.5,7.6c-4.8,7-8.3,13.4-11.7,20.7c-4.1,8.8-7.8,18.7-12.9,32.4c-1.2,3.3-2.4,6.5-3.5,9.6
			c-3.7-1.2-7.7-2.4-12-3.7c-8.4-2.5-14.8-3.9-20.6-4.8l0,0c-8.8-1.4-16.2-1.7-26.7-3c1.5-8.3,3.4-19.1,5.9-34.8
			c0.2-1.3,0.4-2.6,0.6-3.9c2.9-18.7,2.9-20.8,4.9-35.1c6.9,3.1,14.2,6.8,21.8,11.1c5.1,2.9,10.5,6,16,9.5
			c6.3-15.5,8.4-19.5,11.3-24.7c4.2-7.4,7.6-12.6,10.9-18.7C2275.8,666.9,2278.5,670.1,2281.2,673.5z M1850.4,846.6
			c5.4,3.2,10.1,6.2,16.7,9.9l0,0c-2.4,5.1-3.5,6.6-5.3,13.7c-3.7,14.1-3.7,29.2-3.3,57.6c-11.4-3.8-18.1-6.4-33.6-11
			c-17.6-5.2-25.5-6.7-32.1-7.9c-0.1-14.9,0.6-31.8,2.9-50.3c1.8-14.4,4.2-26.6,6.2-36c9.2,3.7,19.7,8.4,31,14.2
			C1840.4,840.7,1845.6,843.7,1850.4,846.6z M2207.7,725.6c-2.4,15.7-4.3,26.5-5.9,34.8c-6-0.8-12.9-1.9-21.7-3.7
			c-14-3-19.6-5-24.5-6.8c0.2-0.9,0.3-1.7,0.5-2.6c0.4-2.1,0.7-4.3,1-6.6 M2248.1,714.2c1-2.5,2-4.8,2.8-6.9
			c2.1,1.4,4.3,2.8,6.4,4.4 M2257.4,711.7c-2.1-1.5-4.3-3-6.4-4.4c-0.9,2.1-1.8,4.4-2.8,6.9 M2257.4,711.7c-2.1-1.5-4.3-3-6.4-4.4
			c-0.9,2.1-1.8,4.4-2.8,6.9"/>
		<path class="st2" d="M2388.6,838c-7,6-13.1,11.4-18.8,16.4c-1.6,1.4-5.3,4.6-6.4,9.8c-0.3,1.1-1.1,4.7,0.7,6.2
			c1.8,1.6,5.4,0,7.8-0.9c4.6-1.8,11.3-3.9,20.4-5.4"/>
		<path class="st2" d="M2363.3,869.6c-4.6,7.8-9.5,11.3-13.3,13.1c-3.5,1.6-7.6,2.6-8.7,6c-0.3,1-0.2,1.7,0.9,6.2
			c2.2,9.2,2.6,10.1,3.6,10.4c0.8,0.3,1.9,0.2,7.3-4.7c6.5-5.9,7.2-7.9,11.6-10.9c3.7-2.6,7-3.8,8.9-4.4c5.6-2,10.5-2.4,13.7-2.3"/>
		<path class="st2" d="M2345.7,905.4c0.9,7.9,0.1,13.9-0.9,18.2c-0.7,3-1.8,6.2-0.9,6.7c0.8,0.4,2.5-2,6.9-6
			c1.4-1.3,1.4-1.2,8.2-6.7c2.1-1.6,5.1-4.1,8.9-7.2"/>
		<path class="st2" d="M2343.6,929.2c-0.4,2.3-0.9,5.6-0.8,9.8c0.1,2.5,0.2,8.6,1.8,8.9c1.3,0.2,1.9-3.8,6-9.3
			c1.3-1.8,4.1-4.5,9.6-10c2.5-2.5,3.3-3.2,5.6-5.6c1.8-1.9,2.8-3,4.9-5.1c1.7-1.7,3.1-3.1,4-4"/>
		<path class="st2" d="M2359.2,929.5c3.2,0.7,9.6,1.4,15.3-2c1.9-1.1,3.3-2.4,4.3-3.4c4.3-4.2,6.5-8.7,7.7-11.8"/>
		<path class="st2" d="M2365.8,930c3,0.9,9.8,2.4,15.8-1c1.9-1,3.2-2.3,4.3-3.4c4.3-4.2,6.5-8.7,7.7-11.8"/>
		<path class="st2" d="M2355.3,933.3c3.5,0.9,6.4,1.3,8.4,1.4c1.6,0.1,3.4,0.1,7,0.1c2.1,0,3.2,0,4,0c2-0.1,4.9-0.3,8.4-1.1"/>
		<path class="st2" d="M2376.3,913.8c-0.1,1.4,0,4.2,1.8,6.8c0.4,0.5,1.1,1.6,3,3c1.7,1.3,4.8,3.2,9.5,4.2"/>
		<path class="st2" d="M2370.4,918.4c0.1,1.3,0.4,5.2,1.8,6.8c0.1,0.1,0.8,0.9,1.7,1.8c0,0,0.7,0.7,1.2,1.2c1.1,1,4.7,2.6,9.5,4.2"
			/>
		<path class="st2" d="M2360.9,934.4c0,0.4,0.5,3.9,2.6,4.6c0.5,0.1,0.9,0.1,1.6,0c2-0.2,3.4-1.1,4.3-1.6c0.8-0.5,2-1.3,3.1-2.5"/>
		<path class="st2" d="M2357.2,936.6c0.7-0.3,3.1,2.2,3.9,5.3c0.3,1.2,0.1,1.8-0.1,4.9c-0.6,6.6-0.2,8.2-1.3,8.7
			c-1.3,0.6-3.3-0.9-4.4-1.8c-1.8-1.4-1.7-2.2-4-4.2c-1.5-1.3-2.1-1.4-2.2-2.1c-0.1-0.8,0.7-1.4,4.2-4.3c2.7-2.2,3.5-3,3.9-4.3
			C2357.3,937.7,2356.8,936.8,2357.2,936.6z"/>
		<path class="st2" d="M2344.6,947.8c2,4.7,4.5,7,6.5,8.2c1.2,0.7,1.7,0.8,3.4,1.9c2.4,1.5,3.9,3.1,5.9,5.2c2.4,2.5,2.5,3.1,4.4,4.6
			c1.8,1.5,3.1,2.1,3.4,2.2c1.6,0.7,3,1,4.3,1.3c1.5,0.3,2.8,0.5,3.8,0.5"/>
		<path class="st2" d="M2344.5,950.2c-5.8,3.5-12.8,8.6-19.9,15.6c-10,9.9-16.2,20.1-20,27.6c0,0-6.1,10.7-31.1,50.2
			c-6.4,10.2-15.8,23.8-34.7,51.1c-23.1,33.5-23.7,33.5-28,41.3c-11.8,21.6-9.2,25.1-23.1,54.7c-10.5,22.4-16.4,34.7-28.9,48.5
			c-7,7.7-18.1,19.8-36.5,27.6c-12.2,5.2-24.4,7.1-30.2,8c-19.8,3-21.9-0.8-29.8,3.1c-7.5,3.7-10.9,9.8-24,39.1
			c-9.6,21.5-14.4,32.3-15.6,35.6c-8.4,24.5-9.9,44-11.6,64.9c-0.3,4.4-2.6,34.8,1.3,70.2c2.2,19.4,5.2,31.8,7.1,38.7
			c2,7.1,3.9,12.9,5.5,17.2"/>
		<path class="st2" d="M2344.6,947.8c-0.2,5.5-0.7,13.2-1.8,22.5c-0.4,3.3-1.4,13.6-3.1,20.5c-3.8,15.7-12.1,26.7-17.8,35.1
			c-10.4,15.3-17.4,32.6-26.2,48.9c-20.1,37.3-19.4,39.5-36.5,71.6c-29.1,54.7-29.4,44.9-42.7,74.7c-17.6,39.7-20.2,64.2-36,78.7
			c-3.7,3.4-18,15.3-26.2,30.2c-0.6,1.1-1.5,2.8-3.1,4.9c-7.2,9.3-17.8,12.3-25.3,14.2c-20,5.1-23,3.3-36,6.7
			c-8.3,2.1-25,6.6-40.5,20c-2.2,1.9-12.8,11.3-20.9,26.7c-2.2,4.2-5.5,12.5-12,28.9c-2.6,6.7-4.8,12.2-6.3,16"/>
		<path class="st2" d="M2016.1,1485.1c2.2-13.1,5.8-23.2,8.9-30.2c3.6-8.3,7.4-14.4,15.1-26.7c6.7-10.7,10-16,13.8-20
			c1.9-2,10.9-11.3,26.2-17.8c12-5.1,14-2.6,35.1-8.9c15.4-4.6,12.5-5.4,22.2-7.6c12.3-2.8,21.4-2.6,31.6-8.9c3-1.9,6-4.3,6.2-4.4
			c6.7-5.4,10.6-10.6,12-12.4c11.2-14.7,24.3-26.7,40.9-50.7c13.8-19.9,27.7-50.3,55.6-111.1c9.5-20.7,10.4-23.3,20-44
			c11.5-24.7,15.2-31.9,21.8-48c9.8-24.1,5.8-19.1,13.8-37.8c4.2-9.8,11.7-26.3,11.6-41.3c0-4.3-0.7-8.8-3.1-13.3
			c-2.6-4.9-6.2-7.9-8.4-9.5"/>
		<path class="st2" d="M2342.8,970.3c7.7,6.5,12.1,12.8,14.7,17.3c3.3,5.8,3.2,8.2,7.6,17.3c5.3,11.3,6.1,9.7,10.2,18.7
			c4.4,9.6,6.9,18.8,12.4,28.5c1,1.7,2.4,4,4.9,6.2c3.9,3.4,6.7,3.4,9.3,5.3c2.8,2.1,3.4,4.8,5.8,17.3c8.6,46,2.9,20.2,4.4,27.6
			c1.3,6.4,2.5,10.7,0,13.8c-2,2.5-4.7,1.9-7.6,4c-2.7,2-5.4,6.2-5.1,16.1"/>
		<path class="st2" d="M2341.7,979.9c4.4,5.5,10.4,14.3,14.5,26.4c0.7,1.9,3.2,9.6,4.4,21.3c0.3,2.9,0.5,5.4,0.5,7.8
			c0.2,12.6-1.2,22.9-2.7,33.1c-4.6,31.3-3.1,28.9-5.2,35.3c-1.2,3.5-1.3,3.1-9.5,24.6c-3,7.9-3.2,8.5-4.2,10.7
			c-5.8,13.3-8.5,13.8-10.5,21.5c-1,3.8-3.1,11.9,0.9,19.6c0.8,1.6,3.5,6.6,9.3,8.9c4.7,1.8,8.9,0.9,10.7,0.4
			c8.7-2.1,13.2-9.4,14.2-11.1"/>
		<path class="st2" d="M2354.5,958c-0.5,7.6-1,15.2-1.6,22.8"/>
		<path class="st2" d="M2344.5,950.2c3.6,11.1,8.7,16,13,18.3c3.1,1.6,7.2,2.9,9.8,7.1c1.7,2.9,1.6,5.5,1.8,8
			c0.5,6.5,3.2,9.6,8.4,19.1c2.5,4.6-0.4-0.3,13.3,28.5c8,16.8,9.3,19.1,10.7,21.3c6,10,11.7,16.8,13.8,19.1
			c4.5,5.1,10.6,11.5,18.8,17.8"/>
		<path class="st2" d="M2360.5,963.2c-1,8.1-2,16.3-3,24.4"/>
		<path class="st2" d="M2348.3,975.4c0.9-6.5,1.9-12.9,2.8-19.4"/>
		<path class="st2" d="M2358.6,1015.3c5.8-8.6,11.6-17.3,17.3-25.9"/>
		<path class="st2" d="M2354.4,1001.5c8.6,8.3,12.9,16.2,15.1,21.9c3,7.4,2.1,9.9,6.9,22.5c4,10.5,7,15.2,8.7,17.6
			c2,2.8,4.5,6.5,8.9,10.4c5.4,4.9,7.9,5.2,9.8,8.9c1.9,3.7,0.2,5,0.7,12.7c0.7,11.3,4.8,15,2,21.1c-0.5,1.2-1.6,3.5-4,5.1
			c-3.9,2.5-7.1,0.4-10.7,2.9c-2.6,1.8-3.4,4.8-4,6.9c-1.7,6.2,0.8,11.5,1.7,13.2"/>
		<path class="st2" d="M2361.1,1038.7c1.5,5.5,3.5,13.7,4.4,23.8c1,10.7-0.2,12.4-0.2,29.6c0,23.3,1.9,26.2-0.9,36.2
			c-2.1,7.8-5.5,14.3-7.3,17.8c-2.3,4.5-5.8,11.1-12,18.2c-7.3,8.4-10.8,8.6-16,16.7c-1.9,3-3.2,6-5.8,12
			c-2.7,6.4-6.5,15.4-9.8,27.3c-3.6,12.9-1.6,11.4-5.3,26.7c-4.6,19-7,18.8-11.6,38.2c-0.9,3.9-1.6,7.3-3.8,11.8
			c-4.1,8.6-9.8,13.4-13.6,16.9c-3.9,3.6-9.1,11.2-19.6,26.2c-15.1,21.6-26.7,43.2-40.9,58.5c-0.8,0.8-1.8,1.9-3.1,3.1
			c-9.9,9.1-20.6,12-27.3,14c-24.6,7.3-20.1,9.6-39.1,14.2c-8.9,2.1-21.4,4.4-36.9,4.8"/>
		<path class="st2" d="M2364.6,1055.2c4.5-9,8.9-14.6,11.8-17.7c2-2.3,2.4-2.3,6.2-6.4c4.3-4.7,5.2-6.1,7.6-7.1
			c1.6-0.7,4.5-1.4,9.1-0.1"/>
		<path class="st2" d="M2365.6,1077.4c8.1-1.5,13.3-4.8,16.1-6.9c4.5-3.3,7.3-6.9,7.3-6.9c3.6-4.4,3.7-6.8,7.1-8.9
			c2.6-1.6,5.2-1.9,7.8-2.2c4.5-0.5,8.2,0.2,10.4,0.9"/>
		<path class="st2" d="M2365.6,1077.4c10-4.2,17.2-4.8,22.1-4.4c2.4,0.2,8.3,0.9,11.1-2.4c1.1-1.3,1-2.4,2.2-3.6
			c2.4-2.3,6.6-1.7,9.7-0.8"/>
		<path class="st2" d="M2371.7,1076.1c2.3,9.6,5.8,11.5,7.6,12c2.5,0.7,4-0.7,13.8-5.1c4.7-2.1,7.9-3.5,11.6-4.7
			c4.2-1.3,9-2.3,14.5-2.5"/>
		<path class="st2" d="M2380.4,1088.2c-2,4.7-3.1,8.6-3.8,11.2c-2.1,8-1.7,11.8-4.7,16.7c-2.1,3.4-4.7,5.5-6.4,6.7"/>
		<path class="st2" d="M2380.4,1088.2c2.6,5.8,3.1,10.6,3.1,13.6c0,3.3-0.9,7.6-2.9,16c-1.9,8.1-2.7,10.2-3.1,11.1
			c-1.4,3.4-3.1,7.3-6.9,10.7c-2.9,2.6-3.4,1.6-6.7,4.4c-4.3,3.8-6.4,8.2-7.3,10.2c0,0-1.4,3.1-2.2,6.4c-2.5,10.6,2.2,22.3,3.3,24.9
			"/>
		<path class="st2" d="M2379.2,1073.4c6.9,4.8,15.9,12.9,17.7,23.6c0.7,4,0.7,10.9,0.7,12.2c0,5.8-0.5,10.6-0.9,14"/>
		<path class="st2" d="M2418.1,1074.8c0.3,1.1,0.7,2.8,1.2,4.8c2.7,11,2.9,10.8,3.3,13.3c0.9,5-0.1,4.6,0,17.6
			c0.1,7,0.4,7.3,0.2,11.1c-0.3,6.8-1.5,12.2-2.5,15.6"/>
		<path class="st2" d="M2436.2,1117.7c-3.6,1-6.1,2.4-7.8,3.6c-2,1.4-3.5,2.9-4.4,2.4c-1.2-0.6-0.4-3.6-1.1-3.8
			c-1-0.3-2.1,6.6-7.2,9.8c-3.8,2.4-6.4,0.6-9.8,2.9c-3.3,2.2-4.3,6.4-4.7,9.5"/>
		<path class="st2" d="M2429.2,1085.5c-0.5,6.3-0.4,11.3-0.1,14.8c0.2,3.9,0.6,6.5,0.4,11.3c-0.1,3.2-0.4,6.1-0.7,8
			c-0.4,3.6-0.6,5.4-1.1,7.3c-0.5,2.1-1.6,5.1-3.7,8.5"/>
		<path class="st2" d="M2365.4,1099.7c6.9,0,12.4,0.2,16.1,0.4c3,0.2,4.2,0.3,6.4,0.2c5.4-0.2,10-1.2,12.7-1.8
			c3.7-0.8,3.7-1.1,6.4-1.6c1.8-0.3,4.9-0.8,8.4-0.7c4.3,0.2,5.5,1.2,10.4,2.2c2.5,0.5,6.1,1.1,10.8,1"/>
		<path class="st2" d="M2271.5,990.3c4.6,7.4,8,13.6,10.2,18c5.8,11.2,5.8,13.3,10,18.7c5.5,7,7.8,6.4,11.8,13.1
			c1.3,2.1,3.2,5.8,7.1,10c1.4,1.5,2.5,2.4,3.8,3.6c4.6,4.1,8.1,7.4,15,14.1c2.5,2.4,6,5.9,10.2,10.3c0,0,3.2,3.5,12,10
			c1.8,1.3,4.2,3.1,7.8,3.8c2.7,0.5,4,0.1,6,0.2c2.8,0.2,6.7,1.6,11.3,7.3"/>
		<path class="st2" d="M2365.9,1115.4c1.9,1.5,5,3.6,9.2,4.7c4.5,1.1,8.3,0.7,13.6,0c5.9-0.7,7.4-1.7,12.9-1.8
			c4-0.1,6.1,0.4,7.1,0.7c1.1,0.3,2.2,0.7,7.6,3.3c6.1,3,6.4,3.4,8,3.8c1.9,0.4,4.8,0.7,8.8-0.7"/>
		<path class="st2" d="M2373.9,1147.6c0.1-1.9,0-4.6-0.8-7.7c-0.9-3.6-2.1-5.3-2.9-7.6c-1-2.9-1.6-7.3,0.7-13.7"/>
		<path class="st2" d="M2352,1107c1.1,3,2.7,8.4,2.1,15.2c-0.8,8.3-4.5,14-6.2,16.6c-4.1,6.2-6.4,5.8-11.6,11.6
			c-5.4,6-5.8,9.6-13.6,26.4c-2.8,6.1-5.9,12-8.9,18.1c-9.5,19.4-14.8,29.1-20.5,40.3c-19.2,37.9-14.6,37.8-27.9,61.1
			c-11.6,20.3-23.6,35.4-32,45.9c-14,17.5-17.5,18.8-29,33.8c-1.1,1.4-3.4,4.4-7.1,7.7c-8.6,7.6-17.6,10.4-21,11.6
			c-15.1,4.8-29.9,10.8-45,15.7c-26.4,8.6-40.8,14.9-45.9,17.2c-22.7,10.2-28.6,15.6-32,19.3c-5.9,6.4-8.9,12.5-15.7,29.6
			c-5,12.5-11.3,29.3-17.9,49.5"/>
		<path class="st2" d="M2347,1140c-2.5,8.3-3.9,15.2-4.7,20.1c-1.6,9.2-1.4,12.7-3.9,19c-2.9,7.5-5,7-8.6,14.2
			c-5.4,11-5.4,21.7-5.3,30.5c0,9.6,1.6,17.6,1.8,18.7c2.1,10.8,4.3,11.9,3.6,17.5c-1,7.4-6.1,14.3-11.9,18.1
			c-4.7,3.1-6.2,1.8-9.2,4.7c-4.2,4.2-2.6,8.3-5,18.1c-1.7,6.8-4.1,11.4-8.9,20.5c-3.4,6.4-6.1,10.5-8.3,13.9
			c-9.2,14.3-8,16-17.5,32.3c-12,20.7-19.7,28-25.5,40.9c-0.3,0.8-1.2,2.6-2.7,4.7c-5.2,7.3-13,10.2-18.1,11.9
			c-10.4,3.3-16,3.5-39.7,6.5c-13.9,1.8-19.4,2.7-28.7,2.4c-6.7-0.2-12.3-1-16.2-1.7"/>
		<path class="st2" d="M2342.8,1157c1.8,11.9,0,20.6-1.5,25.7c-1.3,4.2-3,8.1-5.6,13.9c-3,6.6-4.5,9.8-6.8,13
			c-4.2,5.7-8.9,9.1-12.4,11.6c-2.9,2-7.6,5.3-13.9,7.4c-8.8,2.9-16.6,2-22.2,1.2c-22.3-3.4-27.4-9.2-51.3-14.8
			c-14.1-3.3-18.9-2.8-34.7-7.7c-9.5-2.9-13.1-4.8-19-6.8c-12.6-4.4-18.8-3.9-55.1-5.9c-40.9-2.3-50.4-3.9-56.3-5
			c-11.1-2.2-13.1-3.6-23.1-4.7c-7.1-0.8-13.8-1-22.5-4.7c-3-1.3-4.2-2.1-7.4-3.9c-10.8-5.8-20-8.7-28.5-11.3
			c-11.2-3.5-19.8-5-28.2-6.5c-17.4-3.2-34.8-6.6-52.2-9.8c-9.6-1.8-27.1-5.9-61.7-14.2c-56.9-13.6-57.5-14.3-77.1-18.4
			c-16.3-3.4-6.9-1.1-60.5-11.3c-37.5-7.1-44.8-8.8-59-9.2c-7.5-0.2-24.9-0.3-38.5-0.3c-7.7,0-14,0.1-18.4,0.1"/>
		<path class="st2" d="M2343.5,1166c-0.3,7.9-0.4,14.7-0.4,19.9c-0.1,12.2,0.1,16.3,0.6,20.5c0.8,6.7,1.2,5.2,2.1,12.2
			c1.4,11.8,0.3,17.1,4.4,20.7c1.7,1.5,3.5,2,4.7,2.4c7.1,2,13.4-2.1,14.5-3"/>
		<path class="st2" d="M2346.1,1163.1c1.3,4.1,2.7,9.6,3.3,16.2c0.9,9.8-0.2,17.2-0.6,19.3c-2.2,12.8-7.6,21.8-10.4,26.4
			c-4.8,7.8-12.9,18.1-19.6,26.7c-2.3,2.9-5.9,7.5-5.3,13c0.4,4,2.5,4.3,3.6,8.9c1.5,6.9-2.6,9.3-1.5,16.3c0.2,0.9,1.1,6.4,5.6,10.4
			c6.7,6,16.1,3.9,17.4,3.6"/>
		<path class="st2" d="M2349.9,1189.5c2.6,3.5,6.1,9.1,8.3,16.6c1.6,5.6,1.4,8.3,3,13.3c1.4,4.3,4.1,10.4,10.2,17.1"/>
		<path class="st2" d="M2367.8,1202.9c-5.1,6.1-10,10.4-13.4,13.2c-6.7,5.4-9.4,6-12.4,10.7c-3.2,4.8-1.6,6-5.3,14.5
			c-3.9,8.8-7.8,12.6-6.4,14.5c1,1.2,3.4,0.4,7.2,0c3.9-0.4,9.5-0.5,16.6,1.2"/>
		<path class="st2" d="M2329.3,1254.1c3.3,7,7.8,9.3,9.6,10.1c2,0.8,3.8,1.1,7.1,1.5c5,0.6,9.1,0.6,11.9,0.5"/>
		<path class="st2" d="M2328.1,1265.9c3.9,8.7,8.6,12.5,12.3,14.3c2.5,1.2,4.7,1.7,8.9,3.9c4.3,2.3,7.4,4.7,9.5,6.5"/>
		<path class="st2" d="M2362,1276.3c-4.7-0.4-10.4-1.2-16.8-2.9c-6.6-1.8-12.1-4.1-16.5-6.3"/>
		<path class="st2" d="M2328.7,1267.1c1.7,8.5,3.1,15.4,4.4,21.1c0.4,1.8,1.1,4.9,0.6,8.9c-0.4,3.2-1.5,5.7-2.3,7.3"/>
		<path class="st2" d="M2333.7,1291.8c1.4-1.4,3.4-3.5,5.3-6.3c1.8-2.7,3.4-5,4.2-8c1.3-5.3-0.9-10.2-2.2-12.7"/>
		<path class="st2" d="M2353.2,1267.7c0.5,2.7,1,6.9,0,11.9c-1,5.1-3,8.6-3.6,9.5c-1.7,2.8-3.7,4.8-7.7,8.6
			c-2.3,2.2-4.8,4.5-7.7,6.8"/>
		<path class="st2" d="M2333.3,1247.8c3.7-1.9,7.5-3.7,11.3-5.6l0,0c2.5-0.5,5.1-1.1,7.6-1.6"/>
		<path class="st2" d="M2352.2,1240.6c-2.2,2.4-4.5,5.2-6.7,8.4c-1.6,2.3-3,4.5-4.1,6.6"/>
		<path class="st2" d="M2319.6,1298.7c3.2-5.5,6.4-9.4,8.7-12c2.2-2.4,4.1-4.2,5.6-7.7c1.2-2.6,1.2-3.9,2.4-6.8
			c1.4-3.4,3.3-5.9,4.6-7.4"/>
		<path class="st2" d="M2320.8,1275.8c-0.1,7.1-0.2,14.3-0.3,21.4"/>
		<path class="st2" d="M2308.1,1247c6.2-5.8,13.3-13.5,20.2-23.2c6.7-9.4,11.4-18.3,14.9-25.8"/>
		<path class="st2" d="M2353.7,1165.7c3.5,1.4,7,2.8,10.5,4.2"/>
		<path class="st2" d="M2312.6,1223.8c4.9,5.7,9.8,11.3,14.7,17"/>
		<path class="st2" d="M2313.5,1262.1c-3.4-0.8-8.1-2.6-11-6.9c-1.7-2.6-1.9-4.8-3-10.1c-0.7-3.6-1.9-8.8-3.7-15"/>
		<path class="st2" d="M2313.5,1262.1c-0.6,9.1-3.8,14.1-5.7,16.6c-2.2,2.8-6.2,6.6-7.7,8c-2,1.9-3.8,3.4-5,4.4"/>
		<path class="st2" d="M2316.2,1292.7c-4.2,2.7-8.4,5.5-12.5,8.2"/>
		<path class="st2" d="M2318,1296.4L2318,1296.4c-1.3,5.1-3.2,11.4-5.7,18.4c-3.8,10.6-7.4,18.3-8.6,20.7
			c-6.1,12.7-12.2,21.8-14.2,24.9c-8.5,12.5-16.4,20.8-24.6,29.3c-5.5,5.7-13,13.1-22.6,21.2"/>
		<path class="st2" d="M2322.9,1301.6c0.5,8.3,0.3,20.1-2.6,33.7c-3.1,14.7-8,24.9-12.2,33.5c-3.9,8.2-11.1,21.6-22.8,36.2
			c-6.1,7.5-11.8,13.5-16.3,17.8"/>
		<path class="st2" d="M2331.3,1304.4c-0.9,3.8-2.1,8.9-3.3,14.9c-2.1,10.3-3.1,15.5-3.3,19.3c-0.6,12.9,2.9,18.6-1.5,24.6
			c-1,1.3-1.4,1.4-4.2,4.7c-3.9,4.7-5.9,8.1-7.1,9.8c-2.4,3.4-6.7,7.7-15.1,11.3"/>
		<path class="st2" d="M2332.4,1318.1c-1.1,3.1-2,7.2-1.8,11.9c0.3,5.8,2.1,8,3.3,15.4c0.9,5.6,0.7,10,0.6,12.4
			c-0.1,3.1-0.6,11.2-3.9,19.3c-3.2,7.9-5.9,7.3-12.4,17.2c-9.1,13.7-6.7,18.7-16,28.7c-0.9,1-3.8,3.6-9.5,8.9
			c-5.8,5.4-10.7,9.7-14,12.7"/>
		<path class="st2" d="M2338.7,1325.4c-0.6,12.5-0.2,22.6,0.3,29.7c0.8,11.4,1.7,14,0.9,21.3c-1.1,9.7-4.2,17.2-7.1,24.3
			c-2.9,7-4.3,10.5-7.4,14.8c-2.9,4-5.4,6.3-11.9,14.5c-1.6,2.1-3,3.8-3.9,5"/>
		<path class="st2" d="M2325,1359.5c6-6.5,12.1-13,18.1-19.5"/>
		<path class="st2" d="M2336.5,1317.1c-3,1.1-10.7,3.3-19.2,0.4c-5.9-2.1-9.7-5.8-11.9-8c-4.1-4.1-5.5-7.5-8.6-13
			c0,0-5.6-10-12.4-19c-4.8-6.3-8.5-8.6-22.8-19.3c-27.4-20.3-22.9-18.2-33.8-25.5c-11.1-7.4-15.1-9.1-31.7-20.2
			c-6.1-4-11-7.4-14.2-9.7"/>
		<path class="st2" d="M2342.3,1243.3c0.2-4.7,0.1-8.7-0.1-11.5c-0.3-3.8-0.4-5.8-1.2-8.3c-1.2-4.1-2.1-3.9-3.9-8.6
			c-1.8-5-1.1-6.1-3-8.6c-0.6-0.7-2.6-3.4-5.9-4.2c-2.9-0.6-3.9,0.8-6.5,0.3c-3.1-0.6-4.7-3.3-5.9-4.7c-4.4-5.3-11.9-5.8-17.2-6.8
			c-11.8-2.3-18.1-8.7-42.4-19.6c-10.5-4.7-8.4-3.1-45-16.6c-6.7-2.5-5.2-2-44.2-16.6c-8.4-3.2-28.3-10.6-53.6-19
			c0,0-15.3-5-39.1-7.1c-7.5-0.7-12.4-0.6-17.2,2.1c-6.9,3.9-6.7,9.3-14.5,13.3c-6.3,3.2-12.4,2.8-14.5,2.7
			c-5.9-0.5-10.7-2.7-16-6.2c-10.2-6.7-13.4-11.8-23.7-21.9c-11.1-10.8-21.8-19.1-25.2-21.6c-10.5-8-14.2-9.5-20.2-16.3
			c-2.7-3.1-7.9-9.1-11.6-18.1c-2.7-6.6-2.9-10.8-4.4-26.4c-2.7-26.9-2.8-22.7-3.3-30.8c-0.7-14.1-1.2-23.5,0.9-35.9
			c1.7-9.9,4.2-17.5,8.3-29.6c3.3-9.8,6.3-17.1,7.7-20.5c5.7-13.5,8.5-20.2,13.6-27.6c3.6-5.1,10.3-14.6,22.5-22.2
			c5.6-3.5,13.1-8.2,23.7-8.9c5.7-0.4,10.7,0.6,17.2,1.8c6.1,1.1,9.7,1.9,14.2,4.2c2.3,1.2,7.4,4.1,11.9,9.5
			c4.6,5.5,6.2,10.7,8.6,19c3.1,10.7,4.7,16,3.6,22.5c-1.7,10-7.2,9.9-8.3,19.9c-0.6,5.1,0.8,5.5,1.8,18.4
			c0.7,9.9-0.1,10.2,0.6,14.5c1.6,10.6,7.1,13.8,12.7,24c7.7,14,8.1,27.7,8.3,32.6c0.5,15.7-4.9,14.5-4.7,33.2
			c0.1,8.3,1.2,15.1-2.1,24.6c-1.4,4.2-2.3,4.9-3.6,9.5c-1.9,7.1-1.3,11.4-1.8,20.2c-0.2,3.8-0.7,9.4-1.8,16.3"/>
		<path class="st2" d="M2072.5,1152.7"/>
		<path class="st2" d="M2345.9,1374.4c-4.5,0-7.8-0.9-10.2-1.8c-3.9-1.5-4.8-3-11.3-6.8c-1.9-1.1-5.2-3-9.2-4.7
			c-5.9-2.5-8.6-2.6-13.3-4.2c-7.5-2.4-12.6-6.1-15.7-8.3c-7.4-5.3-7.8-8.1-18.1-16.9c-3.9-3.4-5.7-4.5-9.8-7.7
			c-12.5-9.7-18.8-16.7-25.2-22.5c-10.4-9.4-19.4-14.4-35.3-23.1c-20.8-11.4-37.9-17.3-49.8-21.3c-22.5-7.6-33.7-11.4-46.8-12.4
			c-31.6-2.5-40.3,9.7-69.1,3.3c-8.2-1.8-5.5-2.4-27.9-9.2c-16.5-5-28.8-8.8-43.3-11.3c-24.2-4.1-23.5,0.7-45-3
			c-7.9-1.4-8.3-2.1-49.5-15.4c-28.3-9.2-32.9-10.4-36.5-11.3c-16.1-4-17.6-3-41.8-7.7c-26.2-5.1-26.4-6.7-47.4-10.4
			c-13-2.3-9.7-1.1-40.9-5.6c-8.5-1.2-27.1-4-45.3-8.9c-12-3.2-18-4.9-22.2-8.3c-3-2.4-5.6-5.4-9.5-5.3c-4.1,0.1-7.5,3.6-9.6,6.6"/>
		<path class="st2" d="M2128.8,452.5c4,4.2,9.6,10.8,14.6,20c1.5,2.8,2.8,5.5,3.9,8.2c4.5,11,6.1,21.7,8,35.7c0.1,1,0.3,2.1,0.4,3.1
			c2.1,16.3,3.6,27.7,4.6,37.3c0.6,5.7,1,10.8,1.2,15.9c0.3,5.2,0.7,15.3,0.7,33.7c0,14-0.2,32.7-1,57.6c-0.1,1.8-0.1,3.6-0.2,5.3
			c-1.1,35.4-1.8,55.9-3.9,71.3c-0.3,2.3-0.6,4.5-1,6.6c-0.2,0.9-0.3,1.8-0.5,2.6c-3.9,21.3-7.4,28.9-9.9,52.8
			c-0.4,3.5-0.7,6.8-0.9,11.7c-0.3,8-0.4,20.4-0.3,45.5c0,2.9,0,5.7,0,8.4c0.1,24.7,0.2,42.6,0.6,55.8c0.2,9.4,0.6,16.5,1.2,22
			c0.9,8.8,1.7,14.7,2.6,19.8c1,5.8,1.9,10.5,2.8,16.8c0.9,5.6,1.7,12.5,2.6,22.7c0.5,6.3,0.8,9.8,0.8,12.9
			c0.2,7.2-0.3,12.1,1.2,43.1c0.2,3.8,0.4,7.5,0.4,11.2l0,0c0,0.4,0,0.7,0,1.1c0,5-0.4,10.3-1.6,16.4c-2.3,12-5.6,17.1-8.3,26.1
			c-1.4,4.8-2.2,8.8-2.5,12.8c0,0.2,0,0.5-0.1,0.7c-0.3,5.1-0.1,10.4,0.3,17.2c0.2,3.8,0.4,8.1,0.5,13.1c0.4,16.7-0.6,27.3-1.6,35.6
			c-1.7,13.4-3.8,20.7-1,38.2c1,6.5,2.4,12.4,3.9,17.8c0.5,1.8,1,3.6,1.6,5.3c2.1,6.5,4.3,12.3,6.4,17.6c1.8,4.6,3.5,8.9,5.2,12.9
			c3.2,7.7,6.6,14.7,11.2,21.4c2.1,3.2,4.5,6.3,7.3,9.5c4.5,5.2,3.6,3,19.4,17.3c2,1.8,4.3,3.9,6.9,6.4c7.7,7.1,11.9,11.2,16.3,15
			c2.2,1.9,4.4,3.7,7.1,5.8c3.5,2.6,7.2,5.4,11.5,8.3c3.2,2.1,6.7,4.2,10.7,6.2c2.3,1.2,5.5,2.5,10.2,4.3c2.6,1,5.6,2.1,9.1,3.4
			c1.2,0.4,2.4,0.9,3.8,1.4c1.3,0.5,2.7,1,4.2,1.5c7.9,2.9,12.9,4.6,16.2,5.8c5.1,1.8,6.7,2.4,9.8,4.2c3.1,1.8,5.9,3.6,9.6,5.4
			c1.7,0.9,3.6,1.7,5.8,2.6c3.9,1.5,7.4,2.5,10.2,3.2c1.1,0.3,2.2,0.5,3.1,0.7"/>
		<path class="st2" d="M2317.9,1435.5c-5-0.4-11.1-1.1-18.1-2.4c-5.6-1-13.7-2.8-23.1-5.9c-9.6-3.2-16.1-6.3-26.1-11
			c-11.1-5.3-19.4-9.9-23.4-12.2c-12.8-7.3-19.2-10.9-25.5-16.3c-8.2-7-9-10.2-20.5-23.1c-9.4-10.6-12.8-12.9-22.2-22.5
			c-3.3-3.4-18.2-18.8-32.9-39.1c-15.1-20.9-24.1-33.4-29.3-52.8c-3.4-12.6-3.7-22.5-4.2-40.3c-0.5-17,0.7-29.2,2.4-47.4
			c4.3-45.8,6.5-68.7,6.5-69.1c5-41.4,8.8-56.9,4.2-77.7c-0.7-3.2-2.4-9.9-3.9-19.9c-2.4-15.8-2.2-25.4-2.7-36.8
			c-0.6-13.5-1.4-11.9-7.1-56.9c-2.8-21.9-4.2-32.9-4.7-39.7c-2-23.6-0.7-28.8-1.5-65.2c-0.8-33.6-2-32.9-2.4-63.1
			c-0.4-26.5,0.6-26.7,0.3-53.3c-0.2-19-1-35.5-2.7-68.5c-1.7-35-2.7-52.9-4.4-70.2c-3.6-35.4-4-16.9-10.7-63.1
			c-1-6.9-2.4-17-8.9-28.2c-5.8-10-13.3-16.5-18.5-20.4"/>
		<path class="st2" d="M2265.8,1443.7c-13.2-5.3-24-9.4-31.1-12.1c-17.4-6.5-21.1-7.6-28.7-11.6c-9.2-4.8-15.4-9.4-25.2-16.6
			c-12.4-9.1-21.2-17-24.3-19.9c-3-2.8-13.4-12.3-27.6-28.7c-13.8-16-22.2-25.7-31.1-40.6c-16.6-27.5-22.5-51.6-24-58.4
			c-3.7-16.2-4.4-28.8-4.7-37c-1.2-24.9,2.2-35.3,5.3-67.3c1.6-16.6,0.2-9.2,3.3-64.9c2.7-49.9,3.6-52.2,3-67.6
			c-0.9-20.8-3.3-36.2-6.8-58.1c-3.2-20.1-6.1-32.5-10.7-45.6c-2.5-7.2-5-13.1-6.8-17.2"/>
		<path class="st2" d="M2222.2,1445.5c-8.7-1.2-20.4-3.5-33.8-8c-18.1-6.1-30.6-13.5-39.7-19c-15.4-9.2-25.5-15.3-35.9-27
			c-4.8-5.4-9.2-12.6-17.8-26.7c-10-16.4-15-24.6-19.9-34.4c-5.9-11.9-18.4-37.6-22.5-72.6c-2.4-19.9-1.2-36-0.9-40
			c1.8-22.6,6.1-26.5,6.5-49.5c0.1-3.9-0.1-13.3-0.6-32c-0.2-9.3-0.4-17-0.6-22.2"/>
		<path class="st2" d="M2195.1,1276.9c-20.1,3.6-34.8,9.8-44.6,14.8c-20.5,10.5-22.8,17.3-40.3,21.9c-12.3,3.2-18.2,1.6-32.3,7.4
			c-3.2,1.3-10.7,4.6-18.4,10.1c-16.5,11.8-24.2,27-31.7,42.1c-5.8,11.7-13.2,29.7-17.1,53.3"/>
		<path class="st2" d="M2329.6,1158.7c-8.9-3-22-7.8-37.2-15.4c-18.2-9.1-19.8-12.4-41.2-24.3c-9.4-5.3-8.3-4.2-53.3-26.1
			c-27.4-13.3-27.8-13.7-34.1-16.3c-25.9-10.6-27.2-7.3-43.6-16c-13.3-7.1-18.7-12.6-31.1-14.5c-4.2-0.6-15.4-1.8-18.1-2.1
			c-12.4-1.3-12.4-1-16-1.8c-9-2-11-3.9-17.5-4.2c-5.4-0.2-9.9,0.9-12.8,1.9"/>
		<path class="st2" d="M2343.7,1128.4c-15.4-15.2-29-26.1-38.5-33.2c-20.1-15.1-27-17-37.9-29.3c-12.6-14.3-18.3-28.8-22.5-39.7
			c-7.6-19.6-9.5-35.8-10.7-46.5c-1.1-10-3.1-29.6,1.2-53.9c2.4-13.5,4-13.5,13.3-49.5c5.8-22.4,4.5-19.9,7.4-29.6
			c5.6-18.7,8.3-21.1,21.6-54.8c10-25.4,9.7-27.2,14.5-33.5c6.7-8.8,16.5-17.4,26.4-26.1c6.3-5.5,8.6-7.1,13.9-12.4
			c5.7-5.8,8-8.9,13.3-13c4.9-3.8,9.4-6.1,12.4-7.5"/>
		<path class="st2" d="M2226.3,1102.9c-2.8-5.1-6.3-11.8-9.8-19.9c-2.2-5.1-5.4-12.9-8.6-22.9c-1.7-5.5-3.5-11.6-5-18.3
			c-1.1-4.5-2.1-9.7-3.6-20.7c-0.1-0.5-0.1-1.1-0.2-1.7c-0.7-5.6-1.5-12.5-2.4-21.5c-0.7-6.5-1.3-12.1-1.8-17.2l0,0
			c-1.6-15.4-2.4-25.7-3-37.6c-0.2-4.8-0.3-8.7-0.3-12.8c-0.1-10.8,0.5-22.9,1.5-54.7c0.1-2.9,0.2-6,0.3-9.3
			c0.7-23.8,1.1-37.3,1.2-45.7c0.3-12.5,0.2-13.5,0.8-19.8c1.6-16.9,3.2-23.8,6.3-40.4c1.5-8.3,3.4-19.1,5.9-34.8
			c0.2-1.3,0.4-2.6,0.6-3.9c2.9-18.7,2.9-20.8,4.9-35.1c0.3-2.5,0.8-5.4,1.2-8.8l0,0c0.5-3.2,1-6.8,1.6-10.9
			c1.7-11.3,3.7-24.9,6.1-41.2c1.5-10.1,3.1-21.4,4.8-33.8c0.4-2.7,0.7-5.2,1-7.6c2.5-18.3,3.5-27.5,3.5-35c0-3.2-0.2-6.2-0.6-9.4
			c-1.3-10.7-3.9-20.1-6.9-28.1c-2.6-7-5.5-12.9-8.1-17.5l0,0"/>
		<path class="st2" d="M2271.5,990.3c0-8.2,0.3-19.1,1.4-32c0.8-9.7,1.7-20,4.2-32c2.2-10.7,4.5-17.3,11.9-37.9
			c14.1-39.7,13.8-38.4,16.6-46.5c9.1-26.6,13.6-40.1,14.8-52.8c2-20.8-1.2-38.1-2.1-42.7c-0.9-4.7-1.9-8.7-2.7-11.6"/>
		<path class="st2" d="M2364.9,1057.5c-3.3-1.4-8.3-3.8-13.5-7.9c-6.8-5.3-8.6-9.2-19-23.7c-12.9-18-17.8-24.6-17.8-24.6
			c-6.3-8.5-9.3-12.4-9.8-18.7c-0.4-5,1.1-6.7,1.8-14.5c0.7-8.4-0.4-14.2-0.9-18.1c-0.4-3.3-0.7-8.3,5.3-37.3
			c7.4-35.7,11.3-45.1,13.9-50.7c1.6-3.4,4.9-10,10.7-17.5c4.6-5.9,8.8-11.3,16-15.1c2.4-1.3,3.6-1.6,15.1-5
			c7-2.1,12.5-3.8,15.9-4.9"/>
		<path class="st2" d="M2339.3,992.4c-2.4-5.2-5.2-12.4-7.4-21.1c-1-3.9-2.7-10.7-3.3-19.3c-0.9-12.7,1.1-22.5,3-31.1
			c3.1-14.6,5.3-14.8,8.3-30.2c2.1-10.7,1-10.6,3.3-20.7c2.3-10.4,4.3-14.6,5.6-24c0.9-6.6,0.9-12,0.8-15.4"/>
		<path class="st2" d="M2271.5,990.3c-4.8,4.8-11.2,11.3-18.4,19c-6.3,6.7-14.2,15.2-25.8,28.5c-10.1,11.5-19.7,22.8-29,34.1
			c-13.5,16.3-25.5,31.3-43.6,48.6c-6.4,6.1-10.9,10-17.8,12.7c-7.5,3-8.6,1-32.6,3.9c-8.5,1-13.9,1.9-23.1,2.1
			c-5.6,0.1-9.9-0.1-12.2-0.3c-5.9-0.4-12.5-0.8-20.5-3c-3.9-1-9.1-2.7-15.1-5.7"/>
		<path class="st2" d="M1829.2,1779.3C1829.1,1779.3,1829.1,1779.3,1829.2,1779.3c-3.9-2.6-9.2-6.3-15.4-11
			c-0.2-0.2-0.4-0.3-0.7-0.5c-4.9-3.8-9.4-7.5-13.5-11c-10.4-8.9-17.6-16.4-20.7-19.7c-0.4-0.4-0.7-0.8-1-1.1
			c-14.6-16-23.8-37-29.7-54.8c-3.5-10.6-5.8-20-7.4-26.5c-2.8-11.5-4.2-20.2-5.4-40.6c-0.9-16-1.7-39.2-2.9-76.5
			c-0.2-4.7-0.3-9.2-0.4-13.4c-1-31.6-1.7-51.2-1.9-60c-0.1-2.6-0.1-4.3-0.1-5.1c0.3-18.1,0.7-37.8,2.4-59.1
			c1.9-23,5.5-48,12.4-75.1c0.1-0.4,0.2-0.7,0.3-1.1c4.9-19.2,9.6-31.6,13.7-41.6c4.5-11,8.6-19.2,11.9-30.6c2-7,3.8-15.1,5.2-25.8
			c0.5-3.3,0.8-6.6,1.2-9.8c1-9.9,1.4-19.2,1.3-28c-0.1-22.7-2.9-41.8-5.2-57c-0.7-4.9-1.5-9.3-2.3-13.5
			c-5.9-30.8-12.8-41.5-21-68.2c-2.1-7-4.4-15-6.7-24.8c-3.8-16.3-6.7-32-8.7-47c-4.7-34.7-5-65.6-4-91.3
			c0.6-15.4,1.7-28.9,2.6-40.4c1.4-16.7,3.2-30.4,5.2-41.7c2.7-15.7,5.8-26.8,8.4-35.4c4.1-13.3,9.5-30.4,19.4-49.4
			c3.7-7.1,8.1-14.5,13.2-22.1c2.6-3.8,10.9-15.7,25.3-30.2l0,0c12.7-12.8,30.2-27.6,52.7-40.6c0.6-0.4,1.2-0.7,1.8-1.1
			c27.1-15.3,52.4-22.9,74.4-27.5c10.4-2.2,20-3.6,28.7-4.9c16.5-2.5,30.4-3.4,43.1-3.7c7.2-0.2,14.1-0.2,20.9-0.2
			c10.9,0,29.5,0.4,53.5,2.8c19.4,2,42.5,5.4,68,11.1c4.9,1.1,9.6,2.2,14.1,3.2c24.7,5.7,42.4,10.5,59.9,19.3
			c4.6,2.3,9.2,4.9,14,7.9c0.2,0.1,0.4,0.3,0.6,0.4c7.6,4.8,22,14.1,36.4,29.9c2.7,2.9,5.4,6.1,8,9.5c6.3,8,10.7,15.3,16,25
			c0.4,0.7,0.8,1.5,1.2,2.3c1.6,3,3.4,6.2,5.3,9.8c4.8,8.9,8.8,17.1,12,24.1c4.9,10.7,8.1,18.7,9.4,22.1c6.3,16.4,5.7,18.2,13,38.7
			c0.9,2.5,1.9,5.3,3,8.4c3.2,8.7,5.6,17.8,9.2,26.3c0.6,1.5,1.3,3,2,4.5c2,4,3.3,8.6,5.3,14.8c2.4,7.4,4.1,13.8,5.2,18.4
			c0.1,0.6,0.3,1.1,0.4,1.7"/>
		<path class="st2" d="M2207.1,1061.1c-13,3.7-26.6,7-41,9.8c-3.2,0.6-6.3,1.2-9.4,1.8"/>
		<path class="st2" d="M2156.8,1072.7c5.6-7.4,11.5-14.9,17.7-22.5c8.4-10.3,16.7-19.9,24.9-29"/>
		<path class="st2" d="M2287.8,1020.8c-7.5,0.2-19.1,0.5-33.3,0.3c-18.9-0.3-22.2-1-42.7-1.5c-23.1-0.5-22.4,0.5-41.2-0.3
			c-21.1-0.9-18.5-2-35.6-2.4c-16.3-0.3-23.4,0.7-33.5-2.1c-2.4-0.6-6.7-2-13-2.7c-2.5-0.3-1.9-0.1-13.3-0.6c-6.1-0.3-7-0.4-8.9,0
			c-4.6,0.9-4.8,2.6-9.8,4.2c-3.1,1-6.1,1.1-12.2,1.5c-5.5,0.3-7.6,0-10.7,1.5c-2.5,1.2-2,1.8-4.7,3.3c-4.1,2.1-5.2,0.9-10.1,3
			c-1.5,0.7-1.2,0.7-6.2,3.3c-1.7,0.9-3.2,1.6-4.2,2.1"/>
		<path class="st2" d="M2306.7,989.4c-6.9,1.5-17.4,3-29.7,1.2c-12.2-1.7-15.9-4.7-29.6-8c-9.6-2.3-18.1-2.3-35-2.4
			c-18.7,0-20.1,1.3-42.4,2.1c-14.8,0.5-28.7,0.9-47.1-0.6c-19.9-1.6-29.9-2.5-37.3-5c-6.3-2.2-11.9-3-23.1-4.7
			c-3.8-0.6-7.7-1.1-11.6,0.9c-3.9,2-4.1,4.6-8,7.1c-4.1,2.7-7.4,2-13.6,2.7c-5,0.5-10.1,2.3-20.2,5.9c-8.1,2.9-13.2,5.3-20.7,8.9
			c-8.6,4.1-12.1,7.4-15.1,10.7c-2.3,2.5-3.9,4.9-4.9,6.6"/>
		<path class="st2" d="M2194.9,980.8c-7.4-3-19.4-7.5-34.7-11.8c-15.9-4.5-17.2-3.8-36.8-8.9c-10.1-2.6-21.5-5.9-40.3-10.4
			c-9.2-2.2-18.7-4.3-27.6,0c-2.6,1.2-6.2,3.5-9.5,6.2c-4.1,3.4-5.4,5.4-10.4,10.7c-5.9,6.2-8.8,9.3-11.6,11
			c-5.1,3.1-6.9,1.7-20.2,4.2c-11.9,2.2-20.4,5.1-22.5,5.9c-5.1,1.9-11.6,4.7-18.7,9.1"/>
		<path class="st2" d="M2329.7,961.1c-8.8-1.8-22.6-4.7-39.6-8.8c-18.5-4.4-20.9-5.3-37.3-9.2c-6.2-1.5-8.1-1.8-48-10.1
			c-33-6.8-34.5-7.1-39.1-7.7c-7.5-0.9-20.4-1.3-46.2-2.1c-53.4-1.6-19.3,1.5-38.5,0.9c-4.3-0.1-11.8-0.5-19.6,3.6
			c-4.9,2.6-8.6,6.2-9.8,7.4c-1.1,1.1-2,2.2-7.1,9.5c-6.5,9.3-7.3,10.8-10.1,13c-2.1,1.7-4.1,2.7-8,4.7c-2.8,1.4-7.7,3.7-14.8,5.9
			c-8.5,2.6-8.4,1.4-16,3.9c-8.3,2.6-13.3,5.6-14.8,6.5c-5.2,3.1-8.5,6.5-9.8,7.7c-3.8,3.8-6.3,7.5-8,10.3"/>
		<path class="st2" d="M2342.9,934.4c-2.4-1-5.9-2.5-9.9-4.8c-6.4-3.7-10.4-7.2-12.4-8.9c-5.1-4.2-11.6-7.3-24.6-13.3
			c-13.2-6.2-24.4-10.3-31.4-12.7c-4.1-1.4-17.4-6-48-13.3c-28.1-6.8-42.1-10.1-59-11.9c-7.7-0.8-22.4-2-40.9-1.2
			c-14.5,0.6-27.5,1.3-43.6,6.5c-8.3,2.7-14.9,5.8-19.5,8.2"/>
		<path class="st2" d="M2343.9,930.3c2-7.9,5.3-12.5,8.1-15.3c2.4-2.4,5.2-4.3,7.4-8.6c1.6-3,2-5.7,2.4-7.7c1.2-7-0.6-9.9-0.3-16.6
			c0.1-2.8,0.6-6.8,2.4-11.6"/>
		<path class="st2" d="M2363.9,870.5c-3.1,7.7-7,16-11.9,24.7c-2.1,3.6-4.2,7-6.3,10.2"/>
		<path class="st2" d="M2376.9,894.9c2.7-8.8,4.8-16.2,6.2-21.7c1.6-6.2,2.2-8.7,2.4-12.2c0.3-7.4-1.7-13.5-3.4-17.4"/>
		<path class="st2" d="M2369.1,870.6c-0.6-3.4-0.7-7.9,1.9-11.3c1.4-1.7,2.7-2.1,4.4-3.6c2.4-1.9,5.2-5.4,6.6-12.1"/>
		<path class="st2" d="M2393.5,855.1c-2.6,0-6.7,0.3-11.6,1.5c-7,1.8-9.9,4.1-13.3,2.7c-2.1-0.9-2.5-2.4-5.9-7.4
			c-2.8-4.2-5.3-7.4-7-9.5"/>
		<path class="st2" d="M1978.9,1105c-2.2-2.4-5.8-6-10.4-10.4c-10.6-10-15-12.6-21.3-19c-8.3-8.4-13-16.4-15.7-21
			c-0.8-1.3-1.5-2.6-2.2-3.9l0,0l0,0c-2.7-5.3-4.7-10.3-6.3-15.2c-1.9-5.8-3.2-11.5-4.6-17.5l0,0c-0.9-4.1-1.7-8.1-2.3-11.9
			c-1.2-7.4-2-14.3-2.4-20.4c-0.7-10.4-0.5-18.5-0.3-23.4c0.1-3.1,0.3-6,0.6-8.9c0.3-3.4,0.7-6.6,1.1-9.6
			c1.8-13.6,4.5-23.2,5.4-26.6c0.5-1.9,1.1-3.7,1.7-5.5l0,0c3.1-9.6,6.6-17.8,9.9-24.6c4.8-9.7,9.2-16.3,11.5-19.7
			c6.6-9.5,10.3-14.6,16.6-18.9c0.5-0.3,1-0.6,1.5-0.9c9.5-5.8,14.8-4.2,29.6-8.6c1.3-0.4,2.6-0.8,4-1.3c0.1,0,0.2-0.1,0.2-0.1l0,0
			c0.4-0.1,0.8-0.3,1.2-0.4c12.8-4.5,11.9-6.3,25.5-11.3c3.6-1.3,6.9-2.4,10.2-3.3c9.5-2.7,17.6-4.1,24.8-5.3
			c3.3-0.5,12.3-1.9,29-2.7c4.6-0.2,9.7-0.4,15.4-0.5c12.3-0.2,26.4-0.5,43.3,0.4c6.4,0.4,13.2,0.9,20.4,1.6
			c14.8,1.6,23.1,3.3,29.4,4.7c4.5,1,7.9,1.9,11.9,2.6c4.1,0.7,8.7,1.1,15.7,1c7.5,0,15.3-0.6,24.4,1.2c3.1,0.6,6.4,1.4,9.9,2.7
			c2.2,0.8,3.7,1.4,5,2.1c3.5,1.8,5.7,3.8,16.6,9.1c11.9,5.8,18.2,7.8,24.4,10.6c3.4,1.6,6.7,3.4,10.9,6.3c4.5,3,7.7,5.8,10.3,8.4
			l0,0l0,0c1.6,1.6,3,3.1,4.2,4.7c4.3,5.4,6.8,10.5,8.3,14.2"/>
		<path class="st2" d="M2323.8,864.7c5.3-15.1,7.2-27.3,8-35.9c0.9-9.7,2.1-16.5,5.3-29.9c1.3-5.6,2-7.5,3.6-9.5
			c3.8-5.1,8.4-5,16.6-11.9c2.9-2.5,4.4-3.8,5.1-5.6c1.6-4.2-0.6-8-5.1-17.2c0,0-4.5-9.2-9.8-21.6c-2.9-6.9-4.5-11.4-5.6-14.5
			c-5.1-13.7-12.4-25.4-22.5-41.5c-19.1-30.2-28.7-45.3-31.4-48.3c-15.2-17.1-30.2-26.4-45.9-36.2c-23-14.2-42.8-21.8-59.6-28.2
			c-4.2-1.6-18.8-7-40.6-13c-50.1-13.9-90.6-17.7-102.3-18.7c-21.5-1.8-48.1-4.1-83.3-0.6c-19.8,2-57.1,5.9-101.4,24.3
			c-25.1,10.4-57.8,23.9-88.9,55.4c-27.7,28-40.4,56.3-53.1,84.8c-16.8,37.7-23.4,69-27.9,91c-6.3,31-7.9,53.7-10.4,89.8
			c-2.8,41.1-4.3,61.7-1.2,88.9c1.1,9.3,5.9,30.8,15.7,73.5c9.7,42.3,14.5,63.4,19,79.4c12,43,15.5,44.1,18.4,65.5
			c2,14.7,5.3,40.6-2.4,70.8c-8.9,35.3-21.7,33.2-30.2,69.4c-5.9,25.2,0.2,26.6-7.4,63.7c-3,14.5-4.7,18.4-11.9,48.9
			c-3.8,16.2-6.4,27.3-8.9,40.3c-13.5,69.4-3.5,81.8-17.2,101.7c-2.8,4.1-10.8,14.5-10.1,28.2c0.3,6.7,2.6,11.5,3.6,13.6
			c13.1,29.2,3.4,47,19,76.2c9.9,18.5,19.8,22.6,31.1,41.5c1.2,2,4.3,7.3,10.4,12.2c5.2,4.1,10.2,6.1,14.5,7.7
			c9.7,3.7,12.9,2.8,19.3,5c5.4,1.9,12.6,5.9,19.9,15.4"/>
		<path class="st2" d="M2382.1,843.7c-2.2-17.3-6.4-30.4-9.9-39.2c-5.1-13-10.1-20.6-9.7-32.5c0.3-10,4.3-18.1,7.5-23.3"/>
		<path class="st2" d="M2027.2,1777C2027.2,1777,2027.1,1777,2027.2,1777c-3.8-2.2-9.3-5.2-15.7-9c-22.7-13.2-49.3-28.7-69.1-43.6
			c-1.2-0.9-2.5-1.9-3.9-3c-12.4-9.6-33.3-26.9-51.8-54.2c-0.1-0.2-0.3-0.4-0.4-0.6l0,0c-26.3-39.1-33.1-76.8-36-93.9
			c-0.1-0.8-0.3-1.6-0.4-2.4c-1.8-13.2-1.9-35.3-2-76.4c0-0.3,0-0.6,0-1c-0.1-28.9-0.1-49.7,0.3-66.4c0.3-13,0.8-23.6,1.8-33.8
			c1.5-15.2,3-25,4.5-33c2.9-15.1,5.7-24,7.7-51.5c0.6-8.1,0.6-10.5,0.7-26.8c0-7.1,0.1-17,0.2-31.1c0-0.2,0-0.5,0-0.7
			c0.1-7.2,0.2-15.4,0.3-25c0.1-6,0.1-11.6,0.2-16.7c0.3-21.4,0.5-36.3,1-55.9c0.1-4.3,0.2-8.2,0.3-12c0.5-22.1,0.9-35.6,1.8-53.5
			c0.2-4.7,0.4-8.8,0.6-12.4c1.3-24.9,2-26,1.5-36.8c-0.7-12.9-2.1-20.1-3.7-28.6c-1.5-7.9-3.2-16.8-4.6-32.5
			c-1.3-14.8-1.5-25.1-1.8-44.5c0-1.4,0-2.7-0.1-4c-0.4-28.4-0.4-43.5,3.3-57.6c1.9-7.1,2.9-8.6,5.3-13.7l0,0c1.7-3.6,4.1-9,8-19.4
			c0.3-0.8,0.6-1.6,0.9-2.5c7.2-19.8,9.6-29.7,13.5-37.4c1.8-3.6,3.9-6.7,7-10c7.9-8.6,16.9-13.4,22.6-16c1.4-0.6,2.5-1.1,3.5-1.5
			c10.8-4.5,16.9-4,33.8-6.5c6.3-0.9,10.4-1.7,14.2-2.6c7-1.6,13.1-3.4,30.5-6.9c6.6-1.3,15.1-3,25-4.7c7.6-1.3,15.9-2.5,24.8-3.6
			c11.1-1.3,21.9-2.6,32.7-3.3c16.9-1.1,34.1-0.9,53.5,2.7c1.3,0.2,2.6,0.5,3.7,0.7"/>
		<path class="st2" d="M2140.9,745.6L2140.9,745.6L2140.9,745.6c7.3,1.5,10.8,2.8,14.8,4.3c4.9,1.8,10.4,3.9,24.5,6.8
			c8.8,1.8,15.7,3,21.7,3.7c10.5,1.4,17.9,1.6,26.7,3l0,0c5.8,0.9,12.3,2.3,20.6,4.8c4.3,1.3,8.3,2.5,12,3.7c9.6,3,17,5.6,21.4,7.1
			c3,1.1,4.6,1.7,4.6,1.7c4.8,1.8,9.4,3.6,15.5,5.5c1.4,0.4,2.8,0.9,4.3,1.3c4.8,1.4,9.2,2.4,13.1,3.2c4.8,1,8.9,1.6,12,2.1"/>
		<path class="st2" d="M2304.1,845.8c0.1-10,0.1-27.8-0.7-48.5c-0.1-3.2-0.3-6.9-0.8-11.1c-0.5-4.8-1.5-10.3-3.4-16.5
			c-0.3-0.9-1.2-3.9-2.7-7.7c0,0-0.9-2.4-2.7-6.1c-2.9-6-8-15.7-15.1-24.5c-0.4-0.5-0.9-1.1-1.3-1.6c-6.1-7.3-13.1-13.2-20.1-18.3
			c-2.1-1.5-4.3-3-6.4-4.4c-5.5-3.6-10.9-6.7-16-9.5c-7.6-4.3-14.9-8-21.8-11.1c-21.1-9.6-38.1-14.1-45.5-15.9
			c-2.2-0.5-4.5-1-6.7-1.5c-14.5-3-29.1-4.1-55-6.2c-8.4-0.7-15.8-1.3-22.7-1.8c-25.2-1.9-41.3-2.4-59.7-0.3c-3.2,0.4-6,0.7-8.5,1.1
			c-19,3-21.7,6.9-56.4,12.2c-2.3,0.3-4.4,0.7-6.5,1c-33,4.6-36.1,1.4-52.5,7c-5.7,2-10.9,4.3-15.8,6.8
			c-20.6,10.8-34.3,25.9-41.6,34.8c-1.1,1.3-2,2.4-2.8,3.4c-6.9,8.7-12.1,17.4-16.4,26.5c-7.7,16.4-12.4,34.4-18.3,56.8
			c-0.8,3.1-1.8,7.2-2.9,12.1c-2.1,9.3-4.5,21.6-6.2,36c-2.3,18.6-3,35.4-2.9,50.3c0.2,20,1.9,36.6,3.2,49.5
			c1.1,10.3,2.8,21.6,5.6,37.1c2.3,13,5.3,28.9,9.2,49.5c1.3,6.9,2.5,12.8,3.5,17.9c5,25.1,6.4,30.6,7.8,45.8
			c0.7,7.5,1.1,14.5,1.3,21.4c0.6,18-0.2,34.4-1,52.4c-0.2,4.7-0.4,9-0.6,13.2c-0.7,13.4-1.4,24.7-3,37.1c-0.3,2.5-0.7,5.1-1.1,7.8
			c-1.5,9.8-3.1,17.8-4.9,25.1l0,0l0,0c-5,20.4-11.3,34.6-19.4,65.3c-0.4,1.6-0.9,3.4-1.4,5.5c-3.9,15.1-10.5,42.2-14.5,74.7
			c-0.4,2.9-0.7,5.8-1,8.8c-1.4,13.3-1.4,18.6-0.8,54.7c0.2,14.1,0.5,32.8,0.8,58.5c0,1.5,0,2.9,0.1,4.3c0.9,73.3,0.6,78.7,4.7,93.8
			c0.6,2.2,1.2,4.2,1.8,6.2l0,0c8.4,27.1,17.7,35.1,19.5,58.8l0,0c0.1,1.9,0.2,3.8,0.3,5.9c0.3,13.6-1.5,30.3,6.5,38.6
			c0.7,0.8,1.5,1.4,2.4,2c5.1,3.5,7.7,0.6,19,4.7c5.7,2.1,10.5,4.9,14.5,7.7l0,0c4.2,3,7.5,6,10.1,8.3c0.1,0.1,0.2,0.2,0.4,0.3
			c1.7,1.6,3.5,3.3,5.4,5.3c2.5,2.7,5.1,5.7,7.6,9.3"/>
		<path class="st2" d="M2330.3,623.1L2330.3,623.1c-1.3,4.9-3.1,11.3-5.5,18.8c-0.7,2.1-1.4,4.2-2.1,6.4c-1.7,5-4.8,12.8-8.2,21l0,0
			c-0.9,2.2-1.8,4.4-2.8,6.6c-4.6,10.7-8.8,15.4-14.5,22.6c-0.8,1-1.7,2.1-2.5,3.3l0,0c-1.7,2.2-3.5,4.7-5.5,7.6
			c-4.8,7-8.3,13.4-11.7,20.7c-4.1,8.8-7.8,18.7-12.9,32.4c-1.2,3.3-2.4,6.5-3.5,9.6c-5.9,17.2-9.2,31-12,42.3
			c-1.1,4.6-1.9,8.2-2.5,11.3c-1.3,6.2-1.7,9.7-1.9,12.5c-1.5,17,0.9,31.1,3.3,40.5l0,0"/>
		<path class="st2" d="M2358.2,699.1c-6-10-12.1-20.1-18.1-30.4c-10.1-17.3-18.9-33.2-25.5-45c-4.4-8-4.1-7.4-4.4-8
			c-12.6-20.9-29.9-32.3-44.5-42.1c-50.7-34.2-41-31.5-54.2-37.9c-16.2-7.8-16.2-4.8-75.6-21.6c-31.3-8.9-35.9-11-56-15.7
			c-10.2-2.4-29.4-6.8-53.3-10.1c-22-3-59.5-7.8-106.7-2.4c-16.7,1.9-38.9,4.6-66.7,13.9c-11.6,3.9-53.7,18.9-97.5,55.7
			c-25.6,21.6-41.5,42-53.6,57.8c-12.3,16-28.8,37.8-42.7,68.2c-14.1,31-18.1,54.8-25.8,101.1c-4,24-10.1,61.5-10.4,111.7
			c-0.2,23.8-0.2,61.7,8.6,109.7c8.2,44.9,22.7,89.9,27.9,106.1c10.6,33.2,15.9,43.8,19,68.2c3.7,29.7,1.2,55.3-1.8,72.3
			c-4.8,27.9-9.8,27.8-20.2,66.1c-9.3,34.3-6,36.8-17.2,87.7c-2.2,10.2-8.3,37.3-18.4,71.7c-11.9,40.6-17.8,61-28.5,81.2
			c-10.6,20.1-16.2,24.4-24.9,45.9c-4.8,11.9-8.4,23.7-15.4,47.1c-9,30-7.4,28.1-10.7,35.9c-1.3,3.1-2.6,5.8-3.9,8.3
			c-11,20.6-27.8,40.9-27.8,40.9c-10.7,12.9-23.4,28.7-40.1,50.2"/>
		<path class="st2" d="M2322.9,608.6c-19.5-36.6-42.7-58.7-58-70.9c-21.8-17.4-41.2-26.8-74.1-40.3c-17.7-7.3-43.4-17.8-79.7-28.2
			c-53-15.1-94.1-20.2-103.7-21.3c-25.9-3.1-54-6.4-90.7-3.9c-33.6,2.3-79.8,5.5-129.2,32.3c-41.2,22.4-65.9,51-86,74.4
			c-5.6,6.5-28.6,33.7-50.7,74.7c-5.8,10.7-20,38.1-32.3,76.2c-13.1,40.5-17.5,72.6-21,99.9c-4.9,37.4-5.5,65.9-5.9,91.3
			c-0.6,32.9-1,55.2,2.7,86c3.5,29.2,6.3,53.5,17.5,83.6c14.2,38.5,28.9,51.3,34.1,90.1c1.3,9.8,1.5,18.2,1.8,35
			c0.5,24.4,0.9,47.9-4.7,73.2c-4.2,18.9-6.9,16.3-16.9,45.9c-8,23.5-9.2,33.6-21,86.2c-8.3,36.6-12.4,54.9-16,67.9
			c-10.7,38.5-22.1,67.6-29.9,87.7c-15.9,40.6-15.4,32.2-27.3,64.3c-9.5,25.6-16.2,48.2-33.5,78.2c-3.7,6.5-7,11.7-9.2,15.1
			c-3.5,3.5-8.9,8.7-15.5,15.1c-18.5,17.8-25.7,23.8-37.3,35.2c-6.5,6.4-15.7,15.8-26.3,27.8"/>
		<path class="st2" d="M2292.9,564.6L2292.9,564.6c1,8.2,1.5,18.5,0.7,30.3c-0.4,5.3-1,11-2,16.9c-0.4,2.3-1.5,8.3-3.9,16.6
			c-1.7,5.8-4,12.7-7.1,20.2c-2.6,6.3-5,11.1-7.4,15.4c-3.4,6-6.8,11.3-10.9,18.7c-2.9,5.1-4.9,9.2-11.3,24.7
			c-0.9,2.1-1.8,4.4-2.8,6.9c-2.6,6.4-5.7,14.3-9.6,24.1c-3.8,9.5-7.1,17.8-10,25.2l0,0c-9,22.9-14.1,35.8-16.4,42.7
			c-1.7,5.1-3.6,10.8-5.6,17.1c-4.2,13.4-8.8,29.5-13.2,47.9"/>
		<path class="st2" d="M2262.7,536c-2,17.1-4.8,31.4-7.3,42.3c-3.1,13.6-5.4,23.4-10.4,36.2c-3.9,9.9-6.4,13.8-16.3,33.8
			c-6.4,12.8-11.3,23.2-14.3,29.6"/>
		<path class="st2" d="M1943.9,424.8c3.2,2.6,7.7,6.7,12.4,12.2c10.5,12,16.1,23.7,19.6,32c12.9,30.5,20,67,22.2,78.5
			c4,21.1,8,41.9,12.4,74.7c6,44.4,3.7,42.1,9.5,85.4c6,44.6,9.3,56,11.3,88c1.4,22.2,1.1,40.3,0.8,51.8"/>
		<path class="st2" d="M2088.2,870.8c-6.8-1-19-3.2-31.1-8.6c-6.3-2.8-12-6.2-12.4-6.5c-6-3.6-6.5-4.7-11-7.4
			c-8.4-5.1-16.1-7.1-20.7-8.3c-8.9-2.2-17.6-2.9-17.7-2.5c0,0.2,2.1,0.8,4.1,1.3"/>
		<path class="st2" d="M2038.6,430.5c-16.9-1.3-40.6-2.8-69.2-3.3c-31.5-0.6-47.3-0.9-67.3,1.2c-35.4,3.7-61.2,12.4-84.5,20.5
			c-36.6,12.6-63.3,21.8-93.4,43.3c-34.6,24.7-54.2,51.9-76.2,82.4c-13,18-29.7,41.5-44.5,76.2c-12.1,28.5-16.8,50-24.3,85.1
			c-6.5,30.2-13.8,64.3-16,110.6c-2.2,46.4,2,81.1,5.9,113.8c4.5,37.9,6.8,56.9,13.9,78.5c6.7,20.5,18.4,56.2,36.2,85.4
			c2.4,3.9,7.7,12.4,11.3,24.9c1.6,5.7,3.2,13.4,3.6,35.3c0.3,18.3,0.4,29.8-1.5,44.8c-2,15.9-5,24.1-11.6,46.8
			c-3.5,12.1,3.8-12.7-18.7,70.2c-5,18.6-10.6,39.1-19,69.4c-3.1,11.3-11.6,42.1-23.4,81.2c-12.1,40.4-15.7,49.4-23.4,60.8
			c-4,5.8-8.1,10.8-15.3,20.5c-4.8,6.5-5.6,7.8-9.9,13.6c-5.1,6.9-12.7,16.6-23.5,28.2"/>
		<path class="st2" d="M1840.2,431.6c5.8,0.7,14.6,2.5,23.1,8.3c8.9,6.1,13.2,13.6,20.2,26.7c11.2,21.1,16.8,31.6,21.3,42.4
			c10.5,24.7,16.9,44.9,20.2,55.4c5,16.2,6.6,23.8,16.9,67.3c15.7,66.1,14.2,58.4,17.8,74.7c8.9,41,9.1,48.8,16.6,79.1
			c5.8,23.4,11.5,42.3,15.4,54.5"/>
		<path class="st2" d="M2018.1,966.1c8.6-8.1,13.7-15.9,16.8-21.4c3.7-6.7,5.7-12.3,8-19c2.8-8,4.8-13.8,5.9-21.9
			c1.1-8.4,2.3-16.9-1.5-26.4c-2.2-5.5-5.4-9.5-7.4-12.2c-3.3-4.3-6.3-8-11-10.7c-7.3-4.1-14.8-3.3-21-2.7c-11.7,1.2-20.2,6-23.4,8
			c-3.6,2.2-10,6.7-24,27c-10.4,15.1-15.6,22.6-19.9,32.9c-7.6,18.5-8.7,34.3-9.2,42.4c-0.6,9.2,0.6,4.4,2.4,37.9
			c1,19.5,0.8,25.5,5.9,31.4c1.7,2,7.4,5.2,18.7,11.6c9.2,5.2,13.8,7.8,18.4,10.1c19,9.5,20.7,7.6,27.9,13.6
			c4.7,3.9,6.4,6.8,11.9,8.9c2.2,0.9,8.3,3.2,14.8,0.9c8.4-3,12-11.6,12.2-12.2c1.7-4.4,0.9-7.1,3.9-10.7c0.5-0.7,1.8-2.1,5.9-4.4
			c3-1.7,7.3-3.9,13-5.6"/>
		<path class="st2" d="M2002.9,970.4c6.9-7.7,12.3-14.5,16.3-19.8c5-6.8,7.9-11.3,9.2-13.3c4.2-6.8,6.4-10.2,8.3-15.4
			c0.5-1.4,1-2.7,3.9-17.2c2.6-13.2,2.7-14.4,2.7-16.3c-0.3-7.5-2.8-13.4-4.2-16.3c-1.4-3.1-2.6-5.9-5.3-8.9
			c-4-4.4-8.5-6.3-11.3-7.4c-10.1-4.1-19.7-2.8-24.5-1.8"/>
		<path class="st2" d="M2002.9,970.4c7.9-16.6,14.9-29.2,19.8-37.9c2.9-5,6.8-11.6,10.4-21.3c2.1-5.7,4.8-13.2,5.3-23.4
			c0.4-6.9,0.5-12.8-2.7-19c-5.3-10.3-16.1-13.9-19.8-15"/>
		<path class="st2" d="M2002.9,970.4c-1.9-14.7-0.7-23.1,0.8-28.1c0.5-1.7,1.6-4.7,2.7-9.5c1.3-5.8,1-7.3,2.4-11.9
			c0.7-2.4,1.7-5.8,3.9-9.5c3.2-5.4,5.1-5.3,8-10.1c1.7-2.9,4.3-7.2,3.6-12.4c-0.7-5.2-4.4-10.5-9.8-12.4
			c-5.8-2.2-11.3,0.4-14.2,1.8c-2.6,1.2-8.8,4.6-17.5,19.3c-5.1,8.6-7.8,15.5-12.7,28.7c-4,10.5-6,15.8-7.1,21.3
			c-1.9,9.3-1.8,16.1-1.5,29.6c0.4,19.1,2.7,26.4,3.9,29.6c2.2,6.2,3.7,10.3,7.7,13.6c5,4.2,8.7,2.8,22.5,5.9
			c10.1,2.3,16.2,3.7,22.8,8c2.8,1.9,6.6,5.5,13.9,12.7c5.2,5.1,9.5,9.5,12.5,12.6"/>
		<path class="st2" d="M2055.9,901.1c0.6,6.2-0.3,11-1.2,13.9c-1.3,4.5-2.6,5.5-3.3,5.9c-3.4,2.2-8.5,0.2-10.4-0.6
			c-3.5-1.4-3.7-2.7-6.5-3.9c-2.7-1.1-5.7-1.3-11.3-0.3c-9.3,1.7-15.8,2.9-21.9,7.7c-6.6,5.1-3.9,7.4-16,22.8
			c-6.7,8.6-8.9,11.3-8.9,11.3c-5.1,6.3-7.1,8.5-8.6,12.4s-1.6,7-1.8,11.6c-0.3,9.6-0.7,18.3-0.9,24.9"/>
		<path class="st2" d="M2049.1,935.7c-7,2.5-13,4.1-17.5,5.1c-5.9,1.4-9,1.7-12.2,1.8c-4.6,0.1-4.7-0.6-8.6-0.6
			c-8.2,0-14.7,3-18.4,4.7c-2.5,1.1-6,3-9.8,5.9c-4.9,3.8-8.3,7.7-10.5,10.7"/>
		<path class="st2" d="M1986,975.9c-1.9-3.2-4.5-8.3-6.3-14.9c-2-7.5-1.3-8.7-2.7-13.3c-0.6-2-1.8-4.5-17.5-15.7
			c-7.8-5.6-11.8-8.4-16.3-11c-7.8-4.4-15.1-7.4-21.1-9.4"/>
		<path class="st2" d="M1993.4,935.2c-3-10.4-7.4-17.4-10.7-21.7c-3.6-4.7-7.5-8.4-13-13.6c-4.5-4.3-8.5-7.6-11.3-9.9"/>
		<path class="st2" d="M1993.4,935.2c0-6.5-0.3-17.8-3-28.8c-1.1-4.7-2.3-8-2.7-8.9c-2.2-5.9-4.7-10.1-6.5-13
			c-2.2-3.5-5.2-8-9.4-12.8"/>
		<path class="st2" d="M1991.5,911.9c5.5-2.1,9.8-4.3,12.8-6c5.5-3.1,7.3-4.9,8.3-5.9c2-2.1,2.7-3.5,5-7.4c0,0,3.2-5.2,7.7-11.6
			c2.2-3.1,5.6-7.4,10.4-12.2"/>
		<path class="st2" d="M2003.1,922.7c1-3.6,3-8.7,7.2-13.6c5.9-7,13-9.7,16.4-11c4.3-1.6,8.1-2.3,10.8-2.6"/>
		<path class="st2" d="M2009.4,902.6c-3.2-8.8-5.8-16.3-7.7-22c-1.6-4.7-2.6-7.9-3.3-12.2c-1-6-0.8-11.1-0.5-14.6"/>
		<path class="st2" d="M2011.4,875.7c2.4-7,4.9-14,7.3-21.1"/>
		<path class="st2" d="M2006.1,849.8"/>
		<path class="st2" d="M2007.9,851.9c-1.3-2.6-2.6-5.2-3.9-7.8"/>
		<path class="st2" d="M1979.8,863.3c-0.9-2.2-3.9-8.9-11.3-12.6c-3.2-1.6-6.1-2.1-8.3-2.3"/>
		<path class="st2" d="M1963.2,883c-6.6-4.4-13.3-8.7-19.9-13.1"/>
		<path class="st2" d="M1978,952.2c1.9-6,3.7-11.9,5.6-17.9c1.4-4.4,2.7-8.8,4-13.2"/>
		<path class="st2" d="M1969.2,967.6c-4.3-0.8-11-2.3-18.8-5.2c-6.8-2.5-9.3-4.1-14.8-5.9c-4.8-1.6-12-3.3-21.6-3.3"/>
		<path class="st2" d="M1986,975.9c-0.8,3.5-1.5,8.9-0.3,15.3c0.6,3.4,1.5,8.3,5,13c2.3,3,2.9,2.4,10.1,9.5c4.1,4.1,5.3,5.7,6.2,7.7
			c1.5,3.5,1.6,6.8,1.5,8.9"/>
		<path class="st2" d="M1967.3,994.2c1.4,4.7,3.9,11,8.3,17.8c3.8,5.7,7.8,9.9,11.2,12.9"/>
		<path class="st2" d="M2040.2,987c-3,1.1-7.2,2.6-12.2,4.7c-9,3.8-14.3,6.1-20.5,10.1c-2.2,1.4-7,5.3-16.6,13
			c-3.3,2.7-6.1,4.9-7.9,6.4"/>
		<path class="st2" d="M2002.9,970.4c-1.4,6.8-0.4,11.4,1.7,14.6c1.4,2.1,2.4,2.3,7.4,6.2c2.3,1.8,6.8,5.3,10.7,10.1
			c4,4.9,6.3,9.8,7.4,12.7c1.9,4.8,1.6,6.4,3.9,13.9c1.3,4.4,2.7,7.9,3.6,10.1"/>
		<path class="st2" d="M2026.3,962.4c3.6,5.9,4.3,10.7,4.2,13.9c-0.1,4.1-1.4,5.4-1.5,10.7c0,4.4,0.8,7.7,1.8,11.3
			c1.8,6.8,3,6.9,4.4,12.7c0.7,2.8,1,6.1,1.5,12.7c0.3,3.5,0.6,8.3,0.9,14.2"/>
		<path class="st2" d="M2044.4,978.7c-4.4,8.2-4.7,14.5-4.2,18.6s1.6,5,3.6,13.6c0.8,3.5,1.3,6.9,2.4,13.6c0.6,3.9,1.4,9.3,2.3,15.7
			"/>
		<path class="st2" d="M2042.9,979.9c3.6,7.4,5.5,13.6,6.5,17.8c2.6,10.6,2,16.1,4.4,28.2c1.5,7.5,3.4,13.3,4.7,16.9"/>
		<path class="st2" d="M2039.6,962.4c4.3,3.1,10.6,8.7,15.5,17.5c4.8,8.8,5.8,16.6,6.2,20.5c0.5,4.1,0.4,7.1-0.9,22.2
			c-0.7,8-1.3,14.9-1.8,20.1"/>
		<path class="st2" d="M2068.7,992.9c-6.2,1.3-11.4,2.4-15.4,3.3c0,0-3.1,0.7-9.2,2.4c-5.1,1.4-6.6,1.9-8.3,3
			c-2.6,1.5-3.1,2.6-5.6,4.7c-3.6,3-6.7,4.3-9.5,5.6c-4.2,2-11.5,6-25.2,14.5"/>
		<path class="st2" d="M2048.4,1040.4c1.3,8.6,0,14.6-1.4,18.6c-1.7,4.8-3.6,6.5-4.7,12.4c-1,5-0.8,9.3-0.6,12.2
			c0.2,3.5,0.4,6.8,1.8,11c1.9,5.6,4.7,9.3,7.1,12.4c2.4,3.2,4.8,5.5,6.5,7.1"/>
		<path class="st2" d="M2048.6,1052.4c-1.7-1.5-4.6-3.7-8.7-5.2c-3.8-1.4-7.2-1.6-9.4-1.6"/>
		<path class="st2" d="M2066.3,1043.6c-9.2,6.1-12.5,12.4-13.9,16.9c-1.8,5.9,0.2,7.5-1.8,20.2c-1,6.2-2.3,11.1-3.6,16
			c-1.8,6.7-2.7,10.1-4.2,12.7c-1.4,2.6-4.9,8.7-12.4,12.4c-8.1,4-15.8,2.6-18.4,2.1"/>
		<path class="st2" d="M2058.1,1050.6c-0.8,5.7-0.7,10.3-0.4,13.4c0.4,3.9,1,5.3,0.9,8.6c-0.1,4.8-1.5,8.4-2.7,11.6
			c-1.5,3.8-4.3,9.8-9.9,16.2"/>
		<path class="st2" d="M2068.7,992.9c3.1-0.5,7.7-0.8,12.2,1.3c4,1.8,6.2,4.7,8.3,7.1c3.3,3.8,8.5,9.1,16.6,14.5"/>
		<path class="st2" d="M2080,1044.9c-1.6,5-5,13-12.2,20.4c-3.2,3.2-6.4,5.6-9.2,7.4"/>
		<path class="st2" d="M2080.2,1046.3c-1.2,16.3-5.3,27.2-8.9,34.4c-1.8,3.5-4.9,9-8.6,17.8c-2.7,6.5-4.5,12-5.6,15.7"/>
		<path class="st2" d="M2058.6,1072.7c-1.2,6.4-2.3,12.5-3.6,19c-0.6,3.3-1.3,6.8-3.6,11c-0.7,1.2-2,3.5-4.2,5.9
			c-3.1,3.5-6.3,5.6-8.6,6.9"/>
		<path class="st2" d="M2042.4,1090.6c-3.5,6.9-7.9,11.1-10.8,13.5c-3.9,3.2-7.9,6.4-12.7,5.9c-3.8-0.4-5.5-2.7-11-7.7
			c-9-8.2-9.7-6.8-16.3-13c-9.5-9-7.2-11.1-14.8-18.4c-10.6-10.1-15.4-6.4-26.1-16.6c-7.9-7.6-11.9-16-13.6-19.9
			c-3.6-7.8-4.8-14.4-5.6-19c-1.8-10-1.5-17.8-1.2-24.3c0.3-6.8,1.1-12.5,1.8-16.7"/>
		<path class="st2" d="M1916.1,1005.9c10.2-0.2,18-0.5,23.4-0.8c3.8-0.2,8.4-0.4,14.8-0.3c4.4,0.1,8,0.4,10.5,0.6"/>
		<path class="st2" d="M1970.3,1017.8c-3.9,1.3-9.4,3.4-15.5,6.8c-4.9,2.7-10,5.6-15.1,10.7c-7.1,7.2-10.6,15.2-10.5,15.3
			c0.1,0,1.2-1.6,5.7-8.8"/>
		<path class="st2" d="M1974.6,1021.7c1.6,4.9,1.1,8.4,0.4,10.6c-0.8,2.5-2,3.8-5.6,8.6c-3.3,4.3-4.1,5.5-6.5,8.9
			c-2.5,3.5-3.7,5.3-4.7,7.1c-1.1,2-1.9,4.1-3.6,8c-1.2,2.9-2.1,5.4-2.8,7.1"/>
		<path class="st2" d="M2004,1028.5c0.7,2.7,1.2,6.7-0.2,11c-1.7,5-4.7,6.1-10.7,13.3c-0.2,0.2-3.2,4.6-9.2,13.3
			c-4.1,5.9-6.2,9.1-9.5,13.3c-1.9,2.5-3.6,4.6-4.7,6"/>
		<path class="st2" d="M2019.9,1035.6c3,10.7,1.2,16.9-1,20.5c-1.9,3.2-3.5,3.4-6.8,8c-1.4,2-2.8,4.1-7.4,15.4
			c-4.7,11.5-5.8,15.2-9.8,20.5c-1.6,2.1-3.1,3.6-4,4.6"/>
		<path class="st2" d="M2027,1042c0,4.1,0.1,9.1,0.5,14.6c0.5,7.3,1,8.4,0.3,11.3c-1.4,6.2-4.8,6.4-6.8,13.3
			c-0.1,0.4-0.1,0.3-1.2,10.7c-0.8,7.2-1,8.9-1.5,11.6c-0.7,3.4-1.1,5.9-2.4,8.9c-1.1,2.7-2.9,6.2-6.2,9.9"/>
		<path class="st2" d="M2034.9,1049.8c0.4,7.5-0.1,13.5-0.6,17.5c-0.9,7.3-2,9-2.4,16c-0.2,4.9,0.3,4.1,0.3,13.9
			c0,6.2-0.2,8.4,0.3,12.4c0.5,4.1,1.4,7.4,2.1,9.6"/>
		<path class="st2" d="M1975.6,1029.1c3.7,0.8,8.6,2.1,14.2,4.2c6.3,2.3,12.4,4.6,19.3,9.2c5,3.4,7.3,6,14.2,9.8
			c2.3,1.3,4.8,2.5,8.3,3.3c3.8,0.8,7.1,0.6,9.2,0.3"/>
		<path class="st2" d="M1743.8,459.6L1743.8,459.6c1.2,0.3,2.4,0.7,3.8,1.1c5,1.6,11.1,4,17.6,7.8c1.5,0.9,3,1.9,4.6,2.9
			c1.5,1,5.3,3.7,10.5,8.9c3.7,3.7,8.1,8.6,13,15.1c6.1,8.1,10,14.9,14.8,24.2c1.8,3.6,3.8,7.6,6.1,12.2
			c10.7,21.6,15.1,30.3,17.3,34.6c2.4,4.8,2.2,4.2,4.9,9.9c10.1,21.3,17.3,36.5,23,49.2c4.1,9.1,7.5,17,10.8,25.1
			c7.4,18.4,11,29.6,13.7,38.6c4.1,13.8,5.8,22.4,15.7,44.1c2.1,4.7,4.1,8.9,19.5,37.9c3.6,6.9,8,15.2,13.4,25.2
			c3,5.7,5.9,11.1,8.6,16.2c7.6,14.3,14.1,26.4,19.1,35.7l0,0"/>
		<path class="st2" d="M1672.3,509.2c2.5,0,5.9,0.2,9.9,1c0.2,0,0.8,0.1,1.5,0.3c2.5,0.6,7.4,1.9,13,4.5c2.8,1.3,5.7,2.9,8.6,4.9
			c5.4,3.8,8.8,7.7,12.2,12.6c2.7,3.8,5.3,8.3,8.7,13.7c7.6,11.8,9.1,12.4,16.1,21.3c2.6,3.3,5.9,7.7,10.5,14.3
			c6.7,9.5,12.4,18,17.4,25.9c4.8,7.6,9.1,14.6,13.3,21.6c12.5,20.8,16.2,28.5,21.4,38l0,0c2.7,5,5.9,10.4,11,18.5
			c13.5,21.3,16,22.3,26.3,38.2c1.4,2.2,3,4.7,4.8,7.6c18.5,29.8,16.4,32.6,29.8,50.7c4.8,6.5,8.2,10.3,12.6,15.1
			c5.1,5.4,11.5,12,23,25c0.2,0.2,0.4,0.5,0.6,0.7c13.2,15,23.5,27.6,30.1,35.8"/>
		<path class="st2" d="M1894.6,422.3c-4.5,0.4-105.6,10.4-161.7,46.9c-19.9,13-36.5,28.5-36.5,28.5c-16,15-25.6,27.8-36.5,42.2
			c-14.6,19.4-24,36.1-42.7,69.4c-4.7,8.4-10.9,19.6-15.1,35.6c-2,7.4-3,13.8-3.5,18.2"/>
		<path class="st2" d="M1621.2,568.9c4.8,1.6,11.9,4.6,19.2,10.1c4.5,3.4,7.5,6.6,15.6,16c9.2,10.6,13.8,15.9,17.3,20.5
			c16.5,20.8,21.1,28.3,32,42.2c9.1,11.6,18.8,24.1,32.9,37.8c18,17.5,34.2,28.4,44.9,35.6c24,16,31.9,17.2,58.7,33.3
			c13.8,8.3,30.1,19.1,47.7,32.8"/>
		<path class="st2" d="M1589.3,625.6c14.4,9.7,24.9,18.9,32,25.5c11.8,11.1,15,16.4,25.8,24c3,2.1,7.8,5.2,29.8,14.7
			c21.8,9.4,32.8,14.1,48.9,19.1c10,3.1,23.4,6.8,39.6,9.8"/>
		<path class="st2" d="M1574.7,661.8c10.8,3.6,22.7,7.1,35.4,10.2c16.6,4,32.2,6.7,46.4,8.6"/>
		<path class="st2" d="M1551,765.8c5.6-0.5,13.2-0.9,22.1-0.2c3,0.2,6.2,0.6,9.5,1.1c7.3,1.1,12,2.5,19.2,4.4
			c1.6,0.4,3.4,0.9,5.3,1.4c12.6,3.3,19.3,4.4,27.3,5.8c4,0.7,8.2,1.5,13.7,2.7c16.9,3.7,23.3,6.3,36.4,10.5
			c3.9,1.2,8.3,2.6,13.8,4.2c21.2,6,31,7.3,40.5,8.7c8.1,1.2,16,2.5,30.7,6.8c4.6,1.4,16.6,5.1,32.6,11.6c9.2,3.7,19.7,8.4,31,14.2
			c7.5,3.8,12.7,6.8,17.5,9.7c5.4,3.2,10.1,6.2,16.7,9.9l0,0c3.4,2,7.3,4.1,12,6.6c21.8,11.5,40.5,19.1,52.9,23.8"/>
		<path class="st2" d="M1922.2,911.5c-10.8-9.2-22.2-19.7-33.7-31.5c-7.7-8-14.8-15.8-21.3-23.5l0,0"/>
		<path class="st2" d="M1915,943.7c-9.1-2.1-23.2-5.7-40.4-10.7c-6.6-2-11.8-3.6-16.2-5c-11.4-3.8-18.1-6.4-33.6-11
			c-17.6-5.2-25.5-6.7-32.1-7.9c-6.1-1.2-11.1-2.2-21.7-5.9c-22.6-7.9-29.1-13.5-40.3-16.8c-3.3-1-7-1.8-11.7-2.3
			c-11.7-1.4-16.5-0.1-34.7-2.7c-3.5-0.5-6.8-1.1-9.8-1.6c-8.6-1.6-15.4-3.3-20.4-4.6c-16.7-4.3-24-7.5-30.1-9.7
			c-4.6-1.6-8.5-2.7-15.2-3.2c-3.4-0.3-8.5,0.1-16.6,1c-4.9,0.5-10.8,1.2-18.1,2.1c-4.3,0.5-8,1-11.4,1.9c-3.7,1-7,2.4-10.4,4.8
			c-1.6,1.2-3.1,2.4-4.3,3.7c-2.6,2.6-4.4,5.3-5.6,7.4l0,0"/>
		<path class="st2" d="M1913.7,985.5c-12.3,5.7-21.3,11.3-27.4,15.5c-5.4,3.7-10.9,7.9-18.7,8c-5.3,0.1-9.2-1.8-11.1-2.7
			c-12.9-5.8-21.3-3.9-43.1-8c-19.2-3.6-18.4-6-45.8-13.3c-13.7-3.7-24.4-5.7-45.8-9.8c-27.4-5.2-45.5-8.7-70.7-11.1
			c-16.2-1.5-30-2.8-48-1.8c-3,0.2-9.9,0.7-23.6,1.8c-12.6,1-22.9,1.8-29.8,2.4"/>
		<path class="st2" d="M1918.4,1017.8c-15.4-3.2-30.8-6.3-46.2-9.4"/>
		<path class="st2" d="M1941.1,1068.9c-1,3.1-3.5,9.2-9.5,12.6c-4.9,2.8-9.9,2.3-14.7,1.8c-16.3-1.8-24.4-2.7-30.7-4.4
			c-14.9-4.3-30.3-6.3-45.3-9.8c-20.7-4.8-35.6-7.9-56.9-12.4c-31-6.6-46.5-9.9-53.3-10.7c-7.7-0.9-27.5-1.5-67.1-2.7
			c-17.9-0.5-26.8-0.7-40.5-2.2c-7.5-0.8-11.8-1.6-30.2-4c-11.6-1.5-21.1-2.7-27.4-3.5"/>
		<path class="st2" d="M1923,1035.4c0.4,8.5,1,20.4,1.5,34.5c0.5,13.5,0.7,23.8,0.9,30.7c0.6,19.1,1.6,48.7,1.3,73.8
			c-0.4,29.1-2.4,50.6-4.4,71.1c-1.1,10.9-4.5,44.8-12.4,89.4c-5.5,30.9-6.3,28.5-8,43.1c-1.4,11.9-2.3,25.5,0.9,82.7
			c2.9,52.6,3.6,40.7,5.8,82.7c1.2,23,1.4,35.8,5.3,55.6c5,25.4,11.8,41,13.8,45.3c5.2,11.5,10.1,19.2,20,34.7
			c9.1,14.2,14.9,23.3,24.9,34.7c7.1,8.1,14.6,16.6,26.7,25.3c11,7.9,27.5,17.3,30.7,19.1c4.9,2.8,11.1,6.1,18.2,12.4
			c4.7,4.2,8.1,8.1,10.3,10.9"/>
		<path class="st2" d="M1961.3,1088.1c-11.6-1.6-23.3-3.2-34.9-4.8"/>
		<path class="st2" d="M1965.8,1092.1c1,11.5,2.1,28.8,2.2,49.8c0.2,31.2-2,38.9-3.6,77.8c-2.2,53.3,1.3,54.4-2.2,89.4
			c-2.4,24.4-4.2,25.1-8,58.7c-3.7,33.2-4.9,58.9-5.3,68.5c-1,25.3-2.3,59.3,1.8,103.6c1.7,18.6,5.4,39.7,12.9,81.8
			c3.7,20.8,5.9,31.4,12.4,44.5c6,11.9,13.8,21.1,29.3,39.6c9.8,11.6,17.8,21,30.2,32c9.6,8.5,13,10.1,24.9,20
			c13.1,10.9,23,20.6,29.4,27.2"/>
		<path class="st2" d="M2006.7,1120.1c0.7,10.3,1.4,23.2,1.8,38.3c0,0,0.7,25,0,48.5c-0.7,22.8-2.4,35.7-8.4,88.5
			c-1.2,10.7-4.2,39.7-10.2,97.8c-3,29.3-4.5,44.2-2.2,61.8c2.4,18.5,5.8,22.1,14.7,56c7.2,27.2,5.3,26,15.1,68.5
			c7.7,33.1,11.7,50.2,19.6,73.4c7.6,22.4,15,39.3,24.4,56c4.5,8,8.7,14.4,11.7,19"/>
		<path class="st2" d="M2034.6,1119.3c0.7,6.3,1.6,15.7,1.9,27.1c0.6,21.4-1.2,36-3.1,53.8c-5.5,52.6-2.7,47.3-6.7,74.7
			c-2.1,14.2-2.2,11.3-12,60.9c-10.9,55.3-11.9,64.8-12.4,73.8c-2,31.5,1.3,53.2,2.2,58.7c3.1,19,7.9,34.4,12,45.5"/>
		<path class="st2" d="M2051.9,1249.6c-4.2,12.6-8.4,25.9-12.2,39.8c-5.2,18.6-9.4,36.5-12.8,53.4"/>
		<path class="st2" d="M2105.4,1434.2c-10.2-7.2-18.8-12.3-24.9-15.8c-7.3-4.1-10.1-5.2-14.2-8.9c-4.4-3.9-5.4-6.2-14.2-20
			c-11.8-18.5-12-17.4-14.7-23.1c-2.9-6.4-3.7-10-8-17.3c-3-5.1-5.1-8.6-8.9-11.6c-5.8-4.5-11.4-4.6-17.8-5.8
			c-12.9-2.4-14.1-6.4-31.6-13.3c-12.9-5.1-18.9-5.6-32.9-9.3c-28.8-7.6-28.1-12.1-62.7-23.6c-29.5-9.8-30.8-6.8-55.1-16.4
			c-17.8-7-20.3-9.9-35.1-14.2c-7.5-2.2-10.3-2.5-44.9-8c-39.7-6.3-36.5-6-41.8-6.7c-19.4-2.3-26.4-2.1-41.3-5.8
			c-5.2-1.3-9.2-2.5-17.8-4.4c-10.4-2.3-19.1-3.7-24.9-4.6"/>
		<path class="st2" d="M2106.9,1383.8c-10.3,9.6-18.9,17.2-24.6,22.2c-19,16.6-26.8,22-32.5,33.8c-4,8.3-5.2,16.1-5.6,21.2"/>
		<path class="st2" d="M2090.8,1425.6c-11.5,7.7-24.2,19-32.5,35.6c-5.6,11.2-6.1,18.4-11.6,35c-3.9,11.8-10,27.3-19.9,44.9"/>
		<path class="st2" d="M2063,1487.7c-8.2-4.9-14.8-9.1-19.3-11.9c-13-8.3-15.7-10.1-15.7-10.1c-10.2-6.7-11-7.5-13.9-8.6
			c-7.2-2.7-12.2-1.8-19.3-1.8c-9.7,0-13.7-2-29.6-5.9c-16-4-13.6-2.4-54.8-10.4c-20.7-4-18.4-3.8-42.4-8.6
			c-48.7-9.6-48.2-8.4-68.9-13.3c-25.4-6.1-25.4-7.9-53.3-14.2c-9-2-9-1.9-40.5-8.4c-35.5-7.4-33.6-7.3-40.5-8.4
			c-27.2-4.7-32.2-3.1-52-7.1c-10.1-2.1-24.7-5.7-42-12.7"/>
		<path class="st2" d="M2057.7,1506.6c-3.1,0-7.4-0.5-11-3.3c-5.2-4-6-10.3-7.1-14.7c-1.7-6.9-6-16.3-17.4-26.9"/>
		<path class="st2" d="M2060.1,1457.8c-1.4-3.8-3.8-9.3-7.8-15.2c-2.1-3.2-4.3-5.7-8.6-10.7c-6.9-8-12.3-13.4-15.7-16.6
			c-5.1-4.8-7.6-6.8-9.8-8.3c-3-2.1-5.8-4-9.5-5.3c-6.3-2.2-10-0.9-16-1.2c-8.3-0.4-13.5-3.5-19.6-6.2c-7.7-3.5-9.4-3.1-51.3-14.5
			c-30.4-8.3-45.7-12.5-58.1-16.6c-6.7-2.2-6.3-2.2-45-16.6c-43.7-16.2-47.8-17.6-55.1-19.3c-14.4-3.3-25.9-4.5-48.9-6.8
			c-23.3-2.3-24.7-1.3-43.6-3.9c-24.4-3.4-25.8-5.7-37.6-5.6c-4.3,0-10,0.4-16.9-2.4c-4.3-1.7-6.3-3.5-12.2-5.9
			c-4.8-1.9-8.9-3-11.7-3.5"/>
		<path class="st2" d="M2075.8,1447.7c-6.7-0.9-13.5-1.8-20.2-2.7"/>
		<path class="st2" d="M1961.6,1315c2.1,11.5,3.9,23.7,5.4,36.6c2.3,20.7,0.7,33.3,3.6,62.5c0,0,0,0,1.2,11.6
			c3.8,37,3.9,38.2,4.2,40c1.9,14.6,4.6,19.4,12.4,45c3.2,10.4,7.9,29.1,17.5,66.4c12.5,48.7,12,50,16.6,61.3
			c12.2,30.1,18.3,28.1,24.6,50.1c1.6,5.5,5,18.8,16.3,29.6c2.9,2.7,5.6,4.7,7.4,5.9"/>
		<path class="st2" d="M1977.1,1473.2c0.6,7.1,1.6,18.4,2.4,32.5c1.6,30.1,0.7,37.7,2.4,59.9c1.7,22.6,5.1,39.6,6.2,45
			c2.6,12.4,6.2,29.6,14.8,50.7c8.1,19.9,9.2,15.2,21.6,43c3.2,7.1,5.5,12.9,11.3,19.3c3.5,3.9,5.9,5.4,22.2,16.3
			c17.5,11.6,19.6,13.1,23.1,16.3c6.9,6.2,11.8,12.3,14.8,16.3c3.4,4.6,6,8.8,8,12.3"/>
		<path class="st2" d="M1863.5,1209.6c-3.6,12.9-8.6,31.6-14.1,54.5c-1.8,7.2-3.3,14.1-9.8,42.4c-9.2,39.9-13.8,59.9-15.4,69.4
			c-5.2,29.9-6.5,52.9-7.4,70.8c-2.1,41.8,0.1,73.6,0.9,83.3c1.8,23,4,48.9,12.4,82.1c5.9,22.9,10.3,40.3,22.2,61.7
			c12.5,22.4,22.9,41,43.9,52.8c12.4,6.9,24.1,15.1,37,21c4,1.8,11.7,5.2,16.9,13.3c3.3,5.1,4.3,10.3,4.7,13.8"/>
		<path class="st2" d="M2015.6,1511.2c-4.9,1.6-12.1,3.4-20.9,3.3c-12.8-0.1-21.7-4.1-27.6-6.2c-17.6-6.3-29.3-3.5-50.2-3.6
			c-23-0.1-46-5.4-92-16c-47.5-11-39.1-12.8-75.6-20.5c-30.8-6.4-61.1-12.8-100.5-14.7c-14-0.7-28.2-0.7-47.6-5.8
			c-21.3-5.6-37.9-14.3-42.7-16.9c-5-2.7-9.1-5.2-12-7.1"/>
		<path class="st2" d="M2031.9,1580.9c-4.9,2.3-12.3,5.3-21.6,6.5c-4.4,0.6-7.9,0.6-14.7,0.4c-20.2-0.5-30.2-1.3-30.2-1.3
			c-18.4-1.6-32.6-3.5-39.6-4.4c-38.6-5.1-41.1-3.9-54.7-6.2c-32.8-5.6-36-15.6-81.8-33.3c-15.5-6-42.9-16.4-79.6-22.7
			c-26.1-4.4-54.3-6.3-86.2-8.4c0,0-12.7-0.8-34.2-3.6c-12.1-1.5-18.3-2.6-25.3-4.4c-8.9-2.4-16.2-4.3-24-8.9
			c-5.4-3.2-14.7-9.8-22.7-22.6"/>
		<path class="st2" d="M2016.9,1621.2c2,17.4,5.9,31.4,9.3,41.2c9.7,27.8,23.5,46.7,31.1,56.9c9.1,12.2,18.8,22.8,24.9,29.3
			c7.8,8.4,17.9,18.7,21.3,22.2c4.5,4.5,8.2,8.3,10.8,10.9"/>
		<path class="st2" d="M2051.7,1658c-16.2-3.4-29.6-3.3-39.6-2.2c-10.9,1.1-13.3,2.9-26.7,4.4c-17.4,2.1-21.2,0.1-38.7,0.9
			c-25.5,1.2-26.7,5.9-46.7,6.2c-12.4,0.2-21.9-1.8-40.9-5.8c-32.2-6.8-55.7-15.7-62.2-18.2c-24.9-9.7-23.5-12.1-53.8-25.8
			c-36.7-16.5-57.7-25.8-86.7-27.6c-21.8-1.3-38.7,2.1-50.2,4.4c-29.4,6.1-47.4,9.8-63.1,24.4c-14,13-18.6,27.4-32.9,28.9
			c-7,0.7-13-2-17.1-4.4c-1.8-0.8-4.5-2-7.6-3.3c-6.9-3-10.9-4.7-14.3-6.1c-15.7-6.4-15.9-4.7-20.9-8.2c-5.3-3.7-8.3-8.1-11.2-12.3
			c-4.8-6.9-7.3-13.4-8.7-17.8"/>
		<path class="st2" d="M1502.6,1542"/>
		<path class="st2" d="M1552.4,790.2c-1.5,11.9-3.2,28.2-4,47.6c-1.7,39.3,1.1,69.2,3.6,94.3c3.4,35,5.1,52.4,11.1,76.5
			c1.8,7.2,9.4,36.6,25.3,72.9c12,27.3,18.7,35.8,24.9,59.6c1.4,5.2,5.6,22.5,6.7,45.3c0.3,7.2,0.8,27.9-13.8,89.4
			c-9,38.1-17.7,65.9-20,73.4c-11.4,36.2-12.3,32.2-24.4,69.8c-11.9,36.7-17.5,60.8-30.7,90.3c-3.5,7.8-10,21.7-21.8,37.3
			c-5.7,7.6-10.9,13.4-14.7,17.3c-22.4,30-31.6,42.6-31.6,42.6l-27.4,17.5c-14.1,8.3-14.1,8.3-14.1,8.3"/>
		<path class="st2" d="M1539.6,1488.1c-15.2,20-30.5,40.1-45.7,60.1c-8.6,12.3-16.8,22.1-23.2,29.4c-9.2,10.3-16.2,18.1-27.6,26
			c-6.8,4.7-12.9,8-17.3,10.1"/>
		<path class="st2" d="M1546.6,1423.8c-0.2,4.9-0.8,11.7-2.7,19.6c-3.4,13.9-9,23.7-10.2,25.8c-4.2,7.2-6.5,8.7-13.8,20.9
			c-3.3,5.6-3.2,5.8-4.9,8.4c-3.5,5.4-9.4,12.5-19.7,19.2c-3,2.6-7.2,6.7-11.3,12.4c-5.3,7.3-5.3,10-9.7,16.3
			c-4.6,6.6-9.4,10.4-18.9,17.9c-4.8,3.8-11.4,8.6-19.8,13.5"/>
		<path class="st2" d="M1452.8,1536.6c10.4-5.2,21.8-12.1,33.2-21.3c3-2.4,5.7-4.8,8.4-7.2c3.5-1.9,11.1-6.6,16.7-15.9
			c5.1-8.4,6-16.4,6.2-20.4"/>
		<path class="st2" d="M1607.3,1122.6c11.9,17,16.7,32.6,18.8,42.9c3.8,18.4,2,33.3-0.9,55.6c-1,7.4-2.8,19.7-9.3,46.2
			c-6.4,26-11.2,41-20.9,73.8c-3.3,11.2-10.7,36.3-18.7,64.5c-14.5,51.4-16.3,62.4-25.8,85.4c-11.1,26.9-21,42.2-24,46.7
			c-4,5.9-6.6,9.2-11.6,16.9c-10.1,15.5-16.9,28.9-21.1,37.8c-10.3,12-18.8,22.1-25.2,29.6c-16.2,19.2-24.5,29.1-34.2,41.4
			c-9.6,12.2-17.3,22.5-22.5,29.6"/>
		<path class="st2" d="M1558.5,1501.9c-13.6,15.7-22.4,29.6-27.9,39.3c-7.1,12.6-10.1,20.8-20,38.2c-6.7,11.8-12.8,21.2-16.7,27
			c-6.3,15.2-15.8,33.9-29.9,53.4c-17.9,24.8-37.1,42.4-52.1,54.1"/>
		<path class="st2" d="M1556.1,1555.4c-12.6,23.3-27,47.6-43.3,72.4c-6.8,10.3-13.6,20.2-20.4,29.8c-2,2.5-5.2,6.5-9.5,11.4
			c-15.9,18.3-20.5,19.2-34.2,34.7c-9.9,11.2-11.6,15.4-20.9,23c-5.9,4.8-11.3,8.1-15,10.2"/>
		<path class="st2" d="M1416.1,1657.7c2.9-1,7.2-2.2,12.5-3.2c5.4-1,17-3,30.6-0.7c10.4,1.8,9,3.9,19.7,5.8
			c5.2,0.9,12.1,0.8,25.9,0.7c5.9-0.1,12.7-0.3,26.2-0.7c4.6-0.1,8.4-0.3,10.9-0.3c14.1-1.2,24.6-3.7,28.5-5.9c2.8-1.5,6-3.6,6-3.6
			c1.4-0.9,2.8-1.9,4.3-3c11.8-8.6,18.4-17.3,34.7-23.8c4.7-1.9,8.2-2.8,12.9-4c7.7-2,18.9-4.2,41.8-4.9c3-0.1,5.3-0.1,6.7-0.1
			c11.5-0.1,30.2-0.1,58.5,0"/>
		<path class="st2" d="M1564.3,1775.7c6.9-7.8,16.2-17.4,28.1-27.4c5.1-4.3,21.1-17.1,44.5-30.2c4.9-2.8,27.9-15.5,61.8-25.3
			c31.9-9.3,47.9-13.9,68-10.7c15.4,2.5,12.5,6,56,22.2c22.2,8.3,33.7,12.5,49.3,15.1c11.8,2,16.5,1.5,48,1.8
			c12.2,0.1,30.9,0.5,68.5,1.3c22.7,0.5,36.1,0.9,63.6,1.3c7.8,0.1,14.3,0.2,18.7,0.3"/>
		<path class="st2" d="M1548.6,1663c2.4,9.2,5.3,21.2,8.2,35.5c3.7,18.5,4.5,26.4,8,42.2c2.1,9.5,5.2,21.7,9.7,35.7"/>
		<path class="st2" d="M1659.1,1779c5.4-4.5,13-10.3,22.7-16c19.5-11.5,36.5-15.9,46.7-18.7c12.2-3.3,34.3-9,61.8-6.7
			c30.9,2.6,34.1,12.6,68.5,13.8c11.8,0.4,16-0.6,32.9,0.4c10.4,0.6,12.6,1.3,40.9,4.4c24.7,2.8,26.2,2.7,32,4
			c15.9,3.7,28.1,9.9,35.9,14.7"/>
		<path class="st2" d="M1844.6,1658.3c4.8,16.4,9.9,29.8,14.1,39.8c9,21.4,14.8,29.7,16.4,32c7.4,10.3,15.2,17.5,21,22.1"/>
		<path class="st2" d="M1702.6,1751.1c-3,9.4-5.9,18.8-8.9,28.2"/>
		<path class="st2" d="M1706.2,1779.3c20.1-8.7,37.5-13.5,50.2-16.3c24-5.3,43.4-6.3,60-7.1c17-0.8,32.4-0.6,43.6-0.4
			c14,0.2,19.9,0.6,36,0.9c15.6,0.2,28.2,0.1,36.5,0"/>
		<path class="st2" d="M1740.9,1779c7.8-1.9,20-4.7,35.1-7.1c13.6-2.2,22.3-2.6,56-5.8c25.7-2.4,38.5-3.6,47.6-4
			c17.5-0.8,35.8-1.6,59.1,0.9c12,1.3,23.6,3.2,28.5,4c11.7,2,21.7,4,29.2,5.7"/>
		<path class="st2" d="M1757,1774.1"/>
		<path class="st2" d="M1853.4,1779c6.1-7.8,12.2-15.6,18.2-23.3"/>
		<path class="st2" d="M1792.4,1779.3c7.1-3.7,14.2-7.3,21.3-11"/>
		<path class="st2" d="M2036.1,1778c3.1-2.3,8.4-5.9,15.6-8.9c0,0,10.3-4.3,43.2-7.2l0,0c2.8-1.2,5.5-2.5,8.3-3.7"/>
		<path class="st2" d="M2048.1,1770.5c-10.4,0.2-20.8,0.4-31.2,0.6"/>
		<path class="st2" d="M1410.1,1686.9"/>
		<path class="st2" d="M1495.1,1489c-4.6,7.5-38.9,39.1-45.1,52.3c-14.4,30.8-20.4,55.8-26,80.4c-7.3,31.7-12.4,53.8-12.3,82.7
			c0.1,19.2,2.5,26.8,0,46.7c-2.3,18.8-6.3,27.5-1.5,32.9c4,4.6,53.4,7.2,83.4-4.6"/>
	</g>
</g>
<g>
	<g>
		<path class="st6" d="M1557.4,965.5c-3,1.5-6,2.9-9,4.4s-6,2.9-9,4.4c-1.5,0.7-3,1.5-4.5,2.2s-3,1.5-4.4,2.2
			c-8.9,4.4-17.6,8.7-26.3,13.1c-1.4,0.7-2.9,1.5-4.3,2.2s-2.9,1.5-4.3,2.2s-2.9,1.5-4.3,2.2c-1.8,0.9-3.5,1.8-5.3,2.7
			c-8.7,4.4-17.3,8.9-25.7,13.3c-1.5,0.8-3.1,1.6-4.6,2.4c-2.8,1.5-5.6,3-8.4,4.4c-4.6,2.4-9.2,4.9-13.7,7.3
			c-2.1,1.1-4.2,2.2-6.2,3.4c-2.1,1.1-4.1,2.2-6.2,3.4c-231.2-126-371.1-244.7-346.4-308.7c25.4-65.8,218.5-57.4,485.7,9.8"/>
		<path class="st6" d="M2437.4,1073c251.6,132.8,406.8,260,380.9,327.2c-25,64.7-212.1,57.6-472.3-6.4c-2.5-0.6-5.1-1.2-7.6-1.9
			c-5.4-1.3-10.8-2.7-16.3-4.1l0,0c-7.1-1.8-14.2-3.6-21.3-5.5s-14.3-3.8-21.6-5.7l0,0c-1.3-0.4-2.7-0.7-4-1.1
			c-3.2-0.9-6.4-1.7-9.6-2.6c-7.8-2.1-15.6-4.3-23.5-6.6c-8.6-2.4-17.2-4.9-25.9-7.4c-10.9-3.2-21.9-6.4-33-9.8l0,0
			c-0.4-0.1-0.9-0.3-1.3-0.4l0,0c-13.4-4-26.9-8.2-40.5-12.5l0,0c-6.3-2-12.6-4-18.9-6c-14.3-4.6-28.8-9.3-43.3-14.1l0,0
			c-1.1-0.4-2.3-0.8-3.4-1.1c-10-3.3-20.1-6.7-30.3-10.2c-1.9-0.7-3.9-1.3-5.8-2c-4.4-1.5-8.8-3-13.3-4.6
			c-6.9-2.4-13.9-4.8-20.8-7.3c-11.8-4.2-23.7-8.4-35.7-12.7c-14.7-5.3-29.6-10.8-44.5-16.3c-16.1-6-32.3-12.2-48.5-18.4
			c-2.6-1-5.2-2-7.8-3c-0.3-0.1-0.6-0.2-1-0.4c0.3-0.1,0.6-0.2,1-0.3c3.8-1.2,7.7-2.5,11.5-3.8c1.9-0.6,3.8-1.3,5.8-1.9
			s3.8-1.3,5.8-1.9c4-1.3,8.1-2.7,12.1-4.1c1.5-0.5,2.9-1,4.4-1.5c7.1-2.4,14.1-4.8,21.2-7.2c3.3-1.1,6.7-2.3,10-3.5l0,0l0,0l0,0
			l0,0l0,0c2.6-0.9,5.1-1.8,7.7-2.7c7.7-2.7,15.4-5.4,23.2-8.1c4.3-1.5,8.6-3.1,12.9-4.6c2.9-1.1,5.9-2.1,8.8-3.2
			c3.7-1.3,7.4-2.7,11.2-4c3.7-1.3,7.3-2.7,11-4c8.6-3.1,17.2-6.3,25.8-9.5c0.4-0.1,0.8-0.3,1.1-0.4c3.4-1.3,6.8-2.6,10.2-3.8
			c3.9-1.5,7.8-2.9,11.7-4.4c2-0.8,4-1.5,6.1-2.3c1.1-0.4,2.3-0.9,3.4-1.3c1.5-0.6,3-1.2,4.5-1.7c7.7-3,15.4-5.9,23.1-8.9
			c9.7-3.8,19.3-7.6,28.9-11.4c2.9-1.2,5.8-2.3,8.7-3.5c4.1-1.6,8.3-3.3,12.4-5c7.4-3,14.8-6,22.1-9c3.4-1.4,6.8-2.8,10.2-4.2
			c3.3-1.3,6.6-2.7,9.8-4.1c1.6-0.7,3.3-1.4,4.9-2c2.1-0.9,4.2-1.7,6.3-2.6c3.5-1.5,6.9-2.9,10.4-4.4c5.9-2.5,11.7-5,17.6-7.4
			c2.6-1.1,5.1-2.2,7.6-3.3c19.1-8.2,38-16.5,56.5-24.8c0.2-0.1,0.5-0.2,0.7-0.3c2.9-1.3,5.8-2.6,8.7-3.9c10-4.5,19.9-9,29.7-13.5
			c2.3-1.1,4.6-2.1,7-3.2c3.7-1.7,7.4-3.4,11-5.1c3.4-1.6,6.9-3.2,10.3-4.8c0.2-0.1,0.4-0.2,0.7-0.3c0.8-0.4,1.5-0.7,2.3-1.1
			c1.2-0.6,2.4-1.1,3.6-1.7c1-0.5,1.9-0.9,2.9-1.4c0.2,0.1,0.3,0.2,0.5,0.2"/>
		<path class="st6" d="M2372.9,1039.9c-1,0.4-1.9,0.9-2.9,1.4c-1.2,0.6-2.4,1.1-3.6,1.7c-0.8,0.4-1.5,0.7-2.3,1.1
			c-7.3,3.4-14.6,6.9-22,10.3c-2.3,1.1-4.6,2.1-7,3.2c-12.6,5.8-25.4,11.6-38.4,17.4c-0.2,0.1-0.5,0.2-0.7,0.3
			c-18.5,8.3-37.4,16.5-56.5,24.8c-2.5,1.1-5.1,2.2-7.6,3.3c-19.4,8.3-39.2,16.5-59.2,24.7c-7.3,3-14.7,6-22.1,9
			c-16.5,6.6-33.2,13.2-50,19.8c-7.7,3-15.4,6-23.1,8.9c-4.7,1.8-9.3,3.6-14,5.3c-3.9,1.5-7.8,2.9-11.7,4.4
			c-3.4,1.3-6.8,2.6-10.2,3.8c-0.4,0.1-0.8,0.3-1.1,0.4c-8.6,3.2-17.2,6.4-25.8,9.5c-14.7,5.4-29.4,10.7-44,15.8
			c-10.3,3.7-20.6,7.3-30.9,10.8c-3.4,1.2-6.7,2.3-10,3.5c-20.4,7-40.7,13.8-60.8,20.4c-0.3,0.1-0.6,0.2-1,0.3
			c-2.8-1.1-5.6-2.2-8.4-3.3c-11.7-4.6-23.4-9.2-34.9-13.8c-13.9-5.6-27.7-11.2-41.4-16.8c-16.6-6.9-33.1-13.8-49.4-20.7
			c-16.8-7.2-33.5-14.4-49.9-21.6c-4.8-2.1-9.6-4.3-14.4-6.4c-5.7-2.6-11.5-5.1-17.1-7.7c-5-2.3-9.9-4.5-14.9-6.8
			c-3.6-1.6-7.1-3.2-10.6-4.9c-2.3-1-4.5-2.1-6.8-3.1c-1.7-0.8-3.4-1.6-5.1-2.4c-69.9-32.4-135-65.2-194.2-97.4
			c2.1-1.1,4.1-2.2,6.2-3.4c2.1-1.1,4.1-2.2,6.2-3.4c4.5-2.4,9.1-4.9,13.7-7.3c2.8-1.5,5.6-3,8.4-4.4c1.5-0.8,3.1-1.6,4.6-2.4
			c8.5-4.4,17-8.9,25.7-13.3c1.8-0.9,3.5-1.8,5.3-2.7c1.4-0.7,2.9-1.5,4.3-2.2s2.9-1.5,4.3-2.2s2.9-1.5,4.3-2.2
			c8.7-4.4,17.4-8.7,26.3-13.1c1.5-0.7,3-1.5,4.4-2.2c1.5-0.7,3-1.5,4.5-2.2c3-1.5,6-2.9,9-4.4s6-2.9,9-4.4"/>
		<path class="st6" d="M1421.1,1035.2c125.9,68.6,278.9,139.4,447,204.8c-407.3,133.1-736.8,172.8-769.5,85.1
			C1075.6,1263.4,1204.8,1153,1421.1,1035.2z"/>
		<line class="st6" x1="2300.7" y1="691.7" x2="2300.7" y2="691.7"/>
		<path class="st6" d="M2372.9,1039.9c0.3-0.1,0.5-0.3,0.8-0.4c2.9-1.4,5.7-2.7,8.6-4.1c2.2-1.1,4.4-2.1,6.7-3.2
			c3.6-1.7,7.2-3.5,10.8-5.2c3.1-1.5,6.2-3,9.3-4.5c285.8-139.7,467.8-278.6,440.8-350.9c-24.8-66.4-219.5-59.8-489.2,5
			c-1.1,0.3-2.2,0.5-3.4,0.8"/>
	</g>
	
		<image style="overflow:visible;enable-background:new    ;" width="1895" height="935" xlink:href="FECCEDBF.png"  transform="matrix(0.9994 0 0 0.9994 1015.4673 568.0054)">
	</image>
	
		<image style="overflow:visible;enable-background:new    ;" width="1881" height="921" xlink:href="FECCEDBD.png"  transform="matrix(0.9994 0 0 0.9994 1022.4677 575.0032)">
	</image>
	
		<image style="overflow:visible;enable-background:new    ;" width="1870" height="909" xlink:href="FECCEDC3.png"  transform="matrix(0.9994 0 0 0.9994 1027.4679 581.0013)">
	</image>
	
		<image style="overflow:visible;enable-background:new    ;" width="1860" height="899" xlink:href="FECCEDC5.png"  transform="matrix(0.9994 0 0 0.9994 1032.4681 585.9997)">
	</image>
	<g>
		<path class="st7" d="M1557.4,965.5c-3,1.5-6,2.9-9,4.4s-6,2.9-9,4.4c-1.5,0.7-3,1.5-4.5,2.2s-3,1.5-4.4,2.2
			c-8.9,4.4-17.6,8.7-26.3,13.1c-1.4,0.7-2.9,1.5-4.3,2.2s-2.9,1.5-4.3,2.2s-2.9,1.5-4.3,2.2c-1.8,0.9-3.5,1.8-5.3,2.7
			c-8.7,4.4-17.3,8.9-25.7,13.3c-1.5,0.8-3.1,1.6-4.6,2.4c-2.8,1.5-5.6,3-8.4,4.4c-4.6,2.4-9.2,4.9-13.7,7.3
			c-2.1,1.1-4.2,2.2-6.2,3.4c-2.1,1.1-4.1,2.2-6.2,3.4c-231.2-126-371.1-244.7-346.4-308.7c25.4-65.8,218.5-57.4,485.7,9.8"/>
		<path class="st7" d="M2437.4,1073c251.6,132.8,406.8,260,380.9,327.2c-25,64.7-212.1,57.6-472.3-6.4c-2.5-0.6-5.1-1.2-7.6-1.9
			c-5.4-1.3-10.8-2.7-16.3-4.1l0,0c-7.1-1.8-14.2-3.6-21.3-5.5s-14.3-3.8-21.6-5.7l0,0c-1.3-0.4-2.7-0.7-4-1.1
			c-3.2-0.9-6.4-1.7-9.6-2.6c-7.8-2.1-15.6-4.3-23.5-6.6c-8.6-2.4-17.2-4.9-25.9-7.4c-10.9-3.2-21.9-6.4-33-9.8l0,0
			c-0.4-0.1-0.9-0.3-1.3-0.4l0,0c-13.4-4-26.9-8.2-40.5-12.5l0,0c-6.3-2-12.6-4-18.9-6c-14.3-4.6-28.8-9.3-43.3-14.1l0,0
			c-1.1-0.4-2.3-0.8-3.4-1.1c-10-3.3-20.1-6.7-30.3-10.2c-1.9-0.7-3.9-1.3-5.8-2c-4.4-1.5-8.8-3-13.3-4.6
			c-6.9-2.4-13.9-4.8-20.8-7.3c-11.8-4.2-23.7-8.4-35.7-12.7c-14.7-5.3-29.6-10.8-44.5-16.3c-16.1-6-32.3-12.2-48.5-18.4
			c-2.6-1-5.2-2-7.8-3c-0.3-0.1-0.6-0.2-1-0.4c0.3-0.1,0.6-0.2,1-0.3c3.8-1.2,7.7-2.5,11.5-3.8c1.9-0.6,3.8-1.3,5.8-1.9
			s3.8-1.3,5.8-1.9c4-1.3,8.1-2.7,12.1-4.1c1.5-0.5,2.9-1,4.4-1.5c7.1-2.4,14.1-4.8,21.2-7.2c3.3-1.1,6.7-2.3,10-3.5l0,0l0,0l0,0
			l0,0l0,0c2.6-0.9,5.1-1.8,7.7-2.7c7.7-2.7,15.4-5.4,23.2-8.1c4.3-1.5,8.6-3.1,12.9-4.6c2.9-1.1,5.9-2.1,8.8-3.2
			c3.7-1.3,7.4-2.7,11.2-4c3.7-1.3,7.3-2.7,11-4c8.6-3.1,17.2-6.3,25.8-9.5c0.4-0.1,0.8-0.3,1.1-0.4c3.4-1.3,6.8-2.6,10.2-3.8
			c3.9-1.5,7.8-2.9,11.7-4.4c2-0.8,4-1.5,6.1-2.3c1.1-0.4,2.3-0.9,3.4-1.3c1.5-0.6,3-1.2,4.5-1.7c7.7-3,15.4-5.9,23.1-8.9
			c9.7-3.8,19.3-7.6,28.9-11.4c2.9-1.2,5.8-2.3,8.7-3.5c4.1-1.6,8.3-3.3,12.4-5c7.4-3,14.8-6,22.1-9c3.4-1.4,6.8-2.8,10.2-4.2
			c3.3-1.3,6.6-2.7,9.8-4.1c1.6-0.7,3.3-1.4,4.9-2c2.1-0.9,4.2-1.7,6.3-2.6c3.5-1.5,6.9-2.9,10.4-4.4c5.9-2.5,11.7-5,17.6-7.4
			c2.6-1.1,5.1-2.2,7.6-3.3c19.1-8.2,38-16.5,56.5-24.8c0.2-0.1,0.5-0.2,0.7-0.3c2.9-1.3,5.8-2.6,8.7-3.9c10-4.5,19.9-9,29.7-13.5
			c2.3-1.1,4.6-2.1,7-3.2c3.7-1.7,7.4-3.4,11-5.1c3.4-1.6,6.9-3.2,10.3-4.8c0.2-0.1,0.4-0.2,0.7-0.3c0.8-0.4,1.5-0.7,2.3-1.1
			c1.2-0.6,2.4-1.1,3.6-1.7c1-0.5,1.9-0.9,2.9-1.4c0.2,0.1,0.3,0.2,0.5,0.2"/>
		<path class="st7" d="M2372.9,1039.9c-1,0.4-1.9,0.9-2.9,1.4c-1.2,0.6-2.4,1.1-3.6,1.7c-0.8,0.4-1.5,0.7-2.3,1.1
			c-7.3,3.4-14.6,6.9-22,10.3c-2.3,1.1-4.6,2.1-7,3.2c-12.6,5.8-25.4,11.6-38.4,17.4c-0.2,0.1-0.5,0.2-0.7,0.3
			c-18.5,8.3-37.4,16.5-56.5,24.8c-2.5,1.1-5.1,2.2-7.6,3.3c-19.4,8.3-39.2,16.5-59.2,24.7c-7.3,3-14.7,6-22.1,9
			c-16.5,6.6-33.2,13.2-50,19.8c-7.7,3-15.4,6-23.1,8.9c-4.7,1.8-9.3,3.6-14,5.3c-3.9,1.5-7.8,2.9-11.7,4.4
			c-3.4,1.3-6.8,2.6-10.2,3.8c-0.4,0.1-0.8,0.3-1.1,0.4c-8.6,3.2-17.2,6.4-25.8,9.5c-14.7,5.4-29.4,10.7-44,15.8
			c-10.3,3.7-20.6,7.3-30.9,10.8c-3.4,1.2-6.7,2.3-10,3.5c-20.4,7-40.7,13.8-60.8,20.4c-0.3,0.1-0.6,0.2-1,0.3
			c-2.8-1.1-5.6-2.2-8.4-3.3c-11.7-4.6-23.4-9.2-34.9-13.8c-13.9-5.6-27.7-11.2-41.4-16.8c-16.6-6.9-33.1-13.8-49.4-20.7
			c-16.8-7.2-33.5-14.4-49.9-21.6c-4.8-2.1-9.6-4.3-14.4-6.4c-5.7-2.6-11.5-5.1-17.1-7.7c-5-2.3-9.9-4.5-14.9-6.8
			c-3.6-1.6-7.1-3.2-10.6-4.9c-2.3-1-4.5-2.1-6.8-3.1c-1.7-0.8-3.4-1.6-5.1-2.4c-69.9-32.4-135-65.2-194.2-97.4
			c2.1-1.1,4.1-2.2,6.2-3.4c2.1-1.1,4.1-2.2,6.2-3.4c4.5-2.4,9.1-4.9,13.7-7.3c2.8-1.5,5.6-3,8.4-4.4c1.5-0.8,3.1-1.6,4.6-2.4
			c8.5-4.4,17-8.9,25.7-13.3c1.8-0.9,3.5-1.8,5.3-2.7c1.4-0.7,2.9-1.5,4.3-2.2s2.9-1.5,4.3-2.2s2.9-1.5,4.3-2.2
			c8.7-4.4,17.4-8.7,26.3-13.1c1.5-0.7,3-1.5,4.4-2.2c1.5-0.7,3-1.5,4.5-2.2c3-1.5,6-2.9,9-4.4s6-2.9,9-4.4"/>
		<path class="st7" d="M1421.1,1035.2c125.9,68.6,278.9,139.4,447,204.8c-407.3,133.1-736.8,172.8-769.5,85.1
			C1075.6,1263.4,1204.8,1153,1421.1,1035.2z"/>
		<line class="st7" x1="2300.7" y1="691.7" x2="2300.7" y2="691.7"/>
		<path class="st7" d="M2372.9,1039.9c0.3-0.1,0.5-0.3,0.8-0.4c2.9-1.4,5.7-2.7,8.6-4.1c2.2-1.1,4.4-2.1,6.7-3.2
			c3.6-1.7,7.2-3.5,10.8-5.2c3.1-1.5,6.2-3,9.3-4.5c285.8-139.7,467.8-278.6,440.8-350.9c-24.8-66.4-219.5-59.8-489.2,5
			c-1.1,0.3-2.2,0.5-3.4,0.8"/>
	</g>
</g>
</svg>
