<?xml version="1.0" encoding="utf-8"?>
<!-- Generator: Adobe Illustrator 27.5.0, SVG Export Plug-In . SVG Version: 6.00 Build 0)  -->
<svg version="1.1" id="Layer_2" xmlns="http://www.w3.org/2000/svg" xmlns:xlink="http://www.w3.org/1999/xlink" x="0px" y="0px"
	 viewBox="0 0 2880 1800" style="enable-background:new 0 0 2880 1800;" xml:space="preserve">
<style type="text/css">
	.st0{fill:none;stroke:#000000;stroke-width:4;stroke-miterlimit:10;}
</style>
<g>
	<path class="st0" d="M1966.22,642.13c5.57-7.91,13.12-12.71,18.37-18.75c6.01-6.93,7.99-14.36,9.57-20.28
		c0.59-2.21,2.68-10.59,1.53-24.11c-1.73-20.32-8.6-26.29-14.16-55.11c-0.49-2.55-0.44-2.53-1.91-11.48c0,0-4.62-28.11-10.72-61.24
		c-14.59-79.2-37.89-136.25-37.89-136.25c-12.31-30.14-35.58-85.64-86.88-139.31c-43.05-45.04-85.79-67.82-118.64-84.96
		c-82.72-43.18-155.25-54.42-207.05-62c-46.2-6.76-123.67-17.44-221.98,0c-50.32,8.93-109.21,19.98-173.37,60.85
		c-55.35,35.26-88.42,76.02-104.1,95.68c-8.91,11.17-44.71,57.12-71.95,127.06c-15.82,40.61-22.15,72.37-30.62,114.82
		c-12.66,63.5-15.75,111.9-16.46,124c-4.01,68.66,1.38,120.22,2.68,132.04c2.46,22.34,7.06,62.52,21.43,112.9
		c12.84,45,38.78,116.79,52.82,139.69c1.62,2.64,7.82,12.37,11.48,26.79c1.96,7.72,2.44,13.82,2.68,17.22
		c2.14,30.71,3.68,52.84,0.77,78.46c-2.92,25.67-8.4,38.08-26.03,89.17c-23.08,66.94-16.6,54.12-33.3,100.66
		c0,0-27.84,77.57-62,122.85c-2.9,3.84-16.73,22.17-26.41,24.11c-0.95,0.19-4.39,0.73-6.51,3.44c-2.28,2.92-1.81,6.79-1.67,8.04
		c1.03,9.69-0.49,19.71,1.84,29.16c4.62,18.75-1.47,28.02-1.84,104.79c-0.03,6.99,0.02,9.91,0,14.16c-0.58,128.12-23,209,0,218.94
		c4.05,1.75,8,0.65,10.48,0c50.11-13.1,103.59,0,155.39,0c90.58,0,181.16,0,271.73,0c91.22,0,183.53-14.11,273.65,0
		c21.98,3.44,87.73,14.7,93,0c2.01-5.61-5.29-13.7-19.9-29.88c-20.03-22.19-27.4-22.26-36.36-36.74
		c-6.26-10.11-3.84-11.98-12.63-43.63c-6.41-23.11-7.79-22.42-16.46-50.9c-8.68-28.52-5.8-24.27-16.07-59.7
		c-5.57-19.2-7.54-39.45-14.54-58.17c-2.56-6.84-6.58-16.65-2.3-25.26c3.24-6.5,8.26-6.39,17.22-13.01
		c15.05-11.12,21.51-26.7,24.88-34.83c4.09-9.87,7.33-17.68,6.89-28.32c-0.43-10.34-4.06-17.17-0.38-27.17
		c1.65-4.48,4.03-7.59,6.12-10.33c1.82-2.38,5.74-7.07,17.22-14.93c6.12-4.19,10.96-7.5,15.69-9.57
		c14.03-6.14,28.34-1.92,39.04,0.77c19.11,4.8,36.21,6.52,70.42,9.95c3.05,0.31,21.94,0.46,59.7,0.77
		c25.39,0.21,51.23-5.15,76.16-0.38c4.83,0.93,15.84,3.31,27.94-1.15c7.21-2.66,11.76-6.63,17.22-11.48
		c15.37-13.66,22.99-28.75,25.64-34.45c6.79-14.6,8.53-26.98,9.57-34.83c2.35-17.73,0.56-31.68-0.38-38.65
		c-2.05-15.17-3.08-22.76-6.51-30.62c-1.14-2.62-3.94-8.57-4.59-16.84c-0.32-4.01-0.59-8.06,1.53-12.25
		c2.3-4.54,6.19-6.87,10.72-9.57c6.07-3.62,7.57-2.71,12.25-6.12c2.37-1.73,6.03-4.4,8.04-8.8c3.12-6.82,0.6-14.1-1.15-19.14
		c-3.82-11.03-8.99-12.48-8.42-19.14c0.4-4.66,3.29-8.03,6.89-12.25c5.05-5.9,7.99-5.95,13.01-11.48c1.99-2.18,6.07-6.67,7.65-12.25
		c2.48-8.72-3.2-12.94-9.19-31.77c-1.87-5.87-4.45-14.19-5.36-25.26c-0.62-7.64,0.32-7.24,0-19.52
		c-0.44-16.98-2.32-20.59,0.77-24.49c2.61-3.31,5.93-3.21,18.37-5.36c9.64-1.66,19.13-4.1,28.7-6.12
		c24.46-5.18,27.41-6.96,29.47-8.42c9.95-7.07,13.74-17.33,14.93-20.67c3.91-11.02,2.38-20.46,1.15-27.56
		c-1.34-7.67-3.8-14.48-11.1-28.32c-8.22-15.6-13.58-23.06-20.28-34.06c-17.03-27.95-11-26.65-23.73-45.54
		c-14.17-21.03-28.86-33.35-24.88-45.93c1.06-3.36,3.59-7.13,1.91-11.1c-1.97-4.69-7.43-4.07-12.63-10.72
		c-2.66-3.4-3.69-6.69-4.21-8.42c-0.98-3.26-2.84-9.39,0-14.54c1.69-3.07,4.28-4.39,9.19-6.89c6.56-3.34,8.31-2.27,14.93-5.74
		c4.41-2.32,7.22-4.68,8.42-5.74c2.37-2.1,4.99-4.47,6.89-8.42c1.27-2.65,3.03-6.31,1.53-9.95c-1.11-2.69-3.43-4-3.83-4.21
		c-3.22-1.76-5.83-0.42-13.4,0.77c-11.85,1.85-14.45-0.03-15.31-0.77c-2.21-1.9-2.63-4.64-2.68-4.98
		C1963.48,646.23,1965.2,643.59,1966.22,642.13z"/>
	<path class="st0" d="M1991.21,558.06c-9,7.73-16.94,14.74-24.32,21.22c-2.01,1.77-6.8,5.97-8.32,12.63
		c-0.33,1.44-1.39,6.09,0.86,8.04c2.34,2.02,7,0.04,10.05-1.15c6-2.34,14.63-5.08,26.4-6.94"/>
	<path class="st0" d="M1958.58,598.79c-5.9,10.01-12.32,14.6-17.23,16.94c-4.46,2.12-9.8,3.39-11.19,7.75
		c-0.41,1.27-0.27,2.15,1.15,8.04c2.86,11.91,3.41,13.07,4.59,13.49c0.99,0.35,2.5,0.22,9.47-6.03c8.43-7.56,9.34-10.17,14.93-14.07
		c4.76-3.32,9.05-4.88,11.48-5.74c7.21-2.56,13.57-3.04,17.73-3.03"/>
	<path class="st0" d="M1935.89,645c1.18,10.17,0.15,18.01-1.15,23.54c-0.9,3.81-2.27,8-1.15,8.61c1.06,0.57,3.28-2.61,8.9-7.75
		c1.78-1.63,1.8-1.53,10.62-8.61c2.66-2.13,6.6-5.31,11.44-9.25"/>
	<path class="st0" d="M1933.18,675.73c-0.55,2.91-1.16,7.29-1.02,12.62c0.08,3.22,0.28,11.12,2.3,11.48
		c1.66,0.3,2.49-4.88,7.75-12.06c1.68-2.29,5.23-5.83,12.34-12.92c3.22-3.21,4.29-4.18,7.18-7.18c2.36-2.46,3.61-3.84,6.31-6.6
		c2.17-2.21,3.98-3.98,5.18-5.14"/>
	<path class="st0" d="M1953.3,676.1c4.15,0.84,12.35,1.78,19.81-2.58c2.49-1.46,4.21-3.11,5.55-4.4c5.55-5.38,8.45-11.23,9.99-15.2"
		/>
	<path class="st0" d="M1961.79,676.76c3.81,1.14,12.62,3.15,20.39-1.23c2.4-1.35,4.07-2.96,5.55-4.4c5.54-5.4,8.44-11.24,9.99-15.2"
		/>
	<path class="st0" d="M1948.33,681.08c4.51,1.2,8.21,1.64,10.81,1.81c2.04,0.13,4.36,0.15,8.99,0.19c2.74,0.02,4.11,0.03,5.17,0
		c2.6-0.08,6.32-0.39,10.89-1.43"/>
	<path class="st0" d="M1975.38,655.88c-0.07,1.79,0.05,5.42,2.32,8.84c0.47,0.71,1.46,2.05,3.83,3.83
		c2.16,1.63,6.16,4.13,12.31,5.43"/>
	<path class="st0" d="M1967.72,661.77c0.09,1.64,0.47,6.75,2.32,8.84c0.17,0.19,1.06,1.16,2.24,2.33c0,0,0.85,0.84,1.58,1.5
		c1.46,1.33,6.04,3.39,12.31,5.43"/>
	<path class="st0" d="M1955.53,682.53c0.06,0.51,0.66,5.09,3.42,5.91c0.61,0.18,1.12,0.12,2.1,0c2.53-0.31,4.35-1.38,5.55-2.1
		c1.06-0.64,2.52-1.66,4.02-3.23"/>
	<path class="st0" d="M1950.72,685.38c0.91-0.41,4.03,2.84,4.98,6.89c0.37,1.6,0.17,2.31-0.19,6.31
		c-0.77,8.54-0.32,10.61-1.72,11.29c-1.66,0.8-4.25-1.17-5.74-2.3c-2.36-1.79-2.18-2.83-5.17-5.36c-1.99-1.68-2.76-1.8-2.87-2.68
		c-0.13-1.07,0.9-1.82,5.36-5.55c3.47-2.89,4.53-3.85,4.98-5.55C1950.79,686.7,1950.23,685.6,1950.72,685.38z"/>
	<path class="st0" d="M1934.45,699.83c2.6,6.07,5.85,9.04,8.42,10.62c1.5,0.92,2.19,1.07,4.4,2.49c3.07,1.97,5.07,4.03,7.65,6.7
		c3.06,3.17,3.29,3.95,5.74,5.93c2.36,1.91,4,2.69,4.4,2.87c2.07,0.96,3.83,1.35,5.55,1.72c1.98,0.42,3.67,0.61,4.89,0.7"/>
	<path class="st0" d="M1934.31,702.95c-7.52,4.57-16.59,11.07-25.69,20.13c-12.89,12.84-20.93,25.93-25.83,35.59
		c0,0-7.94,13.76-40.19,64.87c-8.27,13.12-20.44,30.75-44.78,66.02c-29.87,43.29-30.61,43.23-36.17,53.39
		c-15.24,27.88-11.92,32.45-29.85,70.61c-13.6,28.95-21.19,44.76-37.32,62.58c-9.02,9.97-23.43,25.55-47.07,35.59
		c-15.76,6.69-31.51,9.19-39.04,10.33c-25.59,3.9-28.32-1-38.46,4.02c-9.66,4.78-14.04,12.62-31,50.52
		c-12.42,27.77-18.63,41.65-20.09,45.93c-10.81,31.68-12.8,56.8-14.93,83.82c-0.44,5.62-3.37,44.91,1.72,90.71
		c2.78,25.07,6.75,41.1,9.19,49.95c2.52,9.14,5.08,16.71,7.08,22.2"/>
	<path class="st0" d="M1934.45,699.83c-0.3,7.08-0.91,17.07-2.3,28.99c-0.49,4.2-1.84,17.5-4.02,26.41
		c-4.96,20.25-15.62,34.54-22.96,45.35c-13.42,19.76-22.53,42.13-33.87,63.15c-25.98,48.14-25.06,51.05-47.07,92.43
		c-37.56,70.59-38.01,57.97-55.11,96.45c-22.78,51.25-26.06,82.85-46.5,101.61c-4.81,4.41-23.27,19.78-33.87,39.04
		c-0.81,1.46-1.94,3.63-4.02,6.31c-9.25,11.96-22.97,15.9-32.72,18.37c-25.79,6.54-29.67,4.28-46.5,8.61
		c-10.67,2.74-32.32,8.56-52.24,25.83c-2.79,2.42-16.53,14.58-26.98,34.45c-2.84,5.39-7.1,16.11-15.5,37.32
		c-3.41,8.6-6.19,15.74-8.11,20.67"/>
	<path class="st0" d="M1510.21,1393.61c2.81-16.88,7.54-29.99,11.48-39.04c4.66-10.69,9.61-18.61,19.52-34.44
		c8.64-13.81,12.96-20.72,17.8-25.83c2.48-2.62,14.1-14.59,33.87-22.96c15.48-6.55,18.1-3.35,45.35-11.48
		c19.83-5.92,16.12-6.93,28.7-9.76c15.82-3.56,27.66-3.31,40.76-11.48c3.9-2.43,7.73-5.49,8.04-5.74
		c8.62-6.93,13.65-13.65,15.5-16.07c14.42-18.94,31.34-34.5,52.82-65.45c17.83-25.7,35.81-64.97,71.76-143.52
		c12.24-26.75,13.41-30.1,25.83-56.83c14.8-31.85,19.69-41.19,28.13-62c12.64-31.17,7.54-24.72,17.8-48.8
		c5.39-12.66,15.12-33.98,14.93-53.39c-0.05-5.6-0.94-11.42-4.02-17.22c-3.35-6.32-8.02-10.19-10.89-12.21"/>
	<path class="st0" d="M1932.16,728.82c9.98,8.34,15.63,16.51,18.94,22.39c4.2,7.45,4.19,10.59,9.76,22.39
		c6.9,14.63,7.86,12.5,13.2,24.11c5.72,12.44,8.94,24.27,16.07,36.74c1.23,2.15,3.04,5.14,6.31,8.04c4.99,4.42,8.59,4.39,12.06,6.89
		c3.68,2.66,4.42,6.17,7.46,22.39c11.13,59.37,3.78,26.05,5.74,35.59c1.71,8.29,3.23,13.85,0,17.8c-2.64,3.23-6.04,2.42-9.76,5.17
		c-3.45,2.55-6.94,7.97-6.62,20.76"/>
	<path class="st0" d="M1930.65,741.24c5.64,7.08,13.39,18.47,18.73,34.08c0.86,2.51,4.08,12.45,5.74,27.56
		c0.4,3.69,0.62,6.93,0.68,10.1c0.3,16.21-1.61,29.61-3.55,42.72c-5.97,40.37-3.94,37.37-6.7,45.54
		c-1.54,4.56-1.66,3.99-12.25,31.77c-3.91,10.26-4.14,10.98-5.36,13.78c-7.51,17.23-10.98,17.78-13.59,27.75
		c-1.29,4.92-4.04,15.36,1.15,25.26c1.07,2.04,4.48,8.55,12.06,11.48c6.04,2.34,11.45,1.13,13.78,0.57
		c11.26-2.68,17-12.14,18.29-14.38"/>
	<path class="st0" d="M1947.27,712.94c-0.67,9.82-1.34,19.63-2.01,29.45"/>
	<path class="st0" d="M1934.31,702.95c4.63,14.38,11.25,20.61,16.79,23.57c3.97,2.12,9.34,3.7,12.63,9.19
		c2.24,3.73,2.04,7.1,2.3,10.33c0.67,8.41,4.16,12.46,10.91,24.69c3.26,5.91-0.5-0.38,17.22,36.74
		c10.37,21.73,12.04,24.67,13.78,27.56c7.75,12.87,15.15,21.63,17.8,24.69c5.75,6.64,13.73,14.8,24.27,22.98"/>
	<path class="st0" d="M1954.93,719.64c-1.28,10.52-2.55,21.05-3.83,31.57"/>
	<path class="st0" d="M1939.28,735.46c1.2-8.34,2.39-16.67,3.59-25.01"/>
	<path class="st0" d="M1952.53,786.93c7.46-11.14,14.93-22.28,22.39-33.42"/>
	<path class="st0" d="M1947.05,769.14c11.13,10.75,16.6,20.94,19.55,28.29c3.84,9.58,2.77,12.81,8.9,28.99
		c5.13,13.56,9.03,19.58,11.19,22.68c2.54,3.63,5.86,8.37,11.48,13.49c6.92,6.3,10.17,6.67,12.63,11.48
		c2.45,4.8,0.29,6.52,0.86,16.36c0.86,14.63,6.14,19.32,2.58,27.27c-0.68,1.51-2.04,4.55-5.17,6.6c-5.01,3.29-9.23,0.58-13.78,3.73
		c-3.37,2.34-4.42,6.18-5.17,8.9c-2.19,7.99,1.06,14.9,2.2,17.08"/>
	<path class="st0" d="M1955.78,817.2c1.99,7.1,4.47,17.69,5.66,30.74c1.26,13.87-0.32,16.07-0.29,38.18
		c0.04,30.04,2.4,33.83-1.15,46.79c-2.77,10.12-7.11,18.45-9.47,22.96c-3.01,5.77-7.49,14.34-15.5,23.54
		c-9.47,10.87-13.89,11.14-20.67,21.53c-2.5,3.84-4.19,7.78-7.46,15.5c-3.5,8.26-8.37,19.87-12.63,35.31
		c-4.61,16.7-2.11,14.75-6.89,34.45c-5.94,24.5-9.03,24.32-14.93,49.37c-1.17,4.98-2.09,9.4-4.88,15.21
		c-5.33,11.11-12.68,17.25-17.51,21.82c-4.98,4.71-11.74,14.43-25.26,33.87c-19.44,27.95-34.45,55.74-52.82,75.49
		c-0.99,1.06-2.28,2.42-4.02,4.02c-12.76,11.75-26.56,15.49-35.31,18.08c-31.79,9.44-25.95,12.44-50.52,18.37
		c-11.44,2.76-27.66,5.72-47.63,6.22"/>
	<path class="st0" d="M1960.3,838.43c5.86-11.68,11.54-18.86,15.2-22.92c2.63-2.91,3.14-3.03,8.04-8.32
		c5.57-6.03,6.76-7.89,9.76-9.19c2.1-0.9,5.86-1.86,11.71-0.11"/>
	<path class="st0" d="M1961.6,867.16c10.42-1.99,17.15-6.16,20.79-8.88c5.75-4.3,9.47-8.9,9.47-8.9c4.62-5.71,4.84-8.74,9.19-11.48
		c3.37-2.13,6.72-2.5,10.05-2.87c5.79-0.64,10.55,0.32,13.47,1.16"/>
	<path class="st0" d="M1961.6,867.16c12.86-5.45,22.17-6.2,28.54-5.72c3.12,0.23,10.76,1.15,14.35-3.16
		c1.41-1.69,1.31-3.11,2.87-4.59c3.08-2.91,8.5-2.15,12.59-1.05"/>
	<path class="st0" d="M1969.47,865.45c2.91,12.46,7.47,14.89,9.76,15.5c3.2,0.86,5.14-0.96,17.8-6.6
		c6.04-2.69,10.26-4.56,14.93-6.03c5.47-1.72,11.68-2.92,18.69-3.19"/>
	<path class="st0" d="M1980.67,881.15c-2.55,6.06-4.02,11.11-4.88,14.44c-2.65,10.31-2.2,15.29-6.03,21.53
		c-2.67,4.35-6.04,7.09-8.25,8.62"/>
	<path class="st0" d="M1980.67,881.15c3.31,7.48,3.96,13.66,4.02,17.6c0.06,4.29-1.2,9.75-3.73,20.67
		c-2.43,10.48-3.53,13.19-4.02,14.35c-1.86,4.4-4.05,9.44-8.9,13.78c-3.8,3.4-4.42,2.06-8.61,5.74c-5.56,4.89-8.26,10.58-9.47,13.2
		c0,0-1.86,4.02-2.87,8.32c-3.24,13.75,2.87,28.77,4.31,32.16"/>
	<path class="st0" d="M1979.09,861.95c8.86,6.19,20.56,16.72,22.82,30.48c0.85,5.22,0.87,14.03,0.86,15.79
		c-0.02,7.48-0.62,13.68-1.19,18.02"/>
	<path class="st0" d="M2029.41,863.82c0.34,1.43,0.85,3.6,1.49,6.23c3.43,14.15,3.72,13.98,4.31,17.22c1.16,6.41-0.18,5.9,0,22.68
		c0.1,9.02,0.49,9.47,0.29,14.35c-0.36,8.73-1.96,15.72-3.23,20.19"/>
	<path class="st0" d="M2052.72,919.13c-4.64,1.24-7.89,3.08-10.05,4.59c-2.57,1.81-4.48,3.76-5.74,3.16
		c-1.51-0.72-0.48-4.59-1.38-4.87c-1.35-0.42-2.75,8.51-9.24,12.62c-4.85,3.07-8.26,0.73-12.63,3.73c-4.22,2.9-5.61,8.23-6.12,12.25
		"/>
	<path class="st0" d="M2043.72,877.57c-0.63,8.08-0.47,14.6-0.19,19.17c0.31,5.01,0.81,8.43,0.57,14.64
		c-0.16,4.16-0.58,7.89-0.86,10.33c-0.53,4.66-0.8,7-1.44,9.47c-0.69,2.68-2.02,6.57-4.78,11"/>
	<path class="st0" d="M1961.25,895.9c8.93-0.02,16,0.28,20.85,0.55c3.83,0.22,5.37,0.37,8.32,0.29c6.98-0.21,12.9-1.52,16.36-2.3
		c4.73-1.07,4.74-1.39,8.32-2.01c2.31-0.4,6.33-1.06,10.91-0.86c5.56,0.25,7.14,1.57,13.49,2.87c3.22,0.66,7.93,1.36,13.89,1.32"/>
	<path class="st0" d="M1840.02,754.65c5.93,9.53,10.29,17.6,13.2,23.25c7.43,14.42,7.46,17.15,12.92,24.11
		c7.13,9.1,10.1,8.31,15.21,16.94c1.64,2.76,4.1,7.52,9.19,12.92c1.83,1.94,3.21,3.12,4.88,4.59c6,5.27,10.44,9.59,19.31,18.23
		c3.22,3.14,7.76,7.66,13.12,13.34c0,0,4.14,4.47,15.5,12.92c2.29,1.7,5.45,3.96,10.05,4.88c3.51,0.7,5.19,0.1,7.75,0.29
		c3.6,0.27,8.68,2.11,14.64,9.47"/>
	<path class="st0" d="M1961.92,916.25c2.44,1.97,6.43,4.65,11.85,6.04c5.77,1.48,10.68,0.86,17.51,0c7.6-0.96,9.51-2.19,16.65-2.3
		c5.2-0.08,7.89,0.52,9.19,0.86c1.43,0.37,2.87,0.87,9.76,4.31c7.85,3.91,8.27,4.41,10.33,4.88c2.49,0.57,6.25,0.84,11.33-0.91"/>
	<path class="st0" d="M1972.23,957.82c0.08-2.41-0.03-5.93-1.04-9.99c-1.16-4.68-2.71-6.87-3.73-9.76
		c-1.32-3.73-2.02-9.4,0.94-17.73"/>
	<path class="st0" d="M1944.03,905.38c1.44,3.82,3.5,10.83,2.67,19.59c-1.02,10.76-5.82,18.11-8.04,21.43
		c-5.32,7.96-8.26,7.53-14.93,14.93c-6.97,7.74-7.55,12.42-17.61,34.06c-3.66,7.86-7.68,15.55-11.48,23.35
		c-12.22,25.03-19.07,37.56-26.41,52.05c-24.8,48.97-18.84,48.76-35.98,78.84c-14.94,26.22-30.46,45.68-41.33,59.32
		c-18.02,22.6-22.56,24.34-37.51,43.63c-1.45,1.87-4.39,5.7-9.19,9.95c-11.1,9.83-22.67,13.49-27.17,14.93
		c-19.56,6.25-38.65,13.93-58.17,20.28c-34.08,11.09-52.7,19.23-59.32,22.2c-29.36,13.14-36.96,20.14-41.33,24.88
		c-7.6,8.21-11.5,16.08-20.28,38.27c-6.4,16.19-14.53,37.8-23.15,63.91"/>
	<path class="st0" d="M1937.52,948.03c-3.21,10.71-5.04,19.63-6.13,25.92c-2.05,11.85-1.82,16.46-4.98,24.49
		c-3.8,9.69-6.48,9.01-11.1,18.37c-6.98,14.16-6.93,28.04-6.89,39.42c0.05,12.36,2.02,22.68,2.3,24.11
		c2.72,13.92,5.55,15.43,4.59,22.58c-1.28,9.56-7.87,18.45-15.31,23.35c-6.02,3.96-8.07,2.32-11.86,6.12
		c-5.39,5.39-3.34,10.76-6.51,23.35c-2.2,8.75-5.35,14.74-11.48,26.41c-4.35,8.27-7.86,13.51-10.72,17.99
		c-11.82,18.53-10.32,20.66-22.58,41.72c-15.53,26.68-25.45,36.16-32.91,52.82c-0.45,1.01-1.49,3.36-3.44,6.12
		c-6.7,9.44-16.84,13.22-23.35,15.31c-13.37,4.3-20.65,4.46-51.28,8.42c-17.95,2.32-25.02,3.51-37.12,3.06
		c-8.7-0.32-15.91-1.33-20.92-2.21"/>
	<path class="st0" d="M1932.13,969.9c2.3,15.36,0.06,26.59-1.89,33.14c-1.63,5.46-3.86,10.46-7.27,17.99
		c-3.84,8.47-5.76,12.71-8.8,16.84c-5.46,7.41-11.47,11.7-16.07,14.93c-3.71,2.6-9.83,6.88-17.99,9.57
		c-11.38,3.74-21.45,2.63-28.7,1.53c-28.84-4.37-35.4-11.88-66.21-19.14c-18.19-4.28-24.46-3.68-44.78-9.95
		c-12.31-3.8-16.89-6.15-24.49-8.8c-16.32-5.7-24.33-5.05-71.19-7.65c-52.78-2.93-65.05-4.99-72.72-6.51
		c-14.39-2.84-16.97-4.62-29.85-6.12c-9.21-1.08-17.88-1.34-29.09-6.12c-3.91-1.67-5.39-2.72-9.57-4.98
		c-13.92-7.51-25.84-11.19-36.74-14.54c-14.52-4.47-25.54-6.45-36.36-8.42c-22.47-4.09-44.89-8.48-67.36-12.63
		c-12.43-2.29-34.99-7.68-79.61-18.37c-73.46-17.6-74.22-18.41-99.51-23.73c-21.06-4.43-8.9-1.42-78.08-14.54
		c-48.36-9.18-57.89-11.33-76.16-11.86c-9.67-0.28-32.15-0.42-49.75-0.38c-9.9,0.02-18.1,0.09-23.74,0.15"/>
	<path class="st0" d="M1933.09,981.56c-0.34,10.25-0.49,18.96-0.55,25.69c-0.16,15.8,0.13,20.99,0.77,26.41
		c1.01,8.6,1.59,6.72,2.68,15.69c1.85,15.18,0.37,22.07,5.74,26.79c2.22,1.95,4.58,2.62,6.12,3.06c9.21,2.62,17.24-2.77,18.75-3.83"
		/>
	<path class="st0" d="M1936.33,977.87c1.66,5.27,3.44,12.39,4.24,20.96c1.18,12.63-0.32,22.27-0.77,24.88
		c-2.8,16.52-9.79,28.18-13.4,34.06c-6.21,10.13-16.6,23.39-25.26,34.44c-2.94,3.75-7.63,9.65-6.89,16.84
		c0.53,5.16,3.29,5.49,4.59,11.48c1.95,8.96-3.4,12.01-1.91,21.05c0.2,1.21,1.47,8.27,7.27,13.4c8.71,7.69,20.85,5.02,22.43,4.65"/>
	<path class="st0" d="M1941.34,1011.84c3.35,4.52,7.9,11.72,10.72,21.43c2.09,7.19,1.75,10.66,3.83,17.22
		c1.77,5.61,5.31,13.47,13.18,22.03"/>
	<path class="st0" d="M1964.41,1029.27c-6.65,7.9-12.85,13.41-17.33,17.02c-8.68,6.98-12.13,7.77-16.07,13.78
		c-4.09,6.23-2.08,7.76-6.89,18.75c-4.98,11.39-10.09,16.31-8.2,18.74c1.25,1.61,4.35,0.57,9.34,0.01
		c5.01-0.56,12.25-0.69,21.43,1.53"/>
	<path class="st0" d="M1914.73,1095.27c4.31,9.03,10.04,12.01,12.46,13.02c2.57,1.07,4.86,1.38,9.19,1.91
		c6.45,0.8,11.78,0.8,15.36,0.66"/>
	<path class="st0" d="M1913.17,1110.53c5.04,11.22,11.13,16.09,15.93,18.43c3.21,1.56,6.13,2.14,11.48,4.98
		c5.51,2.92,9.6,6.11,12.24,8.41"/>
	<path class="st0" d="M1956.88,1123.93c-6.11-0.48-13.49-1.55-21.66-3.77c-8.52-2.32-15.68-5.3-21.34-8.1"/>
	<path class="st0" d="M1913.88,1112.06c2.16,10.98,3.97,19.91,5.65,27.23c0.52,2.27,1.46,6.29,0.77,11.48
		c-0.55,4.11-1.92,7.36-3.02,9.49"/>
	<path class="st0" d="M1920.37,1143.95c1.83-1.79,4.33-4.48,6.81-8.1c2.35-3.44,4.43-6.47,5.36-10.33
		c1.65-6.89-1.11-13.18-2.89-16.39"/>
	<path class="st0" d="M1945.55,1112.88c0.67,3.49,1.25,8.91,0,15.31c-1.29,6.61-3.93,11.14-4.59,12.25
		c-2.16,3.6-4.79,6.15-9.95,11.1c-2.92,2.8-6.22,5.77-9.92,8.82"/>
	<path class="st0" d="M1919.92,1087.2c4.84-2.41,9.69-4.82,14.53-7.23l0,0c3.27-0.7,6.55-1.4,9.82-2.09"/>
	<path class="st0" d="M1944.28,1077.87c-2.8,3.09-5.76,6.72-8.67,10.9c-2.04,2.93-3.81,5.78-5.35,8.47"/>
	<path class="st0" d="M1902.2,1152.92c4.17-7.09,8.2-12.15,11.21-15.54c2.8-3.15,5.26-5.47,7.27-9.95c1.5-3.34,1.5-5.1,3.06-8.8
		c1.86-4.4,4.25-7.57,5.92-9.5"/>
	<path class="st0" d="M1903.76,1123.4c-0.14,9.21-0.28,18.42-0.42,27.63"/>
	<path class="st0" d="M1887.38,1086.19c7.95-7.52,17.12-17.4,26.03-29.95c8.59-12.11,14.76-23.61,19.18-33.32"/>
	<path class="st0" d="M1946.2,981.17c4.5,1.8,9.01,3.61,13.51,5.41"/>
	<path class="st0" d="M1893.11,1056.14c6.33,7.32,12.66,14.65,18.98,21.97"/>
	<path class="st0" d="M1894.32,1105.66c-4.33-1.04-10.52-3.32-14.21-8.85c-2.22-3.33-2.47-6.23-3.83-13.01
		c-0.93-4.64-2.41-11.31-4.77-19.42"/>
	<path class="st0" d="M1894.32,1105.66c-0.8,11.69-4.91,18.27-7.32,21.38c-2.86,3.68-7.95,8.46-9.95,10.33
		c-2.62,2.45-4.89,4.4-6.51,5.74"/>
	<path class="st0" d="M1897.84,1145.1c-5.4,3.55-10.8,7.1-16.2,10.65"/>
	<path class="st0" d="M1900.07,1149.97L1900.07,1149.97c-1.74,6.63-4.11,14.71-7.34,23.77c-4.87,13.67-9.59,23.66-11.1,26.79
		c-7.91,16.46-15.7,28.21-18.37,32.15c-10.96,16.17-21.13,26.84-31.77,37.89c-7.1,7.38-16.85,16.94-29.21,27.42"/>
	<path class="st0" d="M1906.42,1156.66c0.6,10.75,0.4,25.9-3.35,43.48c-4.04,18.95-10.39,32.18-15.69,43.25
		c-5.09,10.62-14.34,27.89-29.47,46.69c-7.82,9.71-15.21,17.37-21.05,22.96"/>
	<path class="st0" d="M1917.27,1160.26c-1.2,4.9-2.71,11.45-4.25,19.22c-2.65,13.32-3.97,19.98-4.21,24.88
		c-0.81,16.69,3.76,24.01-1.91,31.77c-1.25,1.72-1.76,1.75-5.36,6.12c-5,6.08-7.67,10.47-9.19,12.63
		c-3.05,4.34-8.59,9.88-19.53,14.53"/>
	<path class="st0" d="M1918.76,1177.95c-1.4,4.04-2.59,9.27-2.3,15.31c0.36,7.49,2.72,10.33,4.21,19.9
		c1.13,7.28,0.91,12.95,0.77,16.07c-0.18,3.97-0.73,14.52-4.98,24.88c-4.19,10.23-7.56,9.45-16.07,22.2
		c-11.78,17.63-8.71,24.16-20.67,37.12c-1.22,1.32-4.9,4.71-12.25,11.48c-7.52,6.93-13.81,12.54-18.12,16.34"/>
	<path class="st0" d="M1926.84,1187.44c-0.77,16.08-0.28,29.17,0.34,38.35c0.99,14.71,2.2,18.14,1.15,27.56
		c-1.39,12.48-5.39,22.16-9.19,31.38c-3.74,9.08-5.61,13.62-9.57,19.14c-3.72,5.19-6.97,8.1-15.31,18.75
		c-2.12,2.71-3.83,4.97-4.98,6.51"/>
	<path class="st0" d="M1909.2,1231.42c7.8-8.41,15.6-16.82,23.39-25.23"/>
	<path class="st0" d="M1924.02,1176.71c-3.9,1.39-13.82,4.29-24.78,0.47c-7.67-2.67-12.49-7.47-15.31-10.33
		c-5.25-5.34-7.14-9.74-11.1-16.84c0,0-7.23-12.96-16.07-24.49c-6.23-8.13-10.92-11.15-29.47-24.88
		c-35.43-26.23-29.51-23.51-43.63-32.91c-14.34-9.55-19.48-11.73-40.95-26.03c-7.84-5.22-14.19-9.61-18.33-12.5"/>
	<path class="st0" d="M1931.54,1081.42c0.32-6.13,0.12-11.2-0.15-14.84c-0.36-4.91-0.56-7.44-1.53-10.72
		c-1.55-5.25-2.76-5.02-4.98-11.1c-2.38-6.51-1.4-7.89-3.83-11.1c-0.73-0.96-3.36-4.44-7.65-5.36c-3.69-0.79-5.06,1.07-8.42,0.38
		c-3.97-0.81-6.09-4.23-7.65-6.12c-5.68-6.87-15.4-7.47-22.2-8.8c-15.28-3-23.4-11.22-54.73-25.26
		c-13.56-6.08-10.87-4.01-58.17-21.43c-8.65-3.19-6.75-2.52-57.03-21.43c-10.85-4.08-36.57-13.72-69.27-24.49
		c0,0-19.76-6.51-50.52-9.19c-9.65-0.84-15.98-0.82-22.2,2.68c-8.85,4.98-8.64,12.02-18.75,17.22c-8.1,4.17-16,3.66-18.75,3.44
		c-7.68-0.59-13.8-3.54-20.67-8.04c-13.21-8.65-17.27-15.24-30.62-28.32c-14.29-14-28.16-24.62-32.53-27.94
		c-13.59-10.34-18.28-12.28-26.03-21.05c-3.48-3.94-10.2-11.69-14.93-23.35c-3.45-8.5-3.73-13.89-5.74-34.06
		c-3.46-34.68-3.68-29.33-4.21-39.8c-0.92-18.26-1.53-30.29,1.15-46.31c2.14-12.77,5.45-22.63,10.72-38.27
		c4.26-12.66,8.16-22.14,9.95-26.41c7.32-17.39,10.98-26.08,17.61-35.59c4.61-6.62,13.31-18.84,29.09-28.7
		c7.18-4.49,16.95-10.6,30.62-11.48c7.4-0.48,13.76,0.72,22.2,2.3c7.87,1.47,12.58,2.4,18.37,5.36c3.02,1.55,9.5,5.27,15.31,12.25
		c5.94,7.14,7.98,13.85,11.1,24.49c4.04,13.79,6.06,20.69,4.59,29.09c-2.25,12.87-9.26,12.76-10.72,25.64
		c-0.75,6.63,1.06,7.04,2.3,23.73c0.95,12.82-0.08,13.19,0.77,18.75c2.07,13.66,9.22,17.81,16.46,31
		c9.93,18.09,10.51,35.81,10.72,42.1c0.66,20.21-6.29,18.67-6.12,42.86c0.07,10.71,1.5,19.54-2.68,31.77
		c-1.83,5.37-3,6.29-4.59,12.25c-2.46,9.22-1.7,14.68-2.3,26.03c-0.26,4.96-0.84,12.2-2.3,21.05"/>
	<path class="st0" d="M1583.11,964.39"/>
	<path class="st0" d="M1936.13,1250.72c-5.78,0.02-10.13-1.16-13.16-2.36c-5.08-2-6.16-3.9-14.54-8.8c-2.5-1.46-6.7-3.9-11.86-6.12
		c-7.64-3.28-11.05-3.35-17.22-5.36c-9.66-3.14-16.26-7.85-20.28-10.72c-9.61-6.85-10.09-10.43-23.35-21.82
		c-5.09-4.37-7.3-5.8-12.63-9.95c-16.17-12.59-24.22-21.53-32.53-29.09c-13.4-12.18-25.1-18.62-45.54-29.85
		c-26.83-14.75-48.9-22.34-64.3-27.56c-29.05-9.84-43.57-14.76-60.47-16.07c-40.8-3.17-51.99,12.5-89.17,4.21
		c-10.55-2.35-7.11-3.05-35.98-11.86c-21.3-6.51-37.25-11.38-55.88-14.54c-31.28-5.31-30.39,0.94-58.17-3.83
		c-10.2-1.75-10.69-2.66-63.91-19.9c-36.6-11.86-42.42-13.39-47.07-14.54c-20.84-5.16-22.7-3.83-53.96-9.95
		c-33.89-6.63-34.11-8.67-61.24-13.4c-16.78-2.92-12.57-1.42-52.82-7.27c-11.04-1.6-34.97-5.15-58.56-11.48
		c-15.44-4.15-23.27-6.31-28.7-10.72c-3.82-3.09-7.22-6.99-12.25-6.89c-5.35,0.11-9.63,4.7-12.37,8.5"/>
	<path class="st0" d="M1918.38,1296.59c-4.11-0.79-10.19-2.24-17.22-4.98c-9.05-3.53-13.94-6.98-19.9-10.33
		c-6.81-3.84-7.94-3.56-33.68-13.01c-19.61-7.2-29.42-10.8-35.21-13.78c-12.38-6.37-21.02-12.9-28.7-18.75
		c-10.67-8.14-15.44-13.11-30.24-26.79c-29.84-27.59-27.44-23.08-34.06-30.62c-15.26-17.36-21.91-34.38-30.62-56.64
		c-5.46-13.96-11.89-30.42-15.31-52.43c-5.68-36.59,4.73-38.68,3.44-95.3c-0.63-27.83-3.39-37.96,2.3-56.64
		c3.55-11.66,7.8-18.13,10.72-33.68c2.71-14.45,2.11-25.21,1.53-37.12c-2.78-57.28-0.36-45.49-2.68-72.33
		c-3.51-40.74-6.75-40.85-10.33-76.54c-1.83-18.2-2.01-49.5-2.3-111.37c-0.24-52.19,0.26-61.85,1.53-73.87
		c3.4-32.03,8.14-41.35,13.4-71.57c3.79-21.82,4.7-50.39,6.51-107.54c2.36-74.58,0.98-106.09,0.38-117.88
		c-0.94-18.71-3.31-36.71-8.04-72.72c-2.96-22.52-5.51-38.55-15.31-56.64c-6.39-11.8-13.64-20.37-18.83-25.81"/>
	<path class="st0" d="M1900.01,1329.5c-6.48-0.51-14.39-1.41-23.35-3.06c-7.25-1.34-17.69-3.64-29.85-7.65
		c-12.42-4.1-20.85-8.09-33.68-14.16c-14.35-6.79-25.11-12.78-30.24-15.69c-16.53-9.4-24.79-14.11-32.91-21.05
		c-10.64-9.1-11.56-13.12-26.41-29.85c-12.14-13.68-16.58-16.69-28.7-29.09c-4.29-4.38-23.53-24.25-42.48-50.52
		c-19.5-27.02-31.14-43.17-37.89-68.12c-4.4-16.28-4.74-29.02-5.36-52.05c-0.59-21.96,0.85-37.74,3.06-61.24
		c5.58-59.16,8.37-88.74,8.42-89.17c6.42-53.47,11.3-73.42,5.36-100.27c-0.9-4.08-3.05-12.82-4.98-25.64
		c-3.07-20.44-2.8-32.75-3.44-47.46c-0.77-17.48-1.82-15.34-9.19-73.48c-3.59-28.31-5.38-42.46-6.12-51.28
		c-2.57-30.45-0.86-37.14-1.91-84.2c-0.97-43.45-2.54-42.53-3.06-81.52c-0.46-34.18,0.75-34.44,0.38-68.89
		c-0.26-24.58-1.32-45.86-3.44-88.41c-2.25-45.21-3.43-68.28-5.74-90.71c-4.71-45.72-5.15-21.85-13.78-81.52
		c-1.29-8.94-3.09-21.99-11.48-36.36c-7.53-12.9-17.14-21.32-23.92-26.33"/>
	<path class="st0" d="M1832.64,1340.16c-17.07-6.85-30.93-12.15-40.18-15.63c-22.48-8.45-27.25-9.77-37.12-14.93
		c-11.91-6.22-19.93-12.14-32.53-21.43c-16.02-11.81-27.39-22.01-31.38-25.64c-3.93-3.58-17.29-15.89-35.59-37.12
		c-17.85-20.71-28.61-33.19-40.19-52.43c-21.38-35.54-29.01-66.69-31-75.4c-4.78-20.88-5.62-37.17-6.12-47.84
		c-1.51-32.17,2.89-45.64,6.89-86.88c2.08-21.43,0.32-11.92,4.21-83.82c3.49-64.44,4.65-67.41,3.83-87.26
		c-1.11-26.87-4.28-46.71-8.8-75.01c-4.15-26-7.89-41.95-13.78-58.94c-3.23-9.33-6.41-16.93-8.76-22.23"/>
	<path class="st0" d="M1776.39,1342.5c-11.21-1.55-26.36-4.46-43.63-10.31c-23.38-7.92-39.57-17.49-51.28-24.49
		c-19.89-11.9-32.98-19.73-46.31-34.83c-6.17-6.99-11.85-16.24-22.96-34.45c-12.91-21.15-19.36-31.72-25.64-44.4
		c-7.62-15.36-23.74-48.57-29.09-93.77c-3.05-25.75-1.55-46.55-1.15-51.67c2.31-29.13,7.84-34.18,8.42-63.91
		c0.1-5.02-0.19-17.13-0.77-41.33c-0.29-12.06-0.57-22-0.77-28.7"/>
	<path class="st0" d="M1741.42,1124.72c-25.97,4.68-45,12.68-57.65,19.17c-26.43,13.57-29.46,22.38-52.05,28.32
		c-15.86,4.17-23.54,2.1-41.72,9.57c-4.18,1.72-13.88,5.97-23.73,13.01c-21.28,15.21-31.28,34.83-40.95,54.35
		c-7.48,15.09-17.02,38.36-22.14,68.84"/>
	<path class="st0" d="M1915.08,972.07c-11.49-3.84-28.43-10.13-47.99-19.93c-23.47-11.77-25.58-15.99-53.2-31.38
		c-12.17-6.79-10.71-5.38-68.89-33.68c-35.38-17.21-35.89-17.72-44.01-21.05c-33.46-13.73-35.1-9.38-56.26-20.67
		c-17.17-9.16-24.12-16.31-40.19-18.75c-5.47-0.83-19.91-2.32-23.35-2.68c-16.03-1.66-16.03-1.28-20.67-2.3
		c-11.62-2.55-14.2-4.98-22.58-5.36c-6.99-0.32-12.77,1.16-16.56,2.45"/>
	<path class="st0" d="M1933.31,933c-19.87-19.58-37.44-33.66-49.75-42.86c-26-19.44-34.89-21.94-48.99-37.89
		c-16.31-18.45-23.59-37.15-29.09-51.28c-9.87-25.37-12.28-46.22-13.78-60.09c-1.4-12.94-3.96-38.24,1.53-69.66
		c3.04-17.41,5.19-17.41,17.22-63.91c7.49-28.96,5.82-25.72,9.57-38.27c7.22-24.19,10.72-27.19,27.94-70.8
		c12.94-32.77,12.55-35.11,18.75-43.25c8.62-11.31,21.29-22.45,34.06-33.68c8.1-7.12,11.15-9.22,17.99-16.07
		c7.42-7.44,10.37-11.53,17.22-16.84c6.32-4.9,12.19-7.92,16.07-9.68"/>
	<path class="st0" d="M1781.75,900.09c-3.64-6.59-8.1-15.24-12.63-25.64c-4.39-10.08-11.87-28.72-17.61-53.2
		c-2.1-8.96-4.22-19.78-8.04-56.64c-3.48-33.54-5.21-50.3-6.12-70.8c-1.06-23.95-0.18-31.5,1.91-99.13
		c2.37-76.52,1.38-71.05,2.68-84.58c3.22-33.56,6.4-36.5,16.46-102.19c4.95-32.31,3.36-26.25,9.95-70.8
		c3.51-23.76,8.34-55.06,14.16-96.83c5.85-41.97,6.8-52.12,4.98-66.98c-3.17-25.83-12.3-46.03-19.43-58.93"/>
	<path class="st0" d="M1840.02,754.65c0.03-10.6,0.41-24.72,1.82-41.33c1.06-12.53,2.18-25.78,5.36-41.33
		c2.82-13.81,5.8-22.31,15.31-48.99c18.27-51.27,17.83-49.54,21.43-60.09c11.72-34.33,17.61-51.82,19.14-68.12
		c2.52-26.88-1.52-49.16-2.68-55.11c-1.19-6.11-2.49-11.21-3.53-14.92"/>
	<path class="st0" d="M1960.72,841.45c-4.28-1.8-10.71-4.95-17.46-10.25c-8.75-6.88-11.07-11.93-24.49-30.62
		c-16.68-23.23-22.96-31.77-22.96-31.77c-8.1-11.01-11.95-16.02-12.63-24.11c-0.54-6.44,1.45-8.63,2.3-18.75
		c0.91-10.86-0.54-18.31-1.15-23.35c-0.51-4.28-0.88-10.69,6.89-48.22c9.54-46.13,14.6-58.22,17.99-65.45
		c2.05-4.37,6.32-12.97,13.78-22.58c5.95-7.66,11.3-14.56,20.67-19.52c3.13-1.66,4.65-2.01,19.52-6.51
		c8.99-2.72,16.2-4.94,20.59-6.3"/>
	<path class="st0" d="M1927.58,757.37c-3.1-6.77-6.74-15.96-9.59-27.21c-1.27-5.04-3.45-13.78-4.21-24.88
		c-1.13-16.46,1.46-29.06,3.83-40.19c4.03-18.91,6.87-19.07,10.72-39.04c2.67-13.85,1.28-13.65,4.21-26.79
		c3-13.43,5.61-18.84,7.27-31c1.16-8.47,1.21-15.46,1.09-19.85"/>
	<path class="st0" d="M1840.02,754.65c-6.23,6.22-14.41,14.53-23.82,24.49c-8.15,8.62-18.32,19.65-33.3,36.74
		c-13.02,14.86-25.38,29.39-37.51,44.01c-17.47,21.06-32.94,40.44-56.26,62.77c-8.21,7.86-14.04,12.87-22.96,16.46
		c-9.72,3.91-11.05,1.27-42.1,4.98c-10.96,1.31-17.95,2.49-29.85,2.68c-7.25,0.12-12.84-0.19-15.69-0.38
		c-7.64-0.51-16.09-1.08-26.41-3.83c-4.98-1.33-11.76-3.53-19.49-7.31"/>
	<path class="st0" d="M1958.58,598.79c-1.43-6.07-3.76-15.11-7.28-25.93c-2.63-8.05-4.34-13.94-6.89-19.14
		c-6.22-12.68-9.69-26.54-14.54-39.8c-13.58-37.14-11.5-37.1-20.67-60.85c-2.78-7.21-12.05-30.72-27.56-59.7
		c-11.3-21.11-17.98-33.6-29.09-47.84c-21.84-28.01-45.73-43.48-57.41-50.9c-33.75-21.45-62.71-28.22-114.43-39.8
		c-73.69-16.5-131.39-17.96-156.92-17.99c-24.15-0.03-49.2-0.06-82.67,4.98c-35.65,5.37-83.12,12.97-135.48,43.25
		c-61.89,35.79-94.4,82.3-100.66,91.47c-24.42,35.8-34.83,68.68-42.1,92.24c-5.86,19-13.32,48.18-17.61,99.51
		c-4.19,50.22-10.35,131.88,13.01,230.78c15.91,67.33,28.63,71.25,38.65,137.4c4.49,29.64,10.47,71.09,3.44,122.47
		c-7.83,57.25-22.41,58.1-40.19,127.83c-17.24,67.66-18.27,124.73-19.14,173.37c-0.09,4.79,0.96,37.06,3.06,101.42
		c3.57,109.4,4.34,124.78,10.72,151.18c5.4,22.34,17.81,71.87,47.84,104.87c4.12,4.52,21.06,22.47,46.31,41.72
		c8.02,6.11,14.95,10.89,19.9,14.18"/>
	<path class="st0" d="M1756.95,846.07c-16.77,4.72-34.41,9.01-52.9,12.68c-4.08,0.81-8.12,1.58-12.14,2.3"/>
	<path class="st0" d="M1691.91,861.05c7.23-9.55,14.84-19.26,22.86-29.09c10.8-13.25,21.54-25.74,32.12-37.5"/>
	<path class="st0" d="M1861.08,794.1c-9.69,0.31-24.64,0.63-42.97,0.36c-24.41-0.36-28.63-1.28-55.11-1.91
		c-29.82-0.71-28.91,0.63-53.2-0.38c-27.3-1.14-23.93-2.64-45.93-3.06c-20.99-0.4-30.21,0.85-43.25-2.68
		c-3.04-0.82-8.7-2.56-16.84-3.44c-3.18-0.35-2.49-0.1-17.22-0.77c-7.93-0.36-9.08-0.47-11.48,0c-5.93,1.17-6.19,3.31-12.63,5.36
		c-3.99,1.27-7.89,1.48-15.69,1.91c-7.15,0.39-9.81-0.02-13.78,1.91c-3.17,1.55-2.54,2.34-6.12,4.21c-5.28,2.76-6.74,1.1-13.01,3.83
		c-1.95,0.85-1.54,0.89-8.04,4.21c-2.24,1.15-4.1,2.06-5.36,2.68"/>
	<path class="st0" d="M1885.56,753.48c-8.89,1.93-22.41,3.81-38.37,1.56c-15.73-2.22-20.51-6.08-38.27-10.33
		c-12.45-2.98-23.35-3.01-45.16-3.06c-24.14-0.06-25.93,1.71-54.73,2.68c-19.07,0.64-37.09,1.19-60.85-0.77
		c-25.76-2.12-38.64-3.18-48.22-6.51c-8.08-2.8-15.34-3.91-29.85-6.12c-4.89-0.75-9.92-1.38-14.93,1.15
		c-5.06,2.55-5.34,5.93-10.33,9.19c-5.34,3.48-9.55,2.56-17.61,3.44c-6.5,0.71-13.01,3.03-26.03,7.65
		c-10.44,3.71-17.08,6.87-26.79,11.48c-11.1,5.27-15.67,9.55-19.52,13.78c-2.97,3.27-5.02,6.34-6.32,8.52"/>
	<path class="st0" d="M1741.19,742.36c-9.62-3.86-25.11-9.69-44.79-15.27c-20.49-5.81-22.22-4.89-47.46-11.48
		c-13.1-3.42-27.78-7.68-52.05-13.4c-11.85-2.79-24.16-5.49-35.59,0c-3.3,1.59-7.96,4.54-12.25,8.04
		c-5.31,4.33-6.97,6.98-13.4,13.78c-7.57,8-11.35,12-14.93,14.16c-6.61,3.98-8.96,2.2-26.03,5.36c-15.4,2.85-26.34,6.64-29.09,7.65
		c-6.62,2.44-14.95,6.12-24.14,11.81"/>
	<path class="st0" d="M1915.16,716.98c-11.38-2.33-29.22-6.11-51.13-11.31c-23.87-5.66-27.01-6.87-48.22-11.86
		c-7.97-1.88-10.47-2.38-62-13.01c-42.6-8.79-44.51-9.2-50.52-9.95c-9.7-1.22-26.37-1.7-59.7-2.68c-68.9-2.02-24.86,1.95-49.75,1.15
		c-5.49-0.18-15.28-0.61-25.26,4.59c-6.32,3.3-11.14,8.04-12.63,9.57c-1.43,1.46-2.55,2.78-9.19,12.25
		c-8.4,11.99-9.45,13.93-13.01,16.84c-2.76,2.25-5.28,3.54-10.33,6.12c-3.59,1.84-9.93,4.83-19.14,7.65
		c-11.02,3.38-10.87,1.85-20.67,4.98c-10.66,3.4-17.23,7.26-19.14,8.42c-6.7,4.05-11.02,8.34-12.63,9.95
		c-4.86,4.87-8.18,9.67-10.36,13.34"/>
	<path class="st0" d="M1932.3,682.43c-3.06-1.23-7.59-3.23-12.78-6.23c-8.22-4.75-13.42-9.3-16.07-11.48
		c-6.64-5.45-15.02-9.38-31.77-17.22c-17.07-8-31.46-13.29-40.57-16.46c-5.23-1.82-22.52-7.72-62-17.22
		c-36.25-8.72-54.38-13.09-76.16-15.31c-9.9-1.01-28.9-2.55-52.82-1.53c-18.7,0.8-35.51,1.64-56.26,8.42
		c-10.68,3.49-19.21,7.51-25.15,10.63"/>
	<path class="st0" d="M1933.59,677.15c2.55-10.17,6.85-16.12,10.43-19.71c3.08-3.09,6.68-5.5,9.57-11.1
		c2.02-3.92,2.62-7.33,3.06-9.95c1.53-9.09-0.77-12.78-0.38-21.43c0.16-3.59,0.81-8.77,3.16-15.02"/>
	<path class="st0" d="M1959.43,599.94c-3.97,9.94-8.99,20.69-15.4,31.86c-2.68,4.67-5.4,9.07-8.13,13.2"/>
	<path class="st0" d="M1976.16,631.49c3.49-11.36,6.15-20.9,8.05-28.01c2.13-7.95,2.88-11.29,3.06-15.69
		c0.39-9.61-2.24-17.47-4.45-22.47"/>
	<path class="st0" d="M1966.08,600.05c-0.76-4.39-0.96-10.25,2.43-14.56c1.76-2.23,3.47-2.76,5.74-4.59
		c3.07-2.47,6.67-6.92,8.56-15.58"/>
	<path class="st0" d="M1997.6,580.13c-3.31,0.03-8.63,0.33-14.93,1.91c-9.1,2.28-12.75,5.35-17.22,3.44
		c-2.67-1.14-3.28-3.05-7.65-9.57c-3.63-5.4-6.9-9.58-9.1-12.28"/>
	<path class="st0" d="M1923.74,616.87c-1.94-4.76-5.22-11.44-10.72-18.37c-4.05-5.11-9.4-10.46-18.75-16.84
		c-15.47-10.55-21.92-10.29-45.54-21.82c-19.44-9.48-17.61-10.9-27.94-14.54c-17.66-6.23-31.35-5.04-44.4-4.98
		c-29.77,0.14-26.57-5.74-73.48-10.72c-34.21-3.63-60.52-3.11-82.29-2.68c-34.72,0.68-51.97,3.33-57.41,4.21
		c-12.38,2-27.02,4.44-45.16,11.1c-17.58,6.45-16.33,8.74-32.91,14.54c-24.59,8.6-31.56,5.04-45.16,13.4
		c-9.39,5.76-14.17,12.47-23.35,25.64c-5.53,7.94-20.07,30.05-29.85,64.3c-1.74,6.1-7.81,28.24-9.19,58.17
		c-0.55,11.92-0.99,38.89,6.51,71.95c3.62,15.97,7.04,30.51,16.84,47.46c3.47,6.01,9.55,16.35,20.28,27.17
		c8.17,8.24,13.93,11.59,27.56,24.49c5.91,5.6,10.52,10.35,13.4,13.4"/>
	<path class="st0" d="M1907.61,592.46c6.81-19.5,9.35-35.27,10.38-46.39c1.16-12.53,2.71-21.32,6.89-38.65
		c1.74-7.22,2.62-9.64,4.59-12.25c4.97-6.56,10.91-6.41,21.43-15.31c3.79-3.21,5.7-4.86,6.61-7.2c2.11-5.44-0.8-10.33-6.61-22.27
		c0,0-5.79-11.89-12.63-27.94c-3.8-8.92-5.77-14.72-7.27-18.75c-6.59-17.7-15.95-32.86-29.09-53.58
		c-24.71-38.97-37.07-58.46-40.57-62.38c-19.68-22.1-39.06-34.12-59.32-46.69c-29.65-18.4-55.22-28.18-76.93-36.36
		c-5.41-2.04-24.31-9.06-52.43-16.84c-64.73-17.9-117.04-22.84-132.04-24.11c-27.78-2.36-62.1-5.28-107.55-0.77
		c-25.61,2.54-73.67,7.68-130.89,31.38c-32.35,13.4-74.63,30.91-114.82,71.57c-35.77,36.2-52.11,72.75-68.51,109.46
		c-21.72,48.62-30.19,89.05-35.98,117.5c-8.15,40.05-10.17,69.29-13.4,115.96c-3.67,53.09-5.51,79.64-1.53,114.82
		c1.36,12,7.68,39.8,20.28,94.92c12.47,54.56,18.71,81.84,24.49,102.57c15.5,55.56,19.99,56.94,23.73,84.58
		c2.57,18.99,6.79,52.42-3.06,91.47c-11.49,45.57-28.04,42.88-39.04,89.56c-7.66,32.5,0.25,34.31-9.57,82.29
		c-3.84,18.75-6.11,23.7-15.31,63.15c-4.86,20.87-8.23,35.31-11.48,52.05c-17.41,89.58-4.5,105.62-22.2,131.27
		c-3.63,5.26-13.9,18.69-13.01,36.36c0.44,8.65,3.37,14.9,4.59,17.61c16.98,37.68,4.44,60.71,24.49,98.36
		c12.73,23.89,25.55,29.2,40.19,53.58c1.54,2.57,5.57,9.46,13.4,15.69c6.67,5.31,13.22,7.85,18.75,9.95
		c12.58,4.77,16.69,3.6,24.88,6.51c6.96,2.47,16.29,7.68,25.64,19.93"/>
	<path class="st0" d="M1982.82,565.31c-2.88-22.3-8.3-39.22-12.77-50.63c-6.56-16.76-13.02-26.6-12.52-42.03
		c0.42-12.97,5.54-23.4,9.73-30.13"/>
	<path class="st0" d="M1918.38,499.76c-7.53-1.05-18.95-3.01-32.53-6.89c-10.77-3.07-18-5.95-25.64-8.8c0,0-19.57-7.31-48.99-16.07
		c-36.35-10.83-44.57-5.55-89.17-14.93c-35.12-7.38-29.09-10.46-55.49-15.31c-41.11-7.55-74.71-3.57-111.37,0.77
		c-26.28,3.11-49.22,7.7-64.3,10.72c-34.71,6.95-34.44,8.83-57.79,12.25c-21.84,3.2-29.62,2.66-43.63,8.42
		c-6.35,2.61-21.16,8.87-33.68,22.58c-12.54,13.72-12.77,23.94-26.41,61.24c-13.19,36.07-14.14,29.7-18.37,45.93
		c-4.98,19.1-4.79,39.53-4.21,79.61c0.36,25.05,0.56,38.26,2.3,57.41c3.8,41.86,9.05,46.63,10.72,78.84
		c0.83,16.03-0.43,15.55-2.68,63.53c-1.27,27.1-1.74,46.26-2.68,84.58c-0.77,31.4-1.04,53.41-1.53,93.77
		c-1.13,93.35-0.27,90.6-1.53,107.93c-3.95,54.24-10.25,52.27-15.69,109.08c-2.87,29.93-2.81,63.07-2.68,129.36
		c0.11,57.28,0.22,86.26,3.06,102.95c3.78,22.19,12.66,71.32,47.07,122.09c26.63,39.29,57.1,62.66,71.95,73.87
		c25.53,19.25,59.9,39.24,89.17,56.26c8.42,4.9,15.46,8.88,20.31,11.61"/>
	<path class="st0" d="M1882.15,568.07c0.12-12.93,0.15-35.89-0.9-62.57c-0.35-8.94-0.92-20.79-5.36-35.59
		c-0.34-1.14-1.53-5.03-3.44-9.95c0,0-8.25-21.16-22.96-39.42c-16.69-20.72-38.59-33.38-56.64-43.63
		c-39.66-22.52-74.25-31.74-86.88-34.83c-21.82-5.33-41.08-6.87-79.61-9.95c-50.8-4.06-76.2-6.09-106.4-2.68
		c-35.24,3.98-33.02,9.39-83.82,17.22c-50.47,7.79-53.7,2.61-76.16,10.33c-42.64,14.66-68.11,46.06-77.69,58.17
		c-24.9,31.48-33.02,62.55-44.78,107.54c-3.09,11.83-8.33,33.73-11.86,62c-7.01,56.02-2.69,99.73,0.38,128.98
		c2.56,24.38,8.08,53.51,19.14,111.76c10.1,53.22,12.39,58.68,14.54,82.29c3.19,34.89,1.87,63.25,0.38,95.3
		c-1.36,29.3-2.3,49.59-6.12,75.01c-7.28,48.43-17.13,63.08-31.38,116.73c-4.9,18.44-16.29,61.95-21.82,114.82
		c-2.5,23.88-1.51,27.75,0,146.2c1.27,99.93,0.69,106.86,6.12,126.68c12.24,44.62,26.94,52.36,27.94,91.47
		c0.49,19.13-2.37,43.12,11.48,52.43c6.64,4.46,9.98,0.75,24.49,6.12c15.19,5.62,25.27,14.77,31.77,20.67
		c5.2,4.72,11.28,11.06,17.21,19.3"/>
	<path class="st0" d="M1809.68,610.28c-3.03-12.13-6.16-30.39-4.2-52.35c0.47-5.31,1.4-12.57,5.74-30.62
		c4.14-17.2,9.32-38.75,19.9-66.98c12.03-32.11,18.13-48.38,31.77-68.51c13.25-19.56,20.71-23.7,29.09-43.25
		c5.81-13.54,11.34-27.42,14.16-35.59c4.54-13.15,7.71-24.37,9.82-32.49"/>
	<path class="st0" d="M1952.06,378.71c-7.79-12.86-15.57-25.97-23.34-39.31c-13.03-22.37-24.39-42.86-32.91-58.17
		c-5.73-10.29-5.27-9.55-5.74-10.33c-16.29-27-38.59-41.65-57.41-54.35c-65.47-44.2-52.94-40.73-70.04-48.99
		c-20.9-10.1-20.9-6.24-97.59-27.94c-40.44-11.44-46.39-14.2-72.33-20.28c-13.18-3.09-37.95-8.83-68.89-13.01
		c-28.45-3.84-76.87-10.07-137.78-3.06c-21.52,2.48-50.22,5.94-86.11,17.99c-14.93,5.01-69.38,24.36-125.92,71.95
		c-33.11,27.88-53.56,54.18-69.27,74.63c-15.91,20.7-37.21,48.76-55.11,88.03c-18.26,40.07-23.36,70.7-33.3,130.51
		c-5.15,30.98-12.98,79.36-13.4,144.29c-0.2,30.73-0.27,79.69,11.1,141.61c10.65,58,29.28,116.12,35.98,137.01
		c13.75,42.9,20.53,56.53,24.49,88.03c4.83,38.32,1.5,71.38-2.3,93.38c-6.22,36.04-12.6,35.91-26.03,85.35
		c-12.02,44.26-7.76,47.49-22.2,113.29c-2.9,13.21-10.78,48.23-23.73,92.62c-15.31,52.49-22.96,78.73-36.74,104.87
		c-13.71,26-20.89,31.54-32.15,59.32c-6.25,15.43-10.8,30.57-19.9,60.85c-11.63,38.7-9.55,36.31-13.78,46.31
		c-8.12,19.18-14.95,25.97-40.95,63.53c-6.76,9.76-17.05,24.83-29.39,43.8"/>
	<path class="st0" d="M1906.42,261.76c-25.14-47.3-55.17-75.76-74.92-91.52c-28.17-22.47-53.24-34.56-95.68-52.05
		c-22.92-9.44-56-22.95-102.95-36.36c-68.38-19.53-121.54-26.09-133.95-27.56c-33.39-3.94-69.73-8.22-117.11-4.98
		c-43.45,2.98-103.05,7.06-166.87,41.72c-53.26,28.93-85.05,65.9-110.99,96.06c-7.27,8.45-36.92,43.5-65.45,96.45
		c-7.43,13.79-25.8,49.23-41.72,98.36c-16.94,52.28-22.56,93.69-27.17,128.98c-6.32,48.32-7.08,85.15-7.65,117.88
		c-0.75,42.44-1.26,71.3,3.44,110.99c4.47,37.74,8.17,69.02,22.58,107.93c18.39,49.66,37.37,66.24,44.01,116.35
		c1.67,12.62,1.88,23.47,2.3,45.16c0.6,31.53,1.19,61.89-6.12,94.53c-5.48,24.46-8.87,21.1-21.82,59.32
		c-10.28,30.36-11.82,43.33-27.17,111.37c-10.66,47.24-15.99,70.86-20.67,87.64c-13.84,49.66-28.49,87.34-38.65,113.29
		c-20.56,52.47-19.9,41.62-35.21,83.05c-12.21,33.05-20.88,62.29-43.25,101.04c-4.83,8.36-9.08,15.07-11.93,19.45"/>
	<path class="st0" d="M1867.64,204.97c1.78,15.28,2.58,36.41-1.69,60.94c-0.9,5.14-4.4,24.03-14.16,47.46
		c-8.09,19.42-14.47,27.56-23.73,44.01c-5.5,9.78-8.68,16.56-30.62,71.95c-20.04,50.58-30.05,75.87-34.06,87.64
		c-6.99,20.54-15.89,48.98-24.3,83.81"/>
	<path class="st0" d="M1828.73,168.06c-2.63,22.1-6.26,40.6-9.48,54.61c-4.02,17.51-6.94,30.2-13.4,46.69
		c-5,12.77-8.2,17.8-21.05,43.63c-8.21,16.5-14.59,29.91-18.52,38.25"/>
	<path class="st0" d="M1417.01,24.42c4.09,3.4,9.9,8.62,16.07,15.69c13.55,15.51,20.73,30.62,25.26,41.33
		c16.63,39.34,25.84,86.46,28.7,101.42c5.21,27.2,10.3,54.07,16.07,96.45c7.81,57.36,4.76,54.3,12.25,110.22
		c7.72,57.64,12.01,72.25,14.54,113.67c1.75,28.64,1.48,52.04,1.01,66.92"/>
	<path class="st0" d="M1603.35,600.41c-8.78-1.24-24.56-4.12-40.14-11.09c-8.09-3.62-15.49-8.07-16.07-8.42
		c-7.8-4.71-8.41-6.06-14.16-9.57c-10.83-6.6-20.77-9.2-26.79-10.72c-11.46-2.9-22.78-3.78-22.88-3.2
		c-0.05,0.29,2.69,1.03,5.27,1.67"/>
	<path class="st0" d="M1539.29,31.77c-21.81-1.68-52.49-3.58-89.36-4.29c-40.73-0.78-61.1-1.18-86.88,1.53
		c-45.72,4.81-79.02,16.05-109.08,26.41c-47.26,16.28-81.78,28.17-120.56,55.88c-44.72,31.95-69.95,66.97-98.36,106.4
		c-16.75,23.25-38.37,53.63-57.41,98.36c-15.64,36.74-21.64,64.62-31.38,109.84c-8.39,38.96-17.88,83.03-20.67,142.76
		c-2.79,59.88,2.59,104.78,7.65,146.97c5.87,48.98,8.81,73.47,17.99,101.42c8.67,26.42,23.82,72.54,46.69,110.22
		c3.05,5.02,9.92,15.96,14.54,32.15c2.11,7.37,4.18,17.33,4.59,45.54c0.35,23.58,0.56,38.53-1.91,57.79
		c-2.64,20.5-6.43,31.11-14.93,60.47c-4.51,15.59,4.94-16.37-24.11,90.71c-6.5,23.97-13.69,50.43-24.49,89.56
		c-4.02,14.56-15.03,54.33-30.24,104.87c-15.67,52.11-20.22,63.84-30.24,78.46c-7.05,10.29-14.57,18.74-32.53,44.01
		c-9.88,13.9-17.68,25.53-22.81,33.31"/>
	<path class="st0" d="M1283.06,33.22c7.5,0.84,18.87,3.2,29.85,10.72c11.48,7.85,17.1,17.62,26.03,34.45
		c14.43,27.19,21.65,40.78,27.56,54.73c13.5,31.85,21.86,57.97,26.03,71.57c6.4,20.92,8.5,30.71,21.82,86.88
		c20.24,85.41,18.37,75.36,22.96,96.45c11.54,52.94,11.76,63.05,21.43,102.19c7.47,30.25,14.86,54.62,19.9,70.42"/>
	<path class="st0" d="M1512.8,723.39c11.06-10.41,17.75-20.57,21.71-27.68c4.79-8.6,7.34-15.91,10.33-24.49
		c3.6-10.31,6.22-17.82,7.65-28.32c1.48-10.84,2.98-21.84-1.91-34.06c-2.84-7.1-6.92-12.3-9.57-15.69
		c-4.32-5.52-8.09-10.34-14.16-13.78c-9.42-5.33-19.05-4.31-27.17-3.44c-15.12,1.61-26.03,7.74-30.24,10.33
		c-4.64,2.86-12.93,8.68-31,34.83c-13.45,19.47-20.18,29.2-25.64,42.48c-9.82,23.87-11.23,44.3-11.86,54.73
		c-0.72,11.88,0.81,5.67,3.06,48.99c1.3,25.12,1.08,32.92,7.65,40.57c2.19,2.54,9.52,6.71,24.11,14.93
		c11.91,6.71,17.86,10.07,23.73,13.01c24.48,12.3,26.69,9.82,35.98,17.61c6.03,5.05,8.26,8.74,15.31,11.48
		c2.84,1.1,10.67,4.14,19.14,1.15c10.87-3.85,15.44-15.04,15.69-15.69c2.2-5.62,1.17-9.12,4.98-13.78c0.71-0.87,2.3-2.65,7.65-5.74
		c3.82-2.21,9.44-5.02,16.84-7.27"/>
	<path class="st0" d="M1493.23,728.96c8.96-9.95,15.92-18.78,20.99-25.59c6.5-8.73,10.24-14.61,11.86-17.22
		c5.46-8.76,8.23-13.21,10.72-19.9c0.67-1.8,1.23-3.54,4.98-22.2c3.41-17.01,3.54-18.57,3.44-21.05
		c-0.39-9.74-3.67-17.26-5.36-21.05c-1.78-3.98-3.41-7.62-6.89-11.48c-5.14-5.7-10.94-8.12-14.54-9.57
		c-13.03-5.26-25.5-3.64-31.64-2.38"/>
	<path class="st0" d="M1493.23,728.96c10.25-21.4,19.19-37.75,25.59-48.94c3.71-6.49,8.77-14.96,13.4-27.56
		c2.68-7.3,6.18-17.08,6.89-30.24c0.48-8.93,0.63-16.53-3.44-24.49c-6.8-13.29-20.85-18.01-25.51-19.35"/>
	<path class="st0" d="M1493.23,728.96c-2.46-18.95-0.9-29.82,1.09-36.31c0.66-2.17,2.06-6.09,3.44-12.25
		c1.69-7.53,1.34-9.39,3.06-15.31c0.92-3.16,2.17-7.45,4.98-12.25c4.08-6.99,6.63-6.79,10.33-13.01c2.23-3.75,5.5-9.25,4.59-16.07
		c-0.9-6.75-5.7-13.5-12.63-16.07c-7.54-2.8-14.53,0.49-18.37,2.3c-3.34,1.57-11.35,5.95-22.58,24.88
		c-6.62,11.16-10.03,20.07-16.46,37.12c-5.13,13.61-7.7,20.42-9.19,27.56c-2.5,11.99-2.31,20.75-1.91,38.27
		c0.55,24.65,3.48,34.04,4.98,38.27c2.81,7.99,4.74,13.26,9.95,17.61c6.51,5.44,11.18,3.6,29.09,7.65
		c13.08,2.96,20.9,4.73,29.47,10.33c3.67,2.4,8.49,7.12,17.99,16.46c6.75,6.63,12.27,12.25,16.15,16.25"/>
	<path class="st0" d="M1561.68,639.45c0.82,8.01-0.41,14.15-1.53,17.99c-1.69,5.77-3.39,7.12-4.21,7.65
		c-4.44,2.9-10.99,0.22-13.4-0.77c-4.48-1.83-4.77-3.44-8.42-4.98c-3.51-1.47-7.35-1.71-14.54-0.38
		c-12.05,2.23-20.35,3.76-28.32,9.95c-8.54,6.63-5.06,9.56-20.67,29.47c-8.7,11.1-11.48,14.54-11.48,14.54
		c-6.58,8.15-9.12,10.98-11.1,16.07c-1.95,5.02-2.09,8.99-2.3,14.93c-0.44,12.45-0.85,23.58-1.15,32.15"/>
	<path class="st0" d="M1552.86,684.12c-9.06,3.22-16.78,5.28-22.56,6.62c-7.58,1.75-11.67,2.23-15.69,2.3
		c-5.94,0.1-6.06-0.77-11.1-0.77c-10.62,0-18.92,3.88-23.73,6.12c-3.17,1.48-7.71,3.9-12.63,7.65c-6.35,4.85-10.75,9.96-13.59,13.79
		"/>
	<path class="st0" d="M1471.41,736.06c-2.44-4.14-5.81-10.7-8.09-19.29c-2.57-9.71-1.7-11.24-3.44-17.22
		c-0.74-2.53-2.26-5.76-22.58-20.28c-10.13-7.24-15.19-10.86-21.05-14.16c-10.07-5.68-19.46-9.51-27.3-12.15"/>
	<path class="st0" d="M1480.91,683.52c-3.84-13.41-9.57-22.48-13.76-27.99c-4.64-6.11-9.68-10.86-16.84-17.61
		c-5.87-5.53-10.99-9.87-14.63-12.84"/>
	<path class="st0" d="M1480.91,683.52c0.02-8.39-0.44-23.02-3.81-37.18c-1.44-6.07-3-10.3-3.44-11.48
		c-2.88-7.67-6.1-13.02-8.42-16.84c-2.78-4.57-6.71-10.34-12.1-16.53"/>
	<path class="st0" d="M1478.54,653.39c7.05-2.7,12.61-5.56,16.55-7.81c7.05-4.01,9.49-6.37,10.72-7.65
		c2.59-2.72,3.45-4.57,6.51-9.57c0,0,4.12-6.74,9.95-14.93c2.85-4,7.18-9.53,13.4-15.69"/>
	<path class="st0" d="M1493.42,667.38c1.32-4.66,3.93-11.26,9.32-17.59c7.68-9.02,16.79-12.56,21.24-14.23
		c5.56-2.09,10.49-2.93,13.98-3.3"/>
	<path class="st0" d="M1501.62,641.47c-4.18-11.4-7.5-21.04-9.97-28.43c-2.04-6.11-3.32-10.14-4.21-15.69
		c-1.25-7.8-1.04-14.39-0.64-18.84"/>
	<path class="st0" d="M1504.25,606.75c3.14-9.07,6.29-18.13,9.43-27.2"/>
	<path class="st0" d="M1497.38,573.24"/>
	<path class="st0" d="M1499.68,575.92c-1.66-3.35-3.33-6.69-4.99-10.04"/>
	<path class="st0" d="M1463.42,590.7c-1.15-2.83-5.1-11.51-14.64-16.3c-4.09-2.05-7.93-2.76-10.69-2.99"/>
	<path class="st0" d="M1441.92,616.13c-8.56-5.62-17.12-11.24-25.68-16.86"/>
	<path class="st0" d="M1461.12,705.48c2.4-7.69,4.8-15.41,7.18-23.16c1.75-5.68,3.48-11.34,5.19-16.99"/>
	<path class="st0" d="M1449.74,725.36c-5.56-1.03-14.16-2.95-24.3-6.68c-8.77-3.23-12.01-5.34-19.14-7.65
		c-6.19-2.01-15.52-4.23-27.93-4.21"/>
	<path class="st0" d="M1471.41,736.06c-1.02,4.55-1.93,11.53-0.43,19.75c0.81,4.44,1.96,10.75,6.51,16.84
		c2.91,3.9,3.8,3.14,13.01,12.25c5.35,5.3,6.88,7.36,8.04,9.95c2,4.48,2.1,8.75,1.91,11.48"/>
	<path class="st0" d="M1447.22,759.66c1.8,6.03,4.98,14.25,10.74,22.94c4.88,7.36,10.13,12.8,14.4,16.6"/>
	<path class="st0" d="M1541.4,750.44c-3.87,1.38-9.3,3.41-15.69,6.12c-11.62,4.93-18.44,7.82-26.41,13.01
		c-2.86,1.86-9.05,6.85-21.43,16.84c-4.31,3.48-7.85,6.35-10.19,8.26"/>
	<path class="st0" d="M1493.23,728.96c-1.85,8.78-0.58,14.73,2.24,18.81c1.86,2.69,3.09,2.96,9.57,8.04
		c2.91,2.28,8.76,6.86,13.78,13.01c5.18,6.35,8.09,12.65,9.57,16.46c2.41,6.21,2.03,8.31,4.98,17.99
		c1.72,5.64,3.43,10.14,4.59,13.01"/>
	<path class="st0" d="M1523.41,718.68c4.69,7.66,5.5,13.79,5.36,17.99c-0.18,5.33-1.86,6.99-1.91,13.78
		c-0.05,5.67,1.08,9.95,2.3,14.54c2.33,8.83,3.91,8.96,5.74,16.46c0.88,3.58,1.23,7.92,1.91,16.46c0.36,4.49,0.8,10.77,1.15,18.37"
		/>
	<path class="st0" d="M1546.83,739.76c-5.65,10.61-6.07,18.69-5.43,24.08c0.63,5.28,2.08,6.4,4.59,17.61
		c1.01,4.53,1.71,8.95,3.06,17.61c0.79,5.03,1.82,11.97,2.93,20.33"/>
	<path class="st0" d="M1544.84,741.26c4.64,9.54,7.07,17.6,8.42,22.96c3.42,13.63,2.54,20.74,5.74,36.36
		c1.97,9.63,4.42,17.21,6.04,21.8"/>
	<path class="st0" d="M1540.57,718.67c5.51,4,13.74,11.19,19.96,22.59c6.16,11.3,7.45,21.45,8.04,26.41
		c0.63,5.33,0.53,9.22-1.15,28.7c-0.89,10.39-1.72,19.24-2.38,26.01"/>
	<path class="st0" d="M1578.13,758c-8.04,1.66-14.77,3.14-19.9,4.31c0,0-4.05,0.92-11.86,3.06c-6.55,1.79-8.49,2.5-10.72,3.83
		c-3.31,1.97-4.02,3.4-7.27,6.12c-4.66,3.9-8.69,5.57-12.25,7.27c-5.46,2.61-14.91,7.74-32.53,18.75"/>
	<path class="st0" d="M1551.98,819.38c1.68,11.05,0.04,18.91-1.78,24.07c-2.18,6.15-4.6,8.39-6.12,16.07
		c-1.29,6.48-0.99,12.04-0.77,15.69c0.27,4.49,0.53,8.81,2.3,14.16c2.39,7.25,6.1,12.07,9.19,16.07c3.14,4.08,6.19,7.13,8.42,9.19"
		/>
	<path class="st0" d="M1552.25,834.87c-2.16-1.93-5.89-4.78-11.24-6.73c-4.94-1.8-9.28-2.11-12.08-2.1"/>
	<path class="st0" d="M1575.08,823.54c-11.83,7.91-16.18,15.96-17.99,21.82c-2.36,7.65,0.21,9.74-2.3,26.03
		c-1.24,8.06-2.91,14.36-4.59,20.67c-2.31,8.68-3.47,13.03-5.36,16.46c-1.82,3.3-6.37,11.28-16.07,16.07
		c-10.46,5.17-20.42,3.41-23.73,2.68"/>
	<path class="st0" d="M1564.48,832.59c-1.09,7.38-0.89,13.29-0.5,17.36c0.49,5.09,1.24,6.79,1.15,11.1
		c-0.13,6.25-1.88,10.88-3.44,14.93c-1.92,4.97-5.61,12.71-12.77,20.89"/>
	<path class="st0" d="M1578.13,758c4.01-0.68,9.88-1.01,15.7,1.63c5.21,2.37,8,6.04,10.72,9.19c4.27,4.96,11.01,11.72,21.43,18.75"
		/>
	<path class="st0" d="M1592.77,825.16c-2.1,6.47-6.47,16.81-15.78,26.32c-4.1,4.18-8.24,7.29-11.86,9.57"/>
	<path class="st0" d="M1593.06,826.99c-1.54,20.99-6.78,35.16-11.48,44.4c-2.31,4.55-6.38,11.6-11.1,22.96
		c-3.48,8.39-5.82,15.5-7.27,20.28"/>
	<path class="st0" d="M1565.13,861.05c-1.51,8.26-2.99,16.09-4.59,24.49c-0.81,4.24-1.72,8.84-4.59,14.16
		c-0.86,1.59-2.56,4.49-5.36,7.65c-3.97,4.5-8.15,7.28-11.07,8.91"/>
	<path class="st0" d="M1544.27,884.21c-4.57,8.93-10.25,14.39-13.97,17.41c-5.09,4.12-10.24,8.29-16.46,7.65
		c-4.85-0.49-7.13-3.53-14.16-9.95c-11.66-10.64-12.52-8.78-21.05-16.84c-12.29-11.62-9.29-14.34-19.14-23.73
		c-13.65-13.02-19.93-8.26-33.68-21.43c-10.25-9.81-15.32-20.65-17.61-25.64c-4.63-10.13-6.21-18.58-7.27-24.49
		c-2.31-12.85-1.91-23.02-1.53-31.38c0.39-8.76,1.38-16.1,2.29-21.51"/>
	<path class="st0" d="M1381.07,774.81c13.12-0.26,23.26-0.68,30.21-1.02c4.9-0.24,10.86-0.57,19.14-0.38
		c5.68,0.13,10.36,0.46,13.51,0.73"/>
	<path class="st0" d="M1451.17,790.24c-5.05,1.7-12.09,4.44-20,8.81c-6.33,3.51-12.96,7.17-19.52,13.78
		c-9.19,9.26-13.68,19.68-13.51,19.78c0.08,0.05,1.49-2.02,7.39-11.36"/>
	<path class="st0" d="M1456.66,795.26c2.11,6.33,1.46,10.88,0.54,13.74c-1.04,3.24-2.61,4.96-7.27,11.1
		c-4.23,5.56-5.34,7.15-8.42,11.48c-3.19,4.49-4.82,6.78-6.12,9.19c-1.44,2.64-2.51,5.24-4.59,10.33c-1.55,3.78-2.77,6.94-3.61,9.16
		"/>
	<path class="st0" d="M1494.62,803.96c0.84,3.46,1.56,8.7-0.3,14.23c-2.18,6.51-6.07,7.89-13.78,17.22
		c-0.23,0.28-4.11,5.93-11.86,17.22c-5.26,7.66-8.04,11.71-12.25,17.22c-2.5,3.28-4.64,5.94-6.12,7.74"/>
	<path class="st0" d="M1515.12,813.16c3.82,13.82,1.51,21.77-1.27,26.46c-2.43,4.09-4.46,4.43-8.8,10.33
		c-1.87,2.54-3.59,5.33-9.57,19.9c-6.12,14.91-7.47,19.65-12.63,26.41c-2.04,2.68-3.94,4.69-5.17,5.92"/>
	<path class="st0" d="M1524.29,821.5c0,5.33,0.16,11.7,0.65,18.88c0.65,9.45,1.23,10.86,0.38,14.54c-1.85,8.04-6.22,8.28-8.8,17.22
		c-0.15,0.52-0.1,0.4-1.53,13.78c-0.99,9.3-1.25,11.53-1.91,14.93c-0.86,4.4-1.48,7.59-3.06,11.48c-1.4,3.44-3.79,8.05-8.06,12.82"
		/>
	<path class="st0" d="M1534.53,831.56c0.52,9.68-0.12,17.39-0.79,22.6c-1.21,9.46-2.63,11.62-3.06,20.67
		c-0.3,6.28,0.39,5.26,0.38,17.99c0,7.99-0.27,10.85,0.38,16.07c0.66,5.29,1.84,9.55,2.75,12.34"/>
	<path class="st0" d="M1458.01,804.74c4.83,1.09,11.14,2.77,18.33,5.41c8.11,2.98,16.03,5.88,24.88,11.86
		c6.45,4.36,9.48,7.71,18.37,12.63c2.97,1.65,6.26,3.28,10.72,4.21c4.91,1.03,9.11,0.76,11.87,0.38"/>
	<path class="st0" d="M1438.09,571.4c-8.7-16.24-21.03-39.29-35.81-67.04c-35.91-67.43-39.07-73.97-42.48-81.52
		c-20.97-46.33-13.57-46.3-37.89-106.78c-9.96-24.78-21.18-48.48-43.63-95.87c-6.59-13.92,0.49,1.27-28.7-57.41
		c-10.64-21.39-16.14-32.57-26.98-47.07c-15.2-20.33-27.11-28.74-30.43-31c-12.82-8.75-25.12-13.06-33.48-15.29"/>
	<path class="st0" d="M1416.06,584.73c-8.58-10.73-22.14-27.33-39.61-47.07c-27.63-31.23-32.67-33.75-45.93-51.67
		c-17.33-23.41-14.53-26.94-38.46-65.45c-18.94-30.48-20.41-27.81-40.19-59.13c-19.17-30.36-17.23-31.97-41.91-72.91
		c-11.15-18.48-22.58-37.37-39.61-61.43c-22.29-31.48-21-25-34.44-45.93c-10.11-15.74-14.54-25.16-26.98-33.87
		c-13.48-9.44-28.23-12.33-29.85-12.63c-5.11-0.95-9.5-1.22-12.73-1.26"/>
	<path class="st0" d="M1353.36,21.24c-5.79,0.53-136.41,13.38-208.84,60.59c-25.72,16.76-47.07,36.74-47.07,36.74
		c-20.67,19.34-33.1,35.91-47.07,54.54c-18.84,25.11-30.93,46.59-55.11,89.56c-6.1,10.83-14.04,25.28-19.52,45.93
		c-2.55,9.6-3.84,17.8-4.54,23.56"/>
	<path class="st0" d="M1000.34,210.57c6.23,2.09,15.38,5.9,24.77,13.06c5.82,4.43,9.65,8.57,20.09,20.67
		c11.85,13.73,17.77,20.59,22.39,26.41c21.27,26.81,27.3,36.58,41.33,54.54c11.76,15.04,24.29,31.08,42.48,48.8
		c23.26,22.65,44.1,36.68,57.98,45.93c31,20.65,41.25,22.23,75.78,43.06c17.81,10.74,38.82,24.63,61.6,42.39"/>
	<path class="st0" d="M959.16,283.68c18.59,12.53,32.2,24.38,41.26,32.95c15.19,14.38,19.31,21.22,33.3,31
		c3.83,2.68,10.01,6.7,38.46,18.94c28.21,12.14,42.31,18.21,63.15,24.69c12.9,4.01,30.22,8.77,51.17,12.71"/>
	<path class="st0" d="M940.34,330.48c14,4.68,29.26,9.16,45.73,13.14c21.45,5.18,41.57,8.69,59.91,11.05"/>
	<path class="st0" d="M1401.75,621.19c-16.07-6.05-40.19-15.92-68.36-30.72c-28.31-14.88-33.7-20.55-59.7-33.87
		c-39.6-20.28-72.78-30.52-82.09-33.3c-40.97-12.22-41.1-5.69-91.85-20.09c-31.01-8.8-36.55-12.82-64.87-18.94
		c-20.93-4.53-28.42-4.6-52.82-10.91c-13.48-3.48-19.94-5.72-31.57-7.46c-16.93-2.54-31.2-1.99-40.83-1.07"/>
	<path class="st0" d="M1388.95,652.95c-14-11.88-28.66-25.39-43.51-40.67c-10-10.29-19.18-20.44-27.58-30.31"/>
	<path class="st0" d="M1379.75,694.44c-11.78-2.77-30.01-7.3-52.11-13.84c-30.66-9.07-36.59-12.5-64.3-20.67
		c-44.03-12.98-41.06-7.88-69.46-17.8c-37.88-13.23-40.59-21.41-67.17-24.69c-15.17-1.87-21.3-0.07-44.78-3.44
		c-17.16-2.47-30.22-5.78-39.04-8.04c-37.64-9.65-38.24-15.1-58.56-16.65c-7.13-0.54-19.68,0.98-44.78,4.02
		c-11.56,1.4-19.82,2.69-28.13,8.61c-6.51,4.64-10.48,10.29-12.81,14.35"/>
	<path class="st0" d="M1377.97,748.47c-15.86,7.35-27.46,14.53-35.39,19.97c-6.97,4.78-14.03,10.22-24.11,10.33
		c-6.85,0.08-11.9-2.34-14.35-3.44c-16.71-7.49-27.47-5.09-55.69-10.33c-24.76-4.6-23.71-7.8-59.13-17.22
		c-17.72-4.72-31.53-7.35-59.13-12.63c-35.34-6.75-58.76-11.23-91.28-14.35c-20.87-2-38.79-3.65-62-2.3
		c-3.86,0.23-12.77,0.92-30.43,2.3c-16.22,1.27-29.52,2.33-38.43,3.05"/>
	<path class="st0" d="M1384.1,790.25c-19.89-4.07-39.78-8.13-59.67-12.2"/>
	<path class="st0" d="M1413.37,856.12c-1.29,3.99-4.53,11.92-12.24,16.22c-6.37,3.56-12.8,2.96-18.94,2.3
		c-21.03-2.29-31.55-3.43-39.61-5.74c-19.2-5.5-39.1-8.14-58.56-12.63c-26.76-6.17-46-10.25-73.48-16.07
		c-40-8.48-60.01-12.72-68.89-13.78c-9.97-1.19-35.54-1.94-86.69-3.44c-23.17-0.68-34.58-0.9-52.24-2.87
		c-9.7-1.08-15.27-2.02-39.04-5.17c-15.03-1.99-27.31-3.54-35.34-4.54"/>
	<path class="st0" d="M1389.98,812.9c0.58,11.02,1.31,26.28,1.97,44.52c0.63,17.42,0.85,30.7,1.15,39.61
		c0.83,24.71,2.12,62.93,1.72,95.3c-0.46,37.56-3.16,65.3-5.74,91.85c-1.37,14.11-5.85,57.82-16.07,115.39
		c-7.09,39.92-8.12,36.84-10.33,55.69c-1.81,15.38-2.94,32.93,1.15,106.78c3.77,67.98,4.7,52.58,7.46,106.78
		c1.52,29.72,1.84,46.18,6.89,71.76c6.47,32.8,15.26,52.91,17.8,58.56c6.68,14.85,13.07,24.83,25.83,44.78
		c11.69,18.28,19.29,30.14,32.15,44.78c9.15,10.41,18.84,21.44,34.44,32.72c14.16,10.24,35.52,22.38,39.61,24.69
		c6.34,3.58,14.33,7.91,23.54,16.07c6.08,5.39,10.49,10.5,13.33,14.06"/>
	<path class="st0" d="M1439.52,880.95c-15.02-2.08-30.03-4.16-45.05-6.24"/>
	<path class="st0" d="M1445.31,886.14c1.24,14.84,2.7,37.13,2.89,64.28c0.28,40.3-2.53,50.19-4.59,100.46
		c-2.82,68.82,1.64,70.19-2.87,115.39c-3.14,31.5-5.46,32.35-10.33,75.78c-4.81,42.86-6.38,76.05-6.89,88.41
		c-1.34,32.62-3,76.56,2.3,133.76c2.22,24.03,7.03,51.23,16.65,105.63c4.74,26.84,7.56,40.49,16.07,57.41
		c7.74,15.37,17.79,27.28,37.89,51.09c12.67,15.01,23.01,27.16,39.04,41.33c12.41,10.97,16.82,13.08,32.15,25.83
		c16.89,14.06,29.69,26.63,37.91,35.1"/>
	<path class="st0" d="M1498.06,922.25c0.92,13.27,1.86,30.02,2.38,49.41c0,0,0.87,32.24,0,62.58c-0.84,29.5-3.05,46.11-10.91,114.24
		c-1.59,13.78-5.46,51.29-13.2,126.3c-3.9,37.78-5.79,57.13-2.87,79.8c3.08,23.93,7.43,28.53,18.94,72.33
		c9.25,35.18,6.81,33.6,19.52,88.41c9.93,42.8,15.1,64.82,25.26,94.72c9.84,28.98,19.38,50.78,31.57,72.33
		c5.83,10.3,11.19,18.64,15.12,24.49"/>
	<path class="st0" d="M1534.2,921.23c0.92,8.14,2.03,20.24,2.42,34.93c0.72,27.63-1.61,46.53-4.02,69.46
		c-7.15,67.96-3.43,61.06-8.61,96.45c-2.69,18.4-2.87,14.59-15.5,78.65c-14.08,71.38-15.34,83.63-16.07,95.3
		c-2.55,40.62,1.73,68.72,2.87,75.78c3.95,24.48,10.21,44.47,15.56,58.78"/>
	<path class="st0" d="M1556.43,1089.56c-5.48,16.27-10.79,33.43-15.8,51.45c-6.69,24.06-12.14,47.13-16.59,68.99"/>
	<path class="st0" d="M1625.6,1327.87c-13.13-9.26-24.27-15.93-32.16-20.37c-9.45-5.32-12.99-6.75-18.37-11.48
		c-5.71-5.02-6.97-8.03-18.37-25.83c-15.29-23.87-15.55-22.43-18.94-29.85c-3.76-8.23-4.76-12.91-10.33-22.39
		c-3.85-6.55-6.58-11.09-11.48-14.93c-7.45-5.83-14.72-5.96-22.96-7.46c-16.64-3.04-18.16-8.21-40.76-17.22
		c-16.6-6.62-24.44-7.28-42.48-12.06c-37.13-9.83-36.31-15.59-80.95-30.43c-38.06-12.65-39.8-8.83-71.19-21.24
		c-23-9.09-26.18-12.76-45.35-18.37c-9.63-2.82-13.33-3.2-57.98-10.33c-51.24-8.18-47.18-7.8-53.96-8.61
		c-25.02-3-34.12-2.67-53.39-7.46c-6.67-1.66-11.92-3.28-22.96-5.74c-13.45-3-24.62-4.83-32.15-5.93"/>
	<path class="st0" d="M1627.51,1262.81c-13.35,12.44-24.4,22.2-31.77,28.61c-24.59,21.39-34.58,28.35-41.91,43.63
		c-5.17,10.78-6.68,20.83-7.18,27.42"/>
	<path class="st0" d="M1606.72,1316.83c-14.89,9.99-31.22,24.59-41.98,45.97c-7.27,14.46-7.83,23.75-14.93,45.16
		c-5.03,15.2-12.94,35.24-25.75,58.01"/>
	<path class="st0" d="M1570.86,1396.97c-10.59-6.37-19.07-11.71-24.87-15.41c-16.75-10.7-20.28-13.01-20.28-13.01
		c-13.11-8.59-14.15-9.63-17.99-11.1c-9.28-3.55-15.81-2.26-24.88-2.3c-12.52-0.05-17.7-2.57-38.27-7.65
		c-20.7-5.11-17.59-3.09-70.8-13.4c-26.79-5.19-23.75-4.96-54.73-11.1c-62.92-12.46-62.27-10.79-88.98-17.22
		c-32.79-7.89-32.8-10.18-68.89-18.37c-11.57-2.63-11.64-2.41-52.24-10.91c-45.88-9.61-43.35-9.38-52.24-10.91
		c-35.18-6.06-41.6-3.96-67.17-9.19c-13.04-2.67-31.85-7.4-54.2-16.36"/>
	<path class="st0" d="M1563.98,1421.36c-3.95,0.01-9.5-0.64-14.16-4.21c-6.68-5.11-7.78-13.35-9.19-18.94
		c-2.22-8.85-7.72-21.09-22.53-34.68"/>
	<path class="st0" d="M1567.14,1358.32c-1.85-4.96-4.94-11.99-10.05-19.63c-2.77-4.14-5.55-7.35-11.1-13.78
		c-8.94-10.35-15.9-17.25-20.28-21.43c-6.57-6.26-9.84-8.78-12.63-10.72c-3.82-2.65-7.45-5.17-12.25-6.89
		c-8.09-2.9-12.97-1.19-20.67-1.53c-10.7-0.47-17.45-4.49-25.26-8.04c-9.91-4.5-12.09-3.97-66.21-18.75
		c-39.31-10.74-58.96-16.11-75.01-21.43c-8.6-2.85-8.18-2.88-58.17-21.43c-56.45-20.95-61.69-22.67-71.19-24.88
		c-18.54-4.31-33.41-5.81-63.15-8.8c-30.15-3.03-31.9-1.62-56.26-4.98c-31.5-4.34-33.28-7.36-48.61-7.27
		c-5.49,0.03-12.96,0.47-21.82-3.06c-5.53-2.2-8.15-4.58-15.69-7.65c-6.15-2.51-11.5-3.82-15.14-4.54"/>
	<path class="st0" d="M1587.38,1345.27c-8.69-1.17-17.38-2.34-26.08-3.51"/>
	<path class="st0" d="M1439.93,1173.95c2.69,14.89,5.06,30.66,6.94,47.24c3.03,26.72,0.94,43.01,4.59,80.75c0,0.02,0,0,1.53,14.93
		c4.9,47.75,5.06,49.35,5.36,51.67c2.42,18.84,6,25.02,16.07,58.17c4.09,13.47,10.25,37.56,22.58,85.73
		c16.1,62.92,15.49,64.54,21.43,79.22c15.76,38.93,23.63,36.33,31.77,64.68c2.05,7.15,6.4,24.23,21.05,38.27
		c3.7,3.55,7.17,6.05,9.59,7.64"/>
	<path class="st0" d="M1459.9,1378.25c0.83,9.11,2.05,23.8,3.04,41.96c2.11,38.89,0.88,48.67,3.06,77.31
		c2.23,29.21,6.58,51.13,8.04,58.17c3.31,15.99,8.02,38.24,19.14,65.45c10.51,25.74,11.94,19.65,27.94,55.49
		c4.12,9.23,7.15,16.62,14.54,24.88c4.5,5.03,7.62,7.02,28.7,21.05c22.6,15.04,25.3,16.93,29.85,21.05
		c8.86,8.01,15.25,15.85,19.14,21.05c4.43,5.93,7.81,11.38,10.31,15.82"/>
	<path class="st0" d="M1313.15,1037.87c-4.59,16.63-11.06,40.86-18.23,70.42c-2.26,9.35-4.26,18.27-12.63,54.73
		c-11.84,51.57-17.76,77.35-19.9,89.56c-6.76,38.56-8.38,68.34-9.57,91.47c-2.76,53.96,0.16,95.03,1.15,107.55
		c2.33,29.64,5.12,63.2,16.07,106.01c7.58,29.63,13.3,52.02,28.7,79.61c16.17,28.97,29.56,52.96,56.64,68.12
		c16,8.96,31.18,19.52,47.84,27.17c5.13,2.36,15.14,6.76,21.82,17.22c4.2,6.58,5.6,13.24,6.12,17.81"/>
	<path class="st0" d="M1509.63,1427.28c-6.27,2.03-15.63,4.33-26.98,4.22c-16.49-0.16-28.07-5.33-35.59-8.04
		c-22.76-8.19-37.89-4.52-64.87-4.59c-29.7-0.08-59.41-6.94-118.84-20.67c-61.39-14.18-50.43-16.55-97.59-26.41
		c-39.76-8.31-78.95-16.51-129.74-18.94c-18.03-0.87-36.43-0.95-61.43-7.46c-27.52-7.17-48.89-18.43-55.11-21.82
		c-6.48-3.52-11.75-6.77-15.5-9.19"/>
	<path class="st0" d="M1530.66,1517.28c-6.3,3.03-15.84,6.8-27.92,8.37c-5.73,0.75-10.26,0.77-18.94,0.57
		c-26.13-0.6-39.04-1.72-39.04-1.72c-23.75-2.07-42.06-4.55-51.09-5.74c-49.78-6.56-53.02-5.02-70.61-8.04
		c-42.37-7.27-46.52-20.17-105.63-43.06c-20.03-7.75-55.37-21.23-102.76-29.28c-33.64-5.71-70.14-8.15-111.37-10.91
		c0,0-16.35-1.09-44.2-4.59c-15.68-1.97-23.62-3.34-32.72-5.74c-11.55-3.05-20.87-5.51-31-11.48c-6.96-4.1-18.94-12.61-29.29-29.19"
		/>
	<path class="st0" d="M1511.34,1569.41c2.56,22.5,7.65,40.55,12.07,53.25c12.47,35.84,30.4,60.32,40.19,73.48
		c11.77,15.81,24.3,29.39,32.15,37.89c10.01,10.84,23.06,24.13,27.56,28.7c5.77,5.87,10.61,10.72,14.01,14.11"/>
	<path class="st0" d="M1556.21,1616.94c-20.93-4.36-38.21-4.21-51.17-2.89c-14.13,1.45-17.11,3.69-34.45,5.74
		c-22.44,2.65-27.36,0.07-49.95,1.15c-32.92,1.57-34.52,7.63-60.28,8.04c-16.03,0.25-28.29-2.32-52.82-7.46
		c-41.55-8.72-71.98-20.27-80.37-23.54c-32.1-12.47-30.29-15.64-69.46-33.3c-47.42-21.37-74.49-33.27-111.95-35.59
		c-28.09-1.74-50,2.65-64.87,5.74c-38,7.89-61.19,12.7-81.52,31.57c-18.06,16.77-23.96,35.44-42.48,37.32
		c-8.98,0.91-16.78-2.54-22.02-5.65"/>
	<path class="st0" d="M987.14,1426.06c-8.42,10.35-32.59,38.68-62.5,54.23c-7.21,3.75-16.15,8.28-28.7,9.76
		c-7.67,0.9-6.61-0.52-31-1.72c-14.56-0.72-19.55-0.44-21.82-4.02c0,0-1.12-2.13,4.02-17.22c-3.09-3.25-6.19-6.5-9.28-9.75"/>
	<path class="st0" d="M847.14,1467.09"/>
	<path class="st0" d="M911.44,496.32c-1.95,15.43-4.11,36.44-5.17,61.43c-2.15,50.73,1.45,89.31,4.59,121.71
		c4.38,45.15,6.57,67.72,14.35,98.74c2.32,9.26,12.16,47.28,32.72,94.15c15.47,35.26,24.13,46.18,32.15,76.93
		c1.75,6.7,7.29,29.01,8.61,58.56c0.42,9.34,1,35.98-17.8,115.39c-11.66,49.26-22.81,85.11-25.83,94.72
		c-14.7,46.76-15.9,41.58-31.57,90.13c-15.32,47.44-22.59,78.46-39.61,116.54c-4.48,10.02-12.97,28-28.13,48.22
		c-7.31,9.76-14.11,17.28-18.95,22.33"/>
	<path class="st0" d="M894.91,1397.52c-19.67,25.87-39.34,51.74-59.01,77.61"/>
	<path class="st0" d="M903.97,1314.39c-0.22,6.39-1,15.15-3.44,25.26c-4.33,17.92-11.58,30.54-13.2,33.3
		c-5.46,9.31-8.43,11.29-17.8,26.98c-4.32,7.25-4.1,7.51-6.31,10.91c-4.53,6.94-12.13,16.08-25.47,24.76"/>
	<path class="st0" d="M837.17,1432.78c6.08-6.08,14.44-15.95,20.88-29.99c4.6-10.04,6.86-19.24,8.02-26.32"/>
	<path class="st0" d="M982.41,925.46c15.36,22.01,21.54,42.06,24.32,55.38c4.96,23.78,2.61,43.05-1.15,71.76
		c-1.25,9.55-3.65,25.46-12.06,59.7c-8.24,33.59-14.45,53-26.98,95.3c-4.27,14.4-13.87,46.84-24.11,83.24
		c-18.68,66.37-21.11,80.6-33.3,110.22c-14.32,34.8-27.17,54.54-31,60.28c-5.11,7.66-8.48,11.91-14.93,21.82
		c-13.02,19.98-21.82,37.26-27.25,48.78"/>
	<path class="st0" d="M919.3,1415.25c-17.61,20.22-28.95,38.17-36,50.69c-9.15,16.25-13.02,26.8-25.83,49.37
		c-8.68,15.3-16.48,27.32-21.58,34.9"/>
	<path class="st0" d="M916.26,1484.39c-16.31,30.13-34.83,61.46-55.92,93.5c-8.75,13.3-17.55,26.12-26.34,38.47"/>
	<path class="st0" d="M906.62,1623.34c19.13-6.38,32.59-14.68,41.56-21.34c15.2-11.29,23.81-22.58,44.78-31
		c6.02-2.42,10.55-3.59,16.65-5.17c9.91-2.56,24.36-5.46,53.96-6.31c15.59-0.45,18.24,0.16,57.98,0.57
		c11.27,0.12,20.47,0.17,26.38,0.19"/>
	<path class="st0" d="M926.84,1768.8c8.93-10.09,20.94-22.46,36.27-35.33c6.63-5.57,27.26-22.06,57.41-39.04
		c6.35-3.58,36.09-20.06,79.8-32.72c41.23-11.95,61.84-17.92,87.83-13.78c19.88,3.17,16.14,7.69,72.33,28.7
		c28.71,10.74,43.47,16.17,63.72,19.52c15.24,2.52,21.32,1.93,62,2.3c15.69,0.14,39.93,0.67,88.41,1.72
		c29.28,0.64,46.61,1.13,82.09,1.72c10.1,0.17,18.46,0.29,24.13,0.37"/>
	<path class="st0" d="M906.62,1623.34c3.08,11.84,6.85,27.4,10.56,45.83c4.82,23.94,5.79,34.13,10.33,54.54
		c2.75,12.33,6.72,28.02,12.52,46.08"/>
	<path class="st0" d="M1049.22,1773.08c6.95-5.84,16.75-13.31,29.28-20.67c25.22-14.81,47.09-20.56,60.28-24.11
		c15.7-4.22,44.28-11.65,79.8-8.61c39.89,3.42,44.05,16.23,88.41,17.8c15.29,0.54,20.66-0.78,42.48,0.57
		c13.44,0.83,16.23,1.63,52.82,5.74c31.88,3.58,33.81,3.43,41.33,5.17c20.53,4.74,36.25,12.81,46.42,18.97"/>
	<path class="st0" d="M1288.81,1617.24c6.19,21.15,12.79,38.48,18.17,51.36c11.58,27.68,19.09,38.35,21.24,41.33
		c9.54,13.24,19.64,22.54,27.09,28.54"/>
	<path class="st0" d="M1105.48,1737.1c-3.83,12.13-7.65,24.26-11.48,36.38"/>
	<path class="st0" d="M1110.07,1773.49c25.94-11.19,48.47-17.42,64.87-21.07c31-6.9,56.08-8.13,77.5-9.19
		c22.01-1.08,41.8-0.79,56.26-0.57c18.04,0.27,25.75,0.82,46.5,1.15c20.09,0.32,36.45,0.17,47.07,0"/>
	<path class="st0" d="M1154.85,1773.08c10.11-2.5,25.85-6.08,45.35-9.19c17.6-2.81,28.79-3.41,72.33-7.46
		c33.17-3.09,49.76-4.63,61.43-5.17c22.59-1.03,46.18-2.02,76.35,1.15c15.54,1.63,30.47,4.12,36.74,5.17
		c15.17,2.53,28,5.16,37.72,7.31"/>
	<path class="st0" d="M1175.74,1766.83"/>
	<path class="st0" d="M1300.12,1773.12c7.84-10.05,15.69-20.09,23.53-30.14"/>
	<path class="st0" d="M1221.44,1773.49c9.19-4.73,18.37-9.46,27.56-14.18"/>
	<path class="st0" d="M1536.04,1771.89c4.01-2.99,10.84-7.61,20.09-11.44c0,0,13.24-5.49,55.84-9.31l0,0
		c3.57-1.61,7.14-3.22,10.71-4.82"/>
	<path class="st0" d="M1551.54,1762.17c-13.41,0.27-26.82,0.54-40.24,0.81"/>
</g>
</svg>
