<?xml version="1.0" encoding="utf-8"?>
<!-- Generator: Adobe Illustrator 27.5.0, SVG Export Plug-In . SVG Version: 6.00 Build 0)  -->
<svg version="1.1" id="Layer_1" xmlns="http://www.w3.org/2000/svg" xmlns:xlink="http://www.w3.org/1999/xlink" x="0px" y="0px"
	 viewBox="0 0 2880 1800" style="enable-background:new 0 0 2880 1800;" xml:space="preserve">
<style type="text/css">
	.st0{fill:none;stroke:#4243AE;stroke-width:5;stroke-miterlimit:10;}
</style>
<g>
	<path class="st0" d="M5.3,648.7c129.1,8.7,238.8,12.9,322.9,15c63.5,1.6,111.9,2.6,180.1,2.4c131.1-0.3,230.2-5.3,295.3-8
		c191.5-8,124.4,2,740.3,0c251-0.8,333.5-2.7,469.7-3.4c53-0.2,106-0.3,158.9-0.3c235.8,0.1,471.6,2.3,707.4,6.8"/>
	<path class="st0" d="M0,681c221,23.8,397.2,25.8,519.5,22.9c53.5-1.3,173.6-5.9,413.6-15.9c55.6-2.3,121.7-4.5,206.3-6.4
		c67.7-1.5,39.9-0.4,394.8-5c91-1.2,164.4-2.2,221.2-3c59.1-0.8,108.1-1.5,130.4-1.8c0.3,0,11.8-0.2,12.1-0.2
		c43-0.6,312.7,3.6,981.9,16.6"/>
	<path class="st0" d="M2880,722c-197.1-6.8-349.1-12.6-453.7-16.8c-126.2-5.1-189.3-7.8-218.7-9.2c-177.3-8.5-223.6-13.5-352.8-13
		c-101.4,0.4-250,9.3-547.2,27.2c-137.9,8.3-177.9,11.7-429.5,27.2c-123.8,7.6-270.8,16.4-334.2,19.8C424,763.5,244.6,770.4,0,770.2
		"/>
	<path class="st0" d="M0,826.4c16.9,2.2,43.2,5.2,75.6,7.3c134.5,8.6,191.9-10.7,379.9-23.4c56.9-3.8,107.8-5.5,196.3-9.4
		c113.6-4.9,144.4-5.2,262.6-12.9c139-9,339.2-24,528.2-42c26-2.5,73-7,138.5-12.4c90.9-7.4,191.3-15.6,290.9-18.5
		c125.9-3.8,217.8,1.8,332.5,8.7c6.4,0.4,13.4,0.8,21.2,1.3c43.2,2.9,82.9,5.9,119.6,9c98.5,8.4,228.1,23,228.1,23
		c71.8,8,175.2,19,306.5,31"/>
	<path class="st0" d="M2880,875.9c-192.9-17.6-355.4-28.7-479.7-36c-181-10.5-285.2-12.6-372.3-13.6c-249.8-2.9-330.4,13-744.7,35.9
		c-109.4,6-264.4,13.8-575,24.7c-166.2,5.8-409,13.2-708.3,18"/>
	<path class="st0" d="M0,991.5c151.6,6.7,286.9,9.6,403.5,10.5c5.8,0,22.8,0.2,44.7,0.2c63.8,0.1,143.9-1.1,396.9-5.2
		c300.2-4.9,452.8-7.4,576.7-9.9c134.5-2.7,169.4-3.8,301.3-6.2c204.4-3.8,308.5-5.6,400-5c25.6,0.2,47.2,0.5,68,0.8
		c149.7,2.8,259.1,7.2,302.6,9c85.9,3.6,212.6,7.8,386.2,9.9"/>
	<path class="st0" d="M208.6,658.9c-32.6,42.9-66.7,71.3-92.3,89.5c-23.2,16.5-41.2,28.2-64.8,50.9c-26.1,25-42,48.5-51.6,64.7"/>
	<path class="st0" d="M486.9,666.2c-11.4,19.7-30.2,47.5-60.9,77.3c-17.2,16.8-33.6,29.6-69.3,55.7c-48.9,35.7-73.3,53.5-112.6,79.2
		C194.8,910.6,118.9,980.7,0,1143"/>
	<path class="st0" d="M770.7,659.5c-14.4,14.2-35.3,36-57.2,64.2c-21.8,28.1-24.8,37.6-43.3,60.6c-6.8,8.4-27.5,33.6-79.7,80.4
		c-62.7,56.3-68,51.5-102.2,85.3c-7.4,7.3-13.2,13.6-18.5,19.7c-31.2,36.2-61.1,82.9-61.1,82.9c-14.9,23.4-38.3,56.2-75.4,95.7"/>
	<path class="st0" d="M1044.3,656.3c-5.7,13.1-14,32-24.3,55c-13.1,29.3-19.5,44-24.2,53.2c-5.8,11.3-22.9,43.6-52,82.9
		c-38.6,52.1-47.7,48.2-74.5,85.3c-29,40.2-56.5,129.3-58.9,137.3c-6.5,21.8-14.2,48.2-22.5,78.3"/>
	<path class="st0" d="M1308.6,658.3c0.7,10.3,1.3,24.2,0.7,40.6c0,0-0.5,19.9-3.5,38.3c-6.6,41.5-23.9,64.1-39.8,97.7
		c-20.6,43.4-26.1,78.4-31.2,110.1c-8.2,51.3-5.2,91.2-3.5,113.8c2.9,37,9.3,68.5,15.6,92.5"/>
	<path class="st0" d="M1574.4,658c0.7,2.6,1.8,6.5,3.3,11.2c8.3,26.1,19.9,43.3,22.5,50.7c6.2,17.5,5.1,26,5.2,69.3
		c0.2,51,0.2,76.5,3.5,100.2c3.6,26.5,9.2,45.3,17.3,73c10.8,36.6,21.7,63.3,36.4,98.9c9.4,22.9,22.2,52.5,38.6,87"/>
	<path class="st0" d="M1838.6,656.2c-0.3,2-0.4,5,0.9,8.3c2.3,5.9,7.6,9.6,12.7,13c17.3,11.4,24.5,14.8,24.5,14.8
		c16,7.7,37.3,17.8,50.5,28.7c12,9.8,16.8,19.7,22.5,32.8c21.6,49.5,34.7,94.6,34.9,95.2c9.3,32.1,16.4,56.4,27.7,83.3
		c14.5,34.4,29.7,58.2,50.8,90.7c21.5,33.2,51.9,76.3,93.5,125.3"/>
	<path class="st0" d="M2111.1,654.4c0.2,2,0.7,5,2.9,8.3c8.1,12.2,30.7,14,47.3,18.1c27.6,6.9,45.7,15.7,72.7,28.9
		c16.9,8.2,39.2,19,57.7,36.3c22.2,20.6,28.1,40.1,34.6,56.9c5.8,15.1,24.3,45.3,61.2,105.5c35.4,57.7,70.5,99.9,94.7,128.6
		c26.8,31.8,61.6,69.9,105.5,111.3"/>
	<path class="st0" d="M2377.2,655.3c1.6,2.4,4.1,6,8.1,9.8c16.8,16.3,42.4,20.7,51.9,23.9c33.5,11.1,54.6,22.6,93.5,43.7
		c26.8,14.5,51.4,28,75.1,50.3c21.8,20.6,18.3,25.7,48.5,63.5c16.5,20.6,43.2,49.5,58.9,63.5c51.9,46.2,148.6,79.6,166.8,85.8"/>
</g>
</svg>
