<?xml version="1.0" encoding="utf-8"?>
<!-- Generator: Adobe Illustrator 27.5.0, SVG Export Plug-In . SVG Version: 6.00 Build 0)  -->
<svg version="1.1" id="Layer_1" xmlns="http://www.w3.org/2000/svg" xmlns:xlink="http://www.w3.org/1999/xlink" x="0px" y="0px"
	 viewBox="0 0 2880 1800" style="enable-background:new 0 0 2880 1800;" xml:space="preserve">
<style type="text/css">
	.st0{fill:none;stroke:#4243AE;stroke-width:5;stroke-miterlimit:10;}
	.st1{fill:#4243AE;stroke:#4243AE;stroke-width:5;stroke-miterlimit:10;}
</style>
<path class="st0" d="M1107.9,60.5c-40,15.4-160.7,65.5-282,177.7c-55.9,51.7-239,226-284.7,516.9c-42,267.5,57.8,470.9,109,575.5
	c36.3,74,111.6,223.2,272.6,341.2c55.8,40.9,142.5,102.9,266.5,119.1c33.1,4.3,108.6,14.2,193.8-8.1c20.8-5.4,39.8-12.2,119.1-34.3
	c39.1-10.9,59.2-16.5,82.8-22.2c48.1-11.6,54.2-10.6,119.1-24.2c34.4-7.2,75.3-15.9,127.2-30.3c34.8-9.6,56.6-15.7,84.8-26.2
	c0,0,59.3-22.2,113.1-54.5c62.3-37.4,183.4-159.1,254.4-341.2c56.1-143.9,118.3-421.7-12.1-710.8
	c-140.9-312.3-434.9-478.9-688.5-523C1339.8-26.1,1144.9,46.3,1107.9,60.5z"/>
<ellipse transform="matrix(0.8895 -0.4569 0.4569 0.8895 -52.3526 595.1857)" class="st1" cx="1204.5" cy="405.8" rx="82.7" ry="52.8"/>
<ellipse transform="matrix(0.9565 -0.2916 0.2916 0.9565 -68.254 371.0067)" class="st0" cx="1210.6" cy="414.5" rx="191.3" ry="151.7"/>
<ellipse transform="matrix(0.9565 -0.2916 0.2916 0.9565 -74.7541 375.4037)" class="st0" cx="1222.1" cy="438.5" rx="355.8" ry="279"/>
<path class="st0" d="M912.7,224.1c-30.4,28.6-105.8,101.3-141.3,220.1c-12.5,41.9-30.7,102.6-12.1,173.6
	c23.6,90.4,91.8,141.5,129.2,169.6c131,98.3,281,96.5,416,94.9c84.5-1,124.2-12.3,153.5-24.2c79.2-32.4,123.9-87.4,159.5-131.2
	c35.8-44.1,103.8-130,117.1-258.5c3.6-34.4,8.5-87.9-12.1-151.4c-42.3-130-155.2-189.9-181.7-203.9c-85-45-163-46.2-218.1-46.4
	C1277.3,66.4,1075.5,71,912.7,224.1z"/>
<path class="st0" d="M927.5,984.7c30.2,13.9,120.6,52.6,296.1,57.9c173.4,5.2,260,7.8,356.7-43.1
	c127.8-67.2,189.9-182.2,238.3-271.9c32.8-60.9,64.6-121.2,74-208.7c4.1-38.3,17.6-164-57.9-278.6
	c-58.5-88.8-148.7-137.9-181.1-155.5c-9.2-5-16.9-8.9-22.2-11.4C1549,38.8,1424.2,2.8,1275.3,18C989.7,47.3,797.7,246.3,718.9,384.3
	c-23.3,40.9-62.8,111.9-64.6,210c-1.4,75.8,20.4,133.6,30.3,156.8c31.5,74.3,78.3,118.3,107,144.7
	C806.7,909.7,852.2,949.9,927.5,984.7z"/>
<path class="st0" d="M597.7,557.4c-0.7,1.5-1.6,3.8-2.7,6.5c-9.7,24.4-17.2,56-14.8,121.8c0.9,24.9,1.9,52.1,7.4,81.4
	c19.2,102.9,83.7,177.3,115.1,214c66.1,77.2,135.6,115.9,185.8,143.4c41.8,22.9,137.4,73.9,270.6,88.8
	c121.4,13.6,208.8-10,373.6-54.5c108.1-29.2,163.4-44.7,222.1-86.8c76.9-55.2,117.8-121.2,161.5-191.8
	c32.1-51.8,75.7-123.5,101-228.2c15.2-63,34.3-141.9,12.1-240.3c-21.5-95.5-70.4-158.4-96.9-191.8
	c-63.1-79.4-134.5-123.2-177.7-145.4l-74.1-36"/>
<path class="st0" d="M544.6,735.1c-2.2,14.5-4.5,29-6.8,43.5c-0.3,13.8,0.1,29.4,2,46.5c1.7,16,4.4,30.4,7.4,43.1
	c12.6,51.2,38.5,129.9,94.9,212c48,69.8,97.5,112.3,127.2,137.3c42,35.4,113.4,94.6,224.1,131.2c39.8,13.2,99.6,33,177.7,30.3
	c90-3.1,107.7-32.7,250.4-72.7c118.9-33.3,118.5-16.1,226.2-48.5c85.4-25.7,156.7-47.2,232.2-103c87.2-64.4,131.9-138.9,169.6-201.9
	c37.4-62.4,83.6-141.3,101-256.4c18.8-124.7-7-221.3-14.1-246.3c-31.6-110.4-89.6-184.7-123.2-222.1l-46.6-53.3"/>
<path class="st0" d="M531.2,872.2c7.7,32,15.4,64,23.1,96c4.7,26,12.3,63.4,24.2,108c8.4,31.5,13.6,50.8,23.2,75.7
	c5.3,13.7,23.2,58,58.6,109c9.4,13.6,40.7,57.4,95.9,106c34.7,30.6,120.4,104.3,254.4,141.3c48.2,13.3,113.3,30.5,192.6,15.1
	c13.8-2.7,34.8-9.8,76.9-24.2c104.4-35.5,122.3-49.5,204.9-74.7c44.6-13.6,76.3-20.7,98.9-25.2c33.2-6.6,50.4-8.2,76.7-12.1
	c34-5.1,104-15.6,162.6-37.4c58.4-21.7,95.7-51.1,137.3-83.8c37.5-29.5,121.6-97,190.8-216.1c79.3-136.3,92.9-260.7,95.9-293.8
	c3.8-41.8,10.4-124.6-18.2-227.2c-28.5-102.2-78.3-174.5-111.1-215c-17.3-19.7-34.6-39.4-52-59.1"/>
<path class="st0" d="M2265.6,526c9.6,33,22.6,80.9,36.3,141c4.3,19,5.4,24.8,6.1,28.3c10.4,57.3,5.8,105.6-2,159.5
	c-13.4,92.7-20.1,139-35,179c-22.5,60.4-50.4,99-90.9,154.1c-39.5,53.8-99.2,126.8-184.4,204.6c-28.5,15.3-57,30.7-85.6,46
	c-28.6,11-72.3,26.3-126.9,39.7c-96.7,23.6-111.1,12.5-209.6,35.4c-46.4,10.8-114.6,27.1-194.1,66.2c-41,20.2-40.4,24.4-70.5,36.6
	c-82.2,33.3-156.5,32.2-185.8,27.7c-102.8-15.8-197.7-47.4-288.7-106.8c-7.9-7.9-15.8-11.9-27.7-19.8
	c-22.3-18.4-45.7-39.9-69.2-64.8c-10.9-11.6-21.1-23.1-30.5-34.3c-5.5-5.3-11.9-12.4-17.9-21.3c-7.8-11.5-12.5-22.4-15.5-31
	c-6.3-11.9-12.6-23.8-18.8-35.7c-6.3-11.9-12.6-23.8-18.8-35.7c-4.6-6.4-9.4-14-13.8-22.8c-2.3-4.5-4.2-8.9-5.9-13.1"/>
<path class="st0" d="M2342.2,791.4c5.4,75.7,1,133.9-3.9,172.4c-3.4,26.5-7.1,44.4-8.8,51.8c-3.3,15-12.4,53.7-37,111.7
	c-9.5,22.4-33.3,75.7-74.7,140c-17.8,27.6-45.6,70.4-90.9,119.8c-27.2,29.8-66.7,72.3-129.2,113.1c-39.4,25.7-75.2,42.4-101.6,53.2
	c-27.7,8.7-50.5,14.2-66,17.5c-17.9,3.8-21.1,3.8-72,12.8c-35.1,6.2-35.4,6.5-63.9,11.4c-34.3,5.9-39.4,6.4-60.6,10.1
	c-40.9,7.2-61.3,10.8-83.5,16.8c-49.2,13.5-90.9,33.4-108.4,41.7c-12.2,5.8-29.8,14.7-54.5,24.2c-3.4,1.3-13,4.9-32.3,12.1
	c-13.7,5.1-19.7,7.3-27.6,10.1c0,0-12.8,4.5-24.2,8.1c-12.8,4-63,16.5-129.9,14.1c-66.9-2.4-117.2-18.5-140.3-26.9
	c-12-4.4-21.9-8.5-29-11.7c-22.8-5.8-39.9-13.3-51.5-19.3c-7.9-4.1-12.4-7-28.3-16.2c-17.6-10.2-32.1-18.3-41.7-23.6
	c-9.7-9.2-20.2-18.7-31.6-28.3c-9.9-8.3-19.6-15.9-29-22.8c-6.5-6.7-13-13.6-19.6-20.9c-5.1-5.7-10-11.3-14.8-16.8
	c-3.3-3.9-6.6-7.8-9.9-11.8c-5-6.1-9.9-12.2-14.5-18.2"/>
<path class="st0" d="M1051,1750.7c29.7,8.1,122.9,31.9,212,28.7c19.2-0.7,50-2,88.8-12.1c24.9-6.5,31.9-11.1,64.9-23.4
	c65-24.1,63.5-18.2,138.7-41.7c66.3-20.8,78.5-25.7,111.7-33c40.1-8.8,46.2-6.8,96.2-17.5c8.1-1.7,46.4-10,96.9-24.9
	c49-14.4,73.4-21.7,101.6-35c41.6-19.7,69.5-40.9,88.2-55.2c29.8-22.8,110.4-106.1,208.1-228.1"/>
<path class="st0" d="M1149.4,381.3c-49.9-18.5-94.8-31.1-132.1-40c-66.2-15.8-109-25.9-165.1-22.2c-51.1,3.4-95,17.1-130,32.6"/>
<path class="st0" d="M1185.7,386.4c-40.4-29.7-77.7-52.6-109.2-70.1c-55.8-31-91.9-51-143.5-60.7c-47.1-8.9-90.2-6-125.8,0.7"/>
<path class="st0" d="M1177,372.9c-30.1-38.6-59-69.8-83.9-94.4c-32.7-32.2-66.4-64.3-118.7-93.8c-20.3-11.5-38.2-19.5-51-24.8"/>
<path class="st0" d="M1190.7,372.2c-27.3-46.1-46.7-84.8-59.3-111.6c-20.1-42.8-32.1-74.5-60-121c-13.7-22.8-26.1-40.6-34.4-52.1"/>
<path class="st0" d="M1193.2,353.1c-7.9-44.6-14-82.8-18.6-112.9c-12-78.6-14.6-108.7-14.1-142.7c0.3-24.8,2.2-45.2,3.8-58.8"/>
<path class="st0" d="M1214.9,350.6c2.8-63.3,8.3-115.6,13.5-154.8c4.9-37.1,9.6-63,21.5-92.9c11.8-29.4,27.3-54.5,31.6-61.2
	c7.8-12.4,15.2-22.4,20.9-29.9"/>
<path class="st0" d="M1228.3,345.6c12.5-49.8,27.4-90.4,39.8-120.1c19.5-46.7,33.9-81.4,65.3-121.2c9.4-11.9,33-40.3,70-69.3
	c17.7-13.9,33.9-24.3,46.5-31.7"/>
<path class="st0" d="M1238.5,351.3c17.1-32.7,42.3-76.5,78.1-124.5c26-35,54.4-73.2,96.2-109c32.9-28.2,94.5-72.5,191.4-97.7"/>
<path class="st0" d="M1252.6,356c20-22.3,49.2-54.1,86.2-90.9c44.5-44.3,66.9-66.3,98.3-89.5c53.3-39.5,101.2-59.7,129.2-71.3
	c33.8-14,68.2-27.6,116.4-33.7c36.2-4.6,66.9-3.2,88.4-0.9"/>
<path class="st0" d="M1258.7,362.1c45.2-41.4,88.3-72,123.8-94.2c8.8-5.5,62.7-38.8,131.9-67.3c49.7-20.5,87.4-31,128.6-42.4
	c72.1-20,104.3-22.8,113.8-23.6c36-2.8,64-0.7,80.8,0.7c37.7,3.1,69.5,9.7,93.6,16"/>
<path class="st0" d="M1279.6,356.7"/>
<path class="st0" d="M1270.1,366.1c39-21.4,91.5-48,155.5-74c45.7-18.6,104.8-42.4,185.8-61.2c56.5-13.2,109-25.4,181.1-24.9
	c86.8,0.7,154.3,20.7,189.8,33c51.6,17.9,92.2,39.9,120.7,57.7"/>
<path class="st0" d="M1267.3,386.4c39.7-20.1,93.8-43.8,160.3-62.9c82-23.5,146.7-29.6,183.8-32.9c89.2-7.9,157-2.6,196.5,0.7
	c45.8,3.8,91.5,7.8,150.8,23.6c17.6,4.7,57.7,15.5,101,35c43.5,19.6,116.5,60,189.2,142.3"/>
<path class="st0" d="M1267.4,393.7c73.2-13.7,135.4-20.5,181.7-24.2c97.5-7.7,229.3-17.2,388.4,17.5c39.4,8.6,95.3,20.8,160.2,48.5
	c70.8,30.2,207.6,102.3,330.6,274.4"/>
<path class="st0" d="M1260.1,402.5c29.1-1.9,70.3-3.4,119.8-1.4c48.9,2.1,85.2,6.8,140.7,14.1c69,9.1,103.5,13.7,145.4,22.9
	c17.3,3.8,89.1,19.9,179.7,55.2c71.8,27.9,123.1,55.4,160.2,75.4c46.7,25.2,77.7,42,117.1,71.3c54.5,40.5,88.8,77.8,97.6,87.5
	c20.4,22.5,47.7,53,73.4,99.6c24.8,45,38.5,87.5,46.2,121.3"/>
<path class="st0" d="M1247.9,407.9c10.8,2.6,26.8,6.4,46.3,10.4c60.1,12.3,84.4,12.9,122.6,19.9c36.8,6.8,64.9,16.4,121.2,35.7
	c58.4,20,102.9,39.2,123.8,48.5c58.8,26.1,98.4,48.4,159.5,82.8c76,42.8,129.3,77,166.2,101c60.3,39,81.5,55.3,91.5,63.3
	c24.7,19.5,59.8,47.5,98.3,91.5c17.4,20,44.1,50.9,70,97.6c13.8,25,35.4,64.5,47.8,121.2c10.1,46,10.3,85.7,8.5,113.4"/>
<path class="st0" d="M1243.2,417.3c19.1,5.4,48.2,14.3,82.8,28.3c18.6,7.5,26.5,11.5,84.8,39c74.5,35.2,73.2,34.1,96.9,45.8
	c41.3,20.3,67.8,33.3,91.5,47.1c54.7,31.8,85,62.1,127.9,101c44.3,40.1,7.6,3.8,182.4,150.1c161,134.8,181.2,156.3,197.9,175.7
	c44.3,51.1,85.7,100,109.7,177c19.9,64.1,19.5,120.9,16.1,158.2"/>
<path class="st0" d="M1234.5,415.2c19.9,13.3,50.8,33.8,88.8,58.6c60.5,39.3,77.2,49.1,105.7,68.7c57.6,39.5,98.5,74.4,118.5,91.5
	c21.5,18.5,46.8,41.4,168.9,170.3c59.4,62.7,89.1,94,109,116.4c60.6,68,101.8,114.3,150.1,183.8c57.4,82.6,45.8,84.3,106.3,176.3
	c8.6,13.1,25.6,38.5,38.4,76.1c3.5,10.4,12,37.3,15.5,73.4c2.5,26,1.5,48.5-0.2,65.7"/>
<path class="st0" d="M1233.8,423.3c16.7,18.5,42.5,46.3,75.4,78.8c39.3,38.7,69.1,64.7,84.1,78.1c68.7,61.1,121.1,119,161.5,163.6
	c79.9,88.2,151.8,167.5,211.3,282c22.2,42.8,43.2,83,61.2,141.3c15.9,51.1,13.6,64.8,32.3,109c23.5,55.7,55.1,100.1,63.9,112.4
	c21.4,29.5,35.5,43.1,58.6,81.4c19.6,32.6,24.9,48.7,27.6,63.3c5.5,30.4-0.3,56.4-5.4,72"/>
<path class="st0" d="M1214.9,419.3c16.6,24.7,40,59.3,68.7,100.3c44.4,63.5,66.6,95.2,91.5,125.9c33.1,40.8,64.7,79.6,113.1,123.8
	c24.2,22.1,44.8,38.5,70,71.3c16.2,21.2,26.5,38.9,42.4,66.6c19.8,34.5,35,61,50.5,98.9c9.9,24.3,27.9,69.1,37,129.9
	c4.9,32.6,5.8,60.3,6.7,87.5c1.9,57.1-2.8,57.9,0.7,85.5c6.1,48.9,25.8,84.9,41.1,112.4c15.8,28.5,15.9,20.6,62.6,90.2
	c30.5,45.4,41,64.5,48.5,89.5c7.8,26,9.3,48.6,9.4,63.5"/>
<path class="st0" d="M1214.9,419.3c7.3,23.9,17.9,56,32.3,93.6c12.7,33.2,22.8,59.4,38.4,90.2c11.8,23.4,37.1,72.7,82.1,124.5
	c7.3,8.4,37.6,39.5,98.3,101.6c15.5,15.9,21,21.5,28.9,31.6c12.7,16.3,20.7,30.3,51.8,98.3c22.6,49.2,25.4,57.3,28.3,68.6
	c2.3,9.4,7.8,33.7,7.4,67.3c-0.4,31.3-5.8,54.2-24.9,118.5c-30.2,101.5-35.2,105.5-37,134.6c-2.9,45.2,6,81.4,11.4,99.6
	c14.6,48.6,39.5,82.6,65.3,117.8c22.6,30.8,31.3,36.4,53.2,69.3c18.8,28.2,31.6,53.1,39.8,70.2"/>
<path class="st0" d="M1210.5,414.5c0.9,26,2.9,62.6,8.4,106.4c5.6,44.7,8.4,67.1,16.8,95.6c17.1,57.8,44.9,101.6,64.6,127.9
	c20.2,26.9,18.9,18.1,78.1,84.1c48.5,54.1,60.3,72.2,65.3,80.1c11.5,18.3,30.4,48.8,42.4,92.9c5.8,21.3,15.4,56.8,10.1,97.6
	c-5.5,42.7-22.6,54.5-65.3,130.6c-35.3,63-53,94.5-63.3,137.3c-5.9,24.6-18.3,78.8-2,142.7c7.9,31,20.5,54.1,45.8,100.3
	c17.1,31.3,29.6,53.8,52.5,78.8c23.5,25.6,47.4,42.4,64.4,52.7"/>
<path class="st0" d="M1207.6,416.6c-8.8,37-13.2,69.9-15.5,96.9c-1.5,17.8-3.3,49-1.3,88.2c1.6,30.6,2.5,48.3,8.1,72
	c3,12.8,11.8,46.1,34.3,83.5c19.7,32.8,27,30.7,72,84.8c30.3,36.5,49.6,64.7,63.3,84.8c23.5,34.6,35.2,51.9,41.1,69.3
	c15,45.1,5.9,85.9,1.3,105c-6.2,26.3-13.5,36.8-77.4,140c-36.9,59.7-44.2,72-54.5,92.9c-15.8,32.1-28.9,59.3-37.7,98.3
	c-3.1,13.6-11.1,53.5-7.4,105.7c3.3,46.4,14.5,80.7,18.2,91.5c10.2,29.8,25.9,74.1,66.6,113.8c21.3,20.8,42.7,33.7,57.8,41.4"/>
<path class="st0" d="M1198.8,417.9c-13.6,37.6-23.8,69.4-31,92.9c-20.6,67.5-23.3,89.5-24.2,97.6c-4.7,42.7-0.2,75.5,1.3,85.5
	c3.6,23.8,9.7,63.9,35.7,104.3c17.3,27,22.3,21.1,55.2,65.3c20,26.9,33.4,49.6,41.1,62.6c18,30.7,27.1,46.1,32.3,62.6
	c13.6,42.9,6.4,80.9,2.7,98.9c-5.9,29.2-19.8,54.7-47.1,104.3c-16.9,30.8-32,55.7-48.5,82.1c-66.1,106.2-70.1,100.7-84.1,133.9
	c-27.8,65.8-27.3,123.1-26.9,138c1.6,60.8,20.4,105.2,30.3,127.9c24.8,57.1,59,96.7,83.6,120.6"/>
<path class="st0" d="M1188,415.2c-34.2,73.8-58.2,124.7-73.4,156.8c-22.5,47.5-36.7,77-38.4,120.5c-1.3,36.2,6.8,64.2,12.1,82.1
	c15.8,52.8,34,61.3,72,137.3c22.6,45.2,33.9,67.8,37.7,95.6c6.9,51.2-8.5,92.8-21.5,126.5c-4.1,10.6-16.6,41.8-71.3,119.8
	c-62.1,88.6-70.5,83.3-94.9,129.2c-19.2,36.1-46.4,87.3-43.1,154.8c2.8,57.7,26.7,100.7,45.1,133.9c23.1,41.7,49.4,71.9,68.9,91.6"
	/>
<path class="st0" d="M1169.9,439.5c-38.9,49.8-70,94.3-93.6,129.9c-59.4,89.7-72,124.4-73.4,162.2c-0.8,22.2,2.3,41.6,6.1,64.6
	c2.1,12.8,6.5,37,31,115.1c19.4,62,23.3,68.1,23.6,88.2c0.4,28.9-7.1,49.1-19.5,82.8c-7.1,19.2-25.5,65.1-65.3,121.2
	c-26.4,37.2-30.8,34.6-59.9,76.1c-20.8,29.7-37.7,53.6-52.5,88.2c-14.1,32.9-31.4,72.9-27.6,124.5c2.8,38.1,16,68.2,32.3,105.7
	c10.5,24.2,21.2,43.4,29,56.7"/>
<path class="st0" d="M746.1,1493.6c-8.4-23-19.4-62.4-16.5-111.8c0.8-13.4,4.5-58.7,30.3-110.4c22-44,35.8-44.2,82.8-112.4
	c27.1-39.2,40.6-58.8,52.5-87.5c25.2-60.8,26.1-116.5,26.2-150.8c0.3-49.9-7.4-54.1-6.1-110.4c1.1-43.8,1.7-68,10.8-97.6
	c13.9-45,41.1-75.7,95.6-137.3c20.8-23.5,40.1-43,72-75.4c23.9-24.2,44.2-44,58.6-57.9"/>
<path class="st0" d="M1155.1,425.4c-30.1,20.1-66.5,44.9-107.7,74c-46.2,32.7-58.8,42.9-63.9,47.1c-45.7,37.4-75.1,70.4-94.9,92.9
	c-31,35.2-46.7,53.3-58.6,79.4c-10.7,23.7-17.3,49.3-20.9,63.3c-4.8,18.7-6.9,31.5-11.4,57.9c-9.8,57.1-14.7,85.7-15.5,89.5
	c-7.6,35-21.8,64-49.8,120.5c-40.2,81-47.4,79.8-61.2,115.1c-13.4,34.1-26.5,85.8-20.1,158.1"/>
<path class="st0" d="M1166.5,417.9c-42.9,14.5-97.3,35.8-157.5,67.3c-81.3,42.6-136.1,84.4-148.8,94.2
	C810.5,617.9,769,650,727.7,706c-46,62.3-67.7,121.7-80.8,158.2c-13.9,38.8-22.2,73.3-33.7,120.5c-10.9,44.9-16.3,67.3-19.5,96.2
	c-3.5,30.9-5.4,76.9,4.2,134.2"/>
<path class="st0" d="M1166.5,411.9c-25.7,5.9-63.7,14.8-109.7,26.2c-49.4,12.3-74.1,18.5-92.2,24.2c-71.9,22.8-123.3,52.9-152.1,70
	c-60.6,36-103.8,72.3-128.6,94.9c-27.1,24.7-48.7,44.6-70.7,77.4c-22.8,34-33.5,63.2-44.4,93.6c-12.7,35.3-27.6,86.5-35,151.3"/>
<path class="st0" d="M1177.9,408.5c-34-1.8-79.4-2.3-132.6,2.7c-39.4,3.7-68.8,9.1-92.2,13.5c-52.8,9.8-93.1,17.3-144,37
	c-43.5,16.8-75.4,35.1-90.9,44.4c-23.2,14-62.2,37.9-103,80.1c-22.7,23.4-39,45.4-49.8,61.4"/>
<path class="st0" d="M1161.1,401.1c-28.3-7.6-60.1-13.9-94.9-17.5c-38.1-3.9-67.3-3.2-114.4-2c-47,1.2-70.5,1.8-96.9,5.4
	c-36.1,4.8-84.5,11.7-139.3,38.4c-34,16.5-60,35.6-78.5,51.2"/>
</svg>
