<?xml version="1.0" encoding="utf-8"?>
<!-- Generator: Adobe Illustrator 27.5.0, SVG Export Plug-In . SVG Version: 6.00 Build 0)  -->
<svg version="1.1" id="Layer_1" xmlns="http://www.w3.org/2000/svg" xmlns:xlink="http://www.w3.org/1999/xlink" x="0px" y="0px"
	 viewBox="0 0 2000 2000" style="enable-background:new 0 0 2000 2000;" xml:space="preserve">
<style type="text/css">
	.st0{opacity:0.5;fill:#AEFF00;enable-background:new    ;}
	.st1{opacity:0.8;fill:#AEFF00;enable-background:new    ;}
	.st2{fill:#AEFF00;}
</style>
<g>
	<path class="st0" d="M9.1,1088.3H0.3l298.5-298.5H2000l-298.4,298.4L9.1,1088.3z M301.8,797.1L17.9,1081l1680.7,0l283.9-283.9
		L301.8,797.1L301.8,797.1z"/>
	<path class="st1" d="M52.9,1066.5l254.9-254.9h1639.6l-254.9,254.9L52.9,1066.5z M312.8,823.7L82.1,1054.4l1605.5,0l230.7-230.7
		H312.8z"/>
	<polygon class="st2" points="1715.1,1114.8 1259.1,1114.8 1259.1,1102.7 1710.1,1102.7 1903.4,909.4 1911.9,917.9 	"/>
	<polygon class="st2" points="98.6,969.8 90.1,961.3 287,764.4 742.9,764.4 742.9,776.5 292,776.5 	"/>
</g>
</svg>
