<?xml version="1.0" encoding="utf-8"?>
<!-- Generator: Adobe Illustrator 27.5.0, SVG Export Plug-In . SVG Version: 6.00 Build 0)  -->
<svg version="1.1" id="Layer_1" xmlns="http://www.w3.org/2000/svg" xmlns:xlink="http://www.w3.org/1999/xlink" x="0px" y="0px"
	 viewBox="0 0 2000 2000" style="enable-background:new 0 0 2000 2000;" xml:space="preserve">
<style type="text/css">
	.st0{opacity:0.25;fill:#AEFF00;enable-background:new    ;}
	.st1{opacity:0.5;fill:#AEFF00;enable-background:new    ;}
	.st2{fill:#AEFF00;}
</style>
<g>
	<path class="st0" d="M1969.1,1150.6H34.1V848.5h1934.9L1969.1,1150.6L1969.1,1150.6z M40.7,1144h1921.8V855H40.7V1144z"/>
	<path class="st1" d="M1949.4,1130.9H53.8V868.1h1895.7L1949.4,1130.9L1949.4,1130.9z M64.7,1120h1873.8V879H64.7V1120z"/>
	<polygon class="st2" points="1991.3,994.1 1980.4,994.1 1980.4,837.3 1503.1,837.3 1503.1,826.4 1991.3,826.4 	"/>
	<polygon class="st2" points="1991.3,1173.6 298.6,1173.6 298.6,1162.7 1980.4,1162.7 1980.4,1052.5 1991.3,1052.5 	"/>
	<polygon class="st2" points="230.2,1173.6 8.7,1173.6 8.7,1004.6 19.6,1004.6 19.6,1162.7 230.2,1162.7 	"/>
	<polygon class="st2" points="19.6,935.5 8.7,935.5 8.7,826.4 1445.9,826.4 1445.9,837.3 19.6,837.3 	"/>
</g>
</svg>
